<?xml version="1.0" encoding="UTF-8" standalone="no"?>
<!-- Created with Inkscape (http://www.inkscape.org/) -->

<svg
   version="1.1"
   id="svg1"
   width="154.74048"
   height="82.215813"
   viewBox="0 0 154.74048 82.215813"
   xmlns="http://www.w3.org/2000/svg"
   xmlns:svg="http://www.w3.org/2000/svg">
  <defs
     id="defs1" />
  <g
     id="g1"
     transform="translate(-0.41557017,-0.047487)">
    <g
       id="g42"
       transform="translate(-2.8905182e-8,-0.33131358)">
      <g
         id="g44">
        <path
           style="fill:#fc964a"
           d="m 66.269611,80.644313 c 0.358647,-1.428961 2.822258,-16.511761 2.842592,-23.798815 0.04122,-14.771857 -1.008666,-8.094681 64.038307,-7.849942 10.53153,0.03963 15.19308,-0.189921 18.83379,-0.257043 3.38942,-0.06249 2.99122,-0.708999 2.97354,1.379095 -0.0368,4.347043 0.0452,13.263828 0.14824,19.359665 0.1011,5.978988 0.0484,10.511564 -0.1547,12.499595 -0.0484,0.473865 0.29134,0.336445 -4.12134,0.372524 -5.34131,0.04367 -16.79278,-0.184613 -40.24802,-0.183735 -44.630431,0.0017 -44.964493,1.076767 -44.312409,-1.521344 z m 81.120799,-4.432392 c 1.13192,-2.188882 1.27751,-4.771045 0.67748,-12.014872 -0.83836,-10.120871 -2.05371,-13.381654 -2.09234,-5.613716 -0.0134,2.704167 -0.47559,6.873127 -1.02698,9.264355 -1.70291,7.384939 -0.0246,13.133794 2.44184,8.364233 z M 1.6622807,53.25 C 2.8905182e-8,0.33131358 2.8905182e-8,0.33131358 1.6622807,53.25 Z"
           id="path44" />
        <path
           style="fill:#2ec3a4"
           d="M 16.973792,29.768427 C 16.576675,14.37456 16.656972,8.2002615 16.77224,3.7684606 16.8814,-0.42851338 27.820609,0.51748412 42.289316,0.40797003 55.833066,0.30545696 67.849225,0.77394994 70.996017,0.7382051 100.58266,0.40212649 118.45618,0.2899043 129.33119,0.45198654 c 6.17252,0.0919958 10.08506,0.10668231 14.11187,0.001361 2.24584,-0.05874 1.84451,1.39235596 1.9041,3.29800406 0.0595,1.9035938 0.11007,4.1327926 0.0996,5.4995828 -0.0319,4.1527086 0.1329,9.3838036 0.10146,15.2490656 -0.0708,13.201345 -0.90819,24.142783 -1.06477,24.317295 -0.15658,0.174512 -28.6103,0.513353 -63.229253,0.878545 -39.804231,0.419891 -64.32987,6.072387 -64.246877,0.41813 0.07502,-5.110734 0.200011,-11.293038 -0.03352,-20.345543 z M 139.23196,5.2279344 c -0.92101,-0.6996362 -2.28679,-1.0371362 -3.03505,-0.75 -0.74827,0.2871361 -3.01118,0.5289563 -5.0287,0.5373784 C 128.43169,5.0267363 127.88098,5.276836 129,6 c 0.825,0.5331559 2.70021,0.9762652 4.16714,0.9846872 C 136.19493,7.0020706 138,12.566418 138,21.882554 c 0,9.273556 1.50863,6.162508 2.20327,-4.543496 0.61563,-9.4884551 0.4946,-10.997564 -0.97131,-12.1111236 z"
           id="path43" />
        <path
           style="fill:#e96402;fill-opacity:1"
           d="m 1.1526535,68.218562 c 0.1272278,-7.545209 0.079544,-15.040653 0.096821,-16.299875 0.00663,-0.483132 -0.00978,-0.711663 0.0022,-1.361992 0.00598,-0.324668 -0.2021919,-0.653005 1.0677336,-0.651346 3.1141864,0.0041 12.1639399,0.317406 34.3057569,0.260308 34.106431,-0.08795 32.702613,-0.05177 32.679327,0.424324 -0.105776,2.162574 -0.316218,8.274803 -0.213567,17.075676 0.0817,7.00475 -0.220216,11.639145 0.02716,14.460779 0.06456,0.736418 0.699388,0.39322 -2.443545,0.356324 C 61.479152,82.42177 49.896169,82.47496 37.667066,82.385 2.4014208,82.125599 1.2759359,83.435892 1.2477883,80.538014 1.2086325,76.506808 1.041011,74.839485 1.1526535,68.218562 Z"
           id="path42" />
        <path
           style="fill:#27a58a;fill-opacity:1;stroke-width:0.939958"
           d="m 16.773505,28.18936 c 0.07408,-11.449542 0.04631,-22.8235673 0.05637,-24.7343844 0.0038,-0.7331328 -0.0057,-1.0799191 0.0013,-2.0667665 0.0035,-0.49267023 -0.117723,-0.99090802 0.621669,-0.98839056 1.813181,0.006221 7.082241,0.48165045 19.973927,0.3950066 19.857873,-0.13346048 19.040525,-0.0785588 19.026967,0.64389406 -0.06159,3.2816165 -0.184113,12.5566708 -0.124346,25.9116298 0.04757,10.629417 -0.128217,17.66192 0.01581,21.943637 0.03759,1.117487 0.407206,0.596695 -1.422712,0.540701 -3.024924,-0.09257 -9.768913,-0.01214 -16.889094,-0.148407 -20.532806,-0.393629 -21.1881,1.594682 -21.204488,-2.802724 -0.0228,-6.117187 -0.120393,-8.647281 -0.05539,-18.694257 z"
           id="path42-8" />
      </g>
    </g>
  </g>
</svg>
