<?xml version="1.0" encoding="UTF-8" standalone="no"?>
<!-- Created with Inkscape (http://www.inkscape.org/) -->

<svg
   version="1.1"
   id="svg1"
   width="128.17799"
   height="238.04761"
   viewBox="0 0 128.17799 238.04761"
   xmlns="http://www.w3.org/2000/svg"
   xmlns:svg="http://www.w3.org/2000/svg">
  <defs
     id="defs1">
    <clipPath
       clipPathUnits="userSpaceOnUse"
       id="clipPath21">
      <path
         d="M 0,0 H 499.991 V 499.989 H 0 Z"
         transform="translate(-227.74801,-161.9258)"
         id="path21" />
    </clipPath>
    <clipPath
       clipPathUnits="userSpaceOnUse"
       id="clipPath23">
      <path
         d="M 0,0 H 499.991 V 499.989 H 0 Z"
         transform="translate(-211.91211,-211.125)"
         id="path23" />
    </clipPath>
    <clipPath
       clipPathUnits="userSpaceOnUse"
       id="clipPath25">
      <path
         d="m 211.912,211.125 c -10.605,-6.424 -16.897,-20.484 -17.964,-32.214 v 0 c -0.989,-10.898 4.697,-20.239 10.878,-28.975 v 0 c 3.077,-4.352 12.528,-12.584 16.256,-16.417 v 0 c -15.469,-5.727 -19.838,-17.278 -7.859,-23.449 v 0 c 6.846,-3.526 18.008,-0.047 35.854,3.809 v 0 c 2.73,-0.111 3.633,3.18 5.548,6.472 v 0 c 2.045,3.514 5.244,7.028 13.056,6.402 v 0 c 11.885,-0.261 10.612,-13.102 16.258,-12.874 v 0 c 17.846,-3.856 29.008,-7.335 35.854,-3.809 v 0 c 11.979,6.171 7.61,17.722 -7.858,23.449 v 0 c 3.726,3.833 13.178,12.065 16.254,16.417 v 0 c 6.182,8.736 11.868,18.077 10.88,28.975 v 0 c -1.067,11.73 -7.359,25.79 -17.964,32.214 v 0 c -0.002,0 -27.291,0.352 -54.596,0.515 v 0 c -27.307,-0.163 -54.595,-0.515 -54.597,-0.515"
         transform="translate(-210.43651,-161.8604)"
         id="path25" />
    </clipPath>
    <clipPath
       clipPathUnits="userSpaceOnUse"
       id="clipPath27">
      <path
         d="m 211.912,211.125 c -10.605,-6.424 -16.897,-20.484 -17.964,-32.214 v 0 c -0.989,-10.898 4.697,-20.239 10.878,-28.975 v 0 c 3.077,-4.352 12.528,-12.584 16.256,-16.417 v 0 c -15.469,-5.727 -19.838,-17.278 -7.859,-23.449 v 0 c 6.846,-3.526 18.008,-0.047 35.854,3.809 v 0 c 2.73,-0.111 3.633,3.18 5.548,6.472 v 0 c 2.045,3.514 5.244,7.028 13.056,6.402 v 0 c 11.885,-0.261 10.612,-13.102 16.258,-12.874 v 0 c 17.846,-3.856 29.008,-7.335 35.854,-3.809 v 0 c 11.979,6.171 7.61,17.722 -7.858,23.449 v 0 c 3.726,3.833 13.178,12.065 16.254,16.417 v 0 c 6.182,8.736 11.868,18.077 10.88,28.975 v 0 c -1.067,11.73 -7.359,25.79 -17.964,32.214 v 0 c -0.002,0 -27.291,0.352 -54.596,0.515 v 0 c -27.307,-0.163 -54.595,-0.515 -54.597,-0.515"
         transform="translate(-217.11181,-146.2725)"
         id="path27" />
    </clipPath>
    <clipPath
       clipPathUnits="userSpaceOnUse"
       id="clipPath29">
      <path
         d="m 211.912,211.125 c -10.605,-6.424 -16.897,-20.484 -17.964,-32.214 v 0 c -0.989,-10.898 4.697,-20.239 10.878,-28.975 v 0 c 3.077,-4.352 12.528,-12.584 16.256,-16.417 v 0 c -15.469,-5.727 -19.838,-17.278 -7.859,-23.449 v 0 c 6.846,-3.526 18.008,-0.047 35.854,3.809 v 0 c 2.73,-0.111 3.633,3.18 5.548,6.472 v 0 c 2.045,3.514 5.244,7.028 13.056,6.402 v 0 c 11.885,-0.261 10.612,-13.102 16.258,-12.874 v 0 c 17.846,-3.856 29.008,-7.335 35.854,-3.809 v 0 c 11.979,6.171 7.61,17.722 -7.858,23.449 v 0 c 3.726,3.833 13.178,12.065 16.254,16.417 v 0 c 6.182,8.736 11.868,18.077 10.88,28.975 v 0 c -1.067,11.73 -7.359,25.79 -17.964,32.214 v 0 c -0.002,0 -27.291,0.352 -54.596,0.515 v 0 c -27.307,-0.163 -54.595,-0.515 -54.597,-0.515"
         transform="translate(-206.95461,-180.6719)"
         id="path29" />
    </clipPath>
    <clipPath
       clipPathUnits="userSpaceOnUse"
       id="clipPath31">
      <path
         d="m 211.912,211.125 c -10.605,-6.424 -16.897,-20.484 -17.964,-32.214 v 0 c -0.989,-10.898 4.697,-20.239 10.878,-28.975 v 0 c 3.077,-4.352 12.528,-12.584 16.256,-16.417 v 0 c -15.469,-5.727 -19.838,-17.278 -7.859,-23.449 v 0 c 6.846,-3.526 18.008,-0.047 35.854,3.809 v 0 c 2.73,-0.111 3.633,3.18 5.548,6.472 v 0 c 2.045,3.514 5.244,7.028 13.056,6.402 v 0 c 11.885,-0.261 10.612,-13.102 16.258,-12.874 v 0 c 17.846,-3.856 29.008,-7.335 35.854,-3.809 v 0 c 11.979,6.171 7.61,17.722 -7.858,23.449 v 0 c 3.726,3.833 13.178,12.065 16.254,16.417 v 0 c 6.182,8.736 11.868,18.077 10.88,28.975 v 0 c -1.067,11.73 -7.359,25.79 -17.964,32.214 v 0 c -0.002,0 -27.291,0.352 -54.596,0.515 v 0 c -27.307,-0.163 -54.595,-0.515 -54.597,-0.515"
         transform="translate(-321.92191,-161.96)"
         id="path31" />
    </clipPath>
    <clipPath
       clipPathUnits="userSpaceOnUse"
       id="clipPath33">
      <path
         d="m 211.912,211.125 c -10.605,-6.424 -16.897,-20.484 -17.964,-32.214 v 0 c -0.989,-10.898 4.697,-20.239 10.878,-28.975 v 0 c 3.077,-4.352 12.528,-12.584 16.256,-16.417 v 0 c -15.469,-5.727 -19.838,-17.278 -7.859,-23.449 v 0 c 6.846,-3.526 18.008,-0.047 35.854,3.809 v 0 c 2.73,-0.111 3.633,3.18 5.548,6.472 v 0 c 2.045,3.514 5.244,7.028 13.056,6.402 v 0 c 11.885,-0.261 10.612,-13.102 16.258,-12.874 v 0 c 17.846,-3.856 29.008,-7.335 35.854,-3.809 v 0 c 11.979,6.171 7.61,17.722 -7.858,23.449 v 0 c 3.726,3.833 13.178,12.065 16.254,16.417 v 0 c 6.182,8.736 11.868,18.077 10.88,28.975 v 0 c -1.067,11.73 -7.359,25.79 -17.964,32.214 v 0 c -0.002,0 -27.291,0.352 -54.596,0.515 v 0 c -27.307,-0.163 -54.595,-0.515 -54.597,-0.515"
         transform="translate(-315.24611,-146.3721)"
         id="path33" />
    </clipPath>
    <clipPath
       clipPathUnits="userSpaceOnUse"
       id="clipPath35">
      <path
         d="m 211.912,211.125 c -10.605,-6.424 -16.897,-20.484 -17.964,-32.214 v 0 c -0.989,-10.898 4.697,-20.239 10.878,-28.975 v 0 c 3.077,-4.352 12.528,-12.584 16.256,-16.417 v 0 c -15.469,-5.727 -19.838,-17.278 -7.859,-23.449 v 0 c 6.846,-3.526 18.008,-0.047 35.854,3.809 v 0 c 2.73,-0.111 3.633,3.18 5.548,6.472 v 0 c 2.045,3.514 5.244,7.028 13.056,6.402 v 0 c 11.885,-0.261 10.612,-13.102 16.258,-12.874 v 0 c 17.846,-3.856 29.008,-7.335 35.854,-3.809 v 0 c 11.979,6.171 7.61,17.722 -7.858,23.449 v 0 c 3.726,3.833 13.178,12.065 16.254,16.417 v 0 c 6.182,8.736 11.868,18.077 10.88,28.975 v 0 c -1.067,11.73 -7.359,25.79 -17.964,32.214 v 0 c -0.002,0 -27.291,0.352 -54.596,0.515 v 0 c -27.307,-0.163 -54.595,-0.515 -54.597,-0.515"
         transform="translate(-325.40331,-180.7715)"
         id="path35" />
    </clipPath>
    <clipPath
       clipPathUnits="userSpaceOnUse"
       id="clipPath37">
      <path
         d="M 0,0 H 499.991 V 499.989 H 0 Z"
         transform="translate(-216.9727,-225.06741)"
         id="path37" />
    </clipPath>
    <clipPath
       clipPathUnits="userSpaceOnUse"
       id="clipPath39">
      <path
         d="M 0,0 H 499.991 V 499.989 H 0 Z"
         transform="translate(-314.62701,-225.06741)"
         id="path39" />
    </clipPath>
    <clipPath
       clipPathUnits="userSpaceOnUse"
       id="clipPath41">
      <path
         d="m 276.798,216.016 c 0,0 3.479,-10.91 4.41,-21.12 v 0 c 0.927,-10.214 -8.358,-41.083 -8.124,-56.629 v 0 c 0.233,-15.554 10.675,-24.141 17.638,-20.66 v 0 c 6.965,3.481 22.761,28.446 28.087,54.775 v 0 c 4.045,20.025 -1.193,47.016 -4.183,52.686 v 0 c -14.921,28.305 -24.208,38.032 -29.928,38.029 v 0 c -12.582,-0.007 -7.9,-47.081 -7.9,-47.081"
         transform="translate(-291.03711,-139.90721)"
         id="path41" />
    </clipPath>
    <clipPath
       clipPathUnits="userSpaceOnUse"
       id="clipPath43">
      <path
         d="m 276.798,216.016 c 0,0 3.479,-10.91 4.41,-21.12 v 0 c 0.927,-10.214 -8.358,-41.083 -8.124,-56.629 v 0 c 0.233,-15.554 10.675,-24.141 17.638,-20.66 v 0 c 6.965,3.481 22.761,28.446 28.087,54.775 v 0 c 4.045,20.025 -1.193,47.016 -4.183,52.686 v 0 c -14.921,28.305 -24.208,38.032 -29.928,38.029 v 0 c -12.582,-0.007 -7.9,-47.081 -7.9,-47.081"
         transform="translate(-312.12701,-154.0205)"
         id="path43" />
    </clipPath>
    <clipPath
       clipPathUnits="userSpaceOnUse"
       id="clipPath45">
      <path
         d="m 276.798,216.016 c 0,0 3.479,-10.91 4.41,-21.12 v 0 c 0.927,-10.214 -8.358,-41.083 -8.124,-56.629 v 0 c 0.233,-15.554 10.675,-24.141 17.638,-20.66 v 0 c 6.965,3.481 22.761,28.446 28.087,54.775 v 0 c 4.045,20.025 -1.193,47.016 -4.183,52.686 v 0 c -14.921,28.305 -24.208,38.032 -29.928,38.029 v 0 c -12.582,-0.007 -7.9,-47.081 -7.9,-47.081"
         transform="translate(-300.00101,-177.1221)"
         id="path45" />
    </clipPath>
    <clipPath
       clipPathUnits="userSpaceOnUse"
       id="clipPath47">
      <path
         d="m 276.798,216.016 c 0,0 3.479,-10.91 4.41,-21.12 v 0 c 0.927,-10.214 -8.358,-41.083 -8.124,-56.629 v 0 c 0.233,-15.554 10.675,-24.141 17.638,-20.66 v 0 c 6.965,3.481 22.761,28.446 28.087,54.775 v 0 c 4.045,20.025 -1.193,47.016 -4.183,52.686 v 0 c -14.921,28.305 -24.208,38.032 -29.928,38.029 v 0 c -12.582,-0.007 -7.9,-47.081 -7.9,-47.081"
         transform="translate(-321.70901,-190.40921)"
         id="path47" />
    </clipPath>
    <clipPath
       clipPathUnits="userSpaceOnUse"
       id="clipPath49">
      <path
         d="m 276.798,216.016 c 0,0 3.479,-10.91 4.41,-21.12 v 0 c 0.927,-10.214 -8.358,-41.083 -8.124,-56.629 v 0 c 0.233,-15.554 10.675,-24.141 17.638,-20.66 v 0 c 6.965,3.481 22.761,28.446 28.087,54.775 v 0 c 4.045,20.025 -1.193,47.016 -4.183,52.686 v 0 c -14.921,28.305 -24.208,38.032 -29.928,38.029 v 0 c -12.582,-0.007 -7.9,-47.081 -7.9,-47.081"
         transform="translate(-315.38571,-228.85251)"
         id="path49" />
    </clipPath>
    <clipPath
       clipPathUnits="userSpaceOnUse"
       id="clipPath51">
      <path
         d="M 0,0 H 499.991 V 499.989 H 0 Z"
         transform="translate(-261.3076,-266.3877)"
         id="path51" />
    </clipPath>
    <clipPath
       clipPathUnits="userSpaceOnUse"
       id="clipPath53">
      <path
         d="M 0,0 H 499.991 V 499.989 H 0 Z"
         transform="translate(-258.8311,-383.44971)"
         id="path53" />
    </clipPath>
    <clipPath
       clipPathUnits="userSpaceOnUse"
       id="clipPath55">
      <path
         d="M 0,0 H 499.991 V 499.989 H 0 Z"
         transform="translate(-266.74801,-381.96241)"
         id="path55" />
    </clipPath>
    <clipPath
       clipPathUnits="userSpaceOnUse"
       id="clipPath57">
      <path
         d="M 0,0 H 499.991 V 499.989 H 0 Z"
         transform="translate(-191.69481,-361.10641)"
         id="path57" />
    </clipPath>
    <clipPath
       clipPathUnits="userSpaceOnUse"
       id="clipPath59">
      <path
         d="M 0,0 H 499.991 V 499.989 H 0 Z"
         transform="translate(-186.0063,-355.40281)"
         id="path59" />
    </clipPath>
    <clipPath
       clipPathUnits="userSpaceOnUse"
       id="clipPath61">
      <path
         d="M 0,0 H 499.991 V 499.989 H 0 Z"
         transform="translate(-175.43901,-356.28371)"
         id="path61" />
    </clipPath>
    <clipPath
       clipPathUnits="userSpaceOnUse"
       id="clipPath63">
      <path
         d="m 175.439,356.284 c -18.772,-28.403 -13.378,-73.006 5.159,-102.757 v 0 c 0,0 -1.578,-1.233 -1.383,-8.614 v 0 c 0.196,-7.38 -0.163,-10.021 0.533,-8.467 v 0 c 0.695,1.555 7.451,6.327 7.451,6.327 v 0 c 0,0 0.196,-4.85 1.676,-12.576 v 0 c 1.479,-7.729 2.223,-9.284 2.223,-9.284 v 0 l 9.2,14.61 c 0,0 2.398,-10.271 2.882,-8.038 v 0 c 0.485,2.234 3.734,6.515 3.734,6.515 v 0 c 0,0 9.535,-1.658 25.012,-0.136 v 0 c 28.245,2.778 43.838,7.611 68.704,21.291 v 0 c 13.626,7.498 20.551,14.258 20.551,14.258 v 0 c 0,0 5.101,-1.694 6.765,-3.261 v 0 c 1.661,-1.569 -2.168,8.258 -2.168,8.258 v 0 l 15.848,-6.846 c 0,0 -0.266,1.703 -3.415,8.912 v 0 c -3.149,7.21 -5.731,11.321 -5.731,11.321 v 0 c 0,0 8.272,-0.115 9.724,-1.004 v 0 c 1.452,-0.889 -0.337,1.086 -4.349,7.284 v 0 c -4.013,6.198 -6.012,6.323 -6.012,6.323 v 0 c -1.537,35.018 -22.31,74.855 -53.854,87.665 v 0 c -3.548,1.441 -8.31,2.095 -13.844,2.095 v 0 c -28.554,0.002 -77.812,-17.393 -88.706,-33.876"
         transform="translate(-392.84081,-304.60941)"
         id="path63" />
    </clipPath>
    <clipPath
       clipPathUnits="userSpaceOnUse"
       id="clipPath65">
      <path
         d="m 175.439,356.284 c -18.772,-28.403 -13.378,-73.006 5.159,-102.757 v 0 c 0,0 -1.578,-1.233 -1.383,-8.614 v 0 c 0.196,-7.38 -0.163,-10.021 0.533,-8.467 v 0 c 0.695,1.555 7.451,6.327 7.451,6.327 v 0 c 0,0 0.196,-4.85 1.676,-12.576 v 0 c 1.479,-7.729 2.223,-9.284 2.223,-9.284 v 0 l 9.2,14.61 c 0,0 2.398,-10.271 2.882,-8.038 v 0 c 0.485,2.234 3.734,6.515 3.734,6.515 v 0 c 0,0 9.535,-1.658 25.012,-0.136 v 0 c 28.245,2.778 43.838,7.611 68.704,21.291 v 0 c 13.626,7.498 20.551,14.258 20.551,14.258 v 0 c 0,0 5.101,-1.694 6.765,-3.261 v 0 c 1.661,-1.569 -2.168,8.258 -2.168,8.258 v 0 l 15.848,-6.846 c 0,0 -0.266,1.703 -3.415,8.912 v 0 c -3.149,7.21 -5.731,11.321 -5.731,11.321 v 0 c 0,0 8.272,-0.115 9.724,-1.004 v 0 c 1.452,-0.889 -0.337,1.086 -4.349,7.284 v 0 c -4.013,6.198 -6.012,6.323 -6.012,6.323 v 0 c -1.537,35.018 -22.31,74.855 -53.854,87.665 v 0 c -3.548,1.441 -8.31,2.095 -13.844,2.095 v 0 c -28.554,0.002 -77.812,-17.393 -88.706,-33.876"
         transform="translate(-388.41991,-291.10841)"
         id="path65" />
    </clipPath>
    <clipPath
       clipPathUnits="userSpaceOnUse"
       id="clipPath67">
      <path
         d="m 175.439,356.284 c -18.772,-28.403 -13.378,-73.006 5.159,-102.757 v 0 c 0,0 -1.578,-1.233 -1.383,-8.614 v 0 c 0.196,-7.38 -0.163,-10.021 0.533,-8.467 v 0 c 0.695,1.555 7.451,6.327 7.451,6.327 v 0 c 0,0 0.196,-4.85 1.676,-12.576 v 0 c 1.479,-7.729 2.223,-9.284 2.223,-9.284 v 0 l 9.2,14.61 c 0,0 2.398,-10.271 2.882,-8.038 v 0 c 0.485,2.234 3.734,6.515 3.734,6.515 v 0 c 0,0 9.535,-1.658 25.012,-0.136 v 0 c 28.245,2.778 43.838,7.611 68.704,21.291 v 0 c 13.626,7.498 20.551,14.258 20.551,14.258 v 0 c 0,0 5.101,-1.694 6.765,-3.261 v 0 c 1.661,-1.569 -2.168,8.258 -2.168,8.258 v 0 l 15.848,-6.846 c 0,0 -0.266,1.703 -3.415,8.912 v 0 c -3.149,7.21 -5.731,11.321 -5.731,11.321 v 0 c 0,0 8.272,-0.115 9.724,-1.004 v 0 c 1.452,-0.889 -0.337,1.086 -4.349,7.284 v 0 c -4.013,6.198 -6.012,6.323 -6.012,6.323 v 0 c -1.537,35.018 -22.31,74.855 -53.854,87.665 v 0 c -3.548,1.441 -8.31,2.095 -13.844,2.095 v 0 c -28.554,0.002 -77.812,-17.393 -88.706,-33.876"
         transform="translate(-396.50591,-323.16021)"
         id="path67" />
    </clipPath>
    <clipPath
       clipPathUnits="userSpaceOnUse"
       id="clipPath69">
      <path
         d="m 175.439,356.284 c -18.772,-28.403 -13.378,-73.006 5.159,-102.757 v 0 c 0,0 -1.578,-1.233 -1.383,-8.614 v 0 c 0.196,-7.38 -0.163,-10.021 0.533,-8.467 v 0 c 0.695,1.555 7.451,6.327 7.451,6.327 v 0 c 0,0 0.196,-4.85 1.676,-12.576 v 0 c 1.479,-7.729 2.223,-9.284 2.223,-9.284 v 0 l 9.2,14.61 c 0,0 2.398,-10.271 2.882,-8.038 v 0 c 0.485,2.234 3.734,6.515 3.734,6.515 v 0 c 0,0 9.535,-1.658 25.012,-0.136 v 0 c 28.245,2.778 43.838,7.611 68.704,21.291 v 0 c 13.626,7.498 20.551,14.258 20.551,14.258 v 0 c 0,0 5.101,-1.694 6.765,-3.261 v 0 c 1.661,-1.569 -2.168,8.258 -2.168,8.258 v 0 l 15.848,-6.846 c 0,0 -0.266,1.703 -3.415,8.912 v 0 c -3.149,7.21 -5.731,11.321 -5.731,11.321 v 0 c 0,0 8.272,-0.115 9.724,-1.004 v 0 c 1.452,-0.889 -0.337,1.086 -4.349,7.284 v 0 c -4.013,6.198 -6.012,6.323 -6.012,6.323 v 0 c -1.537,35.018 -22.31,74.855 -53.854,87.665 v 0 c -3.548,1.441 -8.31,2.095 -13.844,2.095 v 0 c -28.554,0.002 -77.812,-17.393 -88.706,-33.876"
         transform="translate(-131.21241,-222.6045)"
         id="path69" />
    </clipPath>
    <clipPath
       clipPathUnits="userSpaceOnUse"
       id="clipPath71">
      <path
         d="m 175.439,356.284 c -18.772,-28.403 -13.378,-73.006 5.159,-102.757 v 0 c 0,0 -1.578,-1.233 -1.383,-8.614 v 0 c 0.196,-7.38 -0.163,-10.021 0.533,-8.467 v 0 c 0.695,1.555 7.451,6.327 7.451,6.327 v 0 c 0,0 0.196,-4.85 1.676,-12.576 v 0 c 1.479,-7.729 2.223,-9.284 2.223,-9.284 v 0 l 9.2,14.61 c 0,0 2.398,-10.271 2.882,-8.038 v 0 c 0.485,2.234 3.734,6.515 3.734,6.515 v 0 c 0,0 9.535,-1.658 25.012,-0.136 v 0 c 28.245,2.778 43.838,7.611 68.704,21.291 v 0 c 13.626,7.498 20.551,14.258 20.551,14.258 v 0 c 0,0 5.101,-1.694 6.765,-3.261 v 0 c 1.661,-1.569 -2.168,8.258 -2.168,8.258 v 0 l 15.848,-6.846 c 0,0 -0.266,1.703 -3.415,8.912 v 0 c -3.149,7.21 -5.731,11.321 -5.731,11.321 v 0 c 0,0 8.272,-0.115 9.724,-1.004 v 0 c 1.452,-0.889 -0.337,1.086 -4.349,7.284 v 0 c -4.013,6.198 -6.012,6.323 -6.012,6.323 v 0 c -1.537,35.018 -22.31,74.855 -53.854,87.665 v 0 c -3.548,1.441 -8.31,2.095 -13.844,2.095 v 0 c -28.554,0.002 -77.812,-17.393 -88.706,-33.876"
         transform="translate(-142.4937,-213.96971)"
         id="path71" />
    </clipPath>
    <clipPath
       clipPathUnits="userSpaceOnUse"
       id="clipPath73">
      <path
         d="m 175.439,356.284 c -18.772,-28.403 -13.378,-73.006 5.159,-102.757 v 0 c 0,0 -1.578,-1.233 -1.383,-8.614 v 0 c 0.196,-7.38 -0.163,-10.021 0.533,-8.467 v 0 c 0.695,1.555 7.451,6.327 7.451,6.327 v 0 c 0,0 0.196,-4.85 1.676,-12.576 v 0 c 1.479,-7.729 2.223,-9.284 2.223,-9.284 v 0 l 9.2,14.61 c 0,0 2.398,-10.271 2.882,-8.038 v 0 c 0.485,2.234 3.734,6.515 3.734,6.515 v 0 c 0,0 9.535,-1.658 25.012,-0.136 v 0 c 28.245,2.778 43.838,7.611 68.704,21.291 v 0 c 13.626,7.498 20.551,14.258 20.551,14.258 v 0 c 0,0 5.101,-1.694 6.765,-3.261 v 0 c 1.661,-1.569 -2.168,8.258 -2.168,8.258 v 0 l 15.848,-6.846 c 0,0 -0.266,1.703 -3.415,8.912 v 0 c -3.149,7.21 -5.731,11.321 -5.731,11.321 v 0 c 0,0 8.272,-0.115 9.724,-1.004 v 0 c 1.452,-0.889 -0.337,1.086 -4.349,7.284 v 0 c -4.013,6.198 -6.012,6.323 -6.012,6.323 v 0 c -1.537,35.018 -22.31,74.855 -53.854,87.665 v 0 c -3.548,1.441 -8.31,2.095 -13.844,2.095 v 0 c -28.554,0.002 -77.812,-17.393 -88.706,-33.876"
         transform="translate(-118,-236.84961)"
         id="path73" />
    </clipPath>
    <clipPath
       clipPathUnits="userSpaceOnUse"
       id="clipPath75">
      <path
         d="M 0,0 H 499.991 V 499.989 H 0 Z"
         transform="translate(-232.62741,-261.75)"
         id="path75" />
    </clipPath>
    <clipPath
       clipPathUnits="userSpaceOnUse"
       id="clipPath77">
      <path
         d="M 0,0 H 499.991 V 499.989 H 0 Z"
         transform="translate(-237.59181,-265.48191)"
         id="path77" />
    </clipPath>
    <clipPath
       clipPathUnits="userSpaceOnUse"
       id="clipPath79">
      <path
         d="M 0,0 H 499.991 V 499.989 H 0 Z"
         transform="translate(-254.2852,-279.64011)"
         id="path79" />
    </clipPath>
    <clipPath
       clipPathUnits="userSpaceOnUse"
       id="clipPath81">
      <path
         d="M 0,0 H 499.991 V 499.989 H 0 Z"
         transform="translate(-213.11131,-266.8794)"
         id="path81" />
    </clipPath>
    <clipPath
       clipPathUnits="userSpaceOnUse"
       id="clipPath83">
      <path
         d="M 0,0 H 499.991 V 499.989 H 0 Z"
         transform="translate(-253.88671,-287.6274)"
         id="path83" />
    </clipPath>
    <clipPath
       clipPathUnits="userSpaceOnUse"
       id="clipPath85">
      <path
         d="M 0,0 H 499.991 V 499.989 H 0 Z"
         transform="translate(-227.13331,-288.88331)"
         id="path85" />
    </clipPath>
    <clipPath
       clipPathUnits="userSpaceOnUse"
       id="clipPath87">
      <path
         d="M 0,0 H 499.991 V 499.989 H 0 Z"
         transform="translate(-207.4927,-305.94821)"
         id="path87" />
    </clipPath>
    <clipPath
       clipPathUnits="userSpaceOnUse"
       id="clipPath89">
      <path
         d="M 0,0 H 499.991 V 499.989 H 0 Z"
         transform="translate(-278.70211,-329.90721)"
         id="path89" />
    </clipPath>
    <clipPath
       clipPathUnits="userSpaceOnUse"
       id="clipPath91">
      <path
         d="M 0,0 H 499.991 V 499.989 H 0 Z"
         transform="translate(-175.624,-274.08981)"
         id="path91" />
    </clipPath>
    <clipPath
       clipPathUnits="userSpaceOnUse"
       id="clipPath93">
      <path
         d="M 0,0 H 499.991 V 499.989 H 0 Z"
         transform="translate(-185.5771,-260.58401)"
         id="path93" />
    </clipPath>
    <clipPath
       clipPathUnits="userSpaceOnUse"
       id="clipPath95">
      <path
         d="M 0,0 H 499.991 V 499.989 H 0 Z"
         transform="translate(-186.6621,-244.75391)"
         id="path95" />
    </clipPath>
    <clipPath
       clipPathUnits="userSpaceOnUse"
       id="clipPath97">
      <path
         d="M 0,0 H 499.991 V 499.989 H 0 Z"
         transform="translate(-325.91211,-320.98681)"
         id="path97" />
    </clipPath>
    <clipPath
       clipPathUnits="userSpaceOnUse"
       id="clipPath99">
      <path
         d="M 0,0 H 499.991 V 499.989 H 0 Z"
         transform="translate(-325.34081,-304.21971)"
         id="path99" />
    </clipPath>
    <clipPath
       clipPathUnits="userSpaceOnUse"
       id="clipPath101">
      <path
         d="M 0,0 H 499.991 V 499.989 H 0 Z"
         transform="translate(-333.39841,-290.5503)"
         id="path101" />
    </clipPath>
    <clipPath
       clipPathUnits="userSpaceOnUse"
       id="clipPath103">
      <path
         d="M 0,0 H 499.991 V 499.989 H 0 Z"
         transform="translate(-189.8286,-348.56841)"
         id="path103" />
    </clipPath>
    <clipPath
       clipPathUnits="userSpaceOnUse"
       id="clipPath105">
      <path
         d="M 0,0 H 499.991 V 499.989 H 0 Z"
         transform="translate(-200.9971,-341.39161)"
         id="path105" />
    </clipPath>
    <clipPath
       clipPathUnits="userSpaceOnUse"
       id="clipPath107">
      <path
         d="M 0,0 H 499.991 V 499.989 H 0 Z"
         transform="translate(-194.70651,-363.18211)"
         id="path107" />
    </clipPath>
    <clipPath
       clipPathUnits="userSpaceOnUse"
       id="clipPath109">
      <path
         d="M 0,0 H 499.991 V 499.989 H 0 Z"
         transform="translate(-238.48,-186.37301)"
         id="path109" />
    </clipPath>
    <clipPath
       clipPathUnits="userSpaceOnUse"
       id="clipPath111">
      <path
         d="M 0,0 H 499.991 V 499.989 H 0 Z"
         transform="translate(-291.25,-175.0361)"
         id="path111" />
    </clipPath>
    <clipPath
       clipPathUnits="userSpaceOnUse"
       id="clipPath113">
      <path
         d="M 0,0 H 499.991 V 499.989 H 0 Z"
         transform="translate(-242.65581,-137.24411)"
         id="path113" />
    </clipPath>
    <clipPath
       clipPathUnits="userSpaceOnUse"
       id="clipPath115">
      <path
         d="M 0,0 H 499.991 V 499.989 H 0 Z"
         transform="translate(-220.90381,-151.50491)"
         id="path115" />
    </clipPath>
    <clipPath
       clipPathUnits="userSpaceOnUse"
       id="clipPath117">
      <path
         d="M 0,0 H 499.991 V 499.989 H 0 Z"
         transform="translate(-233.02981,-174.60641)"
         id="path117" />
    </clipPath>
    <clipPath
       clipPathUnits="userSpaceOnUse"
       id="clipPath119">
      <path
         d="M 0,0 H 499.991 V 499.989 H 0 Z"
         transform="translate(-211.32181,-187.8936)"
         id="path119" />
    </clipPath>
    <clipPath
       clipPathUnits="userSpaceOnUse"
       id="clipPath121">
      <path
         d="M 0,0 H 499.991 V 499.989 H 0 Z"
         transform="translate(-217.64451,-226.33691)"
         id="path121" />
    </clipPath>
    <clipPath
       clipPathUnits="userSpaceOnUse"
       id="clipPath123">
      <path
         d="M 0,0 H 499.991 V 499.989 H 0 Z"
         transform="translate(-110.9746,-191.457)"
         id="path123" />
    </clipPath>
    <clipPath
       clipPathUnits="userSpaceOnUse"
       id="clipPath125">
      <path
         d="M 0,0 H 499.991 V 499.989 H 0 Z"
         transform="translate(-131.2476,-188.53121)"
         id="path125" />
    </clipPath>
    <clipPath
       clipPathUnits="userSpaceOnUse"
       id="clipPath127">
      <path
         d="M 0,0 H 499.991 V 499.989 H 0 Z"
         transform="translate(-140.65581,-166.7061)"
         id="path127" />
    </clipPath>
    <clipPath
       clipPathUnits="userSpaceOnUse"
       id="clipPath129">
      <path
         d="M 0,0 H 499.991 V 499.989 H 0 Z"
         transform="translate(-151.7949,-146.75201)"
         id="path129" />
    </clipPath>
    <clipPath
       clipPathUnits="userSpaceOnUse"
       id="clipPath131">
      <path
         d="M 0,0 H 499.991 V 499.989 H 0 Z"
         transform="translate(-172.3794,-138.0693)"
         id="path131" />
    </clipPath>
    <clipPath
       clipPathUnits="userSpaceOnUse"
       id="clipPath133">
      <path
         d="M 0,0 H 499.991 V 499.989 H 0 Z"
         transform="translate(-195.19041,-141.46871)"
         id="path133" />
    </clipPath>
  </defs>
  <g
     id="g1"
     transform="translate(154.40324,14.499996)">
    <g
       id="g158">
      <path
         style="fill:#eb479f"
         d="m -56.25069,141.12026 c -0.527854,-8.71171 -1.38611,-10.81 -2.93512,-13.43226 -1.05049,-1.77834 -2.38248,-2.54648 -3.22734,-2.81463 -0.84486,-0.26815 -0.74716,-2.87592 -1.42525,-3.96173 -1.06033,-1.69784 -7.03328,-4.47933 -5.61473,-3.93497 1.10611,0.42445 7.44249,2.84131 6.9576,2.05674 -0.39769,-0.64347 -4.92151,-1.67082 -4.4766,-1.67193 0.44496,-0.001 5.47128,-0.91968 5.59322,-2.65243 0.20701,-2.94169 2.65755,1.60062 1.31305,3.377 -0.79194,1.04634 -3.98546,-2.13351 -4.00295,-1.41355 -0.0175,0.71995 -0.51112,1.01277 -1.09695,0.65072 -0.70631,-0.43652 -7.31912,-3.14718 -6.28125,-4.29401 1.97818,-2.18586 8.83156,-1.81327 6.88005,-0.19363 -0.80651,0.66934 -2.04401,0.98496 -2.75,0.70139 -0.8069,-0.32411 -0.63369,-0.54492 0.46638,-0.59454 0.9625,-0.0434 1.75,-0.78051 1.75,-1.63797 0,-0.85746 -3.46344,-5.11715 -2.96041,-4.80627 0.50302,0.31089 5.01877,3.81245 5.29887,3.12152 0.39801,-0.98176 0.71709,-0.9598 1.46041,0.10053 1.1092,1.58225 2.72499,-0.20012 1.69387,-1.8685 -0.34747,-0.56223 0.73707,-1.28422 2.44098,-1.625 1.68646,-0.3373 3.06628,-1.03357 3.06628,-1.54728 0,-0.51371 0.46099,-0.34899 -0.98855,-0.32306 -2.057006,0.0368 -2.936751,-3.34338 -1.983822,-3.36407 0.980731,-0.0213 1.636652,0.0222 2.265309,0.0147 0.62865,-0.008 2.078388,0.002 3.54938,-0.004 1.652261,-0.007 3.446491,0.21388 2.467737,0.20126 -0.696223,-0.009 -2.030754,-0.31975 1.154206,-0.19014 1.035634,-0.0179 1.720148,0.077 -0.01083,0.0263 -1.724489,-0.0506 1.243793,-0.0552 2.220083,-0.0552 1.39407,0 3.876373,-0.008 2.095786,0.0284 -2.709641,0.056 -1.583303,-0.0337 2.674727,-0.0337 1.650922,0 3.512839,0.013 4.57323,0.0171 0.444969,0.002 1.007007,-0.0752 1.009987,0.0629 0.01133,0.52526 0.005,0.33048 0.0067,0.43153 0.07463,4.30851 -0.07102,3.16096 0.01502,2.10864 0.07158,-0.87555 -3.278803,0.51851 -4.738251,0.14959 -1.07953,0.62794 4.772152,-2.19964 4.751899,-0.0956 -0.0175,1.07022 -0.0026,0.85849 -0.0037,1.46038 -0.0042,2.34864 -0.09528,3.6743 -0.143574,1.14488 -0.04925,-2.5798 0.08463,1.47333 0.08463,22.03295 v 23.57142 l -10.25,-0.007 -10.25,-0.007 z m 15.11972,-17.50678 c -0.0335,-14.57767 -1.15885,-15.37789 -2.77122,-1.97048 -1.13904,9.47159 -0.47041,15.22047 1.77025,15.22047 0.65814,0 1.02038,-4.79488 1.00097,-13.24999 z m -60.65709,24.74999 c 0.10207,-1.78617 0.27721,-4.71391 0.3125,-3.78125 0.0438,1.15625 0,-1.90115 0,-2.6588 0,-0.75766 0.17778,-1.95532 0.17649,-3.01956 -0.002,-1.7246 0.27476,-4.38476 0.28473,-4.93494 0.0134,-0.73909 5.272352,4.89455 5.854762,4.89455 1.51124,0 1.31134,1.06371 -0.59597,3.17126 -1.54168,1.70354 -1.53525,1.96105 0.094,3.7613 1.78235,1.96947 4.56103,1.78731 4.56103,-0.299 0,-1.65166 3.760908,-3.82944 4.512658,-2.61308 1.08482,1.75527 2.63832,1.03055 2.01316,-0.93915 -0.42659,-1.34405 0.391639,-2.26542 1.646649,-2.53379 4.08174,-0.87283 5.170916,0.10284 4.44902,5.77006 l -0.718201,5.63821 -10.995876,0.0442 -11.719952,-0.3125 z m 12.145372,-8.56817 c -0.3631,-0.5875 -1.17952,-0.86888 -1.81428,-0.6253 -0.63477,0.24358 -1.73199,-0.17574 -2.43828,-0.93183 -0.96209,-1.02992 -0.98167,-1.3747 -0.0781,-1.3747 0.66335,0 0.90876,-0.29733 0.54535,-0.66074 -0.66499,-0.66498 1.4074,-2.11187 6.681028,-4.6645 2.24946,-1.08882 2.51411,-1.51154 1.25,-1.99662 -0.88199,-0.33846 -1.60362,-1.30449 -1.60362,-2.14675 0,-1.7806 -2.648378,-2.08623 -3.219928,-0.37159 -0.2885,0.86549 -0.88058,0.84633 -2.33333,-0.0755 -1.55044,-0.98382 -1.59049,-1.12452 -0.19674,-0.69117 1.1225,0.34902 1.75,0.0144 1.75,-0.93323 0,-1.20052 1.07748,-1.36637 5.749998,-0.88511 3.1625,0.32572 6.349328,0.99986 6.973818,1.1875 2.02411,0.60814 0.35103,13.49183 -1.75206,13.49183 -0.48585,0 -0.971758,-0.63189 -0.971758,-1.0936 0,-0.46172 -1.06538,-1.3249 -2.36752,-1.9182 -1.87913,-0.85619 -2.70427,-0.74196 -4,0.55377 -0.90989,0.90989 -1.632478,1.13418 -1.632478,0.50668 0,-0.94085 -1.37755,-1.04964 -4,-0.31588 -0.81816,0.2289 4.42699,2.34157 5.324328,2.14456 0.45338,-0.0995 0.53932,0.28015 0.19098,0.84378 -0.80317,1.29957 -1.233048,1.2905 -2.057438,-0.0434 z"
         id="path156" />
      <path
         style="fill:#eb479f;fill-opacity:1;stroke:none"
         d="m -97.484598,144.95634 c 0.552707,-4.63019 -2.736702,-7.56273 -3.522242,-10.2384 -0.0346,-0.58143 5.156346,4.36777 5.457746,4.85544 1.522106,2.46276 -5.929976,3.06345 -5.929976,3.82951 0,2.00998 -3.65947,1.23953 -3.62515,-0.88317 0.0161,-0.9931 3.79857,-3.19101 3.76696,-1.8396 -0.0817,3.49378 0.15168,2.13369 0.10819,-1.21888 -0.0353,-2.72 -2.52959,-1.20702 1,-1.91952 l 4.750006,-0.95885 -2.67689,0.55261 -3.051896,0.42762 0.20378,-11.94335 c 0.2261,-13.25181 0.22375,-10.3512 0.41791,-14.43447 0.21916,-4.61056 -1.03837,-3.03672 -0.99195,-4.89451 0.0215,-0.86239 1.39414,1.91785 1.49624,-0.8213 0.0322,-0.8632 1.133068,5.49028 1.097387,4.72321 -0.1051,-2.25947 -1.604417,8.36134 -1.390737,3.95658 0.16657,-3.43348 -0.58434,-5.63829 0.11111,-10.53578 l 0.078,-2.96875 19.574,0.21875 c 21.283161,0.23785 25.150474,0.14499 22.633609,0.2016 -0.980897,0.0221 -0.217759,-0.10561 0.424109,-0.0799 1.080994,0.0433 6.825392,2.49451 6.724151,3.95948 -0.12814,1.8542 -4.650189,0.94481 -6.336649,1.2821 -1.70391,0.34078 0.06255,4.30234 0.71527,4.40625 3.523016,0.56087 -2.39717,3.732 -3.50637,2.14975 -0.743315,-1.06032 -5.4999,-4.30104 -5.89791,-3.31928 -0.2801,0.69093 2.1729,1.15812 1.66988,0.84723 -0.50303,-0.31087 -0.91459,0.13631 -0.91459,0.99377 0,0.85746 -0.7875,1.59455 -1.75,1.63797 -1.10007,0.0496 -1.27328,0.27043 -0.46638,0.59454 0.70599,0.28357 1.94349,-0.032 2.75,-0.70139 1.95155,-1.61964 1.87942,-0.086 -0.0988,2.09988 -1.03787,1.14683 -1.20631,1.95124 -0.5,2.38776 0.58583,0.36206 1.07946,0.0692 1.09695,-0.65072 0.0175,-0.71996 0.67976,-2.16511 1.4717,-3.21145 1.3445,-1.77638 1.42521,-1.69369 1.2182,1.24801 -0.12194,1.73275 -0.58576,3.15134 -1.03072,3.15243 -0.44496,0.001 -0.48364,0.52846 -0.0859,1.17193 0.50466,0.81655 0.266454,0.77291 -1.069446,0.26397 -1.53542,-0.58494 -1.66678,-0.48008 -0.66405,0.53006 2.15618,2.17213 0.95298,5.51503 -1.32814,3.51424 -1.19455,-1.04775 -1.82439,-1.31239 -1.39965,-0.58811 0.49137,0.83791 0.6561,1.15571 -0.20311,1.03777 -0.74269,-0.10195 -1.01964,0.74295 -1.68488,0.8081 -1.7251,0.16898 -7.13132,2.28083 -7.14953,4.07701 -0.0132,1.30514 -2.26507,11.34426 -3.05902,10.08925 -0.50529,-0.79874 -0.108703,-10.43455 0.164867,-10.87725 0.65242,-1.05564 0.4792,-1.18734 -6.47312,-1.90341 -4.672518,-0.48126 -3.142541,-1.0225 -3.142541,0.17801 0,0.94762 -3.809481,2.21032 -4.931981,1.8613 -1.39375,-0.43335 -1.442088,-3.34204 0.108352,-2.35822 1.45275,0.92184 2.398383,1.6481 2.686883,0.7826 0.57155,-1.71463 4.987695,-1.05545 4.987695,0.72516 0,0.84227 1.075184,1.18958 1.957174,1.52804 1.26411,0.48508 1.22043,3.02912 -1.02903,4.11794 -5.273628,2.55262 -9.246367,2.5411 -8.581377,3.20608 -0.845208,0.96171 11.557316,-2.19925 11.432287,0.80419 -0.226313,5.43642 0.525146,2.01823 1.277086,2.64225 0.96411,0.80013 -7.364485,0.99499 -6.896695,0.23808 0.36485,-0.59033 0.29241,-0.99189 -0.16097,-0.89234 -0.897348,0.19702 -6.142488,-1.91565 -5.324328,-2.14456 2.62245,-0.73375 4,-0.62496 4,0.31589 0,0.62749 -1.221956,-2.46941 -0.312066,-3.3793 1.29573,-1.29573 5.744793,-0.65866 7.623923,0.19753 1.30214,0.59331 0.688141,3.57781 0.688141,4.03953 0,0.46171 0.45,0.83948 1,0.83948 0.55,0 1,-0.64844 1,-1.44097 0,-0.79255 0.957771,-2.51336 0.85554,-1.96974 -0.126071,0.67041 0.6395,0.60141 0.37544,1.98273 -0.29678,1.5525 -0.49309,5.63357 -0.28253,3.90138 -4.21683,-0.40706 -3.948984,-4.4898 -3.310664,-2.4786 0.64452,2.03069 -4.017166,5.8184 -5.125126,4.02568 -0.75175,-1.21636 9.17172,-1.67766 9.17172,-0.026 0,2.08631 -15.396126,7.12982 -17.178466,5.16035 z"
         id="path154" />
      <path
         style="fill:#cb2179"
         d="m -135.4312,146.89062 c -0.0145,-0.39932 -0.0125,-0.98799 -0.002,-2.82124 0.006,-1.07832 0.006,1.02827 0.0178,-2.00777 0.003,-0.77534 0.002,-1.92863 0.002,-4.3532 0,-0.76194 0.025,-1.67145 0.0162,-2.31283 -0.0238,-1.74046 1.15608,-2.30926 1.11969,-1.76087 -0.22208,3.34702 -1.15993,5.27338 -1.15014,-0.0849 0.001,-0.82143 -6.8e-4,-2.57217 -6.8e-4,-5.79673 0,-2.99766 -0.0424,-4.85803 -0.0164,-6.03191 0.0258,-1.16543 0.0458,-0.29535 0.0298,-1.44747 -0.0292,-2.10814 -0.0438,-6.87124 -0.0283,-7.58176 0.068,-3.10767 -0.11175,-5.49225 -0.0331,-7.56193 0.046,-1.20878 -0.0942,-2.06744 -0.0355,-3.73696 0.008,-0.23385 0.0147,-0.53186 0.0244,-0.6984 0.007,-0.1187 0.11828,-0.0779 0.20838,-0.0796 1.18753,-0.0221 6.03295,0.01 18.12942,0.01 h 16.93073 l -0.56263,20.25 c -0.30945,11.13749 -0.66392,22.275 -0.78772,24.74999 l -0.22509,4.71875 -16.75,0.0554 -16.75,0.27418 z m 56.275066,3.69989 c 0.0876,-0.7135 0.201474,-1.71501 0.275583,-2.51621 0.191937,-2.07512 0.283477,-1.92044 0.424962,-3.35423 0.165717,-1.67936 0.142802,-7.22467 1.674012,-14.09499 0.18387,-0.825 0.36874,-1.9546 0.41082,-2.51022 0.0421,-0.55562 1.21972,-2.24312 2.61698,-3.75 2.872,-3.09733 7.376093,-2.05565 10.76905,-1.2874 2.42381,0.54881 1.901958,0.73971 1.92571,0.66656 0.0639,-0.1968 1.51778,1.80513 2.71796,4.28435 2.45903,5.0797 2.449626,13.58199 2.63125,18.99832 l 0.13743,4.09839 -11.58317,-0.0312 c -6.348718,-0.0171 -11.127813,-0.26505 -11.94276,-0.3088 -0.153863,-0.008 -0.06509,-0.13533 -0.05783,-0.19452 z"
         id="path151" />
      <g
         id="g145"
         transform="translate(104.46585,156.67993)">
        <path
           style="fill:#9ae54e"
           d="m -211.5927,30.165998 0.1177,-36.5031699 39.5625,0.61268 c 21.72587,0.3364551 39.93483,1.11449 40.46629,1.61321 1.02564,0.96247 0.99756,65.8373799 -0.0299,69.0745999 -0.49048,1.54537 -1.76244,1.7996 -9.00378,1.7996 -4.63793,0 -8.44743,-0.3375 -8.46554,-0.75 -0.6421,-14.6223 -1.17651,-20.80325 -1.81782,-21.02441 -0.43763,-0.15092 -0.60358,-1.58342 -0.36876,-3.18333 0.6382,-4.34837 -3.46324,-15.57117 -6.9734,-19.08132 -3.27169,-3.27169 -8.77432,-5.96318 -12.17922,-5.9572 -9.87167,0.0173 -16.52435,16.94444 -16.6036,42.24626 l -0.0243,7.75 h -12.4302 -12.43019 z"
           id="path149" />
        <path
           style="fill:#8ecb2d"
           d="m -258.8534,36.356018 c -0.0489,-9.083892 0.0257,-32.7362999 0.0975,-35.93749985 l 0.0738,-6.78060005 12.94728,-0.075 c 13.83405,-0.080137 22.37546,0.012681 28.1897,0.1480957 1.11572,0.025985 2.85758,-0.052676 4.88258,-0.019386 1.37259,-0.03766 1.19291,-0.463863 1.1927,1.2138066 -0.001,11.2369557 0.45325,21.4774236 -0.0626,44.6074836 l -0.17019,27.3125 -23.18104,-0.0625 h -23.80603 z m 72.24643,17.20928 c 1.05694,-23.03501 7.15477,-36.78254 16.32234,-36.79864 3.4049,-0.006 8.90753,2.68551 12.17922,5.9572 3.51016,3.51015 7.6116,14.73295 6.9734,19.08132 -0.23482,1.59991 -0.0713,3.03241 0.36337,3.18333 0.43467,0.15093 1.01856,5.05942 1.29753,10.90776 l 0.50723,10.63335 -19.12673,0.16903 -19.12673,0.16903 z"
           id="path146" />
      </g>
      <g
         id="g157"
         transform="matrix(0.30425278,0,0,0.28411068,-177.92308,-14.784107)">
        <g
           id="g156">
          <path
             id="path20"
             d="m 0,0 c -5.975,-7.772 -22.891,-16.486 -31.797,-20.15 -10.767,-4.433 -20.855,-4.709 -29.613,-2.753 -18.381,4.109 -22.034,18.763 -28.877,35.889 -4.241,10.619 -7.293,19.614 -18.859,24.091 -6.305,2.444 -13.78,3.318 -20.177,0.899 -2.664,-1.006 -10.438,-4.205 -9.508,-8.246 1.713,-7.443 16.115,-0.962 24.506,-6.018 6.228,-3.751 9.547,-13.116 11.419,-19.556 2.713,-9.334 5.608,-16.171 10.016,-23.291 7.487,-12.093 15.75,-16.37 29.262,-18.744 15.708,-2.763 28.935,-0.733 40.882,5.65 11.614,6.204 22.393,14.603 31.169,24.465 C 14.59,-0.832 7.896,1.527 0,0"
             style="fill:#ef8227;fill-opacity:1;fill-rule:evenodd;stroke:none"
             transform="matrix(1.3333333,0,0,-1.3333333,308.21037,337.04326)"
             clip-path="url(#clipPath21)" />
          <path
             id="path22"
             d="m 0,0 c -10.605,-6.425 -16.897,-20.484 -17.964,-32.214 -0.989,-10.898 4.697,-20.239 10.879,-28.975 3.076,-4.352 12.527,-12.584 16.255,-16.417 -15.469,-5.727 -19.838,-17.278 -7.858,-23.449 6.845,-3.526 18.007,-0.047 35.853,3.809 5.647,-0.228 3.477,14.087 18.604,12.874 11.885,-0.261 10.612,-13.102 16.258,-12.874 17.846,-3.856 29.008,-7.335 35.854,-3.809 11.979,6.171 7.61,17.722 -7.859,23.449 3.727,3.833 13.179,12.065 16.255,16.417 6.182,8.736 11.868,18.077 10.879,28.975 C 126.09,-20.484 119.798,-6.425 109.192,0 109.19,0 81.902,0.352 54.597,0.516 27.29,0.352 0.002,0 0,0"
             style="fill:#c67019;fill-opacity:1;fill-rule:evenodd;stroke:none"
             transform="matrix(1.3333333,0,0,-1.3333333,287.09584,271.44433)"
             clip-path="url(#clipPath23)" />
          <path
             id="path24"
             d="m 0,0 c -14.039,5.173 -26.257,2.325 -36.563,-8.521 -0.041,-0.043 8.323,4.282 17.279,6.369 C -9.917,0.029 0.059,-0.022 0,0"
             style="fill:#231916;fill-opacity:1;fill-rule:evenodd;stroke:none"
             transform="matrix(1.3333333,0,0,-1.3333333,285.12837,337.13046)"
             clip-path="url(#clipPath25)" />
          <path
             id="path26"
             d="m 0,0 c -12.109,4.461 -22.646,2.006 -31.535,-7.349 -0.036,-0.038 7.178,3.694 14.903,5.493 C -8.553,0.025 0.051,-0.02 0,0"
             style="fill:#231916;fill-opacity:1;fill-rule:evenodd;stroke:none"
             transform="matrix(1.3333333,0,0,-1.3333333,294.02877,357.91433)"
             clip-path="url(#clipPath27)" />
          <path
             id="path28"
             d="m 0,0 c -12.109,4.462 -22.647,2.006 -31.535,-7.349 -0.037,-0.038 7.178,3.694 14.903,5.493 C -8.553,0.025 0.051,-0.02 0,0"
             style="fill:#231916;fill-opacity:1;fill-rule:evenodd;stroke:none"
             transform="matrix(1.3333333,0,0,-1.3333333,280.48584,312.04846)"
             clip-path="url(#clipPath29)" />
          <path
             id="path30"
             d="M 0,0 C 14.038,5.172 26.256,2.325 36.563,-8.521 36.604,-8.564 28.239,-4.239 19.282,-2.153 9.916,0.028 -0.061,-0.022 0,0"
             style="fill:#231916;fill-opacity:1;fill-rule:evenodd;stroke:none"
             transform="matrix(1.3333333,0,0,-1.3333333,433.77557,336.99766)"
             clip-path="url(#clipPath31)" />
          <path
             id="path32"
             d="M 0,0 C 12.108,4.461 22.646,2.005 31.534,-7.35 31.57,-7.387 24.355,-3.657 16.631,-1.856 8.553,0.025 -0.052,-0.02 0,0"
             style="fill:#231916;fill-opacity:1;fill-rule:evenodd;stroke:none"
             transform="matrix(1.3333333,0,0,-1.3333333,424.8745,357.78153)"
             clip-path="url(#clipPath33)" />
          <path
             id="path34"
             d="M 0,0 C 12.108,4.461 22.646,2.006 31.535,-7.349 31.57,-7.387 24.356,-3.656 16.632,-1.856 8.554,0.025 -0.052,-0.02 0,0"
             style="fill:#231916;fill-opacity:1;fill-rule:evenodd;stroke:none"
             transform="matrix(1.3333333,0,0,-1.3333333,438.41744,311.91566)"
             clip-path="url(#clipPath35)" />
          <path
             id="path36"
             d="m 0,0 c -2.987,-5.669 -8.226,-32.66 -4.18,-52.686 5.326,-26.329 21.122,-51.293 28.086,-54.775 6.964,-3.48 17.407,5.107 17.639,20.66 0.233,15.546 -9.052,46.415 -8.125,56.629 0.931,10.211 4.411,21.121 4.411,21.121 0,0 9.911,99.612 -37.831,9.051"
             style="fill:#ef8227;fill-opacity:1;fill-rule:evenodd;stroke:none"
             transform="matrix(1.3333333,0,0,-1.3333333,293.8433,252.85446)"
             clip-path="url(#clipPath37)" />
          <path
             id="path38"
             d="m 0,0 c 2.989,-5.669 8.228,-32.66 4.182,-52.686 -5.327,-26.329 -21.122,-51.293 -28.087,-54.775 -6.963,-3.48 -17.405,5.107 -17.638,20.66 -0.233,15.546 9.051,46.415 8.124,56.629 -0.931,10.211 -4.41,21.121 -4.41,21.121 0,0 -9.912,99.612 37.829,9.051"
             style="fill:#ef8227;fill-opacity:1;fill-rule:evenodd;stroke:none"
             transform="matrix(1.3333333,0,0,-1.3333333,424.04904,252.85446)"
             clip-path="url(#clipPath39)" />
          <path
             id="path40"
             d="M 0,0 C 5.74,0.909 11.261,1.33 16.564,1.264 16.893,1.26 17.22,1.254 17.547,1.246 16.669,-0.419 15.783,-2.015 14.897,-3.53 14.682,-3.471 14.469,-3.413 14.256,-3.356 5.824,-1.075 -0.072,-0.012 0,0"
             style="fill:#231916;fill-opacity:1;fill-rule:evenodd;stroke:none"
             transform="matrix(1.3333333,0,0,-1.3333333,392.59584,366.40139)"
             clip-path="url(#clipPath41)" />
          <path
             id="path42"
             d="M 0,0 C -10.183,2.929 -17.698,4.28 -17.616,4.293 -12.547,5.097 -7.648,5.52 -2.918,5.562 -0.641,5.581 1.598,5.514 3.797,5.356 3.104,3.378 2.368,1.434 1.602,-0.467 1.062,-0.308 0.527,-0.151 0,0"
             style="fill:#231916;fill-opacity:1;fill-rule:evenodd;stroke:none"
             transform="matrix(1.3333333,0,0,-1.3333333,420.7157,347.58366)"
             clip-path="url(#clipPath43)" />
          <path
             id="path44"
             d="m 0,0 c -0.5,0.118 -7.145,1.626 -7.568,1.885 1.992,0.3 4.201,0.623 6.147,0.821 7.854,0.799 15.336,0.767 22.443,-0.097 -0.208,-1.645 -0.467,-3.26 -0.786,-4.834 -0.215,-1.07 -0.45,-2.138 -0.7,-3.204 C 11.943,-2.977 5.035,-1.187 0,0"
             style="fill:#231916;fill-opacity:1;fill-rule:evenodd;stroke:none"
             transform="matrix(1.3333333,0,0,-1.3333333,404.5477,316.78153)"
             clip-path="url(#clipPath45)" />
          <path
             id="path46"
             d="M 0,0 C -8.118,2.171 -13.74,3.186 -13.669,3.197 -8.982,3.94 -4.442,4.357 -0.047,4.449 -0.004,2.972 0.013,1.486 0,0"
             style="fill:#231916;fill-opacity:1;fill-rule:evenodd;stroke:none"
             transform="matrix(1.3333333,0,0,-1.3333333,433.4917,299.06539)"
             clip-path="url(#clipPath47)" />
          <path
             id="path48"
             d="M 0,0 C -11.918,1.539 -20.917,1.656 -20.831,1.685 -14.787,3.699 -8.904,5.093 -3.187,5.864 -2.154,4.008 -1.093,2.055 0,0"
             style="fill:#231916;fill-opacity:1;fill-rule:evenodd;stroke:none"
             transform="matrix(1.3333333,0,0,-1.3333333,425.06064,247.80766)"
             clip-path="url(#clipPath49)" />
          <path
             id="path50"
             d="m 0,0 c 1.015,0.757 1.947,1.158 3.56,1.158 1.61,0 2.544,-0.401 3.56,-1.158 26.466,-19.761 26.449,-102.511 11.411,-123.174 -5.969,-8.198 -19.923,-9.568 -26.893,0 C -21.477,-105.138 -23.136,-17.276 0,0"
             style="fill:#ffffff;fill-opacity:1;fill-rule:evenodd;stroke:none"
             transform="matrix(1.3333333,0,0,-1.3333333,352.9565,197.76073)"
             clip-path="url(#clipPath51)" />
          <path
             id="path52"
             d="M 0,0 C 3.873,-12.498 16.916,-19.562 29.13,-15.777 41.348,-11.991 48.108,1.211 44.235,13.709 40.362,26.208 27.32,33.273 15.103,29.487 2.888,25.702 -3.874,12.499 0,0"
             style="fill:#ef8227;fill-opacity:1;fill-rule:evenodd;stroke:none"
             transform="matrix(1.3333333,0,0,-1.3333333,349.6545,41.67806)"
             clip-path="url(#clipPath53)" />
          <path
             id="path54"
             d="M 0,0 C 2.201,-7.103 9.616,-11.118 16.559,-8.966 23.5,-6.815 27.344,0.689 25.143,7.792 22.941,14.896 15.527,18.912 8.586,16.76 1.644,14.609 -2.201,7.104 0,0"
             style="fill:#da6d0b;fill-opacity:1;fill-rule:evenodd;stroke:none"
             transform="matrix(1.3333333,0,0,-1.3333333,360.21037,43.66113)"
             clip-path="url(#clipPath55)" />
          <path
             id="path56"
             d="m 0,0 c 3.873,-12.498 -2.889,-25.7 -15.103,-29.486 -12.217,-3.786 -25.26,3.279 -29.133,15.777 -3.873,12.499 2.887,25.702 15.105,29.488 C -16.917,19.564 -3.874,12.499 0,0"
             style="fill:#ef8227;fill-opacity:1;fill-rule:evenodd;stroke:none"
             transform="matrix(1.3333333,0,0,-1.3333333,260.13944,71.46913)"
             clip-path="url(#clipPath57)" />
          <path
             id="path58"
             d="m 0,0 c 2.201,-7.104 -1.645,-14.607 -8.586,-16.759 -6.942,-2.151 -14.356,1.864 -16.558,8.967 -2.201,7.104 1.644,14.608 8.584,16.76 C -9.617,11.119 -2.202,7.104 0,0"
             style="fill:#da6d0b;fill-opacity:1;fill-rule:evenodd;stroke:none"
             transform="matrix(1.3333333,0,0,-1.3333333,252.55477,79.07393)"
             clip-path="url(#clipPath59)" />
          <path
             id="path60"
             d="m 0,0 c -18.772,-28.403 -13.377,-73.006 5.16,-102.756 0,0 -1.579,-1.234 -1.384,-8.615 0.196,-7.38 -0.162,-10.021 0.533,-8.466 0.694,1.554 7.451,6.327 7.451,6.327 0,0 0.197,-4.851 1.676,-12.577 1.48,-7.728 2.223,-9.284 2.223,-9.284 l 9.2,14.61 c 0,0 2.398,-10.271 2.883,-8.037 0.484,2.233 3.733,6.514 3.733,6.514 0,0 9.535,-1.658 25.012,-0.135 28.245,2.778 43.839,7.61 68.704,21.291 13.626,7.498 20.552,14.257 20.552,14.257 0,0 5.1,-1.693 6.763,-3.261 1.662,-1.569 -2.167,8.258 -2.167,8.258 l 15.849,-6.846 c 0,0 -0.267,1.703 -3.416,8.913 -3.149,7.21 -5.731,11.321 -5.731,11.321 0,0 8.272,-0.116 9.724,-1.005 1.452,-0.889 -0.337,1.087 -4.349,7.284 -4.012,6.199 -6.012,6.323 -6.012,6.323 -1.536,35.019 -22.31,74.855 -53.854,87.665 C 80.696,40.656 13.005,19.678 0,0"
             style="fill:#ef8227;fill-opacity:1;fill-rule:evenodd;stroke:none"
             transform="matrix(1.3333333,0,0,-1.3333333,238.46504,77.89939)"
             clip-path="url(#clipPath61)" />
          <path
             id="path62"
             d="m 0,0 c -30.628,26.125 -64.122,30.309 -100.235,12.52 -0.146,-0.072 24.998,3.063 49.549,-0.005 C -25.009,9.305 0.13,-0.112 0,0"
             style="fill:#231916;fill-opacity:1;fill-rule:evenodd;stroke:none"
             transform="matrix(1.3333333,0,0,-1.3333333,528.3341,146.79846)"
             clip-path="url(#clipPath63)" />
          <path
             id="path64"
             d="m 0,0 c -26.417,22.532 -55.306,26.14 -86.451,10.798 -0.128,-0.063 21.559,2.641 42.735,-0.005 C -21.569,8.024 0.111,-0.096 0,0"
             style="fill:#231916;fill-opacity:1;fill-rule:evenodd;stroke:none"
             transform="matrix(1.3333333,0,0,-1.3333333,522.43957,164.79979)"
             clip-path="url(#clipPath65)" />
          <path
             id="path66"
             d="m 0,0 c -26.416,22.532 -55.304,26.142 -86.451,10.799 -0.126,-0.063 21.559,2.641 42.735,-0.006 C -21.569,8.025 0.111,-0.096 0,0"
             style="fill:#231916;fill-opacity:1;fill-rule:evenodd;stroke:none"
             transform="matrix(1.3333333,0,0,-1.3333333,533.2209,122.06406)"
             clip-path="url(#clipPath67)" />
          <path
             id="path68"
             d="M 0,0 C 10.486,38.867 35.743,61.259 75.587,67.009 75.749,67.032 53.239,55.398 34.725,38.984 15.363,21.815 -0.045,-0.165 0,0"
             style="fill:#231916;fill-opacity:1;fill-rule:evenodd;stroke:none"
             transform="matrix(1.3333333,0,0,-1.3333333,179.49624,256.13833)"
             clip-path="url(#clipPath69)" />
          <path
             id="path70"
             d="M 0,0 C 9.044,33.521 30.829,52.834 65.193,57.794 65.333,57.814 45.919,47.78 29.95,33.622 13.25,18.816 -0.039,-0.143 0,0"
             style="fill:#231916;fill-opacity:1;fill-rule:evenodd;stroke:none"
             transform="matrix(1.3333333,0,0,-1.3333333,194.53797,267.65139)"
             clip-path="url(#clipPath71)" />
          <path
             id="path72"
             d="M 0,0 C 9.043,33.523 30.829,52.836 65.193,57.795 65.333,57.815 45.918,47.782 29.95,33.624 13.25,18.816 -0.039,-0.142 0,0"
             style="fill:#231916;fill-opacity:1;fill-rule:evenodd;stroke:none"
             transform="matrix(1.3333333,0,0,-1.3333333,161.8797,237.14486)"
             clip-path="url(#clipPath73)" />
          <path
             id="path74"
             d="m 0,0 c 0.999,-1.232 2.571,-12.774 9.365,-19.768 6.793,-6.993 16.782,-8.37 16.782,-8.37 l -0.569,2.831 8.187,-2.783 1.269,4.865 3.886,-4.828 0.475,6.18 3.798,-3.295 5.179,6.926 1.131,-2.657 c 0,0 7.459,6.784 9.108,16.394 1.648,9.609 -3.582,20.017 -3.455,21.599 L 27.043,10.272 Z"
             style="fill:#dbdcdc;fill-opacity:1;fill-rule:evenodd;stroke:none"
             transform="matrix(1.3333333,0,0,-1.3333333,314.71624,203.94433)"
             clip-path="url(#clipPath75)" />
          <path
             id="path76"
             d="M 0,0 C 3.556,-2.519 10.029,-11.462 26.913,-6.229 43.798,-0.997 47.177,14.973 46.116,14.91 45.057,14.846 0,0 0,0"
             style="fill:#5a2714;fill-opacity:1;fill-rule:evenodd;stroke:none"
             transform="matrix(1.3333333,0,0,-1.3333333,321.33544,198.96846)"
             clip-path="url(#clipPath77)" />
          <path
             id="path78"
             d="M 0,0 C 4.053,-13.077 17.939,-20.392 31.016,-16.339 44.093,-12.287 51.409,1.6 47.356,14.676 43.304,27.752 29.416,35.07 16.34,31.017 3.264,26.965 -4.052,13.076 0,0"
             style="fill:#ffffff;fill-opacity:1;fill-rule:evenodd;stroke:none"
             transform="matrix(1.3333333,0,0,-1.3333333,343.5933,180.09086)"
             clip-path="url(#clipPath79)" />
          <path
             id="path80"
             d="M 0,0 C 4.052,-13.077 17.939,-20.391 31.016,-16.338 44.092,-12.286 51.409,1.6 47.356,14.676 43.304,27.752 29.416,35.07 16.339,31.018 3.263,26.965 -4.053,13.077 0,0"
             style="fill:#ffffff;fill-opacity:1;fill-rule:evenodd;stroke:none"
             transform="matrix(1.3333333,0,0,-1.3333333,288.69477,197.10513)"
             clip-path="url(#clipPath81)" />
          <path
             id="path82"
             d="m 0,0 v 0 c -9.573,-0.773 -25.716,1.087 -27.237,2.351 -4.085,3.394 -3.728,53.255 -23.004,85.571 12.125,5.732 26.481,10.705 41.009,12.607 C -6.877,63.33 22.762,23.078 21.134,17.341 20.594,15.439 8.333,4.776 0,0"
             style="fill:#f2962f;fill-opacity:1;fill-rule:evenodd;stroke:none"
             transform="matrix(1.3333333,0,0,-1.3333333,343.06197,169.44113)"
             clip-path="url(#clipPath83)" />
          <path
             id="path84"
             d="m 0,0 c -0.133,0.083 -0.296,0.464 -0.483,1.095 6.206,4.02 14.355,7.898 23.135,10.883 v 0 c 8.93,2.504 17.844,3.913 25.235,4.107 C 48.09,15.46 48.17,15.053 48.108,14.909 47.436,13.373 35.379,2.527 26.867,-1.62 17.5,-3.014 1.423,-0.887 0,0"
             style="fill:#7a4221;fill-opacity:1;fill-rule:evenodd;stroke:none"
             transform="matrix(1.3333333,0,0,-1.3333333,307.39077,167.76659)"
             clip-path="url(#clipPath85)" />
          <path
             id="path86"
             d="M 0,0 C 4.075,1.263 8.324,0.053 11.135,-2.778 8.479,-3.065 5.661,-3.644 2.797,-4.531 -1.204,-5.771 -4.789,-7.457 -7.726,-9.371 -7.261,-5.122 -4.342,-1.346 0,0"
             style="fill:#231916;fill-opacity:1;fill-rule:evenodd;stroke:none"
             transform="matrix(1.3333333,0,0,-1.3333333,281.2033,145.01339)"
             clip-path="url(#clipPath87)" />
          <path
             id="path88"
             d="M 0,0 C 4.074,1.263 8.323,0.053 11.134,-2.778 8.479,-3.065 5.66,-3.644 2.796,-4.531 -1.204,-5.771 -4.789,-7.457 -7.727,-9.37 -7.262,-5.122 -4.343,-1.346 0,0"
             style="fill:#231916;fill-opacity:1;fill-rule:evenodd;stroke:none"
             transform="matrix(1.3333333,0,0,-1.3333333,376.14917,113.06806)"
             clip-path="url(#clipPath89)" />
          <path
             id="path90"
             d="m 0,0 41.545,7.553 0.127,-0.93 z"
             style="fill:#312722;fill-opacity:1;fill-rule:evenodd;stroke:none"
             transform="matrix(1.3333333,0,0,-1.3333333,238.7117,187.49126)"
             clip-path="url(#clipPath91)" />
          <path
             id="path92"
             d="m 0,0 39.706,14.37 0.28,-0.896 z"
             style="fill:#312722;fill-opacity:1;fill-rule:evenodd;stroke:none"
             transform="matrix(1.3333333,0,0,-1.3333333,251.9825,205.49899)"
             clip-path="url(#clipPath93)" />
          <path
             id="path94"
             d="m 0,0 37.005,20.337 0.416,-0.841 z"
             style="fill:#312722;fill-opacity:1;fill-rule:evenodd;stroke:none"
             transform="matrix(1.3333333,0,0,-1.3333333,253.42917,226.60579)"
             clip-path="url(#clipPath95)" />
          <path
             id="path96"
             d="m 0,0 -38.536,-17.265 0.422,-0.839 z"
             style="fill:#312722;fill-opacity:1;fill-rule:evenodd;stroke:none"
             transform="matrix(1.3333333,0,0,-1.3333333,439.09584,124.96193)"
             clip-path="url(#clipPath97)" />
          <path
             id="path98"
             d="m 0,0 -40.873,-10.603 0.275,-0.897 z"
             style="fill:#312722;fill-opacity:1;fill-rule:evenodd;stroke:none"
             transform="matrix(1.3333333,0,0,-1.3333333,438.3341,147.31806)"
             clip-path="url(#clipPath99)" />
          <path
             id="path100"
             d="m 0,0 -42.021,-4.154 0.132,-0.929 z"
             style="fill:#312722;fill-opacity:1;fill-rule:evenodd;stroke:none"
             transform="matrix(1.3333333,0,0,-1.3333333,449.07757,165.54393)"
             clip-path="url(#clipPath101)" />
          <path
             id="path102"
             d="M 0,0 C 24.618,14.166 51.184,22.398 79.499,24.637 79.734,24.656 -0.205,-0.118 0,0"
             style="fill:#231916;fill-opacity:1;fill-rule:evenodd;stroke:none"
             transform="matrix(1.3333333,0,0,-1.3333333,257.65117,88.18646)"
             clip-path="url(#clipPath103)" />
          <path
             id="path104"
             d="M 0,0 C 18.84,10.84 39.169,17.141 60.838,18.854 61.018,18.869 -0.156,-0.09 0,0"
             style="fill:#231916;fill-opacity:1;fill-rule:evenodd;stroke:none"
             transform="matrix(1.3333333,0,0,-1.3333333,272.5425,97.75553)"
             clip-path="url(#clipPath105)" />
          <path
             id="path106"
             d="M 0,0 C 18.84,10.84 39.169,17.141 60.837,18.854 61.018,18.868 -0.157,-0.09 0,0"
             style="fill:#231916;fill-opacity:1;fill-rule:evenodd;stroke:none"
             transform="matrix(1.3333333,0,0,-1.3333333,264.15504,68.70153)"
             clip-path="url(#clipPath107)" />
          <path
             id="path108"
             d="m 0,0 c 3.182,-22.27 12.497,-36.747 19.15,-58.259 5.588,-5.155 9.735,-12.834 3.388,-17.013 -6.039,-3.978 -25.926,-3.167 -29.314,-0.075 -3.388,3.094 -0.992,9.231 -0.306,13.74 0.686,4.507 -11.502,24.82 -11.502,24.82 L 0.207,-0.988 Z"
             style="fill:#ef8227;fill-opacity:1;fill-rule:evenodd;stroke:none"
             transform="matrix(1.3333333,0,0,-1.3333333,322.5197,304.44699)"
             clip-path="url(#clipPath109)" />
          <path
             id="path110"
             d="m 0,0 c -3.182,-22.27 -9.432,-26.294 -16.084,-47.806 -5.588,-5.155 -9.735,-12.834 -3.388,-17.013 6.039,-3.978 25.925,-3.167 29.314,-0.075 3.387,3.094 0.992,9.231 0.305,13.74 -0.214,1.413 0.784,4.626 2.255,8.372 0.841,2.14 -15.769,3.329 -16.831,5.877 -3.008,7.222 4.931,16.04 4.931,16.04 L 1.681,-5.7 Z"
             style="fill:#ef8227;fill-opacity:1;fill-rule:evenodd;stroke:none"
             transform="matrix(1.3333333,0,0,-1.3333333,392.8797,319.56286)"
             clip-path="url(#clipPath111)" />
          <path
             id="path112"
             d="m 0,0 c -5.739,0.909 -11.261,1.331 -16.564,1.265 -0.328,-0.005 -0.655,-0.011 -0.982,-0.019 0.877,-1.665 1.764,-3.261 2.65,-4.776 0.215,0.059 0.429,0.117 0.641,0.175 C -5.823,-1.075 0.073,-0.012 0,0"
             style="fill:#231916;fill-opacity:1;fill-rule:evenodd;stroke:none"
             transform="matrix(1.3333333,0,0,-1.3333333,328.08744,369.95219)"
             clip-path="url(#clipPath113)" />
          <path
             id="path114"
             d="M 0,0 C 10.183,2.929 17.699,4.28 17.616,4.293 12.547,5.097 7.647,5.52 2.918,5.561 0.641,5.581 -1.598,5.513 -3.797,5.356 -3.104,3.378 -2.369,1.434 -1.603,-0.467 -1.062,-0.308 -0.527,-0.151 0,0"
             style="fill:#231916;fill-opacity:1;fill-rule:evenodd;stroke:none"
             transform="matrix(1.3333333,0,0,-1.3333333,299.08477,350.93779)"
             clip-path="url(#clipPath115)" />
          <path
             id="path116"
             d="M 0,0 C 0.5,0.118 7.144,1.626 7.569,1.884 5.576,2.185 3.367,2.508 1.42,2.706 -6.433,3.505 -13.915,3.473 -21.023,2.609 c 0.208,-1.645 0.469,-3.26 0.786,-4.833 0.217,-1.071 0.451,-2.139 0.701,-3.204 C -11.943,-2.977 -5.035,-1.187 0,0"
             style="fill:#231916;fill-opacity:1;fill-rule:evenodd;stroke:none"
             transform="matrix(1.3333333,0,0,-1.3333333,315.25277,320.13579)"
             clip-path="url(#clipPath117)" />
          <path
             id="path118"
             d="M 0,0 C 8.118,2.172 13.74,3.187 13.669,3.197 8.983,3.94 4.442,4.357 0.047,4.449 0.003,2.972 -0.013,1.485 0,0"
             style="fill:#231916;fill-opacity:1;fill-rule:evenodd;stroke:none"
             transform="matrix(1.3333333,0,0,-1.3333333,286.30877,302.41953)"
             clip-path="url(#clipPath119)" />
          <path
             id="path120"
             d="M 0,0 C 11.918,1.539 20.917,1.656 20.831,1.685 14.788,3.7 8.905,5.093 3.186,5.864 2.154,4.008 1.093,2.055 0,0"
             style="fill:#231916;fill-opacity:1;fill-rule:evenodd;stroke:none"
             transform="matrix(1.3333333,0,0,-1.3333333,294.73904,251.16179)"
             clip-path="url(#clipPath121)" />
          <path
             id="path122"
             d="M 0,0 3.991,8.738 C 2.89,9.035 1.768,9.281 0.636,9.467 Z"
             style="fill:#231916;fill-opacity:1;fill-rule:evenodd;stroke:none"
             transform="matrix(1.3333333,0,0,-1.3333333,152.5125,297.66833)"
             clip-path="url(#clipPath123)" />
          <path
             id="path124"
             d="m 0,0 -7.879,-10.175 c 0,0 6.413,1.945 11.26,3.537 C 2.36,-4.277 1.28,-2.051 0,0"
             style="fill:#231916;fill-opacity:1;fill-rule:evenodd;stroke:none"
             transform="matrix(1.3333333,0,0,-1.3333333,179.54317,301.56939)"
             clip-path="url(#clipPath125)" />
          <path
             id="path126"
             d="m 0,0 -7.77,-7.604 9.545,3.181 C 1.176,-2.986 0.589,-1.51 0,0"
             style="fill:#231916;fill-opacity:1;fill-rule:evenodd;stroke:none"
             transform="matrix(1.3333333,0,0,-1.3333333,192.08744,330.66953)"
             clip-path="url(#clipPath127)" />
          <path
             id="path128"
             d="m 0,0 c -1.704,-3.881 -3.712,-8.381 -3.712,-8.381 l 6.919,5.608 C 2.05,-1.924 0.986,-0.997 0,0"
             style="fill:#231916;fill-opacity:1;fill-rule:evenodd;stroke:none"
             transform="matrix(1.3333333,0,0,-1.3333333,206.93957,357.27499)"
             clip-path="url(#clipPath129)" />
          <path
             id="path130"
             d="M 0,0 0.196,-10.248 4.494,-0.204 C 2.968,-0.207 1.47,-0.137 0,0"
             style="fill:#231916;fill-opacity:1;fill-rule:evenodd;stroke:none"
             transform="matrix(1.3333333,0,0,-1.3333333,234.38557,368.85193)"
             clip-path="url(#clipPath131)" />
          <path
             id="path132"
             d="M 0,0 5.198,-6.344 5.403,2.349 C 3.71,1.562 2.139,0.873 0.76,0.307 0.506,0.201 0.253,0.1 0,0"
             style="fill:#231916;fill-opacity:1;fill-rule:evenodd;stroke:none"
             transform="matrix(1.3333333,0,0,-1.3333333,264.80024,364.31939)"
             clip-path="url(#clipPath133)" />
        </g>
      </g>
    </g>
  </g>
</svg>
