<?xml version="1.0" encoding="UTF-8"?>
<!DOCTYPE svg PUBLIC "-//W3C//DTD SVG 1.1//EN" "http://www.w3.org/Graphics/SVG/1.1/DTD/svg11.dtd">
<!-- Creator: CorelDRAW 2021 (64-Bit) -->
<svg xmlns="http://www.w3.org/2000/svg" xml:space="preserve" width="50.9mm" height="50.9mm" version="1.1" style="shape-rendering:geometricPrecision; text-rendering:geometricPrecision; image-rendering:optimizeQuality; fill-rule:evenodd; clip-rule:evenodd"
viewBox="0 0 5090 5090"
 xmlns:xlink="http://www.w3.org/1999/xlink"
 xmlns:xodm="http://www.corel.com/coreldraw/odm/2003">
 <defs>
  <style type="text/css">
   <![CDATA[
    .fil4 {fill:black;fill-rule:nonzero}
    .fil10 {fill:#00BFBA;fill-rule:nonzero}
    .fil0 {fill:#00D095;fill-rule:nonzero}
    .fil12 {fill:#010101;fill-rule:nonzero}
    .fil20 {fill:#058385;fill-rule:nonzero}
    .fil13 {fill:#07C3C7;fill-rule:nonzero}
    .fil5 {fill:#5764B3;fill-rule:nonzero}
    .fil24 {fill:#616161;fill-rule:nonzero}
    .fil16 {fill:#77767A;fill-rule:nonzero}
    .fil25 {fill:#909090;fill-rule:nonzero}
    .fil21 {fill:#A1273B;fill-rule:nonzero}
    .fil18 {fill:#A65462;fill-rule:nonzero}
    .fil17 {fill:#B0AFB5;fill-rule:nonzero}
    .fil6 {fill:#B2D722;fill-rule:nonzero}
    .fil11 {fill:#C400FA;fill-rule:nonzero}
    .fil3 {fill:#CFCFDB;fill-rule:nonzero}
    .fil14 {fill:#EEB22E;fill-rule:nonzero}
    .fil22 {fill:#F03A58;fill-rule:nonzero}
    .fil15 {fill:#F87D91;fill-rule:nonzero}
    .fil19 {fill:#F87E91;fill-rule:nonzero}
    .fil23 {fill:#FEFEFE;fill-rule:nonzero}
    .fil1 {fill:#FF1183;fill-rule:nonzero}
    .fil7 {fill:#FF4646;fill-rule:nonzero}
    .fil9 {fill:#FF770C;fill-rule:nonzero}
    .fil8 {fill:#FFAF00;fill-rule:nonzero}
    .fil2 {fill:white;fill-rule:nonzero}
   ]]>
  </style>
 </defs>
<symbol id="Fm1-112-0" viewBox="6361.23 -15334.83 1314.16 2331.63">
 <polygon class="fil0" points="7675.39,-13003.2 6361.23,-13003.2 6361.23,-15334.83 7650.03,-15334.83 7650.03,-15069.21 6637.85,-15069.21 6637.85,-14378.43 7608.02,-14378.43 7608.02,-14112.81 6637.85,-14112.81 6637.85,-13486.39 7675.39,-13486.39 "/>
</symbol>
<symbol id="Fm0-133-0" viewBox="4457.91 -15371.28 1640.5 2396.26">
 <polygon class="fil1" points="4822.92,-12975.02 4457.91,-12975.02 4515.85,-15321.9 4875.06,-15321.9 5788.85,-13431.54 5832.72,-15371.28 6098.41,-15371.28 6098.41,-12975.02 5681.24,-12975.02 4737.67,-14979.98 "/>
</symbol>
<symbol id="Fm0-111-0" viewBox="4457.91 -15371.28 1640.5 2396.26">
 <polygon class="fil1" points="4822.92,-12975.02 4457.91,-12975.02 4515.85,-15321.9 4875.06,-15321.9 5788.85,-13431.54 5832.72,-15371.28 6098.41,-15371.28 6098.41,-12975.02 5681.24,-12975.02 4737.67,-14979.98 "/>
</symbol>
<symbol id="Fm0-135-0" viewBox="6361.23 -15334.83 1314.16 2331.63">
 <polygon class="fil0" points="7675.39,-13003.2 6361.23,-13003.2 6361.23,-15334.83 7650.03,-15334.83 7650.03,-15069.21 6637.85,-15069.21 6637.85,-14378.43 7608.02,-14378.43 7608.02,-14112.81 6637.85,-14112.81 6637.85,-13486.39 7675.39,-13486.39 "/>
</symbol>
<symbol id="Fm11-114-0" viewBox="28697.24 -8565.92 2731.69 1644.68">
 <path class="fil2" d="M28738.13 -8092.04c42.87,19.75 88.48,30.44 131.35,30.44 113.52,0 173,-23.7 181.68,-169.66 -33.21,45.79 -85.51,71.35 -146.73,71.35 -127.64,0 -207.19,-77.16 -207.19,-202.66 0,-122.94 83.76,-203.35 212.39,-203.35 147.72,0 227.28,108.3 227.28,310.03 0,188.48 -103.1,309.8 -263.95,309.8 -42.88,0 -86.74,-8.14 -134.83,-23.71l0 -122.24zm164.57 -188.49c94.42,0 152.91,-8.13 152.91,-95.05 0,-86.22 -58.49,-139.44 -152.91,-139.44 -94.43,0 -153.91,53.22 -153.91,139.44 0,86.92 59.48,95.05 153.91,95.05zm933.61 127.83l-229.75 3.25 3.47 -65.54 229.76 -3.95 -3.48 66.24zm852.58 195.22l-367.3 0 0 -112.25 141.51 0 0 -411.6 -153.66 28.59 0 -73.67 152.93 -28.82 85.75 0 0 485.5 140.77 0 0 112.25zm353.17 -608.44c143.5,0 216.12,108.3 216.12,310.03 -5.45,201.73 -81.54,309.8 -224.79,309.8 -142.52,0 -215.88,-108.07 -215.88,-309.8 5.95,-201.73 82.04,-310.03 224.55,-310.03zm0 32.07c-88.24,0 -133.84,72.98 -133.84,219.63 0,151.76 36.93,219.85 125.17,219.85 89.21,0 131.1,-72.97 142.5,-219.85 0,-146.65 -44.61,-219.63 -133.83,-219.63zm-2.48 310.73c35.68,0 44.61,-40.21 44.61,-70.42 0,-57.41 -8.93,-92.73 -44.61,-92.73 -40.39,0 -45.61,46.02 -45.61,92.73 0,30.21 8.68,70.42 45.61,70.42z"/>
 <path class="fil2" d="M29343.6 -6932.63l-116.99 0 251.81 -597.75 81.29 0 250.81 597.75 -123.17 0 -24.54 -97.61 -286.75 0 -32.46 97.61zm57.74 -192.67l235.2 0 -117.97 -331.18 -117.23 331.18zm718.74 -498.51c-13.14,-10.69 -21.82,-15.57 -29.74,-15.57 -10.41,0 -18.34,4.88 -23.55,14.87 -5.2,9.77 -7.93,25.34 -8.68,47.42l-53.28 0c1.73,-72.05 31.47,-113.19 83.02,-113.19 21.81,0 38.43,6.74 59.49,24.64l24.29 22.08c12.39,10.69 22.05,15.57 29,15.57 11.4,0 19.07,-4.88 24.53,-14.64 5.21,-9.76 7.68,-25.34 7.68,-47.65l54.28 0c-1.74,72.28 -32.22,113.19 -84.02,113.19 -21.81,0 -38.41,-6.51 -59.23,-24.64l-23.79 -22.08zm248.34 691.18l-111.79 0 16.61 -272.15c0,-85.29 -27.26,-127.13 -97.15,-127.13 -96.16,0 -141.52,54.16 -141.52,141.77l13.13 257.51 -109.29 0 12.89 -452.5 78.81 0 0 53.92c37.67,-27.65 88.23,-60.66 154.65,-60.66 109.31,0 165.31,64.85 171.51,188.72l12.15 270.52zm347.96 -459.24c136.32,0 219.34,87.85 219.34,235.43 0,146.65 -83.02,235.2 -219.34,235.2 -137.3,0 -219.33,-88.55 -219.33,-235.2 0,-147.58 82.03,-235.43 219.33,-235.43zm0 54.15c-84.01,0 -136.3,63.92 -136.3,168.03 0,105.05 51.55,121.55 136.3,121.55 84.03,0 136.32,-17.43 136.32,-121.55 0,-102.49 -52.29,-168.03 -136.32,-168.03zm687.26 31.15c-44.61,-20.45 -92.69,-31.84 -143.49,-31.84 -78.57,0 -121.45,26.96 -121.45,71.35 0,40.2 25.29,59.03 109.3,76.23l27.01 5.57c111.04,22.31 153.92,55.78 153.92,128.76 0,83.66 -74.35,135.26 -197.53,135.26 -50.81,0 -105.83,-8.83 -167.79,-27.89l0 -108.07c58.49,28.59 114.5,42.53 169.52,42.53 74.35,0 106.57,-21.38 106.57,-59.73 -9.42,-16.5 -17.35,-27.89 -24.28,-35.32 -6.2,-7.44 -34.21,-15.58 -83.28,-26.27l-27.01 -5.81c-97.16,-18.82 -138.06,-48.34 -138.06,-118.06 0,-84.36 66.43,-132.01 183.42,-132.01 58.73,0 110.28,8.37 153.15,23.94l0 61.36z"/>
</symbol>
<symbol id="Fm10-113-0" viewBox="30710.35 -15274.31 1563.76 395.02">
 <path class="fil3" d="M32274.11 -15076.79c0,108.54 -346.47,196.59 -775.17,197.5l-13.46 0c-427.63,-0.91 -773.46,-88.54 -775.13,-196.72l0 -1.56c1.67,-108.75 351.13,-196.74 781.86,-196.74 431.8,0 781.9,88.4 781.9,197.52z"/>
</symbol>
<symbol id="Fm12-115-0" viewBox="30289.35 -9537.39 2631.4 319.05">
 <path class="fil3" d="M32920.75 -9377.86c0,88.12 -589.03,159.52 -1315.68,159.52 -725.6,0 -1314.01,-71.19 -1315.72,-159.14l0 -0.76c1.71,-87.96 590.12,-159.15 1315.72,-159.15 726.65,0 1315.68,71.4 1315.68,159.53z"/>
</symbol>
<symbol id="Fm0-138-0" viewBox="28697.24 -8565.92 2560.94 619.83">
 <path class="fil2" d="M28738.13 -8092.04c42.87,19.75 88.48,30.44 131.35,30.44 113.52,0 173,-23.7 181.68,-169.66 -33.21,45.79 -85.51,71.35 -146.73,71.35 -127.64,0 -207.19,-77.16 -207.19,-202.66 0,-122.94 83.76,-203.35 212.39,-203.35 147.72,0 227.28,108.3 227.28,310.03 0,188.48 -103.1,309.8 -263.95,309.8 -42.88,0 -86.74,-8.14 -134.83,-23.71l0 -122.24zm164.57 -188.49c94.42,0 152.91,-8.13 152.91,-95.05 0,-86.22 -58.49,-139.44 -152.91,-139.44 -94.43,0 -153.91,53.22 -153.91,139.44 0,86.92 59.48,95.05 153.91,95.05zm933.61 127.83l-229.75 3.25 3.47 -65.54 229.76 -3.95 -3.48 66.24zm852.58 195.22l-367.3 0 0 -112.25 141.51 0 0 -411.6 -153.66 28.59 0 -73.67 152.93 -28.82 85.75 0 0 485.5 140.77 0 0 112.25zm353.17 -608.44c143.5,0 216.12,108.3 216.12,310.03 -5.45,201.73 -81.54,309.8 -224.79,309.8 -142.52,0 -215.88,-108.07 -215.88,-309.8 5.95,-201.73 82.04,-310.03 224.55,-310.03zm0 32.07c-88.24,0 -133.84,72.98 -133.84,219.63 0,151.76 36.93,219.85 125.17,219.85 89.21,0 131.1,-72.97 142.5,-219.85 0,-146.65 -44.61,-219.63 -133.83,-219.63zm-2.48 310.73c35.68,0 44.61,-40.21 44.61,-70.42 0,-57.41 -8.93,-92.73 -44.61,-92.73 -40.39,0 -45.61,46.02 -45.61,92.73 0,30.21 8.68,70.42 45.61,70.42z"/>
</symbol>
<symbol id="Fm13-116-0" viewBox="34005.3 -8557.34 3204.7 1644.68">
 <path class="fil2" d="M34384.75 -7948.9l-367.3 0 0 -112.25 141.51 0 0 -411.6 -153.66 28.59 0 -73.67 152.93 -28.82 85.75 0 0 485.5 140.77 0 0 112.25zm353.17 -608.44c143.5,0 216.11,108.3 216.11,310.03 -5.44,201.73 -81.53,309.8 -224.78,309.8 -142.52,0 -215.88,-108.07 -215.88,-309.8 5.95,-201.73 82.04,-310.03 224.55,-310.03zm0 32.07c-88.24,0 -133.84,72.98 -133.84,219.63 0,151.76 36.93,219.85 125.17,219.85 89.21,0 131.1,-72.97 142.5,-219.85 0,-146.65 -44.61,-219.63 -133.83,-219.63zm-2.48 310.73c35.68,0 44.61,-40.21 44.61,-70.42 0,-57.41 -8.93,-92.73 -44.61,-92.73 -40.39,0 -45.61,46.02 -45.61,92.73 0,30.21 8.68,70.42 45.61,70.42zm917.75 70.42l-229.74 3.25 3.46 -65.54 229.76 -3.95 -3.48 66.24zm852.59 195.22l-367.31 0 0 -112.25 141.52 0 0 -411.6 -153.66 28.59 0 -73.67 152.92 -28.82 85.75 0 0 485.5 140.78 0 0 112.25zm533.34 -116.44l0 116.44 -404.72 0 0 -116.44c45.35,-34.39 92.44,-69.72 143.25,-105.74 100.62,-72.05 132.84,-110.63 155.64,-151.76 10.41,-19.53 15.87,-39.28 15.87,-59.03 0,-62.99 -51.81,-107.38 -128.63,-107.38 -54.28,0 -113.77,17.2 -181.92,53.22l0 -81.8c69.89,-26.26 130.37,-39.51 180.18,-39.51 132.1,0 216.86,66.47 216.86,170.59 0,49.27 -16.6,87.85 -68.15,147.57 -7.19,7.44 -29.74,30.45 -68.41,67.17 -37.42,36.95 -60.97,72.28 -71.62,106.67l211.65 0z"/>
 <path class="fil2" d="M35124.67 -6924.05l-116.98 0 251.81 -597.75 81.29 0 250.81 597.75 -123.17 0 -24.54 -97.61 -286.76 0 -32.46 97.61zm57.75 -192.67l235.19 0 -117.96 -331.18 -117.23 331.18zm718.74 -498.51c-13.14,-10.69 -21.82,-15.57 -29.75,-15.57 -10.4,0 -18.34,4.88 -23.54,14.87 -5.21,9.77 -7.94,25.34 -8.68,47.42l-53.28 0c1.73,-72.05 31.47,-113.19 83.02,-113.19 21.81,0 38.42,6.74 59.48,24.64l24.3 22.08c12.39,10.69 22.05,15.57 28.99,15.57 11.4,0 19.08,-4.88 24.54,-14.64 5.2,-9.76 7.68,-25.34 7.68,-47.65l54.28 0c-1.74,72.28 -32.23,113.19 -84.02,113.19 -21.81,0 -38.42,-6.51 -59.23,-24.64l-23.79 -22.08zm248.33 691.18l-111.78 0 16.6 -272.15c0,-85.29 -27.25,-127.13 -97.15,-127.13 -96.15,0 -141.52,54.16 -141.52,141.77l13.14 257.51 -109.3 0 12.9 -452.5 78.8 0 0 53.92c37.68,-27.65 88.24,-60.66 154.65,-60.66 109.31,0 165.32,64.85 171.51,188.72l12.15 270.52zm347.97 -459.24c136.32,0 219.34,87.85 219.34,235.43 0,146.65 -83.02,235.2 -219.34,235.2 -137.3,0 -219.34,-88.55 -219.34,-235.2 0,-147.58 82.04,-235.43 219.34,-235.43zm0 54.15c-84.01,0 -136.31,63.92 -136.31,168.03 0,105.05 51.55,121.55 136.31,121.55 84.02,0 136.32,-17.43 136.32,-121.55 0,-102.49 -52.3,-168.03 -136.32,-168.03zm687.26 31.15c-44.61,-20.45 -92.69,-31.84 -143.5,-31.84 -78.56,0 -121.44,26.96 -121.44,71.35 0,40.2 25.28,59.03 109.3,76.23l27.01 5.57c111.03,22.31 153.91,55.78 153.91,128.76 0,83.66 -74.35,135.26 -197.53,135.26 -50.8,0 -105.83,-8.83 -167.79,-27.89l0 -108.07c58.5,28.59 114.5,42.53 169.53,42.53 74.35,0 106.57,-21.38 106.57,-59.73 -9.42,-16.5 -17.35,-27.89 -24.29,-35.32 -6.19,-7.44 -34.21,-15.58 -83.27,-26.27l-27.01 -5.81c-97.16,-18.82 -138.06,-48.34 -138.06,-118.06 0,-84.36 66.43,-132.01 183.41,-132.01 58.74,0 110.29,8.37 153.16,23.94l0 61.36z"/>
</symbol>
<symbol id="Fm1-143-0" viewBox="35007.69 -7681.7 2202.31 769.04">
 <path class="fil2" d="M35124.67 -6924.05l-116.98 0 251.81 -597.75 81.29 0 250.81 597.75 -123.17 0 -24.54 -97.61 -286.76 0 -32.46 97.61zm57.75 -192.67l235.19 0 -117.96 -331.18 -117.23 331.18zm718.74 -498.51c-13.14,-10.69 -21.82,-15.57 -29.75,-15.57 -10.4,0 -18.34,4.88 -23.54,14.87 -5.21,9.77 -7.94,25.34 -8.68,47.42l-53.28 0c1.73,-72.05 31.47,-113.19 83.02,-113.19 21.81,0 38.42,6.74 59.48,24.64l24.3 22.08c12.39,10.69 22.05,15.57 28.99,15.57 11.4,0 19.08,-4.88 24.54,-14.64 5.2,-9.76 7.68,-25.34 7.68,-47.65l54.28 0c-1.74,72.28 -32.23,113.19 -84.02,113.19 -21.81,0 -38.42,-6.51 -59.23,-24.64l-23.79 -22.08zm248.33 691.18l-111.78 0 16.6 -272.15c0,-85.29 -27.25,-127.13 -97.15,-127.13 -96.15,0 -141.52,54.16 -141.52,141.77l13.14 257.51 -109.3 0 12.9 -452.5 78.8 0 0 53.92c37.68,-27.65 88.24,-60.66 154.65,-60.66 109.31,0 165.32,64.85 171.51,188.72l12.15 270.52zm347.97 -459.24c136.32,0 219.34,87.85 219.34,235.43 0,146.65 -83.02,235.2 -219.34,235.2 -137.3,0 -219.34,-88.55 -219.34,-235.2 0,-147.58 82.04,-235.43 219.34,-235.43zm0 54.15c-84.01,0 -136.31,63.92 -136.31,168.03 0,105.05 51.55,121.55 136.31,121.55 84.02,0 136.32,-17.43 136.32,-121.55 0,-102.49 -52.3,-168.03 -136.32,-168.03zm687.26 31.15c-44.61,-20.45 -92.69,-31.84 -143.5,-31.84 -78.56,0 -121.44,26.96 -121.44,71.35 0,40.2 25.28,59.03 109.3,76.23l27.01 5.57c111.03,22.31 153.91,55.78 153.91,128.76 0,83.66 -74.35,135.26 -197.53,135.26 -50.8,0 -105.83,-8.83 -167.79,-27.89l0 -108.07c58.5,28.59 114.5,42.53 169.53,42.53 74.35,0 106.57,-21.38 106.57,-59.73 -9.42,-16.5 -17.35,-27.89 -24.29,-35.32 -6.19,-7.44 -34.21,-15.58 -83.27,-26.27l-27.01 -5.81c-97.16,-18.82 -138.06,-48.34 -138.06,-118.06 0,-84.36 66.43,-132.01 183.41,-132.01 58.74,0 110.29,8.37 153.16,23.94l0 61.36z"/>
</symbol>
<symbol id="Fm0-142-0" viewBox="34005.3 -8557.34 3033.82 619.83">
 <path class="fil2" d="M34384.75 -7948.9l-367.3 0 0 -112.25 141.51 0 0 -411.6 -153.66 28.59 0 -73.67 152.93 -28.82 85.75 0 0 485.5 140.77 0 0 112.25zm353.17 -608.44c143.5,0 216.11,108.3 216.11,310.03 -5.44,201.73 -81.53,309.8 -224.78,309.8 -142.52,0 -215.88,-108.07 -215.88,-309.8 5.95,-201.73 82.04,-310.03 224.55,-310.03zm0 32.07c-88.24,0 -133.84,72.98 -133.84,219.63 0,151.76 36.93,219.85 125.17,219.85 89.21,0 131.1,-72.97 142.5,-219.85 0,-146.65 -44.61,-219.63 -133.83,-219.63zm-2.48 310.73c35.68,0 44.61,-40.21 44.61,-70.42 0,-57.41 -8.93,-92.73 -44.61,-92.73 -40.39,0 -45.61,46.02 -45.61,92.73 0,30.21 8.68,70.42 45.61,70.42zm917.75 70.42l-229.74 3.25 3.46 -65.54 229.76 -3.95 -3.48 66.24zm852.59 195.22l-367.31 0 0 -112.25 141.52 0 0 -411.6 -153.66 28.59 0 -73.67 152.92 -28.82 85.75 0 0 485.5 140.78 0 0 112.25zm533.34 -116.44l0 116.44 -404.72 0 0 -116.44c45.35,-34.39 92.44,-69.72 143.25,-105.74 100.62,-72.05 132.84,-110.63 155.64,-151.76 10.41,-19.53 15.87,-39.28 15.87,-59.03 0,-62.99 -51.81,-107.38 -128.63,-107.38 -54.28,0 -113.77,17.2 -181.92,53.22l0 -81.8c69.89,-26.26 130.37,-39.51 180.18,-39.51 132.1,0 216.86,66.47 216.86,170.59 0,49.27 -16.6,87.85 -68.15,147.57 -7.19,7.44 -29.74,30.45 -68.41,67.17 -37.42,36.95 -60.97,72.28 -71.62,106.67l211.65 0z"/>
</symbol>
<symbol id="Fm1-139-0" viewBox="29226.61 -7690.28 2202.32 769.04">
 <path class="fil2" d="M29343.6 -6932.63l-116.99 0 251.81 -597.75 81.29 0 250.81 597.75 -123.17 0 -24.54 -97.61 -286.75 0 -32.46 97.61zm57.74 -192.67l235.2 0 -117.97 -331.18 -117.23 331.18zm718.74 -498.51c-13.14,-10.69 -21.82,-15.57 -29.74,-15.57 -10.41,0 -18.34,4.88 -23.55,14.87 -5.2,9.77 -7.93,25.34 -8.68,47.42l-53.28 0c1.73,-72.05 31.47,-113.19 83.02,-113.19 21.81,0 38.43,6.74 59.49,24.64l24.29 22.08c12.39,10.69 22.05,15.57 29,15.57 11.4,0 19.07,-4.88 24.53,-14.64 5.21,-9.76 7.68,-25.34 7.68,-47.65l54.28 0c-1.74,72.28 -32.22,113.19 -84.02,113.19 -21.81,0 -38.41,-6.51 -59.23,-24.64l-23.79 -22.08zm248.34 691.18l-111.79 0 16.61 -272.15c0,-85.29 -27.26,-127.13 -97.15,-127.13 -96.16,0 -141.52,54.16 -141.52,141.77l13.13 257.51 -109.29 0 12.89 -452.5 78.81 0 0 53.92c37.67,-27.65 88.23,-60.66 154.65,-60.66 109.31,0 165.31,64.85 171.51,188.72l12.15 270.52zm347.96 -459.24c136.32,0 219.34,87.85 219.34,235.43 0,146.65 -83.02,235.2 -219.34,235.2 -137.3,0 -219.33,-88.55 -219.33,-235.2 0,-147.58 82.03,-235.43 219.33,-235.43zm0 54.15c-84.01,0 -136.3,63.92 -136.3,168.03 0,105.05 51.55,121.55 136.3,121.55 84.03,0 136.32,-17.43 136.32,-121.55 0,-102.49 -52.29,-168.03 -136.32,-168.03zm687.26 31.15c-44.61,-20.45 -92.69,-31.84 -143.49,-31.84 -78.57,0 -121.45,26.96 -121.45,71.35 0,40.2 25.29,59.03 109.3,76.23l27.01 5.57c111.04,22.31 153.92,55.78 153.92,128.76 0,83.66 -74.35,135.26 -197.53,135.26 -50.81,0 -105.83,-8.83 -167.79,-27.89l0 -108.07c58.49,28.59 114.5,42.53 169.52,42.53 74.35,0 106.57,-21.38 106.57,-59.73 -9.42,-16.5 -17.35,-27.89 -24.28,-35.32 -6.2,-7.44 -34.21,-15.58 -83.28,-26.27l-27.01 -5.81c-97.16,-18.82 -138.06,-48.34 -138.06,-118.06 0,-84.36 66.43,-132.01 183.42,-132.01 58.73,0 110.28,8.37 153.15,23.94l0 61.36z"/>
</symbol>
<symbol id="Fm0-150-0" viewBox="47382.57 -19606.87 2023.05 301.6">
 <path class="fil4" d="M47382.57 -19310.68c10.13,-94.68 10.13,-189.47 13.64,-284.15l57.63 0c2.13,94.68 0.78,189.47 9.73,284.15l-81 0zm519.88 0l-87.81 0 13.05 -129.37c0,-40.55 -21.42,-60.43 -76.33,-60.43 -75.54,0 -111.18,25.74 -111.18,67.39l10.31 122.41 -85.86 0 10.13 -215.1 61.91 0 0 25.63c29.6,-13.15 69.32,-28.83 121.51,-28.83 85.86,0 129.87,30.82 134.73,89.7l9.54 128.6zm169.6 -251.78l-61.72 0 3.31 -44.41 55.09 0 3.32 44.41zm-68.54 251.78c8.75,-74.79 10.9,-146.16 10.13,-213.22l55.09 0c-4.09,63.96 -0.77,135.66 13.64,213.22l-78.86 0zm476.64 -174.22c-35.03,-10.94 -70.09,-16.35 -105.73,-16.35 -80.4,0 -123.05,32.37 -123.05,84.18 6.24,36.68 39.92,49.05 120.34,51.48 35.62,0 72.03,2.65 107.09,-8.28l1.35 55.01c-34.26,8.95 -70.67,13.59 -112.53,13.59 -112.74,0 -184.79,-43.19 -184.79,-111.8 0,-69.38 72.05,-111.91 188.88,-111.91 37.77,0 74.76,4.3 108.44,13.25l0 30.83zm169.02 -77.56l-61.72 0 3.31 -44.41 55.1 0 3.31 44.41zm-68.54 251.78c8.76,-74.79 10.91,-146.16 10.13,-213.22l55.1 0c-4.09,63.96 -0.78,135.66 13.64,213.22l-78.87 0zm496.51 0l-61.72 0 0 -30.38c-28.24,23.31 -68.74,35.79 -129.87,35.79 -76.14,0 -125.6,-26.51 -125.6,-67.39 0,-47.95 56.86,-72.47 168.83,-72.47l86.64 0 0 -3.54c0,-32.37 -34.46,-51.81 -106.51,-54.57 -42.65,0 -83.73,5.85 -121.5,17.56l0 -28.5c45.17,-9.72 87.83,-14.8 127.73,-14.8 109.23,0 162,31.59 162,96.66l0 121.64zm-96.18 -108.71l-55.5 0c-89.95,0 -113.32,10.94 -114.1,37.01 6.83,21.76 39.15,23.75 83.93,23.75 61.72,0 85.67,-7.4 85.67,-53.03l0 -7.73zm424.66 -67.83c-13.82,-4.64 -26.86,-4.64 -46.72,-4.64 -69.32,0 -98.33,28.83 -98.33,74.79l13.82 106.39 -96.78 0c28.04,-88.05 31.55,-120.09 26.11,-211.23l56.85 0 0 21.76c12.46,-5.41 57.05,-24.86 116.81,-24.86 8.18,0 15.2,0.33 27.46,1.88l0.78 35.91z"/>
</symbol>
<symbol id="Fm1-151-0" viewBox="47269.64 -19213.29 2248.1 395.18">
 <path class="fil4" d="M47591.69 -19060.83c-50.81,-14.03 -96.18,-20.66 -138.83,-20.66 -73.4,0 -115.26,16.69 -115.26,46.74 0,24.96 22,36.23 96.19,44.08l40.5 4.64c100.85,10.93 147.59,37.78 147.59,84.18 0,54.91 -65.81,83.74 -191.59,83.74 -47.32,0 -101.06,-5.85 -158.69,-17.89l0 -60.77c54.9,17.57 107.86,26.52 158.69,26.52 77.68,0 120.9,-21.43 120.9,-38.23 0,-15.24 -28.22,-33.14 -96.76,-40.87l-41.27 -4.75c-101.06,-11.27 -143.52,-34.25 -143.52,-77.56 0,-50.27 65.81,-81.09 175.82,-81.09 46.74,0 95.42,4.75 146.23,14.47l0 37.45zm475.87 121.97l-280.19 0c1.36,56.9 50.83,66.62 132.61,68.94 47.3,0 92.08,0.44 136.09,-12.82l1.36 48.28c-44.79,10.94 -91.51,16.35 -139.6,16.35 -119.36,-2.32 -194.91,-42.42 -194.91,-109.81 4.67,-69.82 71.27,-113.9 184.79,-113.9 100.26,2.43 151.67,28.83 159.85,89.7l0 13.26zm-53.54 -30.82c-6.82,-23.76 -45.37,-53.81 -106.31,-53.81 -68.74,0 -113.52,28.51 -113.52,54.25l219.83 -0.44zm421.15 -31.6c-35.06,-9.72 -72.83,-15.13 -112.74,-15.13 -61.72,0 -95.4,12.81 -95.4,33.91 0,19.11 19.86,28.06 85.86,36.24l21.22 2.65c87.24,10.61 120.92,26.52 120.92,61.21 0,39.77 -58.42,64.29 -155.18,64.29 -39.92,0 -83.15,-4.19 -131.83,-13.25l0 -51.38c45.96,13.59 89.95,20.22 133.19,20.22 58.4,0 83.73,-10.16 83.73,-28.39 -7.4,-7.85 -13.64,-13.26 -19.09,-16.79 -4.86,-3.54 -26.88,-7.41 -65.42,-12.49l-21.22 -2.76c-76.33,-8.95 -108.46,-22.98 -108.46,-56.12 0,-40.11 52.19,-62.75 144.08,-62.75 46.16,0 86.66,3.97 120.34,11.37l0 29.17zm188.86 -74.02l-61.72 0 3.31 -44.41 55.1 0 3.31 44.41zm-68.54 251.78c8.76,-74.79 10.91,-146.16 10.13,-213.22l55.1 0c-4.09,63.96 -0.78,135.66 13.64,213.22l-78.87 0zm381.25 -310.22l-57.05 0 105.14 -79.55 73.41 0 -121.5 79.55zm-29.6 91.92c107.09,0 172.32,41.76 172.32,111.91 0,69.71 -65.23,111.8 -172.32,111.8 -107.87,0 -172.33,-42.09 -172.33,-111.8 0,-70.15 64.46,-111.91 172.33,-111.91zm0 25.74c-66.02,0 -107.1,30.38 -107.1,79.87 0,49.94 40.5,57.78 107.1,57.78 66.01,0 107.09,-8.28 107.09,-57.78 0,-48.72 -41.08,-79.87 -107.09,-79.87zm610.6 192.56l-87.81 0 13.04 -129.37c0,-40.55 -21.41,-60.43 -76.33,-60.43 -75.53,0 -111.17,25.74 -111.17,67.39l10.31 122.41 -85.87 0 10.14 -215.1 61.91 0 0 25.63c29.59,-13.15 69.32,-28.83 121.5,-28.83 85.87,0 129.88,30.82 134.74,89.7l9.54 128.6z"/>
</symbol>
<symbol id="Fm2-121-0" viewBox="8151.42 -15279.64 1344.89 2360.11">
 <path class="fil5" d="M8151.42 -15279.64l250.12 0 -23.92 1191.31c-6.83,495.26 142.14,698.76 448.3,698.76 304.1,0 453.76,-203.5 443.51,-698.76l-23.92 -1191.31 250.8 0 0 1445.24c0,604.21 -228.94,914.87 -670.39,914.87 -445.57,0 -674.5,-310.66 -674.5,-914.87l0 -1445.24z"/>
</symbol>
<symbol id="Fm0-146-0" viewBox="24266.09 -8747.92 2066.75 619.83">
 <path class="fil2" d="M24406.86 -8457.65c-73.61,-17.19 -108.56,-67.16 -108.56,-135.26 0,-85.29 68.17,-146.64 195.06,-146.64 126.65,0 194.8,61.35 194.8,146.64 0,68.1 -34.95,118.07 -108.3,135.26 83.02,18.13 140.77,73.91 140.77,150.14 0,115.51 -86.49,179.42 -227.27,179.42 -140.78,0 -227.27,-63.91 -227.27,-179.42 0,-76.23 57.5,-132.01 140.77,-150.14zm-31.48 -151.52c0,61.35 43.63,98.3 117.98,98.3 73.36,0 117.97,-36.95 117.97,-98.3 0,-51.83 -44.61,-91.11 -117.97,-91.11 -74.35,0 -117.98,39.28 -117.98,91.11zm117.98 177.79c-82.28,0 -132.1,43.46 -132.1,115.74 0,39.97 49.82,87.61 132.1,87.61 82.03,0 131.85,-48.34 131.85,-87.61 0,-72.28 -49.82,-115.74 -131.85,-115.74zm926.68 96.68l-229.75 3.25 3.47 -65.54 229.75 -3.95 -3.47 66.24zm514.03 60.66c42.87,19.75 88.48,30.44 131.35,30.44 113.52,0 172.99,-23.7 181.67,-169.66 -33.21,45.79 -85.5,71.35 -146.73,71.35 -127.64,0 -207.19,-77.16 -207.19,-202.66 0,-122.94 83.77,-203.35 212.4,-203.35 147.72,0 227.27,108.3 227.27,310.03 0,188.48 -103.1,309.8 -263.95,309.8 -42.88,0 -86.74,-8.14 -134.82,-23.71l0 -122.24zm164.57 -188.49c94.42,0 152.91,-8.13 152.91,-95.05 0,-86.22 -58.49,-139.44 -152.91,-139.44 -94.43,0 -153.92,53.22 -153.92,139.44 0,86.92 59.49,95.05 153.92,95.05z"/>
</symbol>
<symbol id="Fm1-147-0" viewBox="24266.09 -7872.28 2202.31 769.04">
 <path class="fil2" d="M24383.07 -7114.63l-116.98 0 251.81 -597.75 81.29 0 250.81 597.75 -123.17 0 -24.54 -97.61 -286.76 0 -32.46 97.61zm57.75 -192.67l235.19 0 -117.96 -331.18 -117.23 331.18zm718.74 -498.51c-13.14,-10.69 -21.82,-15.57 -29.75,-15.57 -10.4,0 -18.34,4.88 -23.54,14.87 -5.21,9.77 -7.94,25.34 -8.68,47.42l-53.28 0c1.73,-72.05 31.47,-113.19 83.02,-113.19 21.81,0 38.42,6.74 59.48,24.64l24.3 22.08c12.39,10.69 22.05,15.57 28.99,15.57 11.4,0 19.08,-4.88 24.54,-14.64 5.2,-9.76 7.68,-25.34 7.68,-47.65l54.28 0c-1.74,72.28 -32.23,113.19 -84.02,113.19 -21.81,0 -38.42,-6.51 -59.23,-24.64l-23.79 -22.08zm248.33 691.18l-111.78 0 16.6 -272.15c0,-85.29 -27.25,-127.13 -97.15,-127.13 -96.15,0 -141.52,54.16 -141.52,141.77l13.14 257.51 -109.3 0 12.9 -452.5 78.8 0 0 53.92c37.68,-27.65 88.24,-60.66 154.65,-60.66 109.31,0 165.32,64.85 171.51,188.72l12.15 270.52zm347.97 -459.24c136.32,0 219.34,87.85 219.34,235.43 0,146.65 -83.02,235.2 -219.34,235.2 -137.3,0 -219.34,-88.55 -219.34,-235.2 0,-147.58 82.04,-235.43 219.34,-235.43zm0 54.15c-84.01,0 -136.31,63.92 -136.31,168.03 0,105.05 51.55,121.55 136.31,121.55 84.02,0 136.32,-17.43 136.32,-121.55 0,-102.49 -52.3,-168.03 -136.32,-168.03zm687.26 31.15c-44.61,-20.45 -92.69,-31.84 -143.5,-31.84 -78.56,0 -121.44,26.96 -121.44,71.35 0,40.2 25.28,59.03 109.3,76.23l27.01 5.57c111.03,22.31 153.91,55.78 153.91,128.76 0,83.66 -74.35,135.26 -197.53,135.26 -50.8,0 -105.83,-8.83 -167.79,-27.89l0 -108.07c58.5,28.59 114.5,42.53 169.53,42.53 74.35,0 106.57,-21.38 106.57,-59.73 -9.42,-16.5 -17.35,-27.89 -24.29,-35.32 -6.19,-7.44 -34.21,-15.58 -83.27,-26.27l-27.01 -5.81c-97.16,-18.82 -138.06,-48.34 -138.06,-118.06 0,-84.36 66.43,-132.01 183.41,-132.01 58.74,0 110.29,8.37 153.16,23.94l0 61.36z"/>
</symbol>
<symbol id="Fm16-119-0" viewBox="24286.09 -9739.36 2428.44 417.69">
 <path class="fil3" d="M26714.53 -9530.52c0,114.63 -536.39,207.61 -1200.79,208.85l-26.86 0c-664.15,-1.24 -1200.37,-94.16 -1200.79,-208.72l0 -0.26c0.42,-115.28 543.88,-208.71 1214.22,-208.71 670.59,0 1214.22,93.49 1214.22,208.84z"/>
</symbol>
<symbol id="Fm17-120-0" viewBox="47269.64 -19606.87 2248.1 788.76">
 <path class="fil4" d="M47382.57 -19310.68c10.13,-94.68 10.13,-189.47 13.64,-284.15l57.63 0c2.13,94.68 0.78,189.47 9.73,284.15l-81 0zm519.88 0l-87.81 0 13.05 -129.37c0,-40.55 -21.42,-60.43 -76.33,-60.43 -75.54,0 -111.18,25.74 -111.18,67.39l10.31 122.41 -85.86 0 10.13 -215.1 61.91 0 0 25.63c29.6,-13.15 69.32,-28.83 121.51,-28.83 85.86,0 129.87,30.82 134.73,89.7l9.54 128.6zm169.6 -251.78l-61.72 0 3.31 -44.41 55.09 0 3.32 44.41zm-68.54 251.78c8.75,-74.79 10.9,-146.16 10.13,-213.22l55.09 0c-4.09,63.96 -0.77,135.66 13.64,213.22l-78.86 0zm476.64 -174.22c-35.03,-10.94 -70.09,-16.35 -105.73,-16.35 -80.4,0 -123.05,32.37 -123.05,84.18 6.24,36.68 39.92,49.05 120.34,51.48 35.62,0 72.03,2.65 107.09,-8.28l1.35 55.01c-34.26,8.95 -70.67,13.59 -112.53,13.59 -112.74,0 -184.79,-43.19 -184.79,-111.8 0,-69.38 72.05,-111.91 188.88,-111.91 37.77,0 74.76,4.3 108.44,13.25l0 30.83zm169.02 -77.56l-61.72 0 3.31 -44.41 55.1 0 3.31 44.41zm-68.54 251.78c8.76,-74.79 10.91,-146.16 10.13,-213.22l55.1 0c-4.09,63.96 -0.78,135.66 13.64,213.22l-78.87 0zm496.51 0l-61.72 0 0 -30.38c-28.24,23.31 -68.74,35.79 -129.87,35.79 -76.14,0 -125.6,-26.51 -125.6,-67.39 0,-47.95 56.86,-72.47 168.83,-72.47l86.64 0 0 -3.54c0,-32.37 -34.46,-51.81 -106.51,-54.57 -42.65,0 -83.73,5.85 -121.5,17.56l0 -28.5c45.17,-9.72 87.83,-14.8 127.73,-14.8 109.23,0 162,31.59 162,96.66l0 121.64zm-96.18 -108.71l-55.5 0c-89.95,0 -113.32,10.94 -114.1,37.01 6.83,21.76 39.15,23.75 83.93,23.75 61.72,0 85.67,-7.4 85.67,-53.03l0 -7.73zm424.66 -67.83c-13.82,-4.64 -26.86,-4.64 -46.72,-4.64 -69.32,0 -98.33,28.83 -98.33,74.79l13.82 106.39 -96.78 0c28.04,-88.05 31.55,-120.09 26.11,-211.23l56.85 0 0 21.76c12.46,-5.41 57.05,-24.86 116.81,-24.86 8.18,0 15.2,0.33 27.46,1.88l0.78 35.91z"/>
 <path class="fil4" d="M47591.69 -19060.83c-50.81,-14.03 -96.18,-20.66 -138.83,-20.66 -73.4,0 -115.26,16.69 -115.26,46.74 0,24.96 22,36.23 96.19,44.08l40.5 4.64c100.85,10.93 147.59,37.78 147.59,84.18 0,54.91 -65.81,83.74 -191.59,83.74 -47.32,0 -101.06,-5.85 -158.69,-17.89l0 -60.77c54.9,17.57 107.86,26.52 158.69,26.52 77.68,0 120.9,-21.43 120.9,-38.23 0,-15.24 -28.22,-33.14 -96.76,-40.87l-41.27 -4.75c-101.06,-11.27 -143.52,-34.25 -143.52,-77.56 0,-50.27 65.81,-81.09 175.82,-81.09 46.74,0 95.42,4.75 146.23,14.47l0 37.45zm475.87 121.97l-280.19 0c1.36,56.9 50.83,66.62 132.61,68.94 47.3,0 92.08,0.44 136.09,-12.82l1.36 48.28c-44.79,10.94 -91.51,16.35 -139.6,16.35 -119.36,-2.32 -194.91,-42.42 -194.91,-109.81 4.67,-69.82 71.27,-113.9 184.79,-113.9 100.26,2.43 151.67,28.83 159.85,89.7l0 13.26zm-53.54 -30.82c-6.82,-23.76 -45.37,-53.81 -106.31,-53.81 -68.74,0 -113.52,28.51 -113.52,54.25l219.83 -0.44zm421.15 -31.6c-35.06,-9.72 -72.83,-15.13 -112.74,-15.13 -61.72,0 -95.4,12.81 -95.4,33.91 0,19.11 19.86,28.06 85.86,36.24l21.22 2.65c87.24,10.61 120.92,26.52 120.92,61.21 0,39.77 -58.42,64.29 -155.18,64.29 -39.92,0 -83.15,-4.19 -131.83,-13.25l0 -51.38c45.96,13.59 89.95,20.22 133.19,20.22 58.4,0 83.73,-10.16 83.73,-28.39 -7.4,-7.85 -13.64,-13.26 -19.09,-16.79 -4.86,-3.54 -26.88,-7.41 -65.42,-12.49l-21.22 -2.76c-76.33,-8.95 -108.46,-22.98 -108.46,-56.12 0,-40.11 52.19,-62.75 144.08,-62.75 46.16,0 86.66,3.97 120.34,11.37l0 29.17zm188.86 -74.02l-61.72 0 3.31 -44.41 55.1 0 3.31 44.41zm-68.54 251.78c8.76,-74.79 10.91,-146.16 10.13,-213.22l55.1 0c-4.09,63.96 -0.78,135.66 13.64,213.22l-78.87 0zm381.25 -310.22l-57.05 0 105.14 -79.55 73.41 0 -121.5 79.55zm-29.6 91.92c107.09,0 172.32,41.76 172.32,111.91 0,69.71 -65.23,111.8 -172.32,111.8 -107.87,0 -172.33,-42.09 -172.33,-111.8 0,-70.15 64.46,-111.91 172.33,-111.91zm0 25.74c-66.02,0 -107.1,30.38 -107.1,79.87 0,49.94 40.5,57.78 107.1,57.78 66.01,0 107.09,-8.28 107.09,-57.78 0,-48.72 -41.08,-79.87 -107.09,-79.87zm610.6 192.56l-87.81 0 13.04 -129.37c0,-40.55 -21.41,-60.43 -76.33,-60.43 -75.53,0 -111.17,25.74 -111.17,67.39l10.31 122.41 -85.87 0 10.14 -215.1 61.91 0 0 25.63c29.59,-13.15 69.32,-28.83 121.5,-28.83 85.87,0 129.88,30.82 134.74,89.7l9.54 128.6z"/>
</symbol>
<symbol id="Fm0-153-0" viewBox="8151.42 -15279.64 1344.89 2360.11">
 <path class="fil5" d="M8151.42 -15279.64l250.12 0 -23.92 1191.31c-6.83,495.26 142.14,698.76 448.3,698.76 304.1,0 453.76,-203.5 443.51,-698.76l-23.92 -1191.31 250.8 0 0 1445.24c0,604.21 -228.94,914.87 -670.39,914.87 -445.57,0 -674.5,-310.66 -674.5,-914.87l0 -1445.24z"/>
</symbol>
<symbol id="Fm3-122-0" viewBox="9974.05 -15374.74 1368.81 2357.42">
 <path class="fil6" d="M10807.77 -14123.62c101.14,45.83 195.44,197.98 294.54,462.87l240.55 643.43 -337.6 0 -178.35 -604.94c-115.49,-316.21 -202.29,-391.37 -390.22,-391.37l-178.36 0 0 996.31 -284.28 0 0 -2357.42 537.13 0c354.68,0 561.74,223.64 561.74,679.18 0,297.88 -101.14,497.7 -265.15,571.94zm-571.3 -1082.47l0 866.16 299.32 0c180.41,0 368.34,-164.99 368.34,-355.63 0,-404.21 -187.93,-510.53 -368.34,-510.53l-299.32 0z"/>
</symbol>
<symbol id="Fm15-118-0" viewBox="24266.09 -8747.92 2202.31 1644.68">
 <path class="fil2" d="M24406.86 -8457.65c-73.61,-17.19 -108.56,-67.16 -108.56,-135.26 0,-85.29 68.17,-146.64 195.06,-146.64 126.65,0 194.8,61.35 194.8,146.64 0,68.1 -34.95,118.07 -108.3,135.26 83.02,18.13 140.77,73.91 140.77,150.14 0,115.51 -86.49,179.42 -227.27,179.42 -140.78,0 -227.27,-63.91 -227.27,-179.42 0,-76.23 57.5,-132.01 140.77,-150.14zm-31.48 -151.52c0,61.35 43.63,98.3 117.98,98.3 73.36,0 117.97,-36.95 117.97,-98.3 0,-51.83 -44.61,-91.11 -117.97,-91.11 -74.35,0 -117.98,39.28 -117.98,91.11zm117.98 177.79c-82.28,0 -132.1,43.46 -132.1,115.74 0,39.97 49.82,87.61 132.1,87.61 82.03,0 131.85,-48.34 131.85,-87.61 0,-72.28 -49.82,-115.74 -131.85,-115.74zm926.68 96.68l-229.75 3.25 3.47 -65.54 229.75 -3.95 -3.47 66.24zm514.03 60.66c42.87,19.75 88.48,30.44 131.35,30.44 113.52,0 172.99,-23.7 181.67,-169.66 -33.21,45.79 -85.5,71.35 -146.73,71.35 -127.64,0 -207.19,-77.16 -207.19,-202.66 0,-122.94 83.77,-203.35 212.4,-203.35 147.72,0 227.27,108.3 227.27,310.03 0,188.48 -103.1,309.8 -263.95,309.8 -42.88,0 -86.74,-8.14 -134.82,-23.71l0 -122.24zm164.57 -188.49c94.42,0 152.91,-8.13 152.91,-95.05 0,-86.22 -58.49,-139.44 -152.91,-139.44 -94.43,0 -153.92,53.22 -153.92,139.44 0,86.92 59.49,95.05 153.92,95.05z"/>
 <path class="fil2" d="M24383.07 -7114.63l-116.98 0 251.81 -597.75 81.29 0 250.81 597.75 -123.17 0 -24.54 -97.61 -286.76 0 -32.46 97.61zm57.75 -192.67l235.19 0 -117.96 -331.18 -117.23 331.18zm718.74 -498.51c-13.14,-10.69 -21.82,-15.57 -29.75,-15.57 -10.4,0 -18.34,4.88 -23.54,14.87 -5.21,9.77 -7.94,25.34 -8.68,47.42l-53.28 0c1.73,-72.05 31.47,-113.19 83.02,-113.19 21.81,0 38.42,6.74 59.48,24.64l24.3 22.08c12.39,10.69 22.05,15.57 28.99,15.57 11.4,0 19.08,-4.88 24.54,-14.64 5.2,-9.76 7.68,-25.34 7.68,-47.65l54.28 0c-1.74,72.28 -32.23,113.19 -84.02,113.19 -21.81,0 -38.42,-6.51 -59.23,-24.64l-23.79 -22.08zm248.33 691.18l-111.78 0 16.6 -272.15c0,-85.29 -27.25,-127.13 -97.15,-127.13 -96.15,0 -141.52,54.16 -141.52,141.77l13.14 257.51 -109.3 0 12.9 -452.5 78.8 0 0 53.92c37.68,-27.65 88.24,-60.66 154.65,-60.66 109.31,0 165.32,64.85 171.51,188.72l12.15 270.52zm347.97 -459.24c136.32,0 219.34,87.85 219.34,235.43 0,146.65 -83.02,235.2 -219.34,235.2 -137.3,0 -219.34,-88.55 -219.34,-235.2 0,-147.58 82.04,-235.43 219.34,-235.43zm0 54.15c-84.01,0 -136.31,63.92 -136.31,168.03 0,105.05 51.55,121.55 136.31,121.55 84.02,0 136.32,-17.43 136.32,-121.55 0,-102.49 -52.3,-168.03 -136.32,-168.03zm687.26 31.15c-44.61,-20.45 -92.69,-31.84 -143.5,-31.84 -78.56,0 -121.44,26.96 -121.44,71.35 0,40.2 25.28,59.03 109.3,76.23l27.01 5.57c111.03,22.31 153.91,55.78 153.91,128.76 0,83.66 -74.35,135.26 -197.53,135.26 -50.8,0 -105.83,-8.83 -167.79,-27.89l0 -108.07c58.5,28.59 114.5,42.53 169.53,42.53 74.35,0 106.57,-21.38 106.57,-59.73 -9.42,-16.5 -17.35,-27.89 -24.29,-35.32 -6.19,-7.44 -34.21,-15.58 -83.27,-26.27l-27.01 -5.81c-97.16,-18.82 -138.06,-48.34 -138.06,-118.06 0,-84.36 66.43,-132.01 183.41,-132.01 58.74,0 110.29,8.37 153.16,23.94l0 61.36z"/>
</symbol>
<symbol id="Fm14-117-0" viewBox="36345.56 -9782.18 2039.19 348.15">
 <path class="fil3" d="M38384.75 -9607.71c-1.3,95.73 -454.87,173.27 -1015.18,173.68l-8.78 0c-560.8,-0.41 -1014.8,-78.1 -1015.23,-173.95l0 -0.28c0.43,-96.06 456.79,-173.92 1019.62,-173.92 562.34,0 1018.27,77.71 1019.57,173.65l0 0.82z"/>
</symbol>
<symbol id="Fm0-155-0" viewBox="9974.05 -15374.74 1368.81 2357.42">
 <path class="fil6" d="M10807.77 -14123.62c101.14,45.83 195.44,197.98 294.54,462.87l240.55 643.43 -337.6 0 -178.35 -604.94c-115.49,-316.21 -202.29,-391.37 -390.22,-391.37l-178.36 0 0 996.31 -284.28 0 0 -2357.42 537.13 0c354.68,0 561.74,223.64 561.74,679.18 0,297.88 -101.14,497.7 -265.15,571.94zm-571.3 -1082.47l0 866.16 299.32 0c180.41,0 368.34,-164.99 368.34,-355.63 0,-404.21 -187.93,-510.53 -368.34,-510.53l-299.32 0z"/>
</symbol>
<symbol id="Fm4-123-0" viewBox="11517.62 -15327.15 1461.41 2335.23">
 <path class="fil7" d="M12249.24 -15327.15c443.77,0 729.79,457.06 729.79,1168.05 0,710.12 -286.02,1167.18 -729.79,1167.18 -443.77,0 -731.62,-453.56 -731.62,-1167.18 0,-710.99 287.85,-1168.05 731.62,-1168.05zm0 247.79c-309.96,0 -506.98,352 -506.98,920.26 0,466.7 197.02,590.16 506.98,590.16 309.35,0 504.53,-123.46 504.53,-590.16 0,-568.26 -195.18,-920.26 -504.53,-920.26z"/>
</symbol>
<symbol id="Fm0-157-0" viewBox="11517.62 -15327.15 1461.41 2335.23">
 <path class="fil7" d="M12249.24 -15327.15c443.77,0 729.79,457.06 729.79,1168.05 0,710.12 -286.02,1167.18 -729.79,1167.18 -443.77,0 -731.62,-453.56 -731.62,-1167.18 0,-710.99 287.85,-1168.05 731.62,-1168.05zm0 247.79c-309.96,0 -506.98,352 -506.98,920.26 0,466.7 197.02,590.16 506.98,590.16 309.35,0 504.53,-123.46 504.53,-590.16 0,-568.26 -195.18,-920.26 -504.53,-920.26z"/>
</symbol>
<symbol id="Fm5-124-0" viewBox="13300.99 -15355.73 1419.38 2390.57">
 <polygon class="fil8" points="13609.2,-12965.16 13300.99,-12965.16 13348.83,-15355.73 13585.28,-15355.73 13563.41,-14345.41 14352.03,-15355.73 14658.18,-15355.73 13785.51,-14240.38 14720.37,-12965.16 14158.63,-12965.16 13563.41,-14115.83 "/>
</symbol>
<symbol id="Fm0-159-0" viewBox="13300.99 -15355.73 1419.38 2390.57">
 <polygon class="fil8" points="13609.2,-12965.16 13300.99,-12965.16 13348.83,-15355.73 13585.28,-15355.73 13563.41,-14345.41 14352.03,-15355.73 14658.18,-15355.73 13785.51,-14240.38 14720.37,-12965.16 14158.63,-12965.16 13563.41,-14115.83 "/>
</symbol>
<symbol id="Fm7-126-0" viewBox="15846.31 -15314.39 1282.14 2390.57">
 <path class="fil9" d="M15846.31 -12923.82l0 -2390.57 424.62 0c591.84,0 857.52,373.64 857.52,1193.42 0,823.51 -269.83,1197.15 -857.52,1197.15l-424.62 0zm217.05 -2124.75l0 1521.53 249.08 0c420.46,0 573.46,-137.56 604.89,-626.46 0,-596.71 -184.43,-895.07 -604.89,-895.07l-249.08 0z"/>
</symbol>
<symbol id="Fm6-125-0" viewBox="15137.5 -15312.77 383.66 2390.57">
 <path class="fil10" d="M15137.5 -12922.2c47.95,-796.55 47.95,-1594.03 64.55,-2390.57l272.99 0c10.15,796.54 3.69,1594.02 46.12,2390.57l-383.66 0z"/>
</symbol>
<symbol id="Fm0-161-0" viewBox="15137.5 -15312.77 383.66 2390.57">
 <path class="fil10" d="M15137.5 -12922.2c47.95,-796.55 47.95,-1594.03 64.55,-2390.57l272.99 0c10.15,796.54 3.69,1594.02 46.12,2390.57l-383.66 0z"/>
</symbol>
<symbol id="Fm0-163-0" viewBox="15846.31 -15314.39 1282.14 2390.57">
 <path class="fil9" d="M15846.31 -12923.82l0 -2390.57 424.62 0c591.84,0 857.52,373.64 857.52,1193.42 0,823.51 -269.83,1197.15 -857.52,1197.15l-424.62 0zm217.05 -2124.75l0 1521.53 249.08 0c420.46,0 573.46,-137.56 604.89,-626.46 0,-596.71 -184.43,-895.07 -604.89,-895.07l-249.08 0z"/>
</symbol>
<symbol id="Fm8-127-0" viewBox="17577.84 -15204.3 1421.03 2277.32">
 <path class="fil11" d="M18877.11 -14802.97c-205.02,-108.44 -388.05,-159.68 -560.08,-159.68 -296.15,0 -465.04,128.94 -465.04,361.2 0,192.98 88.77,280.07 388.05,340.7l163.4 35.86c406.9,84.54 595.43,292.03 595.43,650.66 0,424.39 -265.51,647.25 -772.97,647.25 -190.88,0 -407.69,-45.26 -640.21,-138.33l0 -469.64c221.53,135.77 435.19,204.94 640.21,204.94 313.43,0 487.82,-165.66 487.82,-295.45 0,-117.84 -113.9,-256.17 -390.41,-315.94l-166.53 -36.71c-407.7,-87.1 -578.94,-264.71 -578.94,-599.43 0,-388.52 265.51,-626.76 709.33,-626.76 188.54,0 384.92,36.72 589.94,111.86l0 289.47z"/>
</symbol>
<symbol id="Fm0-165-0" viewBox="17577.84 -15204.3 1421.03 2277.32">
 <path class="fil11" d="M18877.11 -14802.97c-205.02,-108.44 -388.05,-159.68 -560.08,-159.68 -296.15,0 -465.04,128.94 -465.04,361.2 0,192.98 88.77,280.07 388.05,340.7l163.4 35.86c406.9,84.54 595.43,292.03 595.43,650.66 0,424.39 -265.51,647.25 -772.97,647.25 -190.88,0 -407.69,-45.26 -640.21,-138.33l0 -469.64c221.53,135.77 435.19,204.94 640.21,204.94 313.43,0 487.82,-165.66 487.82,-295.45 0,-117.84 -113.9,-256.17 -390.41,-315.94l-166.53 -36.71c-407.7,-87.1 -578.94,-264.71 -578.94,-599.43 0,-388.52 265.51,-626.76 709.33,-626.76 188.54,0 384.92,36.72 589.94,111.86l0 289.47z"/>
</symbol>
<symbol id="Fm9-128-0" viewBox="30415.2 -14136.09 2202.32 1636.31">
 <path class="fil2" d="M30742.85 -14073.81l-327.65 0 0 -59.96 405.47 0 0 34.4 -159.11 563.35 -153.91 0 235.2 -537.79zm777.23 342.57l-229.75 3.25 3.47 -65.54 229.76 -3.95 -3.48 66.24zm613.91 -122.95c-73.62,-17.19 -108.56,-67.16 -108.56,-135.26 0,-85.29 68.16,-146.64 195.06,-146.64 126.64,0 194.8,61.35 194.8,146.64 0,68.1 -34.95,118.07 -108.31,135.26 83.02,18.13 140.78,73.91 140.78,150.14 0,115.51 -86.5,179.42 -227.27,179.42 -140.78,0 -227.28,-63.91 -227.28,-179.42 0,-76.23 57.5,-132.01 140.78,-150.14zm-31.48 -151.52c0,61.35 43.63,98.3 117.98,98.3 73.35,0 117.96,-36.95 117.96,-98.3 0,-51.83 -44.61,-91.11 -117.96,-91.11 -74.35,0 -117.98,39.28 -117.98,91.11zm117.98 177.79c-82.29,0 -132.1,43.46 -132.1,115.74 0,39.97 49.81,87.61 132.1,87.61 82.02,0 131.85,-48.34 131.85,-87.61 0,-72.28 -49.83,-115.74 -131.85,-115.74z"/>
 <path class="fil2" d="M30532.19 -12511.17l-116.99 0 251.82 -597.75 81.29 0 250.81 597.75 -123.17 0 -24.54 -97.61 -286.76 0 -32.46 97.61zm57.75 -192.67l235.19 0 -117.96 -331.18 -117.23 331.18zm718.73 -498.51c-13.13,-10.69 -21.82,-15.57 -29.74,-15.57 -10.41,0 -18.34,4.88 -23.54,14.87 -5.21,9.77 -7.94,25.34 -8.69,47.42l-53.27 0c1.72,-72.05 31.47,-113.19 83.02,-113.19 21.8,0 38.42,6.74 59.48,24.64l24.29 22.08c12.4,10.69 22.06,15.57 29,15.57 11.4,0 19.08,-4.88 24.54,-14.64 5.2,-9.76 7.68,-25.34 7.68,-47.65l54.28 0c-1.74,72.28 -32.23,113.19 -84.03,113.19 -21.8,0 -38.41,-6.51 -59.22,-24.64l-23.8 -22.08zm248.34 691.18l-111.78 0 16.6 -272.15c0,-85.29 -27.26,-127.13 -97.15,-127.13 -96.16,0 -141.52,54.16 -141.52,141.77l13.14 257.51 -109.3 0 12.89 -452.5 78.81 0 0 53.92c37.68,-27.65 88.24,-60.66 154.65,-60.66 109.31,0 165.32,64.85 171.51,188.72l12.15 270.52zm347.97 -459.24c136.32,0 219.34,87.85 219.34,235.43 0,146.65 -83.02,235.2 -219.34,235.2 -137.3,0 -219.34,-88.55 -219.34,-235.2 0,-147.58 82.04,-235.43 219.34,-235.43zm0 54.15c-84.01,0 -136.31,63.92 -136.31,168.03 0,105.05 51.55,121.55 136.31,121.55 84.02,0 136.32,-17.43 136.32,-121.55 0,-102.49 -52.3,-168.03 -136.32,-168.03zm687.26 31.15c-44.61,-20.45 -92.7,-31.84 -143.5,-31.84 -78.56,0 -121.44,26.96 -121.44,71.35 0,40.2 25.28,59.03 109.29,76.23l27.02 5.57c111.03,22.31 153.91,55.78 153.91,128.76 0,83.66 -74.35,135.26 -197.53,135.26 -50.8,0 -105.83,-8.83 -167.79,-27.89l0 -108.07c58.49,28.59 114.5,42.53 169.53,42.53 74.35,0 106.56,-21.38 106.56,-59.73 -9.41,-16.5 -17.35,-27.89 -24.28,-35.32 -6.19,-7.44 -34.21,-15.58 -83.27,-26.27l-27.02 -5.81c-97.16,-18.82 -138.05,-48.34 -138.05,-118.06 0,-84.36 66.42,-132.01 183.41,-132.01 58.74,0 110.29,8.37 153.16,23.94l0 61.36z"/>
</symbol>
<symbol id="Fm0-167-0" viewBox="30415.2 -14136.09 2032.56 611.46">
 <path class="fil2" d="M30742.85 -14073.81l-327.65 0 0 -59.96 405.47 0 0 34.4 -159.11 563.35 -153.91 0 235.2 -537.79zm777.23 342.57l-229.75 3.25 3.47 -65.54 229.76 -3.95 -3.48 66.24zm613.91 -122.95c-73.62,-17.19 -108.56,-67.16 -108.56,-135.26 0,-85.29 68.16,-146.64 195.06,-146.64 126.64,0 194.8,61.35 194.8,146.64 0,68.1 -34.95,118.07 -108.31,135.26 83.02,18.13 140.78,73.91 140.78,150.14 0,115.51 -86.5,179.42 -227.27,179.42 -140.78,0 -227.28,-63.91 -227.28,-179.42 0,-76.23 57.5,-132.01 140.78,-150.14zm-31.48 -151.52c0,61.35 43.63,98.3 117.98,98.3 73.35,0 117.96,-36.95 117.96,-98.3 0,-51.83 -44.61,-91.11 -117.96,-91.11 -74.35,0 -117.98,39.28 -117.98,91.11zm117.98 177.79c-82.29,0 -132.1,43.46 -132.1,115.74 0,39.97 49.81,87.61 132.1,87.61 82.02,0 131.85,-48.34 131.85,-87.61 0,-72.28 -49.83,-115.74 -131.85,-115.74z"/>
</symbol>
<symbol id="Fm1-168-0" viewBox="30415.2 -13268.82 2202.32 769.04">
 <path class="fil2" d="M30532.19 -12511.17l-116.99 0 251.82 -597.75 81.29 0 250.81 597.75 -123.17 0 -24.54 -97.61 -286.76 0 -32.46 97.61zm57.75 -192.67l235.19 0 -117.96 -331.18 -117.23 331.18zm718.73 -498.51c-13.13,-10.69 -21.82,-15.57 -29.74,-15.57 -10.41,0 -18.34,4.88 -23.54,14.87 -5.21,9.77 -7.94,25.34 -8.69,47.42l-53.27 0c1.72,-72.05 31.47,-113.19 83.02,-113.19 21.8,0 38.42,6.74 59.48,24.64l24.29 22.08c12.4,10.69 22.06,15.57 29,15.57 11.4,0 19.08,-4.88 24.54,-14.64 5.2,-9.76 7.68,-25.34 7.68,-47.65l54.28 0c-1.74,72.28 -32.23,113.19 -84.03,113.19 -21.8,0 -38.41,-6.51 -59.22,-24.64l-23.8 -22.08zm248.34 691.18l-111.78 0 16.6 -272.15c0,-85.29 -27.26,-127.13 -97.15,-127.13 -96.16,0 -141.52,54.16 -141.52,141.77l13.14 257.51 -109.3 0 12.89 -452.5 78.81 0 0 53.92c37.68,-27.65 88.24,-60.66 154.65,-60.66 109.31,0 165.32,64.85 171.51,188.72l12.15 270.52zm347.97 -459.24c136.32,0 219.34,87.85 219.34,235.43 0,146.65 -83.02,235.2 -219.34,235.2 -137.3,0 -219.34,-88.55 -219.34,-235.2 0,-147.58 82.04,-235.43 219.34,-235.43zm0 54.15c-84.01,0 -136.31,63.92 -136.31,168.03 0,105.05 51.55,121.55 136.31,121.55 84.02,0 136.32,-17.43 136.32,-121.55 0,-102.49 -52.3,-168.03 -136.32,-168.03zm687.26 31.15c-44.61,-20.45 -92.7,-31.84 -143.5,-31.84 -78.56,0 -121.44,26.96 -121.44,71.35 0,40.2 25.28,59.03 109.29,76.23l27.02 5.57c111.03,22.31 153.91,55.78 153.91,128.76 0,83.66 -74.35,135.26 -197.53,135.26 -50.8,0 -105.83,-8.83 -167.79,-27.89l0 -108.07c58.49,28.59 114.5,42.53 169.53,42.53 74.35,0 106.56,-21.38 106.56,-59.73 -9.41,-16.5 -17.35,-27.89 -24.28,-35.32 -6.19,-7.44 -34.21,-15.58 -83.27,-26.27l-27.02 -5.81c-97.16,-18.82 -138.05,-48.34 -138.05,-118.06 0,-84.36 66.42,-132.01 183.41,-132.01 58.74,0 110.29,8.37 153.16,23.94l0 61.36z"/>
</symbol>
 <g id="Capa_x0020_1">
  <metadata id="CorelCorpID_0Corel-Layer"/>
  <g id="_2274183946560">
   <path class="fil3" d="M4048.25 2804.79c0,88.12 -589.03,159.52 -1315.68,159.52 -725.6,0 -1314.01,-71.19 -1315.72,-159.14l0 -0.76c1.71,-87.96 590.12,-159.15 1315.72,-159.15 726.65,0 1315.68,71.4 1315.68,159.53z"/>
   <path class="fil12" d="M4017.35 1519.01c0.88,-72.29 -23.67,-98.22 -94.48,-107.99 -78.07,-10.79 -156.52,-16.86 -235.12,-20.95 -170.04,-8.75 -340.08,0.24 -510.15,-3.28 -18.88,-0.39 -26.22,-5.65 -30.66,-23.82 -15.49,-63.92 -31.01,-127.95 -52.46,-190.25 -25.61,-74.26 -62.72,-100.75 -141.36,-100.29 -111.37,0.6 -222.78,4.37 -333.73,13.79 -64.48,5.47 -119.3,28.58 -144.25,95.07 -19.19,50.94 -38.52,101.74 -57.99,152.51 -19.05,49.64 -19.19,50.59 -73.52,49.32 -90.24,-2.05 -180.31,10.76 -270.62,0.92 -21.2,-2.3 -32.03,-7.94 -35.1,-31.23 -5.75,-44.41 -15.1,-88.4 -23.71,-132.39 -8.36,-42.44 -25.22,-58.42 -68.08,-66.4 -27.48,-5.11 -55.18,-7.4 -83.19,-5.71 -79.12,4.87 -108.41,32.45 -119.13,110.1 -5.61,40.61 -14.57,80.72 -20.5,121.29 -1.72,11.81 -5.43,14.81 -17,16.89 -33.3,6 -67.13,2.9 -100.37,7.38 -42.58,5.71 -53.23,17.78 -55.7,61.27 -1.34,23.85 -0.88,47.88 -3.1,71.65 -16.9,174.24 -22.26,349.04 -26.25,523.95 -2.15,94.58 -4.06,189.19 -5.26,283.77 -1.58,124.18 -2.29,248.43 10.27,372.18 5.47,54.47 35.77,85.73 90.73,96 62.9,11.85 126.3,5.82 189.55,2.85 64.31,-3.1 128.73,-9.66 192.76,-7.23 115.25,4.3 230.43,7.41 345.65,8.15 267.23,1.83 534.6,-4.13 801.72,7.27 166.8,7.12 333.34,20.6 500.07,29.91 89.11,4.94 178.5,8.89 267.68,0.96 42.41,-3.78 69.57,-28.23 78.74,-68.48 13.16,-57.64 16.06,-116.66 15.14,-175.82 -1.17,-84.99 -9.91,-169.65 -8.05,-254.78 2.05,-94.51 13.38,-188.59 8.68,-283.49 -3.21,-65.83 -0.67,-131.91 -0.67,-197.87 0.57,0 1.03,0 1.48,0.03 0,-44.94 -0.95,-89.85 0.29,-134.73 1.94,-73.51 6.77,-147 7.69,-220.55zm-1500.93 -316.27c17.04,-31.32 46.04,-47.76 82.55,-49.32 74.54,-23.24 151.94,-17.99 228.39,-21.52 43.11,-1.97 86.39,-1.09 129.64,-1.23 43.54,-0.14 76.91,19.3 94.76,58.14 24.34,53.3 38.35,109.61 37.18,169.05 -0.28,14.6 -4.34,20.04 -19.75,19.93 -189.16,-0.7 -378.39,-0.92 -567.59,-1.27l-51.61 0c20.74,-59.58 36.83,-119.34 66.43,-173.78zm-723.76 35.21c12.63,-29.53 43.11,-34.54 73.48,-32.53 7.62,-0.07 15.35,0.71 22.86,-0.24 54.97,-7.34 88.83,13.44 93.31,85.26 10.55,26.74 2.54,54.54 4.87,81.74 0.92,10.8 -7.41,11.64 -15.49,11.64 -60.28,0.07 -120.61,-0.03 -180.9,0.18 -12.52,0.04 -15.98,-6.6 -17.36,-17.64 -5.57,-44.66 1.98,-88.12 19.23,-128.41zm199.88 1418.34c1.45,25.69 -1.69,51.72 0.15,77.37 1.65,23.39 -5.76,32.17 -29.89,32.1 -94.19,-0.25 -188.38,1.09 -282.57,1.76 -15.38,0.11 -30.87,0.53 -46.11,-0.91 -39.37,-3.78 -55.42,-20.15 -62.62,-58.81 -8.82,-47.27 -7.02,-95.29 -9.7,-142.84 -5.82,-101.07 -11,-202.43 -10.55,-303.6 0.5,-121.29 6.11,-242.57 11.5,-363.82 2.47,-56.52 20.61,-67.98 90.21,-65.44 100.75,-5.54 201.51,-4.02 302.26,0.28 16.55,0.67 27.66,2.15 27.8,24.98 0.81,213.04 3.17,426.12 5.04,639.16 9.6,53.02 1.63,106.5 4.48,159.77zm1529.08 -492.86c-12.13,141.85 -10.51,284.27 -17.56,426.33 -0.92,18.98 -3.11,37.99 -4.7,56.97 1.98,43.96 -2.82,87.7 -4.58,131.55 -0.57,15.28 -6.78,15.46 -19.76,14.5 -188.73,-13.69 -377.72,-18.24 -566.91,-21.27 -246.88,-3.92 -493.82,-0.28 -740.73,-2.47 -35.45,-0.35 -70.94,-2.79 -106.43,-4.48 -15.03,-0.63 -23.71,-5.54 -24.52,-23.74 -1.16,-25.75 -3.7,-51.4 -2.36,-77.22 -14.36,-202.99 -14.15,-406.26 -12.42,-609.64 0.53,-61.91 4.06,-123.86 4.58,-185.88 0.15,-17.11 6.11,-20.53 21.56,-19.93 29.67,1.23 59.48,0.74 89.22,0.95 15.94,-2.04 14,9.53 13.58,18.66 -1.02,22.9 -2.22,45.79 -4.52,68.55 -17.57,177.3 -0.56,348.26 103.9,499.46 92.56,134.02 228.88,205.74 384.07,238.3 205.98,43.11 387.77,-11.53 540.2,-156.95 33.13,-31.64 62.09,-67.55 92.96,-101.46 22.68,-34.18 46.96,-67.2 66.36,-103.64 44.73,-84 38.77,-171.06 19.3,-259.44 -9.07,-41.02 -16.27,-82.48 -26.89,-123.01 -5.18,-19.86 3.07,-25.19 19.34,-28.22 55.63,-10.37 110.77,-6.56 165.77,4.66 15.84,3.21 15.87,13.58 16.33,25.5 3,77.44 0.81,154.8 -5.79,231.92zm-1307.32 -285.72c30.23,-107.45 100.01,-181.43 194.84,-237.88 253.08,-150.63 530.86,-126.08 750.25,70.21 59.73,53.41 88.34,126.79 117.62,198.15 40.29,98.15 54.01,201.69 37.75,306.43 -14.86,95.42 -76.38,167.39 -136.71,238.4 -193.57,228.04 -530.68,239.01 -746.4,87.81 -145,-101.53 -208.42,-238.76 -230.9,-404.36 -4.62,-34.18 -7.86,-68.43 -6.31,-104.1 -2.72,-51.96 5.5,-103.65 19.86,-154.66zm1735.49 740.45c1.24,47.73 -2.93,95.21 -11.54,142.1 -5.92,32.35 -22.47,45.29 -55.1,48.04 -92.99,7.8 -185.88,-0.24 -278.73,-2.18 -40.04,-0.81 -56.97,-17.11 -58.07,-53.1 -2.29,-76.12 -8.43,-152.32 -5.61,-228.6 0.25,-5.53 2.69,-10.93 4.03,-16.33 3.38,-179.53 15.2,-358.7 23.14,-538.09 2.96,-68.3 2.57,-67.56 70.73,-70.03 95,-3.49 189.83,-6.95 284.94,-0.91 18.84,1.19 24.94,5.36 25.68,25.78 7.44,188.21 5.4,376.52 4.34,564.77 -0.18,42.75 3.25,85.86 -3.81,128.55zm15.77 -1096.86c-1.66,60.18 -6.81,120.26 -9.24,180.45 -1.7,41.98 -2.12,84.06 -1.59,126.08 0.21,17 -4.2,23.46 -22.33,23.42 -202.92,-0.53 -405.77,-0.49 -608.65,-0.03 -14.25,0 -23.85,-4.13 -30.13,-16.79 -3.28,-6.88 -7.9,-13.09 -11.64,-19.79 -121.6,-219.93 -322.97,-308.86 -560.56,-312.64 -199.14,-3.21 -365.06,90.67 -494.28,239.89 -35.52,41.03 -70.17,59.38 -122.13,57.4 -150.71,-5.75 -301.52,-9.77 -452.23,-14.43 -89.43,0 -73.41,8.75 -75.74,-73.34 -1.83,-65.83 8.47,-130.99 15.84,-196.11 6.14,-53.76 26.81,-67.87 83.05,-68.26 260.73,-21.28 521.93,-26.71 783.44,-23 188.32,2.71 376.74,3.74 565.05,5.01 91.3,0.63 182.77,3.45 273.9,-0.57 181.85,-8.01 362.72,9.1 543.98,15.73 20.14,0.75 40.46,0.99 60.36,3.89 46.6,6.77 64.13,25.92 62.9,73.09z"/>
   <path class="fil13" d="M3902.63 1448.21c-19.86,-2.89 -40.18,-3.14 -60.33,-3.88 -181.25,-6.63 -362.16,-23.74 -543.95,-15.73 -91.15,4.02 -182.63,1.2 -273.89,0.53 -188.39,-1.24 -376.77,-2.3 -565.08,-4.98 -261.52,-3.74 -522.71,1.73 -783.45,23 -7.2,112.61 -20.04,224.83 -23.14,337.72 150.7,4.65 301.48,8.64 452.22,14.46 51.97,1.94 86.61,-16.4 122.13,-57.43 129.23,-149.23 295.14,-243.06 494.32,-239.92 237.52,3.81 438.96,92.74 560.53,312.66 3.74,6.67 8.32,12.91 11.64,19.79 6.31,12.67 15.87,16.8 30.12,16.76 202.89,-0.42 405.7,-0.46 608.62,0.07 18.16,0 22.57,-6.42 22.33,-23.42 -0.5,-42.02 -0.07,-84.14 1.59,-126.09 2.46,-60.22 7.62,-120.26 9.27,-180.41 1.24,-47.2 -16.26,-66.39 -62.93,-73.13zm-74.12 287.23c-6.6,19.83 -23.39,27.34 -42.76,27.7 -39.33,0.74 -78.63,0.21 -117.9,0.21l0 3.81c-35.52,0 -71.08,0.85 -106.57,-0.25 -41.84,-1.37 -59.16,-17.14 -58.56,-57.75 0.81,-53.37 5.11,-106.68 8.25,-160.02 1.2,-19.61 13.55,-28.64 32.28,-29.49 96.88,-4.34 193.71,-4.55 290.62,-4.41 12.88,0 15.88,6.28 17.36,17.32 9.17,69.5 -0.64,136.88 -22.72,202.88z"/>
   <path class="fil14" d="M2200.75 2136.49c22.47,165.59 85.94,302.79 230.89,404.35 215.69,151.2 552.84,140.23 746.41,-87.8 60.36,-71.02 121.88,-143.02 136.7,-238.45 16.26,-104.74 2.54,-208.24 -37.75,-306.42 -29.24,-71.37 -57.89,-144.74 -117.58,-198.15 -219.42,-196.29 -497.2,-220.84 -750.28,-70.21 -94.8,56.45 -164.61,130.43 -194.81,237.95 -14.32,50.94 -22.61,102.66 -19.89,154.62 -1.56,35.71 1.65,69.89 6.31,104.11zm243.06 -302.12c66.11,-61.17 145.95,-93.87 234.53,-106.47 24.69,-3.49 49.67,-4.87 65.12,-6.35 104.46,2.44 193.47,24.73 275.42,73.91 124.35,74.58 167.92,190.32 153.1,325.51 -24.69,225.56 -232.51,376.23 -459.03,344.59 -71.19,-9.98 -140.27,-22.54 -201.12,-62.69 -105.87,-69.92 -145.31,-176.67 -160.97,-294.71 -14.04,-105.44 12.63,-199.49 92.95,-273.79z"/>
   <path class="fil15" d="M3949.31 1924.84c-0.78,-20.43 -6.88,-24.59 -25.72,-25.75 -95.07,-6.07 -189.94,-2.61 -284.97,0.84 -68.13,2.47 -67.77,1.77 -70.74,70.1 -7.9,179.35 -19.72,358.53 -23.07,538.02 0.46,39.16 1.13,78.32 1.13,117.41 0.04,12.87 1.31,21.76 18.13,21.83 129.4,1.06 258.27,-4.16 385.73,-29.17 7.09,-42.65 3.6,-85.8 3.81,-128.52 1.02,-188.24 3.11,-376.52 -4.3,-564.76z"/>
   <path class="fil15" d="M1654.29 2313.86c1.73,71.51 0.74,143.16 4.2,214.59 2.36,48.58 31.82,84.56 64.24,117.73 4.02,4.16 12.49,5.64 18.77,5.53 74.89,-1.58 149.36,9.81 224.29,6.95 16.44,-0.63 21.38,-5.75 21.24,-21.76 -0.46,-46.71 0.6,-93.56 1.02,-140.34 -1.9,-213.08 -4.19,-426.15 -5.08,-639.2 -0.1,-22.82 -11.22,-24.27 -27.76,-24.97 -100.75,-4.31 -201.51,-5.82 -302.26,-0.25 0.03,160.55 -2.51,321.2 1.34,481.72z"/>
   <path class="fil16" d="M3140.88 2640.35c-1.41,-9.03 4.27,-12.45 8.4,-15.59 58.95,-45.12 86.22,-110.7 114.62,-175.51 4.86,-11.04 5.71,-22.05 3.31,-33.62 -30.87,33.94 -59.79,69.85 -92.96,101.5 -152.4,145.38 -334.22,200.06 -540.2,156.95 -155.23,-32.56 -291.54,-104.28 -384.11,-238.3 -104.42,-151.21 -121.42,-322.16 -103.86,-499.47 2.26,-22.79 3.46,-45.65 4.52,-68.54 0.39,-9.14 2.36,-20.71 -13.58,-18.66 -0.6,27.55 -19.41,49.53 -22.9,76.34 -17,129.64 -15.06,256.68 18.77,385.58 26.28,100.19 64.03,189.16 139.66,260.56 39.9,37.75 88.3,62.73 136.64,92.01l-375.15 0c-1.3,25.82 1.24,51.47 2.36,77.22 0.85,18.21 9.53,23.07 24.56,23.74 35.49,1.7 70.94,4.13 106.4,4.45 246.91,2.19 493.81,-1.45 740.72,2.5 189.23,3.04 378.22,7.59 566.95,21.28 12.98,0.95 19.16,0.77 19.72,-14.5 1.8,-43.85 6.6,-87.6 4.62,-131.55 -119.66,3.1 -239.14,-3.92 -358.49,-6.39z"/>
   <path class="fil17" d="M3511.09 1905.99c-55.07,-11.18 -110.13,-14.99 -165.77,-4.62 -16.22,3 -24.55,8.33 -19.33,28.19 10.62,40.57 17.85,81.99 26.88,122.98 19.44,88.44 25.4,175.47 -19.29,259.5 -19.41,36.41 -43.71,69.43 -66.33,103.61 14.15,13.69 6.57,28.19 0.89,42.16 -24.91,61.21 -51.33,121.6 -104.89,164.82 -2.18,1.76 -3.66,4.37 -3.28,8.43 98.32,4.8 196.64,9.66 295.28,7.69 14.99,-0.28 31.01,-3.18 44.17,8.01 1.58,-19.02 3.7,-38 4.69,-57.05 7.02,-142.03 5.4,-284.48 17.53,-426.29 6.56,-77.12 8.79,-154.48 5.79,-231.92 -0.5,-11.92 -0.53,-22.3 -16.34,-25.51z"/>
   <path class="fil17" d="M3455.25 2638.77c-98.64,1.94 -196.96,-2.93 -295.28,-7.73 -0.38,-4.02 1.1,-6.67 3.28,-8.43 53.56,-43.22 79.98,-103.61 104.89,-164.82 5.68,-13.93 13.26,-28.43 -0.89,-42.16 2.37,11.54 1.52,22.58 -3.31,33.62 -28.44,64.85 -55.71,130.39 -114.66,175.51 -4.12,3.18 -9.84,6.56 -8.39,15.56 119.38,2.54 238.79,9.49 358.49,6.42 -13.12,-11.18 -29.14,-8.26 -44.13,-7.97z"/>
   <path class="fil18" d="M1988.05 2496.55c4.62,49.53 0.56,99.2 2.15,148.77 0.39,13.65 -7.12,18.59 -18.87,20.49 -8.5,1.38 -17.18,1.06 -25.83,1.49 -65.37,3.38 -130.24,-7.73 -195.58,-6.28 -12.7,0.21 -25.64,-2.26 -34.81,-11.4 -35.46,-35.03 -64.6,-74.08 -65.69,-126.4 -4.48,-216.82 -8.22,-433.6 -5.96,-650.45 0.14,-14.11 -1.87,-29 9.49,-40.64 -69.61,-2.58 -87.74,8.89 -90.21,65.4 -5.36,121.25 -11.01,242.57 -11.54,363.82 -0.38,101.18 4.8,202.5 10.55,303.61 2.75,47.58 0.96,95.56 9.74,142.83 7.2,38.7 23.25,55.04 62.62,58.78 15.24,1.48 30.76,1.02 46.11,0.95 94.19,-0.67 188.38,-2.01 282.54,-1.8 24.16,0.11 31.6,-8.64 29.95,-32.07 -1.87,-25.64 1.23,-51.64 -0.14,-77.36 -2.86,-53.23 5.08,-106.72 -4.52,-159.74z"/>
   <path class="fil18" d="M1643.47 1872.78c-2.22,216.86 1.48,433.64 5.96,650.42 1.06,52.32 30.2,91.37 65.65,126.44 9.21,9.13 22.12,11.6 34.86,11.36 65.26,-1.45 130.21,9.7 195.58,6.27 8.64,-0.38 17.28,-0.07 25.86,-1.44 11.74,-1.91 19.22,-6.88 18.8,-20.5 -1.59,-49.56 2.43,-99.23 -2.08,-148.76 -0.46,46.77 -1.52,93.59 -1.09,140.33 0.14,16.02 -4.77,21.13 -21.21,21.77 -74.93,2.85 -149.43,-8.54 -224.33,-6.95 -6.24,0.1 -14.71,-1.38 -18.73,-5.54 -32.42,-33.16 -61.91,-69.15 -64.28,-117.72 -3.45,-71.44 -2.47,-143.09 -4.16,-214.6 -3.88,-160.51 -1.3,-321.17 -1.34,-481.75 -11.39,11.68 -9.35,26.56 -9.49,40.67z"/>
   <path class="fil19" d="M2501.61 1376.52c189.19,0.35 378.39,0.53 567.58,1.3 15.38,0.07 19.48,-5.36 19.72,-19.93 1.2,-59.44 -12.8,-115.75 -37.14,-169.05 -17.85,-38.91 -51.23,-58.28 -94.76,-58.17 -43.25,0.14 -86.54,-0.74 -129.68,1.27 -76.45,3.52 -153.81,-1.77 -228.39,21.48 -16.79,20.18 -26.81,43.6 -31.78,68.97 -11.08,55.98 -40.86,104 -65.55,154.13z"/>
   <path class="fil17" d="M2075.49 2655.89c102.62,-0.21 205.24,-0.07 313.16,-0.07 -107.5,-48.58 -180.31,-125.06 -228.36,-226.27 -10.76,-22.72 -17.32,-46.5 -22.65,-70.77 -4.97,-22.51 -8.67,-45.26 -15.98,-66.96 -37.81,-112.92 -29.91,-228.39 -19.4,-343.75 3.18,-35.2 13.37,-69.42 34.75,-98.99 -29.74,-0.17 -59.55,0.32 -89.22,-0.91 -15.45,-0.64 -21.41,2.78 -21.55,19.93 -0.53,61.98 -4.06,123.93 -4.59,185.88 -1.73,203.34 -1.94,406.61 12.42,609.6 12.31,-10.41 27.3,-7.66 41.42,-7.69z"/>
   <path class="fil17" d="M2272.55 2571.62c-75.64,-71.43 -113.39,-160.37 -139.7,-260.63 -33.83,-128.87 -35.74,-255.9 -18.74,-385.52 3.5,-26.81 22.37,-48.82 22.9,-76.37 -21.34,29.56 -31.57,63.75 -34.75,98.95 -10.51,115.36 -18.45,230.86 19.44,343.78 7.23,21.7 10.97,44.45 15.95,66.96 5.32,24.27 11.88,48.05 22.64,70.77 48.05,101.21 120.87,177.69 228.36,226.24 -107.92,0 -210.54,-0.15 -313.16,0.1 -14.12,0.04 -29.11,-2.72 -41.46,7.69l375.11 0c-48.26,-29.31 -96.69,-54.29 -136.59,-91.97z"/>
   <path class="fil18" d="M3584.51 2655.84c-40.43,-1.41 -42.23,-2.15 -41.63,-42.05 0.53,-35.25 -2.61,-70.52 1.94,-105.7 -1.41,5.4 -3.81,10.8 -4.06,16.3 -2.86,76.31 3.28,152.47 5.61,228.64 1.09,35.98 18.06,52.28 58.03,53.09 92.85,1.91 185.78,9.95 278.73,2.19 32.67,-2.75 49.14,-15.74 55.11,-48.09 8.64,-46.84 12.8,-94.29 11.53,-142.06 -13.05,15.1 -31.47,17.6 -49.53,19.44 -104.98,10.58 -209.94,21.98 -315.73,18.24z"/>
   <path class="fil18" d="M3564.08 2647.29c-16.87,-0.07 -18.1,-8.92 -18.14,-21.8 0,-39.16 -0.7,-78.28 -1.16,-117.44 -4.52,35.17 -1.38,70.49 -1.9,105.73 -0.6,39.93 1.19,40.64 41.62,42.09 105.8,3.74 210.75,-7.69 315.74,-18.28 18.06,-1.83 36.48,-4.3 49.6,-19.47 -127.49,25.01 -256.36,30.2 -385.76,29.17z"/>
   <path class="fil20" d="M1644.09 1746.92c5.61,-55.99 6.25,-112.43 13.23,-168.31 3.1,-24.77 2.47,-49.5 4.06,-74.26 1.3,-19.76 1.02,-40.36 14.53,-57.22 -56.2,0.38 -76.87,14.53 -82.97,68.29 -7.45,65.09 -17.71,130.25 -15.88,196.08 2.3,82.09 -13.68,73.38 75.71,73.38 -10.23,-11.01 -9.98,-24.8 -8.68,-37.96z"/>
   <path class="fil20" d="M1661.38 1504.36c-1.62,24.73 -0.95,49.5 -4.05,74.23 -6.99,55.88 -7.62,112.32 -13.2,168.31 -1.34,13.19 -1.58,26.99 8.65,37.96 3.1,-112.89 15.94,-225.11 23.14,-337.75 -13.58,16.9 -13.23,37.46 -14.54,57.25z"/>
   <path class="fil21" d="M1790.78 1384.01c60.29,-0.21 120.62,-0.11 180.91,-0.14 8.08,0 16.4,-0.88 15.45,-11.68 -2.29,-27.2 5.75,-55 -4.8,-81.7 -2.12,37.29 -4.13,39.62 -43.85,40.74 -29.56,0.82 -59.27,-0.81 -88.79,0.78 -21.8,1.2 -24.31,-7.34 -17.32,-24.66 9.56,-23.74 18.9,-47.62 28.18,-71.47 3.74,-9.74 7.27,-19.65 5.61,-30.45 -30.41,-2.04 -60.89,3 -73.48,32.53 -17.25,40.29 -24.8,83.75 -19.26,128.41 1.34,11.04 4.86,17.68 17.35,17.64z"/>
   <path class="fil22" d="M1865.47 1246c-5.61,18.17 -13.26,35.63 -20.6,53.16 -7.05,16.94 -3.56,25.16 16.12,24.63 20.08,-0.57 40.26,-1.2 60.19,0.14 28.15,1.9 50.37,-4.9 61.17,-33.48 -4.48,-71.83 -38.38,-92.6 -93.35,-85.27 -7.51,0.99 -15.24,0.18 -22.82,0.25 10.9,13.69 3.42,27.27 -0.71,40.57z"/>
   <path class="fil22" d="M1860.51 1235.87c-9.24,23.89 -18.55,47.73 -28.15,71.47 -6.95,17.33 -4.48,25.86 17.32,24.7 29.53,-1.59 59.23,0.03 88.8,-0.81 39.76,-1.13 41.77,-3.46 43.85,-40.75 -10.8,28.54 -32.99,35.35 -61.1,33.45 -20.01,-1.35 -40.15,-0.67 -60.19,-0.15 -19.72,0.53 -23.25,-7.69 -16.15,-24.62 7.33,-17.53 14.92,-35 20.6,-53.16 4.13,-13.3 11.6,-26.88 0.67,-40.57 1.66,10.79 -1.91,20.71 -5.65,30.44z"/>
   <path class="fil18" d="M2509.67 1344.5c25.22,-43.33 41.63,-89.89 54.43,-138.08 5.58,-20.96 11.75,-42.86 34.86,-52.99 -36.51,1.52 -65.51,17.99 -82.55,49.28 -29.56,54.47 -45.69,114.23 -66.39,173.82l51.57 0c-4.73,-12.49 2.54,-22.54 8.08,-32.03z"/>
   <path class="fil18" d="M2564.1 1206.4c-12.8,48.23 -29.21,94.79 -54.43,138.08 -5.54,9.52 -12.81,19.54 -8.04,32.03 24.69,-50.13 54.47,-98.11 65.54,-154.13 4.98,-25.36 15.03,-48.82 31.79,-68.93 -23.11,10.09 -29.28,32 -34.86,52.95z"/>
   <path class="fil12" d="M3833.86 1515.24c-96.87,-0.14 -193.74,0.07 -290.54,4.41 -18.84,0.81 -31.15,9.87 -32.32,29.49 -3.21,53.34 -7.44,106.64 -8.29,160.05 -0.6,40.57 16.72,56.34 58.56,57.72 35.49,1.13 71.05,0.25 106.54,0.25l0 -3.78c39.3,0 78.6,0.49 117.97,-0.25 19.37,-0.31 36.12,-7.9 42.76,-27.69 22.12,-65.97 31.82,-133.38 22.68,-202.92 -1.48,-11.04 -4.48,-17.25 -17.36,-17.28zm-35.41 177.83c-2.09,13.48 -11.47,12.63 -21.21,13.2 -35.35,1.94 -70.66,4.19 -106.01,6.35 -31.57,1.51 -63.14,2.47 -94.65,4.9 -16.68,1.3 -22.86,-4.62 -26.81,-20.92 -9.59,-40.32 -3.95,-79.48 3.81,-118.92 1.94,-9.84 7.73,-13.97 17.61,-15.1 69.63,-7.66 138.92,-12.95 208.24,5.08 21.91,5.71 29.25,18.03 30.52,37.89 1.94,29.95 -6.88,58.42 -11.5,87.52z"/>
   <path class="fil12" d="M2511.84 2402.85c60.86,40.18 129.9,52.7 201.09,62.72 226.55,31.64 434.34,-119.03 459.1,-344.63 14.78,-135.15 -28.82,-250.89 -153.17,-325.51 -81.95,-49.14 -170.96,-71.47 -275.42,-73.87 -15.41,1.48 -40.39,2.86 -65.09,6.35 -88.58,12.6 -168.45,45.3 -234.56,106.44 -80.29,74.36 -106.96,168.34 -92.92,273.82 15.63,118.04 55.14,224.79 160.97,294.68zm-99.06 -399.7c13.02,-77.93 53.8,-135.01 121.5,-175.08 71.47,-42.34 149.9,-56.52 231.21,-60.82 42.65,-9.74 82.66,2.96 121.89,16.33 47.97,16.33 91.65,41.7 133.24,70.38 19.51,10.51 38.35,21.91 52,39.93 34.89,42.09 38.56,93.7 45.26,144.5 12.38,135.65 -32.63,246.21 -147.35,323.96 -43.29,29.31 -93.77,42.83 -145.67,49.63 -54.71,9.14 -109.08,10.16 -162.77,-6.03 -44.03,-8.75 -83.68,-27.34 -120.26,-52.84 -68.51,-42.41 -100.01,-107.74 -115.01,-183.34 -16.72,-54.54 -23.49,-109.51 -14.04,-166.62z"/>
   <path class="fil23" d="M3779.43 1567.67c-69.32,-18.06 -138.61,-12.77 -208.24,-5.12 -9.92,1.13 -15.63,5.26 -17.57,15.1 -7.76,39.44 -13.48,78.64 -3.85,118.93 3.95,16.29 10.13,22.26 26.81,20.95 31.51,-2.47 63.08,-3.39 94.65,-4.9 35.32,-2.16 70.66,-4.41 105.98,-6.39 9.77,-0.53 19.15,0.32 21.27,-13.16 4.59,-29.14 13.37,-57.61 11.47,-87.56 -1.27,-19.82 -8.65,-32.13 -30.52,-37.85z"/>
   <path class="fil24" d="M2710.01 1858.49c-90.39,94.47 -189.62,181.64 -259.47,294.25 -4.48,7.23 -5.72,25.72 -23.71,17.04 14.96,75.6 46.5,140.93 114.97,183.3 160.76,-165.24 305.15,-346.11 478.83,-499.11 -41.6,-28.72 -85.27,-54.05 -133.28,-70.41 -39.2,-13.37 -79.2,-26.04 -121.85,-16.3 6.52,0.74 13.09,1.48 22.47,2.54 -26.6,30.9 -50.91,60.39 -77.96,88.69z"/>
   <path class="fil24" d="M2890.32 2116.66c-77.08,79.41 -139.73,169.27 -201.26,260.18 -7.62,11.18 -14.74,22.47 -27.02,29.1 53.76,16.23 108.12,15.17 162.81,6.07 -7.91,-11.89 5.71,-13.94 9.8,-19.62 81.6,-111.37 165.88,-220.62 254.99,-326.17 8.64,-10.16 15.98,-21.42 28.22,-27.8 -6.63,-50.84 -10.33,-102.49 -45.19,-144.5 -16.93,38.06 -50.16,64.1 -72.78,98.04 -30.86,46.32 -71.15,85.09 -109.57,124.7z"/>
   <path class="fil25" d="M2955.92 1929.02c-87.14,66.47 -152.02,153.82 -226.38,232.06 -50.8,53.55 -98.25,110.07 -147.85,164.61 -11.01,12.03 -23.67,22.43 -39.86,27.41 36.58,25.47 76.23,44.1 120.26,52.84 58.03,-90.13 116.98,-179.98 190.36,-258.58 70.09,-75.04 137.69,-151.91 200.45,-233.01 5.78,-7.48 10.65,-16.05 19.79,-20.46 -13.73,-18.03 -32.57,-29.42 -52.07,-39.94 -11.19,33.8 -38.84,55.39 -64.7,75.07z"/>
   <path class="fil25" d="M2541.82 2353.1c16.19,-4.98 28.85,-15.38 39.86,-27.41 49.6,-54.54 97.05,-111.06 147.85,-164.61 74.4,-78.24 139.28,-165.59 226.38,-232.06 25.89,-19.68 53.51,-41.27 64.7,-75.07 -173.68,153 -318.03,333.87 -478.79,499.15z"/>
   <path class="fil25" d="M3052.86 1914.37c-62.72,81.06 -130.32,157.97 -200.41,233.01 -73.38,78.59 -132.33,168.45 -190.36,258.55 12.27,-6.64 19.37,-17.89 26.95,-29.07 61.6,-90.91 124.21,-180.77 201.3,-260.18 38.38,-39.65 78.7,-78.42 109.57,-124.7 22.61,-33.94 55.84,-59.98 72.78,-98.08 -9.14,4.38 -14.01,12.99 -19.83,20.47z"/>
   <path class="fil25" d="M2498.82 2073.7c43.18,-56.51 95.67,-104.17 143.93,-155.93 39.62,-42.51 85.37,-79.37 119.59,-126.93 5.3,-7.4 14.86,-14 3.18,-23.6 -81.35,4.31 -159.77,18.49 -231.21,60.82 -67.77,40.08 -108.52,97.16 -121.5,175.09 -9.49,57.15 -2.71,112.07 14.01,166.61 28.68,-28.5 47.73,-64.27 72,-96.06z"/>
   <path class="fil25" d="M2762.33 1790.86c-34.22,47.55 -79.97,84.42 -119.59,126.93 -48.26,51.75 -100.75,99.41 -143.93,155.93 -24.27,31.78 -43.29,67.52 -72,96.06 18.02,8.68 19.22,-9.81 23.74,-17.04 69.85,-112.61 169.05,-199.78 259.43,-294.25 27.06,-28.3 51.4,-57.79 78,-88.69 -9.35,-1.06 -15.95,-1.8 -22.47,-2.54 11.71,9.59 2.11,16.19 -3.18,23.6z"/>
   <path class="fil25" d="M2864.55 2363.42c-12.63,16.68 -25.29,33.33 -39.69,48.57 51.9,-6.8 102.38,-20.32 145.67,-49.67 114.72,-77.71 159.7,-188.27 147.35,-323.92 -29.74,45.72 -67.42,85.23 -101.63,127.36 -52.46,64.48 -101.64,131.44 -151.7,197.66z"/>
   <path class="fil25" d="M3089.65 2066.21c-89.11,105.55 -173.39,214.84 -255.02,326.21 -4.13,5.65 -17.67,7.66 -9.77,19.58 14.39,-15.24 27.02,-31.89 39.69,-48.58 50.06,-66.25 99.27,-133.17 151.69,-197.66 34.22,-42.15 71.9,-81.63 101.64,-127.39 -12.28,6.46 -19.65,17.71 -28.23,27.84z"/>
  </g>
 </g>
</svg>
