<?xml version="1.0" encoding="UTF-8"?>
<!DOCTYPE svg PUBLIC "-//W3C//DTD SVG 1.1//EN" "http://www.w3.org/Graphics/SVG/1.1/DTD/svg11.dtd">
<!-- Creator: CorelDRAW 2021 (64-Bit) -->
<svg xmlns="http://www.w3.org/2000/svg" xml:space="preserve" width="50.9mm" height="50.9mm" version="1.1" style="shape-rendering:geometricPrecision; text-rendering:geometricPrecision; image-rendering:optimizeQuality; fill-rule:evenodd; clip-rule:evenodd"
viewBox="0 0 5090 5090"
 xmlns:xlink="http://www.w3.org/1999/xlink"
 xmlns:xodm="http://www.corel.com/coreldraw/odm/2003">
 <defs>
  <style type="text/css">
   <![CDATA[
    .fil8 {fill:black;fill-rule:nonzero}
    .fil3 {fill:#00BFBA;fill-rule:nonzero}
    .fil6 {fill:#00D095;fill-rule:nonzero}
    .fil13 {fill:#010001;fill-rule:nonzero}
    .fil12 {fill:#010101;fill-rule:nonzero}
    .fil10 {fill:#5764B3;fill-rule:nonzero}
    .fil22 {fill:#91473A;fill-rule:nonzero}
    .fil15 {fill:#A1273B;fill-rule:nonzero}
    .fil17 {fill:#A56A75;fill-rule:nonzero}
    .fil23 {fill:#A88844;fill-rule:nonzero}
    .fil19 {fill:#A98844;fill-rule:nonzero}
    .fil9 {fill:#B2D722;fill-rule:nonzero}
    .fil1 {fill:#C400FA;fill-rule:nonzero}
    .fil5 {fill:#CFCFDB;fill-rule:nonzero}
    .fil21 {fill:#D86956;fill-rule:nonzero}
    .fil20 {fill:#D86A56;fill-rule:nonzero}
    .fil14 {fill:#F03A58;fill-rule:nonzero}
    .fil16 {fill:#F69EAE;fill-rule:nonzero}
    .fil24 {fill:#FACA65;fill-rule:nonzero}
    .fil18 {fill:#FCCB66;fill-rule:nonzero}
    .fil4 {fill:#FF1183;fill-rule:nonzero}
    .fil7 {fill:#FF4646;fill-rule:nonzero}
    .fil0 {fill:#FF770C;fill-rule:nonzero}
    .fil11 {fill:#FFAF00;fill-rule:nonzero}
    .fil2 {fill:white;fill-rule:nonzero}
   ]]>
  </style>
 </defs>
<symbol id="Fm7-126-0" viewBox="15846.31 -15314.39 1282.14 2390.57">
 <path class="fil0" d="M15846.31 -12923.82l0 -2390.57 424.62 0c591.84,0 857.52,373.64 857.52,1193.42 0,823.51 -269.83,1197.15 -857.52,1197.15l-424.62 0zm217.05 -2124.75l0 1521.53 249.08 0c420.46,0 573.46,-137.56 604.89,-626.46 0,-596.71 -184.43,-895.07 -604.89,-895.07l-249.08 0z"/>
</symbol>
<symbol id="Fm0-165-0" viewBox="17577.84 -15204.3 1421.03 2277.32">
 <path class="fil1" d="M18877.11 -14802.97c-205.02,-108.44 -388.05,-159.68 -560.08,-159.68 -296.15,0 -465.04,128.94 -465.04,361.2 0,192.98 88.77,280.07 388.05,340.7l163.4 35.86c406.9,84.54 595.43,292.03 595.43,650.66 0,424.39 -265.51,647.25 -772.97,647.25 -190.88,0 -407.69,-45.26 -640.21,-138.33l0 -469.64c221.53,135.77 435.19,204.94 640.21,204.94 313.43,0 487.82,-165.66 487.82,-295.45 0,-117.84 -113.9,-256.17 -390.41,-315.94l-166.53 -36.71c-407.7,-87.1 -578.94,-264.71 -578.94,-599.43 0,-388.52 265.51,-626.76 709.33,-626.76 188.54,0 384.92,36.72 589.94,111.86l0 289.47z"/>
</symbol>
<symbol id="Fm8-127-0" viewBox="17577.84 -15204.3 1421.03 2277.32">
 <path class="fil1" d="M18877.11 -14802.97c-205.02,-108.44 -388.05,-159.68 -560.08,-159.68 -296.15,0 -465.04,128.94 -465.04,361.2 0,192.98 88.77,280.07 388.05,340.7l163.4 35.86c406.9,84.54 595.43,292.03 595.43,650.66 0,424.39 -265.51,647.25 -772.97,647.25 -190.88,0 -407.69,-45.26 -640.21,-138.33l0 -469.64c221.53,135.77 435.19,204.94 640.21,204.94 313.43,0 487.82,-165.66 487.82,-295.45 0,-117.84 -113.9,-256.17 -390.41,-315.94l-166.53 -36.71c-407.7,-87.1 -578.94,-264.71 -578.94,-599.43 0,-388.52 265.51,-626.76 709.33,-626.76 188.54,0 384.92,36.72 589.94,111.86l0 289.47z"/>
</symbol>
<symbol id="Fm0-167-0" viewBox="30415.2 -14136.09 2032.56 611.46">
 <path class="fil2" d="M30742.85 -14073.81l-327.65 0 0 -59.96 405.47 0 0 34.4 -159.11 563.35 -153.91 0 235.2 -537.79zm777.23 342.57l-229.75 3.25 3.47 -65.54 229.76 -3.95 -3.48 66.24zm613.91 -122.95c-73.62,-17.19 -108.56,-67.16 -108.56,-135.26 0,-85.29 68.16,-146.64 195.06,-146.64 126.64,0 194.8,61.35 194.8,146.64 0,68.1 -34.95,118.07 -108.31,135.26 83.02,18.13 140.78,73.91 140.78,150.14 0,115.51 -86.5,179.42 -227.27,179.42 -140.78,0 -227.28,-63.91 -227.28,-179.42 0,-76.23 57.5,-132.01 140.78,-150.14zm-31.48 -151.52c0,61.35 43.63,98.3 117.98,98.3 73.35,0 117.96,-36.95 117.96,-98.3 0,-51.83 -44.61,-91.11 -117.96,-91.11 -74.35,0 -117.98,39.28 -117.98,91.11zm117.98 177.79c-82.29,0 -132.1,43.46 -132.1,115.74 0,39.97 49.81,87.61 132.1,87.61 82.02,0 131.85,-48.34 131.85,-87.61 0,-72.28 -49.83,-115.74 -131.85,-115.74z"/>
</symbol>
<symbol id="Fm9-128-0" viewBox="30415.2 -14136.09 2202.32 1636.31">
 <path class="fil2" d="M30742.85 -14073.81l-327.65 0 0 -59.96 405.47 0 0 34.4 -159.11 563.35 -153.91 0 235.2 -537.79zm777.23 342.57l-229.75 3.25 3.47 -65.54 229.76 -3.95 -3.48 66.24zm613.91 -122.95c-73.62,-17.19 -108.56,-67.16 -108.56,-135.26 0,-85.29 68.16,-146.64 195.06,-146.64 126.64,0 194.8,61.35 194.8,146.64 0,68.1 -34.95,118.07 -108.31,135.26 83.02,18.13 140.78,73.91 140.78,150.14 0,115.51 -86.5,179.42 -227.27,179.42 -140.78,0 -227.28,-63.91 -227.28,-179.42 0,-76.23 57.5,-132.01 140.78,-150.14zm-31.48 -151.52c0,61.35 43.63,98.3 117.98,98.3 73.35,0 117.96,-36.95 117.96,-98.3 0,-51.83 -44.61,-91.11 -117.96,-91.11 -74.35,0 -117.98,39.28 -117.98,91.11zm117.98 177.79c-82.29,0 -132.1,43.46 -132.1,115.74 0,39.97 49.81,87.61 132.1,87.61 82.02,0 131.85,-48.34 131.85,-87.61 0,-72.28 -49.83,-115.74 -131.85,-115.74z"/>
 <path class="fil2" d="M30532.19 -12511.17l-116.99 0 251.82 -597.75 81.29 0 250.81 597.75 -123.17 0 -24.54 -97.61 -286.76 0 -32.46 97.61zm57.75 -192.67l235.19 0 -117.96 -331.18 -117.23 331.18zm718.73 -498.51c-13.13,-10.69 -21.82,-15.57 -29.74,-15.57 -10.41,0 -18.34,4.88 -23.54,14.87 -5.21,9.77 -7.94,25.34 -8.69,47.42l-53.27 0c1.72,-72.05 31.47,-113.19 83.02,-113.19 21.8,0 38.42,6.74 59.48,24.64l24.29 22.08c12.4,10.69 22.06,15.57 29,15.57 11.4,0 19.08,-4.88 24.54,-14.64 5.2,-9.76 7.68,-25.34 7.68,-47.65l54.28 0c-1.74,72.28 -32.23,113.19 -84.03,113.19 -21.8,0 -38.41,-6.51 -59.22,-24.64l-23.8 -22.08zm248.34 691.18l-111.78 0 16.6 -272.15c0,-85.29 -27.26,-127.13 -97.15,-127.13 -96.16,0 -141.52,54.16 -141.52,141.77l13.14 257.51 -109.3 0 12.89 -452.5 78.81 0 0 53.92c37.68,-27.65 88.24,-60.66 154.65,-60.66 109.31,0 165.32,64.85 171.51,188.72l12.15 270.52zm347.97 -459.24c136.32,0 219.34,87.85 219.34,235.43 0,146.65 -83.02,235.2 -219.34,235.2 -137.3,0 -219.34,-88.55 -219.34,-235.2 0,-147.58 82.04,-235.43 219.34,-235.43zm0 54.15c-84.01,0 -136.31,63.92 -136.31,168.03 0,105.05 51.55,121.55 136.31,121.55 84.02,0 136.32,-17.43 136.32,-121.55 0,-102.49 -52.3,-168.03 -136.32,-168.03zm687.26 31.15c-44.61,-20.45 -92.7,-31.84 -143.5,-31.84 -78.56,0 -121.44,26.96 -121.44,71.35 0,40.2 25.28,59.03 109.29,76.23l27.02 5.57c111.03,22.31 153.91,55.78 153.91,128.76 0,83.66 -74.35,135.26 -197.53,135.26 -50.8,0 -105.83,-8.83 -167.79,-27.89l0 -108.07c58.49,28.59 114.5,42.53 169.53,42.53 74.35,0 106.56,-21.38 106.56,-59.73 -9.41,-16.5 -17.35,-27.89 -24.28,-35.32 -6.19,-7.44 -34.21,-15.58 -83.27,-26.27l-27.02 -5.81c-97.16,-18.82 -138.05,-48.34 -138.05,-118.06 0,-84.36 66.42,-132.01 183.41,-132.01 58.74,0 110.29,8.37 153.16,23.94l0 61.36z"/>
</symbol>
<symbol id="Fm1-168-0" viewBox="30415.2 -13268.82 2202.32 769.04">
 <path class="fil2" d="M30532.19 -12511.17l-116.99 0 251.82 -597.75 81.29 0 250.81 597.75 -123.17 0 -24.54 -97.61 -286.76 0 -32.46 97.61zm57.75 -192.67l235.19 0 -117.96 -331.18 -117.23 331.18zm718.73 -498.51c-13.13,-10.69 -21.82,-15.57 -29.74,-15.57 -10.41,0 -18.34,4.88 -23.54,14.87 -5.21,9.77 -7.94,25.34 -8.69,47.42l-53.27 0c1.72,-72.05 31.47,-113.19 83.02,-113.19 21.8,0 38.42,6.74 59.48,24.64l24.29 22.08c12.4,10.69 22.06,15.57 29,15.57 11.4,0 19.08,-4.88 24.54,-14.64 5.2,-9.76 7.68,-25.34 7.68,-47.65l54.28 0c-1.74,72.28 -32.23,113.19 -84.03,113.19 -21.8,0 -38.41,-6.51 -59.22,-24.64l-23.8 -22.08zm248.34 691.18l-111.78 0 16.6 -272.15c0,-85.29 -27.26,-127.13 -97.15,-127.13 -96.16,0 -141.52,54.16 -141.52,141.77l13.14 257.51 -109.3 0 12.89 -452.5 78.81 0 0 53.92c37.68,-27.65 88.24,-60.66 154.65,-60.66 109.31,0 165.32,64.85 171.51,188.72l12.15 270.52zm347.97 -459.24c136.32,0 219.34,87.85 219.34,235.43 0,146.65 -83.02,235.2 -219.34,235.2 -137.3,0 -219.34,-88.55 -219.34,-235.2 0,-147.58 82.04,-235.43 219.34,-235.43zm0 54.15c-84.01,0 -136.31,63.92 -136.31,168.03 0,105.05 51.55,121.55 136.31,121.55 84.02,0 136.32,-17.43 136.32,-121.55 0,-102.49 -52.3,-168.03 -136.32,-168.03zm687.26 31.15c-44.61,-20.45 -92.7,-31.84 -143.5,-31.84 -78.56,0 -121.44,26.96 -121.44,71.35 0,40.2 25.28,59.03 109.29,76.23l27.02 5.57c111.03,22.31 153.91,55.78 153.91,128.76 0,83.66 -74.35,135.26 -197.53,135.26 -50.8,0 -105.83,-8.83 -167.79,-27.89l0 -108.07c58.49,28.59 114.5,42.53 169.53,42.53 74.35,0 106.56,-21.38 106.56,-59.73 -9.41,-16.5 -17.35,-27.89 -24.28,-35.32 -6.19,-7.44 -34.21,-15.58 -83.27,-26.27l-27.02 -5.81c-97.16,-18.82 -138.05,-48.34 -138.05,-118.06 0,-84.36 66.42,-132.01 183.41,-132.01 58.74,0 110.29,8.37 153.16,23.94l0 61.36z"/>
</symbol>
<symbol id="Fm0-161-0" viewBox="15137.5 -15312.77 383.66 2390.57">
 <path class="fil3" d="M15137.5 -12922.2c47.95,-796.55 47.95,-1594.03 64.55,-2390.57l272.99 0c10.15,796.54 3.69,1594.02 46.12,2390.57l-383.66 0z"/>
</symbol>
<symbol id="Fm0-163-0" viewBox="15846.31 -15314.39 1282.14 2390.57">
 <path class="fil0" d="M15846.31 -12923.82l0 -2390.57 424.62 0c591.84,0 857.52,373.64 857.52,1193.42 0,823.51 -269.83,1197.15 -857.52,1197.15l-424.62 0zm217.05 -2124.75l0 1521.53 249.08 0c420.46,0 573.46,-137.56 604.89,-626.46 0,-596.71 -184.43,-895.07 -604.89,-895.07l-249.08 0z"/>
</symbol>
<symbol id="Fm11-114-0" viewBox="28697.24 -8565.92 2731.69 1644.68">
 <path class="fil2" d="M28738.13 -8092.04c42.87,19.75 88.48,30.44 131.35,30.44 113.52,0 173,-23.7 181.68,-169.66 -33.21,45.79 -85.51,71.35 -146.73,71.35 -127.64,0 -207.19,-77.16 -207.19,-202.66 0,-122.94 83.76,-203.35 212.39,-203.35 147.72,0 227.28,108.3 227.28,310.03 0,188.48 -103.1,309.8 -263.95,309.8 -42.88,0 -86.74,-8.14 -134.83,-23.71l0 -122.24zm164.57 -188.49c94.42,0 152.91,-8.13 152.91,-95.05 0,-86.22 -58.49,-139.44 -152.91,-139.44 -94.43,0 -153.91,53.22 -153.91,139.44 0,86.92 59.48,95.05 153.91,95.05zm933.61 127.83l-229.75 3.25 3.47 -65.54 229.76 -3.95 -3.48 66.24zm852.58 195.22l-367.3 0 0 -112.25 141.51 0 0 -411.6 -153.66 28.59 0 -73.67 152.93 -28.82 85.75 0 0 485.5 140.77 0 0 112.25zm353.17 -608.44c143.5,0 216.12,108.3 216.12,310.03 -5.45,201.73 -81.54,309.8 -224.79,309.8 -142.52,0 -215.88,-108.07 -215.88,-309.8 5.95,-201.73 82.04,-310.03 224.55,-310.03zm0 32.07c-88.24,0 -133.84,72.98 -133.84,219.63 0,151.76 36.93,219.85 125.17,219.85 89.21,0 131.1,-72.97 142.5,-219.85 0,-146.65 -44.61,-219.63 -133.83,-219.63zm-2.48 310.73c35.68,0 44.61,-40.21 44.61,-70.42 0,-57.41 -8.93,-92.73 -44.61,-92.73 -40.39,0 -45.61,46.02 -45.61,92.73 0,30.21 8.68,70.42 45.61,70.42z"/>
 <path class="fil2" d="M29343.6 -6932.63l-116.99 0 251.81 -597.75 81.29 0 250.81 597.75 -123.17 0 -24.54 -97.61 -286.75 0 -32.46 97.61zm57.74 -192.67l235.2 0 -117.97 -331.18 -117.23 331.18zm718.74 -498.51c-13.14,-10.69 -21.82,-15.57 -29.74,-15.57 -10.41,0 -18.34,4.88 -23.55,14.87 -5.2,9.77 -7.93,25.34 -8.68,47.42l-53.28 0c1.73,-72.05 31.47,-113.19 83.02,-113.19 21.81,0 38.43,6.74 59.49,24.64l24.29 22.08c12.39,10.69 22.05,15.57 29,15.57 11.4,0 19.07,-4.88 24.53,-14.64 5.21,-9.76 7.68,-25.34 7.68,-47.65l54.28 0c-1.74,72.28 -32.22,113.19 -84.02,113.19 -21.81,0 -38.41,-6.51 -59.23,-24.64l-23.79 -22.08zm248.34 691.18l-111.79 0 16.61 -272.15c0,-85.29 -27.26,-127.13 -97.15,-127.13 -96.16,0 -141.52,54.16 -141.52,141.77l13.13 257.51 -109.29 0 12.89 -452.5 78.81 0 0 53.92c37.67,-27.65 88.23,-60.66 154.65,-60.66 109.31,0 165.31,64.85 171.51,188.72l12.15 270.52zm347.96 -459.24c136.32,0 219.34,87.85 219.34,235.43 0,146.65 -83.02,235.2 -219.34,235.2 -137.3,0 -219.33,-88.55 -219.33,-235.2 0,-147.58 82.03,-235.43 219.33,-235.43zm0 54.15c-84.01,0 -136.3,63.92 -136.3,168.03 0,105.05 51.55,121.55 136.3,121.55 84.03,0 136.32,-17.43 136.32,-121.55 0,-102.49 -52.29,-168.03 -136.32,-168.03zm687.26 31.15c-44.61,-20.45 -92.69,-31.84 -143.49,-31.84 -78.57,0 -121.45,26.96 -121.45,71.35 0,40.2 25.29,59.03 109.3,76.23l27.01 5.57c111.04,22.31 153.92,55.78 153.92,128.76 0,83.66 -74.35,135.26 -197.53,135.26 -50.81,0 -105.83,-8.83 -167.79,-27.89l0 -108.07c58.49,28.59 114.5,42.53 169.52,42.53 74.35,0 106.57,-21.38 106.57,-59.73 -9.42,-16.5 -17.35,-27.89 -24.28,-35.32 -6.2,-7.44 -34.21,-15.58 -83.28,-26.27l-27.01 -5.81c-97.16,-18.82 -138.06,-48.34 -138.06,-118.06 0,-84.36 66.43,-132.01 183.42,-132.01 58.73,0 110.28,8.37 153.15,23.94l0 61.36z"/>
</symbol>
<symbol id="Fm0-133-0" viewBox="4457.91 -15371.28 1640.5 2396.26">
 <polygon class="fil4" points="4822.92,-12975.02 4457.91,-12975.02 4515.85,-15321.9 4875.06,-15321.9 5788.85,-13431.54 5832.72,-15371.28 6098.41,-15371.28 6098.41,-12975.02 5681.24,-12975.02 4737.67,-14979.98 "/>
</symbol>
<symbol id="Fm12-115-0" viewBox="30289.35 -9537.39 2631.4 319.05">
 <path class="fil5" d="M32920.75 -9377.86c0,88.12 -589.03,159.52 -1315.68,159.52 -725.6,0 -1314.01,-71.19 -1315.72,-159.14l0 -0.76c1.71,-87.96 590.12,-159.15 1315.72,-159.15 726.65,0 1315.68,71.4 1315.68,159.53z"/>
</symbol>
<symbol id="Fm15-118-0" viewBox="24266.09 -8747.92 2202.31 1644.68">
 <path class="fil2" d="M24406.86 -8457.65c-73.61,-17.19 -108.56,-67.16 -108.56,-135.26 0,-85.29 68.17,-146.64 195.06,-146.64 126.65,0 194.8,61.35 194.8,146.64 0,68.1 -34.95,118.07 -108.3,135.26 83.02,18.13 140.77,73.91 140.77,150.14 0,115.51 -86.49,179.42 -227.27,179.42 -140.78,0 -227.27,-63.91 -227.27,-179.42 0,-76.23 57.5,-132.01 140.77,-150.14zm-31.48 -151.52c0,61.35 43.63,98.3 117.98,98.3 73.36,0 117.97,-36.95 117.97,-98.3 0,-51.83 -44.61,-91.11 -117.97,-91.11 -74.35,0 -117.98,39.28 -117.98,91.11zm117.98 177.79c-82.28,0 -132.1,43.46 -132.1,115.74 0,39.97 49.82,87.61 132.1,87.61 82.03,0 131.85,-48.34 131.85,-87.61 0,-72.28 -49.82,-115.74 -131.85,-115.74zm926.68 96.68l-229.75 3.25 3.47 -65.54 229.75 -3.95 -3.47 66.24zm514.03 60.66c42.87,19.75 88.48,30.44 131.35,30.44 113.52,0 172.99,-23.7 181.67,-169.66 -33.21,45.79 -85.5,71.35 -146.73,71.35 -127.64,0 -207.19,-77.16 -207.19,-202.66 0,-122.94 83.77,-203.35 212.4,-203.35 147.72,0 227.27,108.3 227.27,310.03 0,188.48 -103.1,309.8 -263.95,309.8 -42.88,0 -86.74,-8.14 -134.82,-23.71l0 -122.24zm164.57 -188.49c94.42,0 152.91,-8.13 152.91,-95.05 0,-86.22 -58.49,-139.44 -152.91,-139.44 -94.43,0 -153.92,53.22 -153.92,139.44 0,86.92 59.49,95.05 153.92,95.05z"/>
 <path class="fil2" d="M24383.07 -7114.63l-116.98 0 251.81 -597.75 81.29 0 250.81 597.75 -123.17 0 -24.54 -97.61 -286.76 0 -32.46 97.61zm57.75 -192.67l235.19 0 -117.96 -331.18 -117.23 331.18zm718.74 -498.51c-13.14,-10.69 -21.82,-15.57 -29.75,-15.57 -10.4,0 -18.34,4.88 -23.54,14.87 -5.21,9.77 -7.94,25.34 -8.68,47.42l-53.28 0c1.73,-72.05 31.47,-113.19 83.02,-113.19 21.81,0 38.42,6.74 59.48,24.64l24.3 22.08c12.39,10.69 22.05,15.57 28.99,15.57 11.4,0 19.08,-4.88 24.54,-14.64 5.2,-9.76 7.68,-25.34 7.68,-47.65l54.28 0c-1.74,72.28 -32.23,113.19 -84.02,113.19 -21.81,0 -38.42,-6.51 -59.23,-24.64l-23.79 -22.08zm248.33 691.18l-111.78 0 16.6 -272.15c0,-85.29 -27.25,-127.13 -97.15,-127.13 -96.15,0 -141.52,54.16 -141.52,141.77l13.14 257.51 -109.3 0 12.9 -452.5 78.8 0 0 53.92c37.68,-27.65 88.24,-60.66 154.65,-60.66 109.31,0 165.32,64.85 171.51,188.72l12.15 270.52zm347.97 -459.24c136.32,0 219.34,87.85 219.34,235.43 0,146.65 -83.02,235.2 -219.34,235.2 -137.3,0 -219.34,-88.55 -219.34,-235.2 0,-147.58 82.04,-235.43 219.34,-235.43zm0 54.15c-84.01,0 -136.31,63.92 -136.31,168.03 0,105.05 51.55,121.55 136.31,121.55 84.02,0 136.32,-17.43 136.32,-121.55 0,-102.49 -52.3,-168.03 -136.32,-168.03zm687.26 31.15c-44.61,-20.45 -92.69,-31.84 -143.5,-31.84 -78.56,0 -121.44,26.96 -121.44,71.35 0,40.2 25.28,59.03 109.3,76.23l27.01 5.57c111.03,22.31 153.91,55.78 153.91,128.76 0,83.66 -74.35,135.26 -197.53,135.26 -50.8,0 -105.83,-8.83 -167.79,-27.89l0 -108.07c58.5,28.59 114.5,42.53 169.53,42.53 74.35,0 106.57,-21.38 106.57,-59.73 -9.42,-16.5 -17.35,-27.89 -24.29,-35.32 -6.19,-7.44 -34.21,-15.58 -83.27,-26.27l-27.01 -5.81c-97.16,-18.82 -138.06,-48.34 -138.06,-118.06 0,-84.36 66.43,-132.01 183.41,-132.01 58.74,0 110.29,8.37 153.16,23.94l0 61.36z"/>
</symbol>
<symbol id="Fm0-135-0" viewBox="6361.23 -15334.83 1314.16 2331.63">
 <polygon class="fil6" points="7675.39,-13003.2 6361.23,-13003.2 6361.23,-15334.83 7650.03,-15334.83 7650.03,-15069.21 6637.85,-15069.21 6637.85,-14378.43 7608.02,-14378.43 7608.02,-14112.81 6637.85,-14112.81 6637.85,-13486.39 7675.39,-13486.39 "/>
</symbol>
<symbol id="Fm1-112-0" viewBox="6361.23 -15334.83 1314.16 2331.63">
 <polygon class="fil6" points="7675.39,-13003.2 6361.23,-13003.2 6361.23,-15334.83 7650.03,-15334.83 7650.03,-15069.21 6637.85,-15069.21 6637.85,-14378.43 7608.02,-14378.43 7608.02,-14112.81 6637.85,-14112.81 6637.85,-13486.39 7675.39,-13486.39 "/>
</symbol>
<symbol id="Fm13-116-0" viewBox="34005.3 -8557.34 3204.7 1644.68">
 <path class="fil2" d="M34384.75 -7948.9l-367.3 0 0 -112.25 141.51 0 0 -411.6 -153.66 28.59 0 -73.67 152.93 -28.82 85.75 0 0 485.5 140.77 0 0 112.25zm353.17 -608.44c143.5,0 216.11,108.3 216.11,310.03 -5.44,201.73 -81.53,309.8 -224.78,309.8 -142.52,0 -215.88,-108.07 -215.88,-309.8 5.95,-201.73 82.04,-310.03 224.55,-310.03zm0 32.07c-88.24,0 -133.84,72.98 -133.84,219.63 0,151.76 36.93,219.85 125.17,219.85 89.21,0 131.1,-72.97 142.5,-219.85 0,-146.65 -44.61,-219.63 -133.83,-219.63zm-2.48 310.73c35.68,0 44.61,-40.21 44.61,-70.42 0,-57.41 -8.93,-92.73 -44.61,-92.73 -40.39,0 -45.61,46.02 -45.61,92.73 0,30.21 8.68,70.42 45.61,70.42zm917.75 70.42l-229.74 3.25 3.46 -65.54 229.76 -3.95 -3.48 66.24zm852.59 195.22l-367.31 0 0 -112.25 141.52 0 0 -411.6 -153.66 28.59 0 -73.67 152.92 -28.82 85.75 0 0 485.5 140.78 0 0 112.25zm533.34 -116.44l0 116.44 -404.72 0 0 -116.44c45.35,-34.39 92.44,-69.72 143.25,-105.74 100.62,-72.05 132.84,-110.63 155.64,-151.76 10.41,-19.53 15.87,-39.28 15.87,-59.03 0,-62.99 -51.81,-107.38 -128.63,-107.38 -54.28,0 -113.77,17.2 -181.92,53.22l0 -81.8c69.89,-26.26 130.37,-39.51 180.18,-39.51 132.1,0 216.86,66.47 216.86,170.59 0,49.27 -16.6,87.85 -68.15,147.57 -7.19,7.44 -29.74,30.45 -68.41,67.17 -37.42,36.95 -60.97,72.28 -71.62,106.67l211.65 0z"/>
 <path class="fil2" d="M35124.67 -6924.05l-116.98 0 251.81 -597.75 81.29 0 250.81 597.75 -123.17 0 -24.54 -97.61 -286.76 0 -32.46 97.61zm57.75 -192.67l235.19 0 -117.96 -331.18 -117.23 331.18zm718.74 -498.51c-13.14,-10.69 -21.82,-15.57 -29.75,-15.57 -10.4,0 -18.34,4.88 -23.54,14.87 -5.21,9.77 -7.94,25.34 -8.68,47.42l-53.28 0c1.73,-72.05 31.47,-113.19 83.02,-113.19 21.81,0 38.42,6.74 59.48,24.64l24.3 22.08c12.39,10.69 22.05,15.57 28.99,15.57 11.4,0 19.08,-4.88 24.54,-14.64 5.2,-9.76 7.68,-25.34 7.68,-47.65l54.28 0c-1.74,72.28 -32.23,113.19 -84.02,113.19 -21.81,0 -38.42,-6.51 -59.23,-24.64l-23.79 -22.08zm248.33 691.18l-111.78 0 16.6 -272.15c0,-85.29 -27.25,-127.13 -97.15,-127.13 -96.15,0 -141.52,54.16 -141.52,141.77l13.14 257.51 -109.3 0 12.9 -452.5 78.8 0 0 53.92c37.68,-27.65 88.24,-60.66 154.65,-60.66 109.31,0 165.32,64.85 171.51,188.72l12.15 270.52zm347.97 -459.24c136.32,0 219.34,87.85 219.34,235.43 0,146.65 -83.02,235.2 -219.34,235.2 -137.3,0 -219.34,-88.55 -219.34,-235.2 0,-147.58 82.04,-235.43 219.34,-235.43zm0 54.15c-84.01,0 -136.31,63.92 -136.31,168.03 0,105.05 51.55,121.55 136.31,121.55 84.02,0 136.32,-17.43 136.32,-121.55 0,-102.49 -52.3,-168.03 -136.32,-168.03zm687.26 31.15c-44.61,-20.45 -92.69,-31.84 -143.5,-31.84 -78.56,0 -121.44,26.96 -121.44,71.35 0,40.2 25.28,59.03 109.3,76.23l27.01 5.57c111.03,22.31 153.91,55.78 153.91,128.76 0,83.66 -74.35,135.26 -197.53,135.26 -50.8,0 -105.83,-8.83 -167.79,-27.89l0 -108.07c58.5,28.59 114.5,42.53 169.53,42.53 74.35,0 106.57,-21.38 106.57,-59.73 -9.42,-16.5 -17.35,-27.89 -24.29,-35.32 -6.19,-7.44 -34.21,-15.58 -83.27,-26.27l-27.01 -5.81c-97.16,-18.82 -138.06,-48.34 -138.06,-118.06 0,-84.36 66.43,-132.01 183.41,-132.01 58.74,0 110.29,8.37 153.16,23.94l0 61.36z"/>
</symbol>
<symbol id="Fm0-142-0" viewBox="34005.3 -8557.34 3033.82 619.83">
 <path class="fil2" d="M34384.75 -7948.9l-367.3 0 0 -112.25 141.51 0 0 -411.6 -153.66 28.59 0 -73.67 152.93 -28.82 85.75 0 0 485.5 140.77 0 0 112.25zm353.17 -608.44c143.5,0 216.11,108.3 216.11,310.03 -5.44,201.73 -81.53,309.8 -224.78,309.8 -142.52,0 -215.88,-108.07 -215.88,-309.8 5.95,-201.73 82.04,-310.03 224.55,-310.03zm0 32.07c-88.24,0 -133.84,72.98 -133.84,219.63 0,151.76 36.93,219.85 125.17,219.85 89.21,0 131.1,-72.97 142.5,-219.85 0,-146.65 -44.61,-219.63 -133.83,-219.63zm-2.48 310.73c35.68,0 44.61,-40.21 44.61,-70.42 0,-57.41 -8.93,-92.73 -44.61,-92.73 -40.39,0 -45.61,46.02 -45.61,92.73 0,30.21 8.68,70.42 45.61,70.42zm917.75 70.42l-229.74 3.25 3.46 -65.54 229.76 -3.95 -3.48 66.24zm852.59 195.22l-367.31 0 0 -112.25 141.52 0 0 -411.6 -153.66 28.59 0 -73.67 152.92 -28.82 85.75 0 0 485.5 140.78 0 0 112.25zm533.34 -116.44l0 116.44 -404.72 0 0 -116.44c45.35,-34.39 92.44,-69.72 143.25,-105.74 100.62,-72.05 132.84,-110.63 155.64,-151.76 10.41,-19.53 15.87,-39.28 15.87,-59.03 0,-62.99 -51.81,-107.38 -128.63,-107.38 -54.28,0 -113.77,17.2 -181.92,53.22l0 -81.8c69.89,-26.26 130.37,-39.51 180.18,-39.51 132.1,0 216.86,66.47 216.86,170.59 0,49.27 -16.6,87.85 -68.15,147.57 -7.19,7.44 -29.74,30.45 -68.41,67.17 -37.42,36.95 -60.97,72.28 -71.62,106.67l211.65 0z"/>
</symbol>
<symbol id="Fm1-139-0" viewBox="29226.61 -7690.28 2202.32 769.04">
 <path class="fil2" d="M29343.6 -6932.63l-116.99 0 251.81 -597.75 81.29 0 250.81 597.75 -123.17 0 -24.54 -97.61 -286.75 0 -32.46 97.61zm57.74 -192.67l235.2 0 -117.97 -331.18 -117.23 331.18zm718.74 -498.51c-13.14,-10.69 -21.82,-15.57 -29.74,-15.57 -10.41,0 -18.34,4.88 -23.55,14.87 -5.2,9.77 -7.93,25.34 -8.68,47.42l-53.28 0c1.73,-72.05 31.47,-113.19 83.02,-113.19 21.81,0 38.43,6.74 59.49,24.64l24.29 22.08c12.39,10.69 22.05,15.57 29,15.57 11.4,0 19.07,-4.88 24.53,-14.64 5.21,-9.76 7.68,-25.34 7.68,-47.65l54.28 0c-1.74,72.28 -32.22,113.19 -84.02,113.19 -21.81,0 -38.41,-6.51 -59.23,-24.64l-23.79 -22.08zm248.34 691.18l-111.79 0 16.61 -272.15c0,-85.29 -27.26,-127.13 -97.15,-127.13 -96.16,0 -141.52,54.16 -141.52,141.77l13.13 257.51 -109.29 0 12.89 -452.5 78.81 0 0 53.92c37.67,-27.65 88.23,-60.66 154.65,-60.66 109.31,0 165.31,64.85 171.51,188.72l12.15 270.52zm347.96 -459.24c136.32,0 219.34,87.85 219.34,235.43 0,146.65 -83.02,235.2 -219.34,235.2 -137.3,0 -219.33,-88.55 -219.33,-235.2 0,-147.58 82.03,-235.43 219.33,-235.43zm0 54.15c-84.01,0 -136.3,63.92 -136.3,168.03 0,105.05 51.55,121.55 136.3,121.55 84.03,0 136.32,-17.43 136.32,-121.55 0,-102.49 -52.29,-168.03 -136.32,-168.03zm687.26 31.15c-44.61,-20.45 -92.69,-31.84 -143.49,-31.84 -78.57,0 -121.45,26.96 -121.45,71.35 0,40.2 25.29,59.03 109.3,76.23l27.01 5.57c111.04,22.31 153.92,55.78 153.92,128.76 0,83.66 -74.35,135.26 -197.53,135.26 -50.81,0 -105.83,-8.83 -167.79,-27.89l0 -108.07c58.49,28.59 114.5,42.53 169.52,42.53 74.35,0 106.57,-21.38 106.57,-59.73 -9.42,-16.5 -17.35,-27.89 -24.28,-35.32 -6.2,-7.44 -34.21,-15.58 -83.28,-26.27l-27.01 -5.81c-97.16,-18.82 -138.06,-48.34 -138.06,-118.06 0,-84.36 66.43,-132.01 183.42,-132.01 58.73,0 110.28,8.37 153.15,23.94l0 61.36z"/>
</symbol>
<symbol id="Fm1-143-0" viewBox="35007.69 -7681.7 2202.31 769.04">
 <path class="fil2" d="M35124.67 -6924.05l-116.98 0 251.81 -597.75 81.29 0 250.81 597.75 -123.17 0 -24.54 -97.61 -286.76 0 -32.46 97.61zm57.75 -192.67l235.19 0 -117.96 -331.18 -117.23 331.18zm718.74 -498.51c-13.14,-10.69 -21.82,-15.57 -29.75,-15.57 -10.4,0 -18.34,4.88 -23.54,14.87 -5.21,9.77 -7.94,25.34 -8.68,47.42l-53.28 0c1.73,-72.05 31.47,-113.19 83.02,-113.19 21.81,0 38.42,6.74 59.48,24.64l24.3 22.08c12.39,10.69 22.05,15.57 28.99,15.57 11.4,0 19.08,-4.88 24.54,-14.64 5.2,-9.76 7.68,-25.34 7.68,-47.65l54.28 0c-1.74,72.28 -32.23,113.19 -84.02,113.19 -21.81,0 -38.42,-6.51 -59.23,-24.64l-23.79 -22.08zm248.33 691.18l-111.78 0 16.6 -272.15c0,-85.29 -27.25,-127.13 -97.15,-127.13 -96.15,0 -141.52,54.16 -141.52,141.77l13.14 257.51 -109.3 0 12.9 -452.5 78.8 0 0 53.92c37.68,-27.65 88.24,-60.66 154.65,-60.66 109.31,0 165.32,64.85 171.51,188.72l12.15 270.52zm347.97 -459.24c136.32,0 219.34,87.85 219.34,235.43 0,146.65 -83.02,235.2 -219.34,235.2 -137.3,0 -219.34,-88.55 -219.34,-235.2 0,-147.58 82.04,-235.43 219.34,-235.43zm0 54.15c-84.01,0 -136.31,63.92 -136.31,168.03 0,105.05 51.55,121.55 136.31,121.55 84.02,0 136.32,-17.43 136.32,-121.55 0,-102.49 -52.3,-168.03 -136.32,-168.03zm687.26 31.15c-44.61,-20.45 -92.69,-31.84 -143.5,-31.84 -78.56,0 -121.44,26.96 -121.44,71.35 0,40.2 25.28,59.03 109.3,76.23l27.01 5.57c111.03,22.31 153.91,55.78 153.91,128.76 0,83.66 -74.35,135.26 -197.53,135.26 -50.8,0 -105.83,-8.83 -167.79,-27.89l0 -108.07c58.5,28.59 114.5,42.53 169.53,42.53 74.35,0 106.57,-21.38 106.57,-59.73 -9.42,-16.5 -17.35,-27.89 -24.29,-35.32 -6.19,-7.44 -34.21,-15.58 -83.27,-26.27l-27.01 -5.81c-97.16,-18.82 -138.06,-48.34 -138.06,-118.06 0,-84.36 66.43,-132.01 183.41,-132.01 58.74,0 110.29,8.37 153.16,23.94l0 61.36z"/>
</symbol>
<symbol id="Fm0-138-0" viewBox="28697.24 -8565.92 2560.94 619.83">
 <path class="fil2" d="M28738.13 -8092.04c42.87,19.75 88.48,30.44 131.35,30.44 113.52,0 173,-23.7 181.68,-169.66 -33.21,45.79 -85.51,71.35 -146.73,71.35 -127.64,0 -207.19,-77.16 -207.19,-202.66 0,-122.94 83.76,-203.35 212.39,-203.35 147.72,0 227.28,108.3 227.28,310.03 0,188.48 -103.1,309.8 -263.95,309.8 -42.88,0 -86.74,-8.14 -134.83,-23.71l0 -122.24zm164.57 -188.49c94.42,0 152.91,-8.13 152.91,-95.05 0,-86.22 -58.49,-139.44 -152.91,-139.44 -94.43,0 -153.91,53.22 -153.91,139.44 0,86.92 59.48,95.05 153.91,95.05zm933.61 127.83l-229.75 3.25 3.47 -65.54 229.76 -3.95 -3.48 66.24zm852.58 195.22l-367.3 0 0 -112.25 141.51 0 0 -411.6 -153.66 28.59 0 -73.67 152.93 -28.82 85.75 0 0 485.5 140.77 0 0 112.25zm353.17 -608.44c143.5,0 216.12,108.3 216.12,310.03 -5.45,201.73 -81.54,309.8 -224.79,309.8 -142.52,0 -215.88,-108.07 -215.88,-309.8 5.95,-201.73 82.04,-310.03 224.55,-310.03zm0 32.07c-88.24,0 -133.84,72.98 -133.84,219.63 0,151.76 36.93,219.85 125.17,219.85 89.21,0 131.1,-72.97 142.5,-219.85 0,-146.65 -44.61,-219.63 -133.83,-219.63zm-2.48 310.73c35.68,0 44.61,-40.21 44.61,-70.42 0,-57.41 -8.93,-92.73 -44.61,-92.73 -40.39,0 -45.61,46.02 -45.61,92.73 0,30.21 8.68,70.42 45.61,70.42z"/>
</symbol>
<symbol id="Fm14-117-0" viewBox="36345.56 -9782.18 2039.19 348.15">
 <path class="fil5" d="M38384.75 -9607.71c-1.3,95.73 -454.87,173.27 -1015.18,173.68l-8.78 0c-560.8,-0.41 -1014.8,-78.1 -1015.23,-173.95l0 -0.28c0.43,-96.06 456.79,-173.92 1019.62,-173.92 562.34,0 1018.27,77.71 1019.57,173.65l0 0.82z"/>
</symbol>
<symbol id="Fm0-111-0" viewBox="4457.91 -15371.28 1640.5 2396.26">
 <polygon class="fil4" points="4822.92,-12975.02 4457.91,-12975.02 4515.85,-15321.9 4875.06,-15321.9 5788.85,-13431.54 5832.72,-15371.28 6098.41,-15371.28 6098.41,-12975.02 5681.24,-12975.02 4737.67,-14979.98 "/>
</symbol>
<symbol id="Fm10-113-0" viewBox="30710.35 -15274.31 1563.76 395.02">
 <path class="fil5" d="M32274.11 -15076.79c0,108.54 -346.47,196.59 -775.17,197.5l-13.46 0c-427.63,-0.91 -773.46,-88.54 -775.13,-196.72l0 -1.56c1.67,-108.75 351.13,-196.74 781.86,-196.74 431.8,0 781.9,88.4 781.9,197.52z"/>
</symbol>
<symbol id="Fm1-147-0" viewBox="24266.09 -7872.28 2202.31 769.04">
 <path class="fil2" d="M24383.07 -7114.63l-116.98 0 251.81 -597.75 81.29 0 250.81 597.75 -123.17 0 -24.54 -97.61 -286.76 0 -32.46 97.61zm57.75 -192.67l235.19 0 -117.96 -331.18 -117.23 331.18zm718.74 -498.51c-13.14,-10.69 -21.82,-15.57 -29.75,-15.57 -10.4,0 -18.34,4.88 -23.54,14.87 -5.21,9.77 -7.94,25.34 -8.68,47.42l-53.28 0c1.73,-72.05 31.47,-113.19 83.02,-113.19 21.81,0 38.42,6.74 59.48,24.64l24.3 22.08c12.39,10.69 22.05,15.57 28.99,15.57 11.4,0 19.08,-4.88 24.54,-14.64 5.2,-9.76 7.68,-25.34 7.68,-47.65l54.28 0c-1.74,72.28 -32.23,113.19 -84.02,113.19 -21.81,0 -38.42,-6.51 -59.23,-24.64l-23.79 -22.08zm248.33 691.18l-111.78 0 16.6 -272.15c0,-85.29 -27.25,-127.13 -97.15,-127.13 -96.15,0 -141.52,54.16 -141.52,141.77l13.14 257.51 -109.3 0 12.9 -452.5 78.8 0 0 53.92c37.68,-27.65 88.24,-60.66 154.65,-60.66 109.31,0 165.32,64.85 171.51,188.72l12.15 270.52zm347.97 -459.24c136.32,0 219.34,87.85 219.34,235.43 0,146.65 -83.02,235.2 -219.34,235.2 -137.3,0 -219.34,-88.55 -219.34,-235.2 0,-147.58 82.04,-235.43 219.34,-235.43zm0 54.15c-84.01,0 -136.31,63.92 -136.31,168.03 0,105.05 51.55,121.55 136.31,121.55 84.02,0 136.32,-17.43 136.32,-121.55 0,-102.49 -52.3,-168.03 -136.32,-168.03zm687.26 31.15c-44.61,-20.45 -92.69,-31.84 -143.5,-31.84 -78.56,0 -121.44,26.96 -121.44,71.35 0,40.2 25.28,59.03 109.3,76.23l27.01 5.57c111.03,22.31 153.91,55.78 153.91,128.76 0,83.66 -74.35,135.26 -197.53,135.26 -50.8,0 -105.83,-8.83 -167.79,-27.89l0 -108.07c58.5,28.59 114.5,42.53 169.53,42.53 74.35,0 106.57,-21.38 106.57,-59.73 -9.42,-16.5 -17.35,-27.89 -24.29,-35.32 -6.19,-7.44 -34.21,-15.58 -83.27,-26.27l-27.01 -5.81c-97.16,-18.82 -138.06,-48.34 -138.06,-118.06 0,-84.36 66.43,-132.01 183.41,-132.01 58.74,0 110.29,8.37 153.16,23.94l0 61.36z"/>
</symbol>
<symbol id="Fm4-123-0" viewBox="11517.62 -15327.15 1461.41 2335.23">
 <path class="fil7" d="M12249.24 -15327.15c443.77,0 729.79,457.06 729.79,1168.05 0,710.12 -286.02,1167.18 -729.79,1167.18 -443.77,0 -731.62,-453.56 -731.62,-1167.18 0,-710.99 287.85,-1168.05 731.62,-1168.05zm0 247.79c-309.96,0 -506.98,352 -506.98,920.26 0,466.7 197.02,590.16 506.98,590.16 309.35,0 504.53,-123.46 504.53,-590.16 0,-568.26 -195.18,-920.26 -504.53,-920.26z"/>
</symbol>
<symbol id="Fm1-151-0" viewBox="47269.64 -19213.29 2248.1 395.18">
 <path class="fil8" d="M47591.69 -19060.83c-50.81,-14.03 -96.18,-20.66 -138.83,-20.66 -73.4,0 -115.26,16.69 -115.26,46.74 0,24.96 22,36.23 96.19,44.08l40.5 4.64c100.85,10.93 147.59,37.78 147.59,84.18 0,54.91 -65.81,83.74 -191.59,83.74 -47.32,0 -101.06,-5.85 -158.69,-17.89l0 -60.77c54.9,17.57 107.86,26.52 158.69,26.52 77.68,0 120.9,-21.43 120.9,-38.23 0,-15.24 -28.22,-33.14 -96.76,-40.87l-41.27 -4.75c-101.06,-11.27 -143.52,-34.25 -143.52,-77.56 0,-50.27 65.81,-81.09 175.82,-81.09 46.74,0 95.42,4.75 146.23,14.47l0 37.45zm475.87 121.97l-280.19 0c1.36,56.9 50.83,66.62 132.61,68.94 47.3,0 92.08,0.44 136.09,-12.82l1.36 48.28c-44.79,10.94 -91.51,16.35 -139.6,16.35 -119.36,-2.32 -194.91,-42.42 -194.91,-109.81 4.67,-69.82 71.27,-113.9 184.79,-113.9 100.26,2.43 151.67,28.83 159.85,89.7l0 13.26zm-53.54 -30.82c-6.82,-23.76 -45.37,-53.81 -106.31,-53.81 -68.74,0 -113.52,28.51 -113.52,54.25l219.83 -0.44zm421.15 -31.6c-35.06,-9.72 -72.83,-15.13 -112.74,-15.13 -61.72,0 -95.4,12.81 -95.4,33.91 0,19.11 19.86,28.06 85.86,36.24l21.22 2.65c87.24,10.61 120.92,26.52 120.92,61.21 0,39.77 -58.42,64.29 -155.18,64.29 -39.92,0 -83.15,-4.19 -131.83,-13.25l0 -51.38c45.96,13.59 89.95,20.22 133.19,20.22 58.4,0 83.73,-10.16 83.73,-28.39 -7.4,-7.85 -13.64,-13.26 -19.09,-16.79 -4.86,-3.54 -26.88,-7.41 -65.42,-12.49l-21.22 -2.76c-76.33,-8.95 -108.46,-22.98 -108.46,-56.12 0,-40.11 52.19,-62.75 144.08,-62.75 46.16,0 86.66,3.97 120.34,11.37l0 29.17zm188.86 -74.02l-61.72 0 3.31 -44.41 55.1 0 3.31 44.41zm-68.54 251.78c8.76,-74.79 10.91,-146.16 10.13,-213.22l55.1 0c-4.09,63.96 -0.78,135.66 13.64,213.22l-78.87 0zm381.25 -310.22l-57.05 0 105.14 -79.55 73.41 0 -121.5 79.55zm-29.6 91.92c107.09,0 172.32,41.76 172.32,111.91 0,69.71 -65.23,111.8 -172.32,111.8 -107.87,0 -172.33,-42.09 -172.33,-111.8 0,-70.15 64.46,-111.91 172.33,-111.91zm0 25.74c-66.02,0 -107.1,30.38 -107.1,79.87 0,49.94 40.5,57.78 107.1,57.78 66.01,0 107.09,-8.28 107.09,-57.78 0,-48.72 -41.08,-79.87 -107.09,-79.87zm610.6 192.56l-87.81 0 13.04 -129.37c0,-40.55 -21.41,-60.43 -76.33,-60.43 -75.53,0 -111.17,25.74 -111.17,67.39l10.31 122.41 -85.87 0 10.14 -215.1 61.91 0 0 25.63c29.59,-13.15 69.32,-28.83 121.5,-28.83 85.87,0 129.88,30.82 134.74,89.7l9.54 128.6z"/>
</symbol>
<symbol id="Fm0-146-0" viewBox="24266.09 -8747.92 2066.75 619.83">
 <path class="fil2" d="M24406.86 -8457.65c-73.61,-17.19 -108.56,-67.16 -108.56,-135.26 0,-85.29 68.17,-146.64 195.06,-146.64 126.65,0 194.8,61.35 194.8,146.64 0,68.1 -34.95,118.07 -108.3,135.26 83.02,18.13 140.77,73.91 140.77,150.14 0,115.51 -86.49,179.42 -227.27,179.42 -140.78,0 -227.27,-63.91 -227.27,-179.42 0,-76.23 57.5,-132.01 140.77,-150.14zm-31.48 -151.52c0,61.35 43.63,98.3 117.98,98.3 73.36,0 117.97,-36.95 117.97,-98.3 0,-51.83 -44.61,-91.11 -117.97,-91.11 -74.35,0 -117.98,39.28 -117.98,91.11zm117.98 177.79c-82.28,0 -132.1,43.46 -132.1,115.74 0,39.97 49.82,87.61 132.1,87.61 82.03,0 131.85,-48.34 131.85,-87.61 0,-72.28 -49.82,-115.74 -131.85,-115.74zm926.68 96.68l-229.75 3.25 3.47 -65.54 229.75 -3.95 -3.47 66.24zm514.03 60.66c42.87,19.75 88.48,30.44 131.35,30.44 113.52,0 172.99,-23.7 181.67,-169.66 -33.21,45.79 -85.5,71.35 -146.73,71.35 -127.64,0 -207.19,-77.16 -207.19,-202.66 0,-122.94 83.77,-203.35 212.4,-203.35 147.72,0 227.27,108.3 227.27,310.03 0,188.48 -103.1,309.8 -263.95,309.8 -42.88,0 -86.74,-8.14 -134.82,-23.71l0 -122.24zm164.57 -188.49c94.42,0 152.91,-8.13 152.91,-95.05 0,-86.22 -58.49,-139.44 -152.91,-139.44 -94.43,0 -153.92,53.22 -153.92,139.44 0,86.92 59.49,95.05 153.92,95.05z"/>
</symbol>
<symbol id="Fm0-150-0" viewBox="47382.57 -19606.87 2023.05 301.6">
 <path class="fil8" d="M47382.57 -19310.68c10.13,-94.68 10.13,-189.47 13.64,-284.15l57.63 0c2.13,94.68 0.78,189.47 9.73,284.15l-81 0zm519.88 0l-87.81 0 13.05 -129.37c0,-40.55 -21.42,-60.43 -76.33,-60.43 -75.54,0 -111.18,25.74 -111.18,67.39l10.31 122.41 -85.86 0 10.13 -215.1 61.91 0 0 25.63c29.6,-13.15 69.32,-28.83 121.51,-28.83 85.86,0 129.87,30.82 134.73,89.7l9.54 128.6zm169.6 -251.78l-61.72 0 3.31 -44.41 55.09 0 3.32 44.41zm-68.54 251.78c8.75,-74.79 10.9,-146.16 10.13,-213.22l55.09 0c-4.09,63.96 -0.77,135.66 13.64,213.22l-78.86 0zm476.64 -174.22c-35.03,-10.94 -70.09,-16.35 -105.73,-16.35 -80.4,0 -123.05,32.37 -123.05,84.18 6.24,36.68 39.92,49.05 120.34,51.48 35.62,0 72.03,2.65 107.09,-8.28l1.35 55.01c-34.26,8.95 -70.67,13.59 -112.53,13.59 -112.74,0 -184.79,-43.19 -184.79,-111.8 0,-69.38 72.05,-111.91 188.88,-111.91 37.77,0 74.76,4.3 108.44,13.25l0 30.83zm169.02 -77.56l-61.72 0 3.31 -44.41 55.1 0 3.31 44.41zm-68.54 251.78c8.76,-74.79 10.91,-146.16 10.13,-213.22l55.1 0c-4.09,63.96 -0.78,135.66 13.64,213.22l-78.87 0zm496.51 0l-61.72 0 0 -30.38c-28.24,23.31 -68.74,35.79 -129.87,35.79 -76.14,0 -125.6,-26.51 -125.6,-67.39 0,-47.95 56.86,-72.47 168.83,-72.47l86.64 0 0 -3.54c0,-32.37 -34.46,-51.81 -106.51,-54.57 -42.65,0 -83.73,5.85 -121.5,17.56l0 -28.5c45.17,-9.72 87.83,-14.8 127.73,-14.8 109.23,0 162,31.59 162,96.66l0 121.64zm-96.18 -108.71l-55.5 0c-89.95,0 -113.32,10.94 -114.1,37.01 6.83,21.76 39.15,23.75 83.93,23.75 61.72,0 85.67,-7.4 85.67,-53.03l0 -7.73zm424.66 -67.83c-13.82,-4.64 -26.86,-4.64 -46.72,-4.64 -69.32,0 -98.33,28.83 -98.33,74.79l13.82 106.39 -96.78 0c28.04,-88.05 31.55,-120.09 26.11,-211.23l56.85 0 0 21.76c12.46,-5.41 57.05,-24.86 116.81,-24.86 8.18,0 15.2,0.33 27.46,1.88l0.78 35.91z"/>
</symbol>
<symbol id="Fm0-155-0" viewBox="9974.05 -15374.74 1368.81 2357.42">
 <path class="fil9" d="M10807.77 -14123.62c101.14,45.83 195.44,197.98 294.54,462.87l240.55 643.43 -337.6 0 -178.35 -604.94c-115.49,-316.21 -202.29,-391.37 -390.22,-391.37l-178.36 0 0 996.31 -284.28 0 0 -2357.42 537.13 0c354.68,0 561.74,223.64 561.74,679.18 0,297.88 -101.14,497.7 -265.15,571.94zm-571.3 -1082.47l0 866.16 299.32 0c180.41,0 368.34,-164.99 368.34,-355.63 0,-404.21 -187.93,-510.53 -368.34,-510.53l-299.32 0z"/>
</symbol>
<symbol id="Fm0-157-0" viewBox="11517.62 -15327.15 1461.41 2335.23">
 <path class="fil7" d="M12249.24 -15327.15c443.77,0 729.79,457.06 729.79,1168.05 0,710.12 -286.02,1167.18 -729.79,1167.18 -443.77,0 -731.62,-453.56 -731.62,-1167.18 0,-710.99 287.85,-1168.05 731.62,-1168.05zm0 247.79c-309.96,0 -506.98,352 -506.98,920.26 0,466.7 197.02,590.16 506.98,590.16 309.35,0 504.53,-123.46 504.53,-590.16 0,-568.26 -195.18,-920.26 -504.53,-920.26z"/>
</symbol>
<symbol id="Fm3-122-0" viewBox="9974.05 -15374.74 1368.81 2357.42">
 <path class="fil9" d="M10807.77 -14123.62c101.14,45.83 195.44,197.98 294.54,462.87l240.55 643.43 -337.6 0 -178.35 -604.94c-115.49,-316.21 -202.29,-391.37 -390.22,-391.37l-178.36 0 0 996.31 -284.28 0 0 -2357.42 537.13 0c354.68,0 561.74,223.64 561.74,679.18 0,297.88 -101.14,497.7 -265.15,571.94zm-571.3 -1082.47l0 866.16 299.32 0c180.41,0 368.34,-164.99 368.34,-355.63 0,-404.21 -187.93,-510.53 -368.34,-510.53l-299.32 0z"/>
</symbol>
<symbol id="Fm17-120-0" viewBox="47269.64 -19606.87 2248.1 788.76">
 <path class="fil8" d="M47382.57 -19310.68c10.13,-94.68 10.13,-189.47 13.64,-284.15l57.63 0c2.13,94.68 0.78,189.47 9.73,284.15l-81 0zm519.88 0l-87.81 0 13.05 -129.37c0,-40.55 -21.42,-60.43 -76.33,-60.43 -75.54,0 -111.18,25.74 -111.18,67.39l10.31 122.41 -85.86 0 10.13 -215.1 61.91 0 0 25.63c29.6,-13.15 69.32,-28.83 121.51,-28.83 85.86,0 129.87,30.82 134.73,89.7l9.54 128.6zm169.6 -251.78l-61.72 0 3.31 -44.41 55.09 0 3.32 44.41zm-68.54 251.78c8.75,-74.79 10.9,-146.16 10.13,-213.22l55.09 0c-4.09,63.96 -0.77,135.66 13.64,213.22l-78.86 0zm476.64 -174.22c-35.03,-10.94 -70.09,-16.35 -105.73,-16.35 -80.4,0 -123.05,32.37 -123.05,84.18 6.24,36.68 39.92,49.05 120.34,51.48 35.62,0 72.03,2.65 107.09,-8.28l1.35 55.01c-34.26,8.95 -70.67,13.59 -112.53,13.59 -112.74,0 -184.79,-43.19 -184.79,-111.8 0,-69.38 72.05,-111.91 188.88,-111.91 37.77,0 74.76,4.3 108.44,13.25l0 30.83zm169.02 -77.56l-61.72 0 3.31 -44.41 55.1 0 3.31 44.41zm-68.54 251.78c8.76,-74.79 10.91,-146.16 10.13,-213.22l55.1 0c-4.09,63.96 -0.78,135.66 13.64,213.22l-78.87 0zm496.51 0l-61.72 0 0 -30.38c-28.24,23.31 -68.74,35.79 -129.87,35.79 -76.14,0 -125.6,-26.51 -125.6,-67.39 0,-47.95 56.86,-72.47 168.83,-72.47l86.64 0 0 -3.54c0,-32.37 -34.46,-51.81 -106.51,-54.57 -42.65,0 -83.73,5.85 -121.5,17.56l0 -28.5c45.17,-9.72 87.83,-14.8 127.73,-14.8 109.23,0 162,31.59 162,96.66l0 121.64zm-96.18 -108.71l-55.5 0c-89.95,0 -113.32,10.94 -114.1,37.01 6.83,21.76 39.15,23.75 83.93,23.75 61.72,0 85.67,-7.4 85.67,-53.03l0 -7.73zm424.66 -67.83c-13.82,-4.64 -26.86,-4.64 -46.72,-4.64 -69.32,0 -98.33,28.83 -98.33,74.79l13.82 106.39 -96.78 0c28.04,-88.05 31.55,-120.09 26.11,-211.23l56.85 0 0 21.76c12.46,-5.41 57.05,-24.86 116.81,-24.86 8.18,0 15.2,0.33 27.46,1.88l0.78 35.91z"/>
 <path class="fil8" d="M47591.69 -19060.83c-50.81,-14.03 -96.18,-20.66 -138.83,-20.66 -73.4,0 -115.26,16.69 -115.26,46.74 0,24.96 22,36.23 96.19,44.08l40.5 4.64c100.85,10.93 147.59,37.78 147.59,84.18 0,54.91 -65.81,83.74 -191.59,83.74 -47.32,0 -101.06,-5.85 -158.69,-17.89l0 -60.77c54.9,17.57 107.86,26.52 158.69,26.52 77.68,0 120.9,-21.43 120.9,-38.23 0,-15.24 -28.22,-33.14 -96.76,-40.87l-41.27 -4.75c-101.06,-11.27 -143.52,-34.25 -143.52,-77.56 0,-50.27 65.81,-81.09 175.82,-81.09 46.74,0 95.42,4.75 146.23,14.47l0 37.45zm475.87 121.97l-280.19 0c1.36,56.9 50.83,66.62 132.61,68.94 47.3,0 92.08,0.44 136.09,-12.82l1.36 48.28c-44.79,10.94 -91.51,16.35 -139.6,16.35 -119.36,-2.32 -194.91,-42.42 -194.91,-109.81 4.67,-69.82 71.27,-113.9 184.79,-113.9 100.26,2.43 151.67,28.83 159.85,89.7l0 13.26zm-53.54 -30.82c-6.82,-23.76 -45.37,-53.81 -106.31,-53.81 -68.74,0 -113.52,28.51 -113.52,54.25l219.83 -0.44zm421.15 -31.6c-35.06,-9.72 -72.83,-15.13 -112.74,-15.13 -61.72,0 -95.4,12.81 -95.4,33.91 0,19.11 19.86,28.06 85.86,36.24l21.22 2.65c87.24,10.61 120.92,26.52 120.92,61.21 0,39.77 -58.42,64.29 -155.18,64.29 -39.92,0 -83.15,-4.19 -131.83,-13.25l0 -51.38c45.96,13.59 89.95,20.22 133.19,20.22 58.4,0 83.73,-10.16 83.73,-28.39 -7.4,-7.85 -13.64,-13.26 -19.09,-16.79 -4.86,-3.54 -26.88,-7.41 -65.42,-12.49l-21.22 -2.76c-76.33,-8.95 -108.46,-22.98 -108.46,-56.12 0,-40.11 52.19,-62.75 144.08,-62.75 46.16,0 86.66,3.97 120.34,11.37l0 29.17zm188.86 -74.02l-61.72 0 3.31 -44.41 55.1 0 3.31 44.41zm-68.54 251.78c8.76,-74.79 10.91,-146.16 10.13,-213.22l55.1 0c-4.09,63.96 -0.78,135.66 13.64,213.22l-78.87 0zm381.25 -310.22l-57.05 0 105.14 -79.55 73.41 0 -121.5 79.55zm-29.6 91.92c107.09,0 172.32,41.76 172.32,111.91 0,69.71 -65.23,111.8 -172.32,111.8 -107.87,0 -172.33,-42.09 -172.33,-111.8 0,-70.15 64.46,-111.91 172.33,-111.91zm0 25.74c-66.02,0 -107.1,30.38 -107.1,79.87 0,49.94 40.5,57.78 107.1,57.78 66.01,0 107.09,-8.28 107.09,-57.78 0,-48.72 -41.08,-79.87 -107.09,-79.87zm610.6 192.56l-87.81 0 13.04 -129.37c0,-40.55 -21.41,-60.43 -76.33,-60.43 -75.53,0 -111.17,25.74 -111.17,67.39l10.31 122.41 -85.87 0 10.14 -215.1 61.91 0 0 25.63c29.59,-13.15 69.32,-28.83 121.5,-28.83 85.87,0 129.88,30.82 134.74,89.7l9.54 128.6z"/>
</symbol>
<symbol id="Fm16-119-0" viewBox="24286.09 -9739.36 2428.44 417.69">
 <path class="fil5" d="M26714.53 -9530.52c0,114.63 -536.39,207.61 -1200.79,208.85l-26.86 0c-664.15,-1.24 -1200.37,-94.16 -1200.79,-208.72l0 -0.26c0.42,-115.28 543.88,-208.71 1214.22,-208.71 670.59,0 1214.22,93.49 1214.22,208.84z"/>
</symbol>
<symbol id="Fm0-153-0" viewBox="8151.42 -15279.64 1344.89 2360.11">
 <path class="fil10" d="M8151.42 -15279.64l250.12 0 -23.92 1191.31c-6.83,495.26 142.14,698.76 448.3,698.76 304.1,0 453.76,-203.5 443.51,-698.76l-23.92 -1191.31 250.8 0 0 1445.24c0,604.21 -228.94,914.87 -670.39,914.87 -445.57,0 -674.5,-310.66 -674.5,-914.87l0 -1445.24z"/>
</symbol>
<symbol id="Fm2-121-0" viewBox="8151.42 -15279.64 1344.89 2360.11">
 <path class="fil10" d="M8151.42 -15279.64l250.12 0 -23.92 1191.31c-6.83,495.26 142.14,698.76 448.3,698.76 304.1,0 453.76,-203.5 443.51,-698.76l-23.92 -1191.31 250.8 0 0 1445.24c0,604.21 -228.94,914.87 -670.39,914.87 -445.57,0 -674.5,-310.66 -674.5,-914.87l0 -1445.24z"/>
</symbol>
<symbol id="Fm5-124-0" viewBox="13300.99 -15355.73 1419.38 2390.57">
 <polygon class="fil11" points="13609.2,-12965.16 13300.99,-12965.16 13348.83,-15355.73 13585.28,-15355.73 13563.41,-14345.41 14352.03,-15355.73 14658.18,-15355.73 13785.51,-14240.38 14720.37,-12965.16 14158.63,-12965.16 13563.41,-14115.83 "/>
</symbol>
<symbol id="Fm0-159-0" viewBox="13300.99 -15355.73 1419.38 2390.57">
 <polygon class="fil11" points="13609.2,-12965.16 13300.99,-12965.16 13348.83,-15355.73 13585.28,-15355.73 13563.41,-14345.41 14352.03,-15355.73 14658.18,-15355.73 13785.51,-14240.38 14720.37,-12965.16 14158.63,-12965.16 13563.41,-14115.83 "/>
</symbol>
<symbol id="Fm6-125-0" viewBox="15137.5 -15312.77 383.66 2390.57">
 <path class="fil3" d="M15137.5 -12922.2c47.95,-796.55 47.95,-1594.03 64.55,-2390.57l272.99 0c10.15,796.54 3.69,1594.02 46.12,2390.57l-383.66 0z"/>
</symbol>
 <g id="Capa_x0020_1">
  <metadata id="CorelCorpID_0Corel-Layer"/>
  <g id="_2274241141616">
   <path class="fil5" d="M3729.4 3454.37c0,114.63 -536.39,207.61 -1200.79,208.85l-26.86 0c-664.15,-1.24 -1200.37,-94.16 -1200.79,-208.72l0 -0.26c0.42,-115.28 543.88,-208.71 1214.22,-208.71 670.59,0 1214.22,93.49 1214.22,208.84z"/>
   <path class="fil12" d="M3618.73 1089.33c-11.01,-33.76 -29.63,-55.1 -60.5,-65.97 -49.04,-17.21 -98.82,-24.9 -149.72,-25.54 -71.44,-0.95 -143.26,3.39 -214.24,-3.42 -174.77,-16.79 -348.27,-10.19 -522.15,16.3 -124.28,18.94 -249.34,32.91 -375.39,27.16 -54.75,-2.47 -110.03,-4.27 -163.97,12.6 -31.22,9.77 -50.94,31.25 -57.79,67.63 -2.57,13.47 -5.68,26.91 -6.59,40.53 -11.96,175.68 -24.31,351.3 -34.93,527.08 -10.69,177.91 -16.86,356.1 -19.26,534.36 -3.92,294.99 -4.3,590.02 2.05,885.01 3.45,98.46 6.06,197.03 10.86,295.38 2.61,53.94 21.8,76.38 67.52,89.57 37.68,10.83 76.17,13.72 114.76,15.03 102.2,3.39 204.51,5.79 306.81,9.24 148.63,5.08 296.72,28.3 445.98,18.07 45.41,-3.14 91.2,-1.31 136.81,-0.32 105.94,2.15 210.96,-3.21 314.11,-35 88.38,-27.23 155.16,-139.52 142.03,-243.49 -2.22,-17.42 -7.44,-34.04 -7.55,-52.24 -1.58,-292.07 4.24,-583.85 15.53,-875.56 13.22,-340.89 42.58,-680.3 68.51,-1020.09 5.5,-72.5 10.19,-145.56 -12.88,-216.33zm-1252.54 1976.62c-1.9,117.12 -12.52,234.03 -19.23,351.01 -1.51,26.42 -7.86,42.86 -37.18,38.98 -63.15,-8.39 -126.61,-12.77 -190,-18.41 -19.65,-1.8 -31.72,-13.05 -36.69,-34.82 -9,-39.23 -11.61,-79.62 -14.61,-119.66 -23.95,-321.88 -19.08,-644.53 -14.32,-966.97 2.43,-163.54 9.98,-327.13 15.27,-490.64 5.19,-163.37 18.77,-326.35 28.61,-489.51 3.36,-55.04 4.34,-110.39 10.31,-165 6.49,-59.97 31.25,-80.89 83.96,-78.67 3.1,-0.49 6.24,-0.92 9.38,-1.41 22.47,-9.74 45.9,-3.42 68.79,-4.16 37.86,-1.17 75.74,-0.35 113.6,-0.32 32.21,0 41.34,9.28 40.53,46.5 -1.06,48.29 -3.1,96.59 -6.35,144.74 -6.98,102.2 -11.15,204.58 -14.96,306.99 -7.86,213.75 -17.21,427.35 -24.59,641.1 -9.7,280 -7.93,560.18 -12.52,840.25zm181.15 -155.12c-0.7,143.9 -5.47,287.76 -14.81,431.31 3.03,36.72 -5.65,72.07 -10.48,107.77 -1.69,12.56 -8.12,15.66 -18.2,14.5 -28.09,-3.14 -56.2,-6.91 -84.35,-8.29 -14.33,-0.67 -20.08,-6.99 -20.08,-22.68 0,-32.42 -0.28,-64.81 -0.53,-97.16 -2.89,-143.01 -0.24,-285.93 2.65,-428.94 2.4,-118.25 4.73,-236.47 8.4,-354.68 7.26,-237.42 14.07,-474.81 23.67,-712.12 6.74,-166.41 12.94,-332.88 22.01,-499.11 4.09,-74.72 10.72,-149.3 15.73,-223.98 1.38,-20.71 7.94,-31.04 28.01,-31.4 31.72,-0.56 63.5,-3.88 95.08,-7.72 12.59,-1.56 16.19,3.81 18.8,16.26 5.29,25.54 2.86,51.15 1.27,76.59 -18.24,295.91 -28.96,592.38 -47.31,888.22 -17.63,283.71 -18.38,567.48 -19.86,851.43zm1022.67 -1386.91c-7.51,140.72 -16.16,281.38 -24.62,422.06 -10.94,181.93 -22.19,363.86 -33.45,545.79 -5.71,92.49 -8.99,185.13 -8.75,277.84 0.32,142.07 0.36,284.1 -5.99,426.05 -0.64,13.59 0.53,27.8 3.38,41.03 5.19,23.74 4.59,46.82 -2.4,69.78 -3.81,25.4 -12.24,49.32 -21.51,72.39 -14.5,36.2 -39.09,58.35 -74.51,65.23 -129.15,25.08 -259.19,35.74 -390.1,34.61 -107.64,-0.85 -215.23,0.17 -322.83,-1.31 -30.8,-0.42 -61.45,-7.02 -92.25,-10.16 -17.32,-1.8 -17.29,-17 -17.68,-30.2 -0.7,-29.59 0.04,-59.19 0.18,-88.75 -1.02,-205.22 0.32,-410.39 4.87,-615.57 4.55,-199.1 9.35,-398.28 16.83,-597.28 9.17,-244.27 21.23,-488.32 39.33,-732.02 7.41,-100.19 15.45,-200.31 21.38,-300.64 1.55,-26.45 10.83,-34.92 32.31,-42.15 118.4,-39.69 238.62,-26.32 358.71,-20.08 111.65,5.83 223.38,10.48 335.03,16.62 40.22,2.19 80.61,2.93 120.02,15.73 50.9,16.44 71.5,44.24 73.44,105.24 3.74,115.57 -5.29,230.68 -11.39,345.79z"/>
   <path class="fil13" d="M1747.7 884.11c-12.84,-38.42 -35.39,-42.37 -57.36,-10.83 -83.19,119.52 -135.26,251.6 -131.52,408.87 3.88,163.62 3.63,327.38 5.79,491.1 1.44,107.46 -7.52,214.7 -6.78,322.02 0.88,137.86 6.56,275.69 9.18,413.59 1.48,78.81 -0.64,157.55 -2.05,236.36 -1.91,107.53 -0.46,215.13 -0.46,322.62l1.66 0c0,107.6 -0.11,215.16 0.03,322.72 0.14,64.03 15.42,85.3 70.07,100.26 46.49,12.66 93.87,9.56 140.93,9.81 18.56,0.07 31.54,-13.73 38.77,-33.69 6.35,-17.54 9.67,-35.81 9.91,-54.65 1.91,-152.82 5.05,-305.65 5.01,-458.4 -0.03,-280.17 -1.83,-560.32 -3.1,-840.49 -0.53,-111.44 -1.94,-222.92 -2.29,-334.36 -0.5,-161.65 -6.43,-324 16.65,-484.09 11.11,-77.64 17.32,-147.1 -26.18,-217.34 -35.03,-56.62 -46.5,-128.41 -68.26,-193.5zm-142.35 262.89c5.65,-23.32 12.6,-46.36 23.74,-67.24 22.93,-65.16 59.16,-132.36 85.55,-158.5 6.81,8.11 9.39,18.38 11.61,28.75 13.69,41.1 27.45,82.19 41.2,123.26 8.15,22.75 14.75,46.46 24.84,67.98 11.92,25.47 3.88,38.27 -15.7,51.12 -39.72,26.07 -81.88,33.72 -126.65,28.57 -40.14,-6 -55.24,-30.34 -44.59,-73.94zm181.12 2230.89c-10.66,55.6 -23.81,67.07 -74.72,64.25 -21.63,2.36 -42.55,-3.88 -63.32,-8.86 -28.79,-6.88 -37.4,-33.37 -39.16,-61.91 -2.26,-36.3 -1.41,-72.67 1.87,-109.15 1.34,-14.71 6.14,-16.37 15.77,-14.36 25.11,5.33 50.13,11.01 75.17,16.58 16.94,2.96 33.8,7.62 50.8,8.43 25.3,1.2 33.59,18.98 35.85,43.47 1.87,20.56 1.62,41.09 -2.26,61.55zm13.76 -2112.32c-1.73,79.8 -3.32,159.59 -5.33,239.43 -5.12,205.07 -1.31,410 3.1,615.03 3.78,176.46 -2.25,352.92 -6.17,529.38 -1.94,86.68 -2.4,173.42 -3.63,260.17 -1.34,98.53 -2.86,197.13 -4.24,295.67 -0.14,10.79 2.08,22.43 -13.83,18.83 -26.7,-6.06 -53.58,-10.93 -80.36,-16.37 -2.54,-0.31 -5.15,-0.49 -7.65,-1.05 -65.62,-14.47 -73.35,-25.69 -73.95,-101.22 -1.65,-219.67 -1.3,-439.56 -6.38,-659.2 -7.37,-325.29 -2.47,-650.59 -3.92,-975.81 -0.17,-46.25 -1.58,-92.47 -2.15,-138.72 -0.56,-50.48 2.93,-54.4 48.72,-56.51 47.34,-9.53 94.69,-18.7 141.96,-28.75 16.23,-3.46 14.04,8.39 13.83,19.12z"/>
   <path class="fil14" d="M3507.95 1072.87c-39.4,-12.77 -79.8,-13.48 -120.01,-15.74 -111.66,-6.14 -223.38,-10.76 -335.03,-16.58 -120.09,-6.24 -240.28,-19.65 -358.67,20.04 -21.52,7.23 -30.77,15.73 -32.35,42.19 -5.9,100.3 -13.94,200.45 -21.35,300.64 -18.13,243.66 -30.16,487.78 -39.37,732.01 -7.48,199.04 -12.27,398.18 -16.79,597.33 -4.59,205.14 -5.89,410.31 -4.87,615.49 24.41,7.09 49.36,6.31 74.23,6.31 114.37,-0.14 229.02,5.26 343.04,-1.97 103.43,-6.64 206.8,-15.95 310.27,-20.78 64.48,-3.04 127.63,-14.78 191.13,-25.37 6.95,-22.93 7.59,-46 2.44,-69.78 -2.9,-13.23 -4.06,-27.41 -3.43,-40.99 6.35,-141.96 6.32,-283.98 6.04,-426.05 -0.25,-92.71 2.99,-185.35 8.71,-277.85 11.29,-181.92 22.51,-363.85 33.44,-545.81 8.47,-140.66 17.11,-281.31 24.63,-422.07 6.1,-115.11 15.13,-230.18 11.43,-345.75 -1.98,-61.04 -22.58,-88.8 -73.49,-105.27z"/>
   <path class="fil15" d="M2418.25 1277.63c3.25,-48.19 5.29,-96.45 6.35,-144.75 0.81,-37.22 -8.32,-46.5 -40.5,-46.5 -37.89,-0.03 -75.77,-0.88 -113.63,0.29 -22.89,0.77 -46.28,-5.58 -68.79,4.23l201.22 0c-6.17,108.34 -38.31,209.13 -37.95,317.64 0.35,107.14 2.15,214.91 -3.46,322.05 -4.41,85.13 -11.22,170.22 -17.6,255.24 -9.78,130.07 -32.74,258.3 -34.65,389.6 -1.13,77.72 1.06,155.86 -4.72,233.26 -6.95,93.66 3.56,187.82 -5.3,280.64 -9.27,96.76 -10.93,193.88 -18.59,290.72 -2.89,37.15 -3.07,74.65 -6.56,111.76 -4.34,45.9 -10.69,47.31 -45.61,30.8 -23.29,-11.01 -38.84,-36.94 -41.17,-67.21 -3.42,-44.02 -2.4,-88.54 -6,-132.54 -8.68,-106.53 -12.21,-213.6 -24.2,-319.75 -3.28,-29.21 -6.14,-58.71 -6.24,-88.09 -0.6,-154.94 -7.41,-310.41 1.34,-464.68 18.52,-327.03 10.51,-654.16 14.57,-981.29 0.6,-50.94 11.28,-101.1 21.69,-150.77 1.84,-8.54 2.61,-17.33 3.85,-26 -52.67,-2.23 -77.47,18.69 -84,78.63 -5.93,54.65 -6.91,110 -10.27,164.99 -9.84,163.2 -23.38,326.18 -28.61,489.52 -5.29,163.58 -12.84,327.09 -15.24,490.68 -4.79,322.4 -9.66,645.05 14.29,966.96 3,40.04 5.61,80.43 14.64,119.63 4.98,21.8 17.01,33.05 36.66,34.85 63.39,5.61 126.89,9.99 190,18.42 29.28,3.88 35.67,-12.53 37.18,-38.98 6.71,-116.99 17.33,-233.93 19.23,-351.02 4.59,-280.1 2.82,-560.24 12.52,-840.24 7.41,-213.75 16.73,-427.39 24.63,-641.11 3.81,-102.44 7.94,-204.82 14.92,-306.98z"/>
   <path class="fil14" d="M2194.58 1129.02c-16.65,77.15 -21.31,155.44 -20.67,234.81 1.2,157.83 1.05,315.74 0.1,473.6 -0.74,131.06 -5.11,262.05 -14.14,392.82 -3.78,54.05 -0.92,108.52 -1.06,162.77 -0.18,81.85 1.2,163.8 -0.43,245.61 -1.41,73.34 7.31,145.59 12.07,218.33 6.56,101.18 18.38,201.97 19.33,303.64 0.28,30.58 5.01,60.82 6.39,91.37 1.09,24.06 13.33,42.65 29.74,56.55 22.22,18.91 37.88,11.04 39.79,-20.75 2.79,-47.3 9.45,-94.29 10.3,-141.42 3.03,-159.64 18.94,-318.32 18.17,-478.41 -0.6,-123.93 2.4,-248.35 9.1,-372.35 3.07,-57.05 11.01,-113.74 17.71,-170.32 22.68,-191.84 37.15,-384.07 33.13,-577.75 -1.56,-78.07 6.1,-155.64 6.52,-233.54 0.25,-46.49 15.45,-90.84 23.92,-136.1 14.53,-77.22 15.1,-77.05 -53.55,-77.08 -32.74,-0.04 -65.41,0.32 -98.07,-0.21 -11.01,-0.18 -22.72,1.3 -31.26,-9.74 -3.14,0.46 -6.24,0.95 -9.35,1.41 8.36,11.61 4.87,24.48 2.26,36.76z"/>
   <path class="fil14" d="M2166.74 1269.06c-4.06,327.13 3.95,654.23 -14.57,981.29 -8.71,154.27 -1.94,309.74 -1.34,464.68 0.14,29.39 3,58.84 6.28,88.05 11.96,106.19 15.52,213.22 24.2,319.8 3.6,43.95 2.54,88.51 5.96,132.53 2.37,30.27 17.89,56.2 41.21,67.21 34.89,16.51 41.24,15.13 45.58,-30.83 3.52,-37.08 3.67,-74.58 6.59,-111.76 7.66,-96.81 9.32,-193.93 18.56,-290.73 8.89,-92.78 -1.66,-186.97 5.33,-280.6 5.78,-77.43 3.56,-155.57 4.69,-233.25 1.9,-131.34 24.9,-259.54 34.64,-389.61 6.39,-85.06 13.19,-170.11 17.6,-255.24 5.61,-107.17 3.81,-214.91 3.46,-322.05 -0.35,-108.55 31.82,-209.3 37.96,-317.67l-201.22 0c8.53,11.04 20.25,9.52 31.25,9.7 32.63,0.53 65.37,0.17 98.07,0.21 68.66,0.03 68.09,-0.11 53.56,77.08 -8.47,45.3 -23.68,89.64 -23.96,136.1 -0.39,77.9 -8.04,155.47 -6.45,233.54 3.95,193.64 -10.48,385.94 -33.16,577.78 -6.71,56.55 -14.64,113.24 -17.71,170.32 -6.74,123.97 -9.71,248.46 -9.11,372.32 0.78,160.09 -15.13,318.77 -18.16,478.41 -0.85,47.16 -7.52,94.12 -10.34,141.42 -1.87,31.82 -17.57,39.66 -39.76,20.75 -16.4,-13.9 -28.68,-32.49 -29.74,-56.55 -1.41,-30.55 -6.1,-60.79 -6.38,-91.34 -0.99,-101.7 -12.74,-202.49 -19.33,-303.67 -4.77,-72.71 -13.48,-144.99 -12.07,-218.3 1.62,-81.88 0.25,-163.79 0.42,-245.64 0.14,-54.29 -2.71,-108.69 1.06,-162.77 9.07,-130.74 13.37,-261.72 14.18,-392.82 0.92,-157.83 1.1,-315.73 -0.14,-473.6 -0.63,-79.38 4.02,-157.66 20.71,-234.81 2.58,-12.28 6.07,-25.15 -2.29,-36.76 -1.27,8.68 -2.05,17.5 -3.85,26.04 -10.4,49.63 -21.09,99.83 -21.73,150.77z"/>
   <path class="fil16" d="M2613.23 1094.59c-2.61,-12.46 -6.21,-17.82 -18.77,-16.27 -31.57,3.85 -63.36,7.17 -95.11,7.73 -20.07,0.39 -26.6,10.69 -27.97,31.4 -5.01,74.68 -11.68,149.26 -15.74,224.01 -9.06,166.19 -15.27,332.67 -22.01,499.08 -9.63,237.31 -16.44,474.69 -23.71,712.11 -3.63,118.22 -6,236.43 -8.36,354.69 -2.89,142.98 -5.57,285.92 -2.68,428.94 44.41,5.68 88.93,9.38 133.63,5.85 9.39,-143.54 14.11,-287.4 14.85,-431.3 1.49,-283.95 2.23,-567.73 19.83,-851.43 18.38,-295.84 29.1,-592.28 47.34,-888.23 1.59,-25.43 3.99,-51.04 -1.3,-76.58z"/>
   <path class="fil15" d="M3229.71 3345.4c-66.36,-0.81 -131.9,9.18 -197.73,15.1 -12.81,1.2 -25.61,3.04 -38.49,3.04 -121.11,0.1 -242.25,0.14 -363.36,-0.11 -17.85,0 -36.51,1.8 -50.62,-15.17 -0.15,29.56 -0.92,59.16 -0.22,88.76 0.39,13.23 0.36,28.4 17.68,30.2 30.83,3.14 61.49,9.74 92.28,10.16 107.57,1.48 215.2,0.46 322.8,1.3 130.91,1.13 260.95,-9.52 390.1,-34.6 35.42,-6.85 60.01,-29 74.5,-65.2 9.28,-23.1 17.71,-46.99 21.52,-72.42 -8.89,10.72 -20.81,12.98 -32.73,15.24 -78.07,14.6 -156.64,24.66 -235.73,23.7z"/>
   <path class="fil15" d="M2996.79 3352.57c-114.02,7.27 -228.68,1.84 -343.08,1.98 -24.87,0 -49.81,0.77 -74.23,-6.28 14.15,16.97 32.81,15.2 50.66,15.2 121.11,0.18 242.22,0.14 363.33,0.11 12.88,0 25.68,-1.87 38.52,-3.03 65.83,-5.97 131.38,-15.99 197.7,-15.14 79.09,0.95 157.69,-9.1 235.73,-23.71 11.92,-2.25 23.88,-4.55 32.73,-15.24 -63.46,10.55 -126.64,22.34 -191.1,25.33 -103.47,4.84 -206.83,14.19 -310.26,20.78z"/>
   <path class="fil17" d="M2398.89 3336.29c0.25,32.35 0.53,64.7 0.53,97.12 0,15.74 5.75,22.01 20.07,22.72 28.15,1.38 56.27,5.12 84.35,8.29 10.09,1.2 16.51,-1.94 18.21,-14.5 4.83,-35.73 13.54,-71.05 10.47,-107.77 -45.15,16.3 -89.74,15.38 -133.63,-5.86z"/>
   <path class="fil17" d="M2398.89 3336.29c43.89,21.24 88.48,22.16 133.63,5.86 -44.73,3.49 -89.21,-0.18 -133.63,-5.86z"/>
   <path class="fil18" d="M1786.39 1246.45c-47.24,10.05 -94.58,19.26 -141.93,28.75 0.18,261.27 -1.62,522.53 1.42,783.73 1.41,122.66 13.05,245.18 18.34,367.84 7.16,168.95 24.34,337.5 15.98,507.08 -3.91,78.99 6.99,157.06 10.48,235.52 0.53,12.77 -0.53,25.61 -0.88,38.35 26.77,5.43 53.65,10.3 80.36,16.33 15.87,3.67 13.65,-8.01 13.83,-18.8 1.37,-98.57 2.86,-197.17 4.23,-295.67 1.2,-86.75 1.69,-173.49 3.6,-260.21 3.95,-176.42 9.98,-352.88 6.17,-529.37 -4.41,-204.97 -8.22,-409.93 -3.07,-615 1.98,-79.8 3.57,-159.63 5.3,-239.43 0.21,-10.73 2.39,-22.54 -13.83,-19.12z"/>
   <path class="fil19" d="M1672.87 2774.76c0.21,-80.18 -6.6,-159.52 -12.59,-239.11 -4.31,-56.97 -6.88,-114.12 -7.98,-171.17 -1.87,-95.71 -9.24,-190.92 -14.85,-286.31 -0.81,-13.76 -1.34,-27.56 -1.34,-41.35 0,-236.82 -0.03,-473.67 0.11,-710.53 0.03,-17.39 -2.9,-35.84 8.22,-51.08 -45.79,2.12 -49.32,6.03 -48.72,56.48 0.53,46.25 1.97,92.5 2.15,138.71 1.48,325.3 -3.46,650.56 3.92,975.82 5.08,219.67 4.72,439.56 6.42,659.24 0.6,75.56 8.29,86.74 73.87,101.21 2.54,0.53 5.11,0.74 7.69,1.06 -12.88,-35.53 -7.62,-73.81 -11.71,-110.71 -11.82,-107.03 -5.47,-214.8 -5.19,-322.26z"/>
   <path class="fil19" d="M1690.68 3169.38c-3.49,-78.49 -14.39,-156.56 -10.48,-235.52 8.37,-169.58 -8.82,-338.13 -15.98,-507.11 -5.29,-122.63 -16.97,-245.15 -18.34,-367.85 -3.03,-261.16 -1.24,-522.42 -1.45,-783.69 -11.11,15.24 -8.18,33.69 -8.18,51.08 -0.18,236.86 -0.14,473.71 -0.11,710.53 0,13.79 0.5,27.59 1.31,41.35 5.61,95.42 12.98,190.6 14.85,286.31 1.13,57.01 3.67,114.2 7.97,171.2 6,79.56 12.81,158.9 12.6,239.08 -0.25,107.46 -6.64,215.23 5.22,322.26 4.05,36.9 -1.2,75.15 11.71,110.71 0.35,-12.77 1.41,-25.58 0.88,-38.35z"/>
   <path class="fil20" d="M1684.96 1079.89c-1.51,1.94 -3,3.85 -4.58,5.79 -10.13,45.08 -20.29,90.2 -30.41,135.29 44.73,5.11 86.92,-2.54 126.65,-28.61 19.54,-12.81 27.58,-25.65 15.66,-51.08 -10.09,-21.56 -16.72,-45.23 -24.84,-67.98 -27.37,3.77 -54.68,8.96 -82.48,6.59z"/>
   <path class="fil21" d="M1752.87 3272.89c-17.01,-0.81 -33.84,-5.51 -50.77,-8.43 -13.51,2.89 -10.97,15.06 -11.04,25.4 -0.25,39.26 1.23,78.67 -0.88,117.79 -1.13,20.88 5.99,29.88 21.55,34.46 50.94,2.83 64.1,-8.6 74.72,-64.2 3.88,-20.5 4.13,-40.99 2.26,-61.56 -2.26,-24.48 -10.55,-42.26 -35.84,-43.46z"/>
   <path class="fil22" d="M1682.74 3405.33c0.32,-38.2 -0.99,-76.51 0.71,-114.72 0.53,-12.49 -0.25,-29.42 18.62,-26.14 -25.04,-5.61 -50.06,-11.29 -75.17,-16.62 -9.6,-2.01 -14.43,-0.35 -15.77,14.4 -3.28,36.47 -4.13,72.85 -1.87,109.11 1.76,28.58 10.37,55.07 39.16,61.95 20.81,4.97 41.69,11.18 63.35,8.78 -22.78,1.31 -29.24,-13.68 -29.03,-36.76z"/>
   <path class="fil22" d="M1690.16 3407.64c2.12,-39.12 0.67,-78.53 0.92,-117.76 0.04,-10.37 -2.47,-22.54 11.01,-25.43 -18.91,-3.28 -18.1,13.69 -18.66,26.17 -1.66,38.21 -0.36,76.49 -0.68,114.73 -0.21,23.03 6.25,38.06 29,36.76 -15.59,-4.59 -22.72,-13.58 -21.59,-34.47z"/>
   <path class="fil22" d="M1649.96 1220.95c-4.83,-5.29 -5.64,-12.17 -3.99,-18.87 9.81,-38.98 17.01,-78.85 29.5,-117.02 -15.46,-1.76 -30.91,-3.56 -46.36,-5.33 -11.18,20.92 -18.1,43.96 -23.74,67.28 -10.69,43.57 4.44,67.94 44.59,73.94z"/>
   <path class="fil22" d="M1675.45 1085.08c-12.49,38.17 -19.68,78 -29.49,116.98 -1.66,6.7 -0.85,13.58 3.99,18.91 10.16,-45.09 20.32,-90.21 30.44,-135.29 -1.66,-0.18 -3.28,-0.39 -4.94,-0.6z"/>
   <path class="fil23" d="M1676.19 1082.7c0.11,-0.21 0.14,-0.42 0.21,-0.67 2.9,-4.06 6.6,-6.77 10.94,-8.36 15.52,-40.15 27.31,-81.88 38.91,-123.65 -2.26,-10.41 -4.8,-20.67 -11.6,-28.75 -26.39,26.14 -62.62,93.31 -85.52,158.5 16.72,-10.76 32.18,-7.02 47.06,2.93z"/>
   <path class="fil23" d="M1684.96 1079.89c0.81,-2.04 1.59,-4.16 2.37,-6.24 -4.34,1.59 -8.01,4.34 -10.94,8.4 -0.07,0.24 -0.1,0.45 -0.18,0.67 1.42,0.95 2.83,1.9 4.17,2.96 1.58,-1.94 3.07,-3.85 4.58,-5.79z"/>
   <path class="fil23" d="M1676.19 1082.7c-14.88,-9.95 -30.34,-13.69 -47.06,-2.93 15.42,1.73 30.87,3.53 46.32,5.33 0.25,-0.81 0.5,-1.59 0.74,-2.4z"/>
   <path class="fil23" d="M1676.19 1082.7c-0.24,0.81 -0.49,1.59 -0.74,2.4 1.66,0.21 3.32,0.39 4.94,0.56 -1.34,-1.05 -2.79,-2.01 -4.2,-2.96z"/>
   <path class="fil24" d="M1767.45 1073.28c-13.72,-41.06 -27.51,-82.16 -41.2,-123.26 -2.54,45.33 -13.09,87.21 -36.97,123.58 26.07,-0.39 52.07,-12.39 78.17,-0.32z"/>
   <path class="fil24" d="M1689.27 1073.57c-1.41,2.12 -2.83,4.24 -4.31,6.32 27.8,2.36 55.07,-2.79 82.48,-6.6 -26.1,-12.1 -52.1,-0.11 -78.17,0.28z"/>
   <path class="fil24" d="M1687.39 1073.62c0.67,0 1.24,-0.03 1.91,-0.03 23.88,-36.34 34.43,-78.28 36.93,-123.54 -11.61,41.73 -23.39,83.46 -38.87,123.57 0,0 0.03,0 0.03,0z"/>
   <path class="fil24" d="M1689.27 1073.57c-0.64,0 -1.24,0.04 -1.87,0.04 0,0 -0.04,0 -0.07,0.03 -0.81,2.08 -1.56,4.2 -2.37,6.25 1.48,-2.08 2.9,-4.2 4.31,-6.32z"/>
  </g>
 </g>
</svg>
