<?xml version="1.0" encoding="UTF-8"?>
<!DOCTYPE svg PUBLIC "-//W3C//DTD SVG 1.1//EN" "http://www.w3.org/Graphics/SVG/1.1/DTD/svg11.dtd">
<!-- Creator: CorelDRAW -->
<svg xmlns="http://www.w3.org/2000/svg" xml:space="preserve" width="82mm" height="35mm" version="1.1" style="shape-rendering:geometricPrecision; text-rendering:geometricPrecision; image-rendering:optimizeQuality; fill-rule:evenodd; clip-rule:evenodd"
viewBox="0 0 8200 3500"
 xmlns:xlink="http://www.w3.org/1999/xlink"
 xmlns:xodm="http://www.corel.com/coreldraw/odm/2003">
 <defs>
  <style type="text/css">
   <![CDATA[
    .fil30 {fill:#00BFBA;fill-rule:nonzero}
    .fil24 {fill:#00D095;fill-rule:nonzero}
    .fil12 {fill:#00D5C6;fill-rule:nonzero}
    .fil26 {fill:#5764B3;fill-rule:nonzero}
    .fil27 {fill:#B2D722;fill-rule:nonzero}
    .fil32 {fill:#C400FA;fill-rule:nonzero}
    .fil8 {fill:#C9C9C9;fill-rule:nonzero}
    .fil3 {fill:#C9F2F1;fill-rule:nonzero}
    .fil10 {fill:#C9F5E9;fill-rule:nonzero}
    .fil7 {fill:#DCDEEF;fill-rule:nonzero}
    .fil6 {fill:#EFF7D1;fill-rule:nonzero}
    .fil0 {fill:#F3C9FE;fill-rule:nonzero}
    .fil9 {fill:#F5F5F7;fill-rule:nonzero}
    .fil13 {fill:#F9425D;fill-rule:nonzero}
    .fil25 {fill:fuchsia;fill-rule:nonzero}
    .fil23 {fill:#FF1183;fill-rule:nonzero}
    .fil15 {fill:#FF3D93;fill-rule:nonzero}
    .fil16 {fill:#FF3E93;fill-rule:nonzero}
    .fil18 {fill:#FF3E94;fill-rule:nonzero}
    .fil17 {fill:#FF3F94;fill-rule:nonzero}
    .fil19 {fill:#FF4096;fill-rule:nonzero}
    .fil28 {fill:#FF4646;fill-rule:nonzero}
    .fil31 {fill:#FF770C;fill-rule:nonzero}
    .fil14 {fill:#FF7F2A;fill-rule:nonzero}
    .fil29 {fill:#FFAF00;fill-rule:nonzero}
    .fil22 {fill:#FFBB00;fill-rule:nonzero}
    .fil20 {fill:#FFBF10;fill-rule:nonzero}
    .fil21 {fill:#FFC015;fill-rule:nonzero}
    .fil11 {fill:#FFCDE5;fill-rule:nonzero}
    .fil4 {fill:#FFD8D8;fill-rule:nonzero}
    .fil2 {fill:#FFE2CC;fill-rule:nonzero}
    .fil5 {fill:#FFEEC9;fill-rule:nonzero}
    .fil1 {fill:white;fill-rule:nonzero}
   ]]>
  </style>
 </defs>
<symbol id="Fm0-165-0" viewBox="312259.62 -58587.5 17434.33 27940">
 <path class="fil0" d="M328200.1 -53663.66c-2515.35,-1330.43 -4760.91,-1959.08 -6871.51,-1959.08 -3633.41,0 -5705.49,1581.94 -5705.49,4431.49 0,2367.63 1089.1,3436.12 4760.91,4179.98l2004.72 439.96c4992.18,1037.2 7305.22,3582.86 7305.22,7982.82 0,5206.76 -3257.49,7940.99 -9483.42,7940.99 -2341.87,0 -5001.87,-555.29 -7854.61,-1697.14l0 -5761.92c2717.91,1665.74 5339.26,2514.37 7854.61,2514.37 3845.41,0 5984.97,-2032.45 5984.97,-3624.82 0,-1445.76 -1397.42,-3142.9 -4789.86,-3876.21l-2043.12 -450.39c-5001.99,-1068.61 -7102.9,-3247.68 -7102.9,-7354.29 0,-4766.68 3257.49,-7689.6 8702.63,-7689.6 2313.16,0 4722.51,450.51 7237.86,1372.39l0 3551.45 -0.01 0z"/>
</symbol>
<symbol id="Fm1-168-0" viewBox="372351.48 -20095.09 21590.01 7539.14">
 <path class="fil1" d="M373498.37 -12667.61l-1146.89 0 2468.67 -5859.92 796.91 0 2458.77 5859.92 -1207.47 0 -240.57 -956.9 -2811.19 0 -318.22 956.9 -0.01 0zm566.14 -1888.8l2305.64 0 -1156.4 -3246.66 -1149.24 3246.66zm7045.92 -4887.05c-128.72,-104.8 -213.91,-152.64 -291.55,-152.64 -102.05,0 -179.79,47.84 -230.77,145.78 -51.08,95.78 -77.84,248.42 -85.19,464.87l-522.22 0c16.86,-706.33 308.51,-1109.64 813.87,-1109.64 213.71,0 376.64,66.07 583.1,241.55l238.12 216.46c121.56,104.8 216.26,152.64 284.3,152.64 111.76,0 187.05,-47.84 240.57,-143.52 50.98,-95.68 75.29,-248.42 75.29,-467.13l532.12 0c-17.06,708.58 -315.96,1109.64 -823.77,1109.64 -213.71,0 -376.54,-63.82 -580.55,-241.55l-233.32 -216.46zm2434.55 6775.85l-1095.81 0 162.73 -2667.97c0,-836.12 -267.24,-1246.29 -952.39,-1246.29 -942.69,0 -1387.36,530.95 -1387.36,1389.81l128.82 2524.45 -1071.5 0 126.36 -4435.99 772.6 0 0 528.59c369.39,-271.06 865.04,-594.67 1516.08,-594.67 1071.6,0 1620.68,635.74 1681.36,1850.08l119.11 2651.99zm3411.26 -4502.07c1336.39,0 2150.26,861.22 2150.26,2307.99 0,1437.65 -813.87,2305.74 -2150.26,2305.74 -1345.99,0 -2150.26,-868.08 -2150.26,-2305.74 0,-1446.77 804.26,-2307.99 2150.26,-2307.99zm0 530.85c-823.58,0 -1336.29,626.63 -1336.29,1647.25 0,1029.84 505.36,1191.59 1336.29,1191.59 823.67,0 1336.39,-170.87 1336.39,-1191.59 0,-1004.74 -512.71,-1647.25 -1336.39,-1647.25zm6737.41 305.37c-437.33,-200.48 -908.77,-312.14 -1406.77,-312.14 -770.15,0 -1190.51,264.3 -1190.51,699.47 0,394.09 247.83,578.69 1071.4,747.31l264.89 54.6c1088.46,218.71 1508.83,546.83 1508.83,1262.27 0,820.14 -728.88,1325.99 -1936.45,1325.99 -498.01,0 -1037.48,-86.56 -1644.9,-273.41l0 -1059.44c573.39,280.28 1122.48,416.93 1661.95,416.93 728.88,0 1044.64,-209.59 1044.64,-585.55 -92.25,-161.75 -170.09,-273.41 -238.02,-346.25 -60.68,-72.94 -335.37,-152.74 -816.32,-257.53l-264.89 -56.96c-952.49,-184.5 -1353.35,-473.89 -1353.35,-1157.38 0,-827.01 651.14,-1294.13 1798.02,-1294.13 575.85,0 1081.21,82.05 1501.47,234.69l0 601.53 0.01 0z"/>
</symbol>
<symbol id="Fm0-163-0" viewBox="278235.2 -57677.59 14985.12 27940">
 <path class="fil2" d="M278235.2 -29737.59l0 -27940 4962.78 0c6917.18,0 10022.34,4366.95 10022.34,13948.2 0,9624.85 -3153.66,13991.8 -10022.34,13991.8l-4962.78 0zm2536.79 -24833.21l0 17783.02 2911.14 0c4914.16,0 6702.36,-1607.74 7069.71,-7321.81 0,-6974.1 -2155.54,-10461.21 -7069.71,-10461.21l-2911.14 0z"/>
</symbol>
<symbol id="Fm0-161-0" viewBox="275201.44 -57658.66 4484.06 27940">
 <path class="fil3" d="M275201.45 -29718.66c560.42,-9309.75 560.42,-18630.37 754.43,-27940l3190.59 0c118.63,9309.63 43.13,18630.25 539.03,27940l-4484.06 0 0.01 0z"/>
</symbol>
<symbol id="Fm7-126-0" viewBox="278235.2 -57677.59 14985.12 27940">
 <path class="fil2" d="M278235.2 -29737.59l0 -27940 4962.78 0c6917.18,0 10022.34,4366.95 10022.34,13948.2 0,9624.85 -3153.66,13991.8 -10022.34,13991.8l-4962.78 0zm2536.79 -24833.21l0 17783.02 2911.14 0c4914.16,0 6702.36,-1607.74 7069.71,-7321.81 0,-6974.1 -2155.54,-10461.21 -7069.71,-10461.21l-2911.14 0z"/>
</symbol>
<symbol id="Fm4-123-0" viewBox="231868.32 -58907.51 17485.13 27940">
 <path class="fil4" d="M240621.83 -58907.51c5309.51,0 8731.62,5468.52 8731.62,13975.2 0,8496.27 -3422.1,13964.8 -8731.62,13964.8 -5309.51,0 -8753.51,-5426.65 -8753.51,-13964.8 0,-8506.68 3444,-13975.2 8753.51,-13975.2zm0 2964.7c-3708.54,0 -6065.79,4211.53 -6065.79,11010.51 0,5583.86 2357.26,7061 6065.79,7061 3701.24,0 6036.48,-1477.14 6036.48,-7061 0,-6798.98 -2335.24,-11010.51 -6036.48,-11010.51z"/>
</symbol>
<symbol id="Fm0-157-0" viewBox="231868.32 -58907.51 17485.13 27940">
 <path class="fil4" d="M240621.83 -58907.51c5309.51,0 8731.62,5468.52 8731.62,13975.2 0,8496.27 -3422.1,13964.8 -8731.62,13964.8 -5309.51,0 -8753.51,-5426.65 -8753.51,-13964.8 0,-8506.68 3444,-13975.2 8753.51,-13975.2zm0 2964.7c-3708.54,0 -6065.79,4211.53 -6065.79,11010.51 0,5583.86 2357.26,7061 6065.79,7061 3701.24,0 6036.48,-1477.14 6036.48,-7061 0,-6798.98 -2335.24,-11010.51 -6036.48,-11010.51z"/>
</symbol>
<symbol id="Fm5-124-0" viewBox="247684.54 -58160.76 16589.13 27940">
 <polygon class="fil5" points="251286.78,-30220.76 247684.54,-30220.76 248243.68,-58160.76 251007.21,-58160.76 250751.6,-46352.55 259968.67,-58160.76 263546.82,-58160.76 253347.42,-45125 264273.67,-30220.76 257708.29,-30220.76 250751.6,-43669.31 "/>
</symbol>
<symbol id="Fm0-167-0" viewBox="404009.55 -30294.88 21590 6494.97">
 <path class="fil1" d="M407489.87 -29633.34l-3480.32 0 0 -636.9 4306.93 0 0 365.4 -1690.08 5983.94 -1634.84 0 2498.31 -5712.44zm8255.8 3638.81l-2440.42 34.52 36.86 -696.17 2440.53 -41.96 -36.96 703.61 -0.01 0zm6520.99 -1305.99c-782,-182.59 -1153.13,-713.38 -1153.13,-1436.74 0,-905.96 724,-1557.62 2071.94,-1557.62 1345.18,0 2069.18,651.66 2069.18,1557.62 0,723.36 -371.24,1254.15 -1150.48,1436.74 881.84,192.58 1495.38,785.08 1495.38,1594.8 0,1226.96 -918.81,1905.81 -2414.08,1905.81 -1495.38,0 -2414.18,-678.86 -2414.18,-1905.81 0,-809.72 610.77,-1402.22 1495.38,-1594.8l-0.01 0zm-334.38 -1609.45c0,651.66 463.44,1044.15 1253.19,1044.15 779.13,0 1252.98,-392.49 1252.98,-1044.15 0,-550.54 -473.85,-967.78 -1252.98,-967.78 -789.75,0 -1253.19,417.24 -1253.19,967.78zm1253.19 1888.49c-874.09,0 -1403.18,461.64 -1403.18,1229.4 0,424.56 529.09,930.6 1403.18,930.6 871.22,0 1400.52,-513.47 1400.52,-930.6 0,-767.76 -529.3,-1229.4 -1400.52,-1229.4z"/>
</symbol>
<symbol id="Fm6-125-0" viewBox="275201.44 -57658.66 4484.06 27940">
 <path class="fil3" d="M275201.45 -29718.66c560.42,-9309.75 560.42,-18630.37 754.43,-27940l3190.59 0c118.63,9309.63 43.13,18630.25 539.03,27940l-4484.06 0 0.01 0z"/>
</symbol>
<symbol id="Fm9-128-0" viewBox="372351.48 -32848.24 21590.01 16041.24">
 <path class="fil1" d="M375563.53 -32237.69l-3212.05 0 0 -587.81 3974.94 0 0 337.23 -1559.8 5522.69 -1508.83 0 2305.74 -5272.12 0 0.01zm7619.42 3358.31l-2252.31 31.86 34.02 -642.51 2252.41 -38.72 -34.12 649.37zm6018.34 -1205.31c-721.72,-168.52 -1064.25,-658.39 -1064.25,-1325.99 0,-836.12 668.19,-1437.56 1912.23,-1437.56 1241.49,0 1909.68,601.43 1909.68,1437.56 0,667.6 -342.63,1157.48 -1061.8,1325.99 813.87,177.73 1380.11,724.56 1380.11,1471.87 0,1132.38 -847.99,1758.91 -2228,1758.91 -1380.11,0 -2228.09,-626.53 -2228.09,-1758.91 0,-747.31 563.69,-1294.13 1380.11,-1471.87l0.01 0zm-308.61 -1485.4c0,601.43 427.72,963.66 1156.59,963.66 719.07,0 1156.4,-362.23 1156.4,-963.66 0,-508.1 -437.33,-893.18 -1156.4,-893.18 -728.88,0 -1156.59,385.07 -1156.59,893.18zm1156.6 1742.93c-806.71,0 -1295.02,426.05 -1295.02,1134.63 0,391.84 488.3,858.87 1295.02,858.87 804.07,0 1292.56,-473.89 1292.56,-858.87 0,-708.58 -488.5,-1134.63 -1292.56,-1134.63z"/>
 <path class="fil1" d="M373498.37 -16918.67l-1146.89 0 2468.67 -5859.92 796.91 0 2458.77 5859.92 -1207.47 0 -240.57 -956.9 -2811.19 0 -318.22 956.9 -0.01 0zm566.14 -1888.8l2305.64 0 -1156.4 -3246.66 -1149.24 3246.66zm7045.92 -4887.04c-128.72,-104.8 -213.91,-152.64 -291.55,-152.64 -102.05,0 -179.79,47.84 -230.77,145.78 -51.08,95.78 -77.84,248.42 -85.19,464.87l-522.22 0c16.86,-706.33 308.51,-1109.64 813.87,-1109.64 213.71,0 376.64,66.07 583.1,241.55l238.12 216.46c121.56,104.8 216.26,152.64 284.3,152.64 111.76,0 187.05,-47.84 240.57,-143.52 50.98,-95.68 75.29,-248.42 75.29,-467.13l532.12 0c-17.06,708.58 -315.96,1109.64 -823.77,1109.64 -213.71,0 -376.54,-63.82 -580.55,-241.55l-233.32 -216.46zm2434.55 6775.84l-1095.81 0 162.73 -2667.97c0,-836.12 -267.24,-1246.29 -952.39,-1246.29 -942.69,0 -1387.36,530.95 -1387.36,1389.81l128.82 2524.45 -1071.5 0 126.36 -4435.99 772.6 0 0 528.59c369.39,-271.06 865.04,-594.67 1516.08,-594.67 1071.6,0 1620.68,635.74 1681.36,1850.08l119.11 2651.99zm3411.26 -4502.06c1336.39,0 2150.26,861.22 2150.26,2307.99 0,1437.65 -813.87,2305.74 -2150.26,2305.74 -1345.99,0 -2150.26,-868.08 -2150.26,-2305.74 0,-1446.77 804.26,-2307.99 2150.26,-2307.99zm0 530.85c-823.58,0 -1336.29,626.63 -1336.29,1647.25 0,1029.84 505.36,1191.59 1336.29,1191.59 823.67,0 1336.39,-170.87 1336.39,-1191.59 0,-1004.74 -512.71,-1647.25 -1336.39,-1647.25zm6737.41 305.37c-437.33,-200.48 -908.77,-312.14 -1406.77,-312.14 -770.15,0 -1190.51,264.3 -1190.51,699.47 0,394.09 247.83,578.69 1071.4,747.31l264.89 54.6c1088.46,218.71 1508.83,546.83 1508.83,1262.27 0,820.14 -728.88,1325.99 -1936.45,1325.99 -498.01,0 -1037.48,-86.56 -1644.9,-273.41l0 -1059.44c573.39,280.28 1122.48,416.93 1661.95,416.93 728.88,0 1044.64,-209.59 1044.64,-585.55 -92.25,-161.75 -170.09,-273.41 -238.02,-346.25 -60.68,-72.94 -335.37,-152.74 -816.32,-257.53l-264.89 -56.96c-952.49,-184.5 -1353.35,-473.89 -1353.35,-1157.38 0,-827.01 651.14,-1294.13 1798.02,-1294.13 575.85,0 1081.21,82.05 1501.47,234.69l0 601.53 0.01 0z"/>
</symbol>
<symbol id="Fm0-155-0" viewBox="211978.82 -59032.07 16223.05 27940">
 <path class="fil6" d="M221860.02 -44203.88c1198.71,543.17 2316.34,2346.45 3490.87,5485.91l2850.98 7625.89 -4001.22 0 -2113.79 -7169.71c-1368.78,-3747.7 -2397.53,-4638.49 -4624.86,-4638.49l-2113.91 0 0 11808.21 -3369.27 0 0 -27940 6366.03 0c4203.65,0 6657.71,2650.57 6657.71,8049.6 0,3530.46 -1198.71,5898.71 -3142.54,6778.6l0 -0.01zm-6771.01 -12829.37l0 10265.68 3547.52 0c2138.21,0 4365.54,-1955.45 4365.54,-4214.91 0,-4790.67 -2227.34,-6050.77 -4365.54,-6050.77l-3547.52 0z"/>
</symbol>
<symbol id="Fm0-159-0" viewBox="247684.54 -58160.76 16589.13 27940">
 <polygon class="fil5" points="251286.78,-30220.76 247684.54,-30220.76 248243.68,-58160.76 251007.21,-58160.76 250751.6,-46352.55 259968.67,-58160.76 263546.82,-58160.76 253347.42,-45125 264273.67,-30220.76 257708.29,-30220.76 250751.6,-43669.31 "/>
</symbol>
<symbol id="Fm8-127-0" viewBox="312259.62 -58587.5 17434.33 27940">
 <path class="fil0" d="M328200.1 -53663.66c-2515.35,-1330.43 -4760.91,-1959.08 -6871.51,-1959.08 -3633.41,0 -5705.49,1581.94 -5705.49,4431.49 0,2367.63 1089.1,3436.12 4760.91,4179.98l2004.72 439.96c4992.18,1037.2 7305.22,3582.86 7305.22,7982.82 0,5206.76 -3257.49,7940.99 -9483.42,7940.99 -2341.87,0 -5001.87,-555.29 -7854.61,-1697.14l0 -5761.92c2717.91,1665.74 5339.26,2514.37 7854.61,2514.37 3845.41,0 5984.97,-2032.45 5984.97,-3624.82 0,-1445.76 -1397.42,-3142.9 -4789.86,-3876.21l-2043.12 -450.39c-5001.99,-1068.61 -7102.9,-3247.68 -7102.9,-7354.29 0,-4766.68 3257.49,-7689.6 8702.63,-7689.6 2313.16,0 4722.51,450.51 7237.86,1372.39l0 3551.45 -0.01 0z"/>
</symbol>
<symbol id="Fm2-121-0" viewBox="190306.37 -57852.89 15921.39 27940">
 <path class="fil7" d="M190306.38 -57852.89l2961.03 0 -283.18 14103.24c-80.86,5863.1 1682.71,8272.22 5307.17,8272.22 3600.07,0 5371.81,-2409.12 5250.46,-8272.22l-283.18 -14103.24 2969.08 0 0 17109.37c0,7152.9 -2710.29,10830.63 -7936.37,10830.63 -5274.85,0 -7985.02,-3677.73 -7985.02,-10830.63l0 -17109.37 0.01 0z"/>
</symbol>
<symbol id="Fm0-150-0" viewBox="587016.06 -87176.29 21590 3218.67">
 <path class="fil8" d="M587016.06 -84015.35c108.11,-1010.43 108.11,-2022.02 145.57,-3032.45l615.03 0c22.73,1010.43 8.32,2022.02 103.84,3032.45l-864.43 0 -0.01 0zm5548.16 0l-937.11 0 139.27 -1380.64c0,-432.75 -228.59,-644.91 -814.59,-644.91 -806.16,0 -1186.51,274.7 -1186.51,719.19l110.03 1306.36 -916.3 0 108.11 -2295.55 660.7 0 0 273.52c315.89,-140.34 739.78,-307.67 1296.76,-307.67 916.3,0 1385.97,328.91 1437.84,957.28l101.81 1372.42 -0.01 0zm1809.97 -2687l-658.68 0 35.32 -473.94 587.92 0 35.43 473.94 0.01 0zm-731.46 2687c93.38,-798.16 116.32,-1559.82 108.11,-2275.48l587.92 0c-43.65,682.58 -8.22,1447.76 145.57,2275.48l-841.59 0 -0.01 0zm5086.71 -1859.28c-373.84,-116.75 -748,-174.49 -1128.35,-174.49 -858.03,0 -1313.19,345.45 -1313.19,898.37 66.59,391.45 426.03,523.46 1284.27,549.39 380.14,0 768.7,28.28 1142.87,-88.36l14.41 587.07c-365.62,95.51 -754.19,145.03 -1200.92,145.03 -1203.16,0 -1972.08,-460.92 -1972.08,-1193.13 0,-740.42 768.92,-1194.3 2015.73,-1194.3 403.08,0 797.84,45.89 1157.27,141.4l0 329.02 -0.01 0zm1803.78 -827.72l-658.68 0 35.32 -473.94 588.03 0 35.32 473.94 0.01 0zm-731.46 2687c93.49,-798.16 116.43,-1559.82 108.11,-2275.48l588.03 0c-43.65,682.58 -8.32,1447.76 145.57,2275.48l-841.7 0 -0.01 0zm5298.76 0l-658.68 0 0 -324.22c-301.38,248.76 -733.59,381.95 -1385.97,381.95 -812.57,0 -1340.4,-282.91 -1340.4,-719.19 0,-511.72 606.81,-773.4 1801.75,-773.4l924.62 0 0 -37.78c0,-345.45 -367.76,-552.92 -1136.68,-582.37 -455.16,0 -893.57,62.43 -1296.65,187.4l0 -304.15c482.05,-103.73 937.32,-157.95 1363.14,-157.95 1165.7,0 1728.86,337.13 1728.86,1031.56l0 1298.14 0.01 0.01zm-1026.44 -1160.16l-592.3 0c-959.95,0 -1209.35,116.75 -1217.68,394.97 72.89,232.22 417.81,253.46 895.7,253.46 658.68,0 914.27,-78.97 914.27,-565.94l0 -82.49 0.01 0zm4531.98 -723.88c-147.49,-49.52 -286.65,-49.52 -498.6,-49.52 -739.78,0 -1049.38,307.67 -1049.38,798.16l147.49 1135.39 -1032.84 0c299.24,-939.67 336.7,-1281.6 278.65,-2254.25l606.7 0 0 232.22c132.97,-57.74 608.84,-265.31 1246.6,-265.31 87.3,0 162.21,3.52 293.05,20.06l8.32 383.23 0.01 0.02z"/>
</symbol>
<symbol id="Fm3-122-0" viewBox="211978.82 -59032.07 16223.05 27940">
 <path class="fil6" d="M221860.02 -44203.88c1198.71,543.17 2316.34,2346.45 3490.87,5485.91l2850.98 7625.89 -4001.22 0 -2113.79 -7169.71c-1368.78,-3747.7 -2397.53,-4638.49 -4624.86,-4638.49l-2113.91 0 0 11808.21 -3369.27 0 0 -27940 6366.03 0c4203.65,0 6657.71,2650.57 6657.71,8049.6 0,3530.46 -1198.71,5898.71 -3142.54,6778.6l0 -0.01zm-6771.01 -12829.37l0 10265.68 3547.52 0c2138.21,0 4365.54,-1955.45 4365.54,-4214.91 0,-4790.67 -2227.34,-6050.77 -4365.54,-6050.77l-3547.52 0z"/>
</symbol>
<symbol id="Fm0-138-0" viewBox="304788.65 23240.73 21590 5225.49">
 <path class="fil1" d="M305133.37 27235.78c361.42,166.5 745.93,256.62 1107.35,256.62 957.03,0 1458.48,-199.8 1531.65,-1430.32 -279.98,386.03 -720.89,601.52 -1237.01,601.52 -1076.07,0 -1746.71,-650.5 -1746.71,-1708.52 0,-1036.45 706.14,-1714.34 1790.55,-1714.34 1245.35,0 1916.08,913.02 1916.08,2613.71 0,1588.98 -869.18,2611.77 -2225.23,2611.77 -361.5,0 -731.26,-68.62 -1136.68,-199.89l0 -1030.54 0 -0.01zm1387.41 -1589.07c796.01,0 1289.11,-68.54 1289.11,-801.32 0,-726.88 -493.1,-1175.55 -1289.11,-1175.55 -796.09,0 -1297.54,448.67 -1297.54,1175.55 0,732.78 501.45,801.32 1297.54,801.32zm7870.79 1077.67l-1936.91 27.4 29.25 -552.53 1936.99 -33.3 -29.34 558.44 0.01 -0.01zm7187.68 1645.8l-3096.52 0 0 -946.32 1193 0 0 -3469.99 -1295.43 241.03 0 -621.07 1289.28 -242.97 722.92 0 0 4093.01 1186.76 0 0 946.32 -0.01 -0.01zm2977.4 -5129.45c1209.78,0 1822,913.02 1822,2613.71 -45.95,1700.68 -687.42,2611.77 -1895.09,2611.77 -1201.51,0 -1819.98,-911.08 -1819.98,-2611.77 50.16,-1700.68 691.64,-2613.71 1893.07,-2613.71zm0 270.37c-743.91,0 -1128.34,615.26 -1128.34,1851.59 0,1279.41 311.34,1853.45 1055.25,1853.45 752.08,0 1105.24,-615.17 1201.35,-1853.45 0,-1236.33 -376.08,-1851.59 -1128.25,-1851.59l-0.01 0zm-20.91 2619.61c300.8,0 376.08,-338.99 376.08,-593.68 0,-483.99 -75.28,-781.76 -376.08,-781.76 -340.51,0 -384.52,387.97 -384.52,781.76 0,254.69 73.18,593.68 384.52,593.68z"/>
</symbol>
<symbol id="Fm1-143-0" viewBox="417374.95 34677.27 21590.01 7539.17">
 <path class="fil1" d="M418521.75 42104.77l-1146.8 0 2468.58 -5859.95 796.91 0 2458.78 5859.95 -1207.48 0 -240.57 -956.9 -2811.21 0 -318.22 956.9 0.01 0zm566.14 -1888.81l2305.65 0 -1156.4 -3246.67 -1149.25 3246.67zm7046.06 -4887.06c-128.82,-104.8 -213.91,-152.64 -291.65,-152.64 -101.95,0 -179.79,47.84 -230.77,145.78 -51.08,95.78 -77.84,248.42 -85.09,464.87l-522.32 0c16.96,-706.33 308.51,-1109.64 813.87,-1109.64 213.81,0 376.64,66.07 583.1,241.55l238.22 216.46c121.46,104.8 216.16,152.64 284.2,152.64 111.76,0 187.05,-47.84 240.57,-143.52 50.98,-95.68 75.29,-248.42 75.29,-467.13l532.13 0c-17.06,708.59 -315.96,1109.64 -823.68,1109.64 -213.81,0 -376.64,-63.82 -580.65,-241.55l-233.22 -216.46zm2434.46 6775.87l-1095.82 0 162.74 -2667.98c0,-836.13 -267.14,-1246.3 -952.39,-1246.3 -942.59,0 -1387.37,530.95 -1387.37,1389.82l128.82 2524.46 -1071.51 0 126.46 -4436.01 772.5 0 0 528.6c369.39,-271.06 865.05,-594.67 1516.09,-594.67 1071.6,0 1620.69,635.75 1681.37,1850.09l119.11 2652 0 -0.01zm3411.27 -4502.08c1336.39,0 2150.27,861.22 2150.27,2308 0,1437.66 -813.87,2305.75 -2150.27,2305.75 -1346,0 -2150.27,-868.09 -2150.27,-2305.75 0,-1446.78 804.27,-2308 2150.27,-2308zm0 530.85c-823.58,0 -1336.29,626.63 -1336.29,1647.26 0,1029.84 505.36,1191.6 1336.29,1191.6 823.68,0 1336.39,-170.87 1336.39,-1191.6 0,-1004.74 -512.71,-1647.26 -1336.39,-1647.26zm6737.45 305.37c-437.33,-200.48 -908.67,-312.14 -1406.78,-312.14 -770.15,0 -1190.52,264.3 -1190.52,699.47 0,394.09 247.83,578.69 1071.51,747.31l264.79 54.6c1088.47,218.71 1508.83,546.83 1508.83,1262.28 0,820.15 -728.88,1326 -1936.45,1326 -498.01,0 -1037.49,-86.56 -1644.9,-273.42l0 -1059.45c573.5,280.28 1122.48,416.94 1661.96,416.94 728.88,0 1044.74,-209.6 1044.74,-585.55 -92.35,-161.76 -170.09,-273.42 -238.12,-346.25 -60.68,-72.94 -335.37,-152.74 -816.32,-257.53l-264.79 -56.96c-952.49,-184.5 -1353.45,-473.89 -1353.45,-1157.38 0,-827.01 651.24,-1294.14 1798.03,-1294.14 575.85,0 1081.21,82.05 1501.48,234.69l0 601.53 -0.01 0z"/>
</symbol>
<symbol id="Fm1-151-0" viewBox="526497.01 -74943.71 21590.01 3795.18">
 <path class="fil8" d="M529589.88 -73479.54c-487.96,-134.74 -923.68,-198.41 -1333.28,-198.41 -704.91,0 -1106.92,160.29 -1106.92,448.88 0,239.71 211.28,347.94 923.78,423.33l388.95 44.56c968.53,104.97 1417.4,362.83 1417.4,808.44 0,527.34 -632.02,804.21 -1839.97,804.21 -454.45,0 -970.55,-56.18 -1524.01,-171.81l0 -583.61c527.24,168.74 1035.85,254.69 1524.01,254.69 746.01,0 1161.08,-205.81 1161.08,-367.15 0,-146.36 -271.02,-318.27 -929.25,-392.5l-396.34 -45.62c-970.55,-108.23 -1378.32,-328.93 -1378.32,-744.86 0,-482.78 632.02,-778.76 1688.52,-778.76 448.88,0 916.38,45.62 1404.34,138.97l0 359.66 0.01 -0.02zm4570.09 1171.36l-2690.85 0c13.06,546.45 488.15,639.8 1273.54,662.08 454.25,0 884.31,4.23 1306.96,-123.12l13.06 463.66c-430.15,105.06 -878.83,157.02 -1340.67,157.02 -1146.29,-22.28 -1871.85,-407.39 -1871.85,-1054.58 44.85,-670.53 684.45,-1093.86 1774.66,-1093.86 962.86,23.34 1456.59,276.87 1535.15,861.45l0 127.34 0 0.01zm-514.18 -295.99c-65.5,-228.18 -435.72,-516.77 -1020.97,-516.77 -660.16,0 -1090.21,273.8 -1090.21,521l2111.17 -4.23 0.01 0zm4044.59 -303.47c-336.7,-93.35 -699.43,-145.3 -1082.72,-145.3 -592.74,0 -916.19,123.02 -916.19,325.66 0,183.53 190.73,269.48 824.57,348.04l203.79 25.45c837.82,101.89 1161.28,254.69 1161.28,587.84 0,381.94 -561.05,617.42 -1490.3,617.42 -383.38,0 -798.54,-40.24 -1266.05,-127.25l0 -493.44c441.38,130.51 863.85,194.19 1279.11,194.19 560.85,0 804.11,-97.57 804.11,-272.65 -71.07,-75.39 -130.99,-127.34 -183.33,-161.25 -46.67,-34 -258.15,-71.16 -628.27,-119.95l-203.79 -26.51c-733.05,-85.95 -1041.61,-220.69 -1041.61,-538.96 0,-385.2 501.22,-602.63 1383.7,-602.63 443.31,0 832.25,38.13 1155.71,109.19l0 280.14 -0.01 0.01zm1813.75 -710.87l-592.74 0 31.79 -426.5 529.16 0 31.79 426.5zm-658.24 2418.02c84.13,-718.26 104.78,-1403.67 97.29,-2047.69l529.16 0c-39.28,614.25 -7.49,1302.83 130.99,2047.69l-757.44 0zm3661.4 -2979.25l-547.89 0 1009.73 -763.97 705.01 0 -1166.85 763.97zm-284.27 882.77c1028.46,0 1654.9,401.05 1654.9,1074.75 0,669.47 -626.45,1073.69 -1654.9,1073.69 -1035.95,0 -1655,-404.22 -1655,-1073.69 0,-673.7 619.05,-1074.75 1655,-1074.75zm0 247.19c-634.03,0 -1028.55,291.76 -1028.55,767.04 0,479.61 388.95,554.9 1028.55,554.9 633.94,0 1028.46,-79.52 1028.46,-554.9 0,-467.89 -394.52,-767.04 -1028.46,-767.04zm5864 1849.29l-843.3 0 125.23 -1242.43c0,-389.43 -205.61,-580.35 -733.05,-580.35 -725.36,0 -1067.64,247.2 -1067.64,647.19l99.01 1175.58 -824.67 0 97.38 -2065.75 594.56 0 0 246.14c284.17,-126.29 665.73,-276.87 1166.85,-276.87 824.67,0 1247.32,295.98 1294,861.45l91.62 1235.03 0.01 0.01z"/>
</symbol>
<symbol id="Fm1-147-0" viewBox="312071.37 32808.95 21590 7539.17">
 <path class="fil1" d="M313218.17 40236.45l-1146.8 0 2468.58 -5859.95 796.91 0 2458.78 5859.95 -1207.48 0 -240.57 -956.9 -2811.21 0 -318.22 956.9 0.01 0zm566.14 -1888.81l2305.65 0 -1156.4 -3246.67 -1149.25 3246.67zm7046.05 -4887.06c-128.82,-104.8 -213.91,-152.64 -291.65,-152.64 -101.95,0 -179.79,47.84 -230.77,145.78 -51.08,95.78 -77.84,248.42 -85.09,464.87l-522.32 0c16.96,-706.33 308.51,-1109.64 813.87,-1109.64 213.81,0 376.64,66.07 583.1,241.55l238.22 216.46c121.46,104.8 216.16,152.64 284.2,152.64 111.76,0 187.05,-47.84 240.57,-143.52 50.98,-95.68 75.29,-248.42 75.29,-467.13l532.13 0c-17.06,708.59 -315.96,1109.64 -823.68,1109.64 -213.81,0 -376.64,-63.82 -580.65,-241.55l-233.22 -216.46zm2434.47 6775.87l-1095.82 0 162.74 -2667.98c0,-836.13 -267.14,-1246.3 -952.39,-1246.3 -942.59,0 -1387.37,530.95 -1387.37,1389.82l128.82 2524.46 -1071.51 0 126.46 -4436.01 772.5 0 0 528.6c369.39,-271.06 865.05,-594.67 1516.09,-594.67 1071.6,0 1620.69,635.75 1681.37,1850.09l119.11 2652 0 -0.01zm3411.27 -4502.08c1336.39,0 2150.27,861.22 2150.27,2308 0,1437.66 -813.87,2305.75 -2150.27,2305.75 -1346,0 -2150.27,-868.09 -2150.27,-2305.75 0,-1446.78 804.27,-2308 2150.27,-2308zm0 530.85c-823.58,0 -1336.29,626.63 -1336.29,1647.26 0,1029.84 505.36,1191.6 1336.29,1191.6 823.68,0 1336.39,-170.87 1336.39,-1191.6 0,-1004.74 -512.71,-1647.26 -1336.39,-1647.26zm6737.44 305.37c-437.33,-200.48 -908.67,-312.14 -1406.78,-312.14 -770.15,0 -1190.52,264.3 -1190.52,699.47 0,394.09 247.83,578.69 1071.51,747.31l264.79 54.6c1088.47,218.71 1508.83,546.83 1508.83,1262.28 0,820.15 -728.88,1326 -1936.45,1326 -498.01,0 -1037.49,-86.56 -1644.9,-273.42l0 -1059.45c573.5,280.28 1122.48,416.94 1661.96,416.94 728.88,0 1044.74,-209.6 1044.74,-585.55 -92.35,-161.76 -170.09,-273.42 -238.12,-346.25 -60.68,-72.94 -335.37,-152.74 -816.32,-257.53l-264.79 -56.96c-952.49,-184.5 -1353.45,-473.89 -1353.45,-1157.38 0,-827.01 651.24,-1294.14 1798.03,-1294.14 575.85,0 1081.21,82.05 1501.48,234.69l0 601.53 -0.01 0z"/>
</symbol>
<symbol id="Fm1-139-0" viewBox="360699.38 34593 21589.99 7539.14">
 <path class="fil1" d="M361846.27 42020.48l-1146.89 0 2468.57 -5859.92 796.91 0 2458.77 5859.92 -1207.47 0 -240.57 -956.9 -2811.1 0 -318.22 956.9zm566.04 -1888.8l2305.74 0 -1156.5 -3246.66 -1149.24 3246.66zm7046.02 -4887.05c-128.82,-104.8 -213.91,-152.64 -291.55,-152.64 -102.05,0 -179.79,47.84 -230.87,145.78 -50.98,95.78 -77.74,248.42 -85.09,464.87l-522.32 0c16.96,-706.33 308.51,-1109.64 813.87,-1109.64 213.81,0 376.74,66.07 583.2,241.55l238.12 216.46c121.46,104.8 216.16,152.64 284.3,152.64 111.76,0 186.95,-47.84 240.47,-143.52 51.08,-95.68 75.29,-248.42 75.29,-467.13l532.12 0c-17.06,708.58 -315.86,1109.64 -823.67,1109.64 -213.81,0 -376.54,-63.82 -580.65,-241.55l-233.22 -216.46zm2434.55 6775.85l-1095.91 0 162.83 -2667.97c0,-836.12 -267.24,-1246.29 -952.39,-1246.29 -942.69,0 -1387.36,530.95 -1387.36,1389.81l128.72 2524.45 -1071.4 0 126.36 -4435.99 772.6 0 0 528.59c369.29,-271.06 864.94,-594.67 1516.08,-594.67 1071.6,0 1620.58,635.74 1681.36,1850.08l119.11 2651.99zm3411.16 -4502.07c1336.39,0 2150.26,861.22 2150.26,2307.99 0,1437.65 -813.87,2305.74 -2150.26,2305.74 -1345.99,0 -2150.16,-868.08 -2150.16,-2305.74 0,-1446.77 804.16,-2307.99 2150.16,-2307.99zm0 530.85c-823.58,0 -1336.19,626.63 -1336.19,1647.25 0,1029.84 505.36,1191.59 1336.19,1191.59 823.77,0 1336.39,-170.87 1336.39,-1191.59 0,-1004.74 -512.61,-1647.25 -1336.39,-1647.25zm6737.41 305.37c-437.33,-200.48 -908.67,-312.14 -1406.68,-312.14 -770.25,0 -1190.61,264.3 -1190.61,699.47 0,394.09 247.93,578.69 1071.5,747.31l264.79 54.6c1088.56,218.71 1508.92,546.83 1508.92,1262.27 0,820.14 -728.88,1325.99 -1936.45,1325.99 -498.11,0 -1037.48,-86.56 -1644.9,-273.41l0 -1059.44c573.39,280.28 1122.48,416.93 1661.86,416.93 728.88,0 1044.74,-209.59 1044.74,-585.55 -92.35,-161.75 -170.09,-273.41 -238.02,-346.25 -60.78,-72.94 -335.37,-152.74 -816.42,-257.53l-264.79 -56.96c-952.49,-184.5 -1353.44,-473.89 -1353.44,-1157.38 0,-827.01 651.23,-1294.13 1798.12,-1294.13 575.75,0 1081.11,82.05 1501.38,234.69l0 601.53z"/>
</symbol>
<symbol id="Fm15-118-0" viewBox="312071.37 19932.64 21590 16123.38">
 <path class="fil1" d="M313451.39 22778.27c-721.62,-168.52 -1064.25,-658.39 -1064.25,-1326 0,-836.13 668.29,-1437.56 1912.24,-1437.56 1241.59,0 1909.69,601.44 1909.69,1437.56 0,667.61 -342.63,1157.48 -1061.7,1326 813.87,177.73 1380.02,724.57 1380.02,1471.87 0,1132.38 -847.89,1758.92 -2228.01,1758.92 -1380.11,0 -2228.01,-626.53 -2228.01,-1758.92 0,-747.31 563.69,-1294.14 1380.02,-1471.87zm-308.61 -1485.4c0,601.44 427.72,963.67 1156.6,963.67 719.17,0 1156.5,-362.23 1156.5,-963.67 0,-508.11 -437.33,-893.18 -1156.5,-893.18 -728.88,0 -1156.6,385.08 -1156.6,893.18zm1156.6 1742.93c-806.62,0 -1295.02,426.05 -1295.02,1134.64 0,391.84 488.4,858.87 1295.02,858.87 804.17,0 1292.57,-473.89 1292.57,-858.87 0,-708.59 -488.4,-1134.64 -1292.57,-1134.64zm9084.56 947.79l-2252.32 31.86 34.02 -642.51 2252.32 -38.72 -34.02 649.37zm5039.21 594.67c420.27,193.62 867.4,298.41 1287.67,298.41 1112.88,0 1695.88,-232.34 1780.97,-1663.24 -325.57,448.9 -838.19,699.47 -1438.44,699.47 -1251.3,0 -2031.15,-756.43 -2031.15,-1986.75 0,-1205.22 821.23,-1993.51 2082.23,-1993.51 1448.15,0 2228.01,1061.7 2228.01,3039.33 0,1847.73 -1010.72,3037.08 -2587.59,3037.08 -420.37,0 -850.34,-79.8 -1321.69,-232.44l0 -1198.36 -0.01 0.01zm1613.34 -1847.83c925.63,0 1499.03,-79.7 1499.03,-931.81 0,-845.24 -573.4,-1366.98 -1499.03,-1366.98 -925.73,0 -1508.93,521.73 -1508.93,1366.98 0,852.11 583.2,931.81 1508.93,931.81z"/>
 <path class="fil1" d="M313218.17 35944.35l-1146.8 0 2468.58 -5859.95 796.91 0 2458.78 5859.95 -1207.48 0 -240.57 -956.9 -2811.21 0 -318.22 956.9 0.01 0zm566.14 -1888.81l2305.65 0 -1156.4 -3246.67 -1149.25 3246.67zm7046.05 -4887.06c-128.82,-104.8 -213.91,-152.64 -291.65,-152.64 -101.95,0 -179.79,47.84 -230.77,145.78 -51.08,95.78 -77.84,248.42 -85.09,464.87l-522.32 0c16.96,-706.33 308.51,-1109.64 813.87,-1109.64 213.81,0 376.64,66.07 583.1,241.55l238.22 216.46c121.46,104.8 216.16,152.64 284.2,152.64 111.76,0 187.05,-47.84 240.57,-143.52 50.98,-95.68 75.29,-248.42 75.29,-467.13l532.13 0c-17.06,708.59 -315.96,1109.64 -823.68,1109.64 -213.81,0 -376.64,-63.82 -580.65,-241.55l-233.22 -216.46zm2434.47 6775.87l-1095.82 0 162.74 -2667.98c0,-836.13 -267.14,-1246.3 -952.39,-1246.3 -942.59,0 -1387.37,530.95 -1387.37,1389.82l128.82 2524.46 -1071.51 0 126.46 -4436.01 772.5 0 0 528.6c369.39,-271.06 865.05,-594.67 1516.09,-594.67 1071.6,0 1620.69,635.75 1681.37,1850.09l119.11 2652 0 -0.01zm3411.27 -4502.08c1336.39,0 2150.27,861.22 2150.27,2308 0,1437.66 -813.87,2305.75 -2150.27,2305.75 -1346,0 -2150.27,-868.09 -2150.27,-2305.75 0,-1446.78 804.27,-2308 2150.27,-2308zm0 530.85c-823.58,0 -1336.29,626.63 -1336.29,1647.26 0,1029.84 505.36,1191.6 1336.29,1191.6 823.68,0 1336.39,-170.87 1336.39,-1191.6 0,-1004.74 -512.71,-1647.26 -1336.39,-1647.26zm6737.44 305.37c-437.33,-200.48 -908.67,-312.14 -1406.78,-312.14 -770.15,0 -1190.52,264.3 -1190.52,699.47 0,394.09 247.83,578.69 1071.51,747.31l264.79 54.6c1088.47,218.71 1508.83,546.83 1508.83,1262.28 0,820.15 -728.88,1326 -1936.45,1326 -498.01,0 -1037.49,-86.56 -1644.9,-273.42l0 -1059.45c573.5,280.28 1122.48,416.94 1661.96,416.94 728.88,0 1044.74,-209.6 1044.74,-585.55 -92.35,-161.76 -170.09,-273.42 -238.12,-346.25 -60.68,-72.94 -335.37,-152.74 -816.32,-257.53l-264.79 -56.96c-952.49,-184.5 -1353.45,-473.89 -1353.45,-1157.38 0,-827.01 651.24,-1294.14 1798.03,-1294.14 575.85,0 1081.21,82.05 1501.48,234.69l0 601.53 -0.01 0z"/>
</symbol>
<symbol id="Fm0-142-0" viewBox="294012.33 19952.04 21590 4410.98">
 <path class="fil1" d="M296712.66 24281.97l-2613.87 0 0 -798.82 1007.05 0 0 -2929.13 -1093.51 203.46 0 -524.27 1088.32 -205.1 610.23 0 0 3455.03 1001.78 0 0 798.82 0 0.01zm2513.31 -4329.93c1021.21,0 1537.93,770.71 1537.93,2206.31 -38.71,1435.6 -580.2,2204.67 -1599.63,2204.67 -1014.24,0 -1536.3,-769.07 -1536.3,-2204.67 42.34,-1435.6 583.83,-2206.31 1598,-2206.31zm0 228.22c-627.95,0 -952.46,519.36 -952.46,1562.98 0,1079.99 262.81,1564.55 890.76,1564.55 634.86,0 932.97,-519.29 1014.09,-1564.55 0,-1043.63 -317.46,-1562.98 -952.39,-1562.98zm-17.64 2211.3c253.91,0 317.46,-286.15 317.46,-501.14 0,-408.55 -63.55,-659.91 -317.46,-659.91 -287.43,0 -324.58,327.5 -324.58,659.91 0,214.99 61.77,501.14 324.58,501.14zm6531.11 501.14l-1634.93 23.13 24.62 -466.41 1635.07 -28.11 -24.77 471.39 0.01 0zm6067.41 1389.27l-2613.94 0 0 -798.82 1007.12 0 0 -2929.13 -1093.51 203.46 0 -524.27 1088.25 -205.1 610.23 0 0 3455.03 1001.85 0 0 798.82 0 0.01zm3795.48 -828.64l0 828.64 -2880.17 0 0 -828.64c322.73,-244.73 657.84,-496.16 1019.43,-752.49 716.06,-512.74 945.35,-787.29 1107.6,-1079.99 74.08,-138.98 112.94,-279.53 112.94,-420.08 0,-448.26 -368.7,-764.16 -915.39,-764.16 -386.28,0 -809.64,122.4 -1294.62,378.74l0 -582.12c497.37,-186.88 927.77,-281.17 1282.24,-281.17 940.08,0 1543.27,473.03 1543.27,1213.99 0,350.63 -118.13,625.18 -484.99,1050.17 -51.17,52.95 -211.64,216.7 -486.84,478.01 -266.3,262.95 -433.89,514.38 -509.68,759.11l1506.19 0 0.02 -0.01z"/>
</symbol>
<symbol id="Fm17-120-0" viewBox="526497.01 -80613.43 21590.01 7574.99">
 <path class="fil8" d="M527581.56 -77768.92c97.29,-909.27 97.29,-1819.61 130.99,-2728.88l553.46 0c20.46,909.27 7.49,1819.61 93.44,2728.88l-777.9 0 0.01 0zm4992.75 0l-843.3 0 125.33 -1242.43c0,-389.43 -205.71,-580.35 -733.05,-580.35 -725.46,0 -1067.74,247.2 -1067.74,647.19l99.01 1175.58 -824.57 0 97.29 -2065.75 594.56 0 0 246.14c284.27,-126.29 665.73,-276.87 1166.94,-276.87 824.57,0 1247.23,295.98 1293.9,861.45l91.62 1235.03 0.01 0.01zm1628.78 -2418.01l-592.74 0 31.79 -426.5 529.07 0 31.88 426.5zm-658.23 2418.01c84.03,-718.26 104.68,-1403.67 97.29,-2047.69l529.07 0c-39.28,614.25 -7.39,1302.83 130.99,2047.69l-757.35 0zm4577.49 -1673.15c-336.42,-105.06 -673.12,-157.02 -1015.4,-157.02 -772.13,0 -1181.73,310.87 -1181.73,808.44 59.93,352.26 383.38,471.06 1155.71,494.4 342.08,0 691.75,25.45 1028.46,-79.52l12.96 528.3c-329.02,85.95 -678.69,130.51 -1080.7,130.51 -1082.72,0 -1774.66,-414.78 -1774.66,-1073.69 0,-666.3 691.94,-1074.75 1813.94,-1074.75 362.73,0 717.97,41.3 1041.42,127.25l0 296.08zm1623.21 -744.86l-592.74 0 31.79 -426.5 529.16 0 31.79 426.5zm-658.23 2418.01c84.13,-718.26 104.78,-1403.67 97.29,-2047.69l529.16 0c-39.28,614.25 -7.49,1302.83 130.99,2047.69l-757.44 0zm4768.31 0l-592.74 0 0 -291.76c-271.21,223.86 -660.16,343.72 -1247.23,343.72 -731.22,0 -1206.22,-254.59 -1206.22,-647.19 0,-460.5 546.06,-695.98 1621.39,-695.98l832.06 0 0 -34c0,-310.87 -330.94,-497.57 -1022.89,-524.07 -409.6,0 -804.11,56.18 -1166.85,168.64l0 -273.7c433.8,-93.35 843.49,-142.13 1226.68,-142.13 1049.01,0 1555.79,303.38 1555.79,928.29l0 1168.19 0.01 -0.01zm-923.68 -1044.02l-533 0c-863.85,0 -1088.29,105.06 -1095.78,355.43 65.59,208.98 375.98,228.09 806.04,228.09 592.74,0 822.75,-71.07 822.75,-509.28l0 -74.24 -0.01 0zm4078.29 -651.41c-132.72,-44.56 -257.95,-44.56 -448.68,-44.56 -665.73,0 -944.33,276.87 -944.33,718.26l132.72 1021.73 -929.44 0c269.29,-845.6 303,-1153.3 250.75,-2028.58l545.97 0 0 208.98c119.66,-51.96 547.89,-238.75 1121.8,-238.75 78.56,0 145.98,3.17 263.72,18.05l7.49 344.87z"/>
 <path class="fil8" d="M529589.88 -75369.45c-487.96,-134.74 -923.68,-198.41 -1333.28,-198.41 -704.91,0 -1106.92,160.29 -1106.92,448.88 0,239.71 211.28,347.94 923.78,423.33l388.95 44.56c968.53,104.97 1417.4,362.83 1417.4,808.44 0,527.34 -632.02,804.21 -1839.97,804.21 -454.45,0 -970.55,-56.18 -1524.01,-171.81l0 -583.61c527.24,168.74 1035.85,254.69 1524.01,254.69 746.01,0 1161.08,-205.81 1161.08,-367.15 0,-146.36 -271.02,-318.27 -929.25,-392.5l-396.34 -45.62c-970.55,-108.23 -1378.32,-328.93 -1378.32,-744.86 0,-482.78 632.02,-778.76 1688.52,-778.76 448.88,0 916.38,45.62 1404.34,138.97l0 359.66 0.01 -0.02zm4570.09 1171.36l-2690.85 0c13.06,546.45 488.15,639.8 1273.54,662.08 454.25,0 884.31,4.23 1306.96,-123.12l13.06 463.66c-430.15,105.06 -878.83,157.02 -1340.67,157.02 -1146.29,-22.28 -1871.85,-407.39 -1871.85,-1054.58 44.85,-670.53 684.45,-1093.86 1774.66,-1093.86 962.86,23.34 1456.59,276.87 1535.15,861.45l0 127.34 0 0.01zm-514.18 -295.98c-65.5,-228.18 -435.72,-516.77 -1020.97,-516.77 -660.16,0 -1090.21,273.8 -1090.21,521l2111.17 -4.23 0.01 0zm4044.59 -303.48c-336.7,-93.35 -699.43,-145.3 -1082.72,-145.3 -592.74,0 -916.19,123.02 -916.19,325.66 0,183.53 190.73,269.48 824.57,348.04l203.79 25.45c837.82,101.89 1161.28,254.69 1161.28,587.84 0,381.94 -561.05,617.42 -1490.3,617.42 -383.38,0 -798.54,-40.24 -1266.05,-127.25l0 -493.44c441.38,130.51 863.85,194.19 1279.11,194.19 560.85,0 804.11,-97.57 804.11,-272.65 -71.07,-75.39 -130.99,-127.34 -183.33,-161.25 -46.67,-34 -258.15,-71.16 -628.27,-119.95l-203.79 -26.51c-733.05,-85.95 -1041.61,-220.69 -1041.61,-538.96 0,-385.2 501.22,-602.63 1383.7,-602.63 443.31,0 832.25,38.13 1155.71,109.19l0 280.14 -0.01 0.01zm1813.75 -710.86l-592.74 0 31.79 -426.5 529.16 0 31.79 426.5zm-658.24 2418.01c84.13,-718.26 104.78,-1403.67 97.29,-2047.69l529.16 0c-39.28,614.25 -7.49,1302.83 130.99,2047.69l-757.44 0zm3661.4 -2979.25l-547.89 0 1009.73 -763.97 705.01 0 -1166.85 763.97zm-284.27 882.77c1028.46,0 1654.9,401.05 1654.9,1074.75 0,669.47 -626.45,1073.69 -1654.9,1073.69 -1035.95,0 -1655,-404.22 -1655,-1073.69 0,-673.7 619.05,-1074.75 1655,-1074.75zm0 247.2c-634.03,0 -1028.55,291.76 -1028.55,767.04 0,479.61 388.95,554.9 1028.55,554.9 633.94,0 1028.46,-79.52 1028.46,-554.9 0,-467.89 -394.52,-767.04 -1028.46,-767.04zm5864 1849.28l-843.3 0 125.23 -1242.43c0,-389.43 -205.61,-580.35 -733.05,-580.35 -725.36,0 -1067.64,247.2 -1067.64,647.19l99.01 1175.58 -824.67 0 97.38 -2065.75 594.56 0 0 246.14c284.17,-126.29 665.73,-276.87 1166.85,-276.87 824.67,0 1247.32,295.98 1294,861.45l91.62 1235.03 0.01 0.01z"/>
</symbol>
<symbol id="Fm16-119-0" viewBox="282566.5 14879.43 21590 3713.46">
 <path class="fil9" d="M304156.5 16736.11c0,1019.12 -4768.77,1845.75 -10675.6,1856.78l-238.8 0c-5904.61,-11.02 -10671.87,-837.13 -10675.6,-1855.62l0 -2.31c3.73,-1024.89 4835.35,-1855.53 10795,-1855.53 5961.87,0 10795,831.17 10795,1856.69l0 -0.01z"/>
</symbol>
<symbol id="Fm0-146-0" viewBox="332979.56 26478.24 21590 6474.96">
 <path class="fil1" d="M334450.09 29510.5c-768.96,-179.57 -1134.06,-701.58 -1134.06,-1412.97 0,-890.97 712.13,-1531.85 2037.67,-1531.85 1323.03,0 2034.95,640.88 2034.95,1531.85 0,711.4 -365.1,1233.4 -1131.34,1412.97 867.26,189.39 1470.53,772.09 1470.53,1568.42 0,1206.66 -903.51,1874.28 -2374.14,1874.28 -1470.64,0 -2374.14,-667.63 -2374.14,-1874.28 0,-796.33 600.67,-1379.02 1470.53,-1568.42zm-328.85 -1582.83c0,640.88 455.77,1026.88 1232.46,1026.88 766.34,0 1232.36,-385.99 1232.36,-1026.88 0,-541.43 -466.01,-951.77 -1232.36,-951.77 -776.69,0 -1232.46,410.33 -1232.46,951.77zm1232.46 1857.26c-859.53,0 -1379.96,454 -1379.96,1209.06 0,417.54 520.44,915.2 1379.96,915.2 856.91,0 1377.35,-504.98 1377.35,-915.2 0,-755.06 -520.44,-1209.06 -1377.35,-1209.06zm9680.42 1009.95l-2400.05 33.95 36.25 -684.65 2400.05 -41.26 -36.25 691.97 0 -0.01zm5369.74 633.68c447.84,206.32 924.29,317.99 1372.13,317.99 1185.87,0 1807.11,-247.58 1897.79,-1772.33 -346.92,478.34 -893.16,745.35 -1532.79,745.35 -1333.37,0 -2164.38,-806.04 -2164.38,-2117.06 0,-1284.27 875.09,-2124.27 2218.81,-2124.27 1543.14,0 2374.14,1131.34 2374.14,3238.68 0,1968.93 -1077.02,3236.28 -2757.31,3236.28 -447.94,0 -906.12,-85.03 -1408.38,-247.68l0 -1276.96 -0.01 0zm1719.16 -1969.03c986.34,0 1597.35,-84.93 1597.35,-992.93 0,-900.68 -611.01,-1456.64 -1597.35,-1456.64 -986.45,0 -1607.9,555.95 -1607.9,1456.64 0,908 621.45,992.93 1607.9,992.93z"/>
</symbol>
<symbol id="Fm0-153-0" viewBox="190306.37 -57852.89 15921.39 27940">
 <path class="fil7" d="M190306.38 -57852.89l2961.03 0 -283.18 14103.24c-80.86,5863.1 1682.71,8272.22 5307.17,8272.22 3600.07,0 5371.81,-2409.12 5250.46,-8272.22l-283.18 -14103.24 2969.08 0 0 17109.37c0,7152.9 -2710.29,10830.63 -7936.37,10830.63 -5274.85,0 -7985.02,-3677.73 -7985.02,-10830.63l0 -17109.37 0.01 0z"/>
</symbol>
<symbol id="Fm12-115-0" viewBox="309511.05 15928.5 21590 2617.74">
 <path class="fil9" d="M331101.05 17237.42c0,723 -4832.85,1308.82 -10794.84,1308.82 -5953.37,0 -10781.13,-584.1 -10795.16,-1305.71l0 -6.24c14.03,-721.69 4841.79,-1305.79 10795.16,-1305.79 5961.99,0 10794.84,585.82 10794.84,1308.91l0 0.01z"/>
</symbol>
<symbol id="Fm14-117-0" viewBox="465462.16 17300.4 21590.01 3686.04">
 <path class="fil9" d="M487052.17 19147.6c-13.76,1013.54 -4815.95,1834.5 -10748.26,1838.84l-92.96 0c-5937.49,-4.34 -10744.23,-826.89 -10748.79,-1841.7l0 -2.96c4.55,-1017.04 4836.28,-1841.38 10795.26,-1841.38 5953.8,0 10780.97,822.76 10794.74,1838.53l0 8.68 0.01 -0.01z"/>
</symbol>
<symbol id="Fm1-112-0" viewBox="171313.05 -59071.63 15747.63 27940.01">
 <polygon class="fil10" points="187060.68,-31131.62 171313.05,-31131.62 171313.05,-59071.63 186756.79,-59071.63 186756.79,-55888.69 174627.8,-55888.69 174627.8,-47611.05 186253.38,-47611.05 186253.38,-44428.12 174627.8,-44428.12 174627.8,-36921.71 187060.68,-36921.71 "/>
</symbol>
<symbol id="Fm13-116-0" viewBox="277978.13 15529.28 21589.99 11080.18">
 <path class="fil1" d="M280534.47 19628.33l-2474.49 0 0 -756.23 953.35 0 0 -2772.94 -1035.2 192.61 0 -496.31 1030.29 -194.16 577.7 0 0 3270.8 948.36 0 0 756.23 -0.01 0zm2379.29 -4099.05c966.76,0 1455.93,729.61 1455.93,2088.67 -36.65,1359.05 -549.27,2087.12 -1514.34,2087.12 -960.15,0 -1454.38,-728.07 -1454.38,-2087.12 40.09,-1359.05 552.7,-2088.67 1512.79,-2088.67zm0 216.06c-594.47,0 -901.68,491.66 -901.68,1479.64 0,1022.4 248.8,1481.13 843.27,1481.13 601.01,0 883.22,-491.6 960.02,-1481.13 0,-987.98 -300.54,-1479.64 -901.61,-1479.64zm-16.7 2093.38c240.38,0 300.54,-270.89 300.54,-474.42 0,-386.77 -60.16,-624.72 -300.54,-624.72 -272.11,0 -307.27,310.04 -307.27,624.72 0,203.52 58.48,474.42 307.27,474.42zm6182.86 474.42l-1547.75 21.9 23.31 -441.54 1547.89 -26.61 -23.44 446.26 -0.01 -0.01zm5743.88 1315.19l-2474.56 0 0 -756.23 953.42 0 0 -2772.94 -1035.2 192.61 0 -496.31 1030.22 -194.16 577.7 0 0 3270.8 948.43 0 0 756.23 -0.01 0zm3593.1 -784.46l0 784.45 -2726.59 0 0 -784.45c305.52,-231.68 622.77,-469.7 965.07,-712.37 677.87,-485.4 894.94,-745.31 1048.54,-1022.4 70.13,-131.57 106.92,-264.63 106.92,-397.68 0,-424.36 -349.04,-723.42 -866.58,-723.42 -365.68,0 -766.47,115.88 -1225.59,358.54l0 -551.08c470.85,-176.91 878.3,-266.18 1213.87,-266.18 889.96,0 1460.98,447.81 1460.98,1149.26 0,331.93 -111.83,591.84 -459.13,994.18 -48.44,50.12 -200.36,205.14 -460.88,452.52 -252.1,248.93 -410.75,486.95 -482.5,718.63l1425.88 0 0.01 0z"/>
 <path class="fil1" d="M285519.29 26532.72l-788.09 0 1696.44 -4027.03 547.65 0 1689.7 4027.03 -829.79 0 -165.33 -657.6 -1931.9 0 -218.68 657.6zm389.06 -1298.01l1584.47 0 -794.69 -2231.15 -789.78 2231.15zm4842.14 -3358.45c-88.52,-72.02 -147,-104.89 -200.43,-104.89 -70.06,0 -123.56,32.88 -158.59,100.18 -35.1,65.82 -53.49,170.72 -58.48,319.47l-358.95 0c11.65,-485.4 212.01,-762.56 559.3,-762.56 146.93,0 258.83,45.41 400.72,166l163.71 148.75c83.47,72.02 148.55,104.89 195.31,104.89 76.8,0 128.54,-32.88 165.33,-98.63 35.03,-65.75 51.74,-170.72 51.74,-321.02l365.68 0c-11.72,486.95 -217.13,762.56 -566.04,762.56 -146.93,0 -258.83,-43.86 -399.03,-166l-160.27 -148.75zm1672.99 4656.46l-753.06 0 111.83 -1833.47c0,-574.6 -183.58,-856.47 -654.5,-856.47 -647.76,0 -953.42,364.87 -953.42,955.1l88.52 1734.84 -736.35 0 86.91 -3048.48 530.87 0 0 363.26c253.85,-186.28 594.47,-408.67 1041.87,-408.67 736.42,0 1113.76,436.89 1155.46,1271.4l81.85 1822.49 0.02 0zm2344.27 -3093.89c918.39,0 1477.69,591.84 1477.69,1586.09 0,987.98 -559.3,1584.54 -1477.69,1584.54 -924.99,0 -1477.69,-596.56 -1477.69,-1584.54 0,-994.24 552.7,-1586.09 1477.69,-1586.09zm0 364.81c-565.97,0 -918.32,430.63 -918.32,1132.01 0,707.72 347.29,818.88 918.32,818.88 566.04,0 918.39,-117.43 918.39,-818.88 0,-690.47 -352.34,-1132.01 -918.39,-1132.01zm4630.06 209.86c-300.54,-137.77 -624.45,-214.51 -966.76,-214.51 -529.26,0 -818.14,181.63 -818.14,480.68 0,270.83 170.31,397.68 736.35,513.56l181.97 37.52c748.01,150.3 1036.89,375.79 1036.89,867.45 0,563.62 -500.89,911.24 -1330.76,911.24 -342.24,0 -712.97,-59.49 -1130.4,-187.89l0 -728.07c394.11,192.61 771.38,286.52 1142.12,286.52 500.89,0 717.96,-144.04 717.96,-402.4 -63.46,-111.16 -116.89,-187.89 -163.64,-237.95 -41.7,-50.12 -230.47,-104.96 -560.99,-176.98l-181.97 -39.14c-654.56,-126.79 -930.11,-325.67 -930.11,-795.37 0,-568.33 447.54,-889.35 1235.63,-889.35 395.73,0 743.02,56.39 1031.84,161.28l0 413.38 0.01 0.03z"/>
</symbol>
<symbol id="Fm0-133-0" viewBox="142708.17 -58232.98 19127.96 27940">
 <polygon class="fil11" points="146964.13,-30292.98 142708.17,-30292.98 143383.74,-57657.22 147572.07,-57657.22 158226.72,-35615.93 158738.23,-58232.98 161836.13,-58232.98 161836.13,-30292.98 156972,-30292.98 145970.13,-53670.49 "/>
</symbol>
<symbol id="Fm11-114-0" viewBox="285318.7 17847.44 21590.01 12998.78">
 <path class="fil1" d="M285641.88 21592.77c338.82,156.09 699.3,240.58 1038.13,240.58 897.21,0 1367.31,-187.31 1435.91,-1340.91 -262.48,361.9 -675.83,563.92 -1159.69,563.92 -1008.81,0 -1637.53,-609.84 -1637.53,-1601.73 0,-971.66 662,-1607.18 1678.63,-1607.18 1167.51,0 1796.31,855.95 1796.31,2450.33 0,1489.66 -814.85,2448.51 -2086.14,2448.51 -338.9,0 -685.55,-64.33 -1065.63,-187.39l0 -966.13 0.01 0zm1300.69 -1489.74c746.25,0 1208.53,-64.26 1208.53,-751.23 0,-681.44 -462.28,-1102.07 -1208.53,-1102.07 -746.33,0 -1216.43,420.63 -1216.43,1102.07 0,686.98 470.1,751.23 1216.43,751.23zm7378.82 1010.31l-1815.84 25.69 27.43 -518 1815.92 -31.22 -27.5 523.53 -0.01 0zm6738.39 1542.93l-2902.97 0 0 -887.17 1118.43 0 0 -3253.09 -1214.46 225.96 0 -582.25 1208.69 -227.78 677.73 0 0 3837.16 1112.58 0 0 887.17zm2791.29 -4808.83c1134.16,0 1708.11,855.95 1708.11,2450.33 -43.07,1594.38 -644.45,2448.51 -1776.64,2448.51 -1126.41,0 -1706.21,-854.13 -1706.21,-2448.51 47.03,-1594.38 648.41,-2450.33 1774.74,-2450.33zm0 253.47c-697.41,0 -1057.81,576.8 -1057.81,1735.85 0,1199.44 291.88,1737.59 989.29,1737.59 705.07,0 1036.15,-576.72 1126.25,-1737.59 0,-1159.05 -352.58,-1735.85 -1057.73,-1735.85zm-19.6 2455.86c282,0 352.58,-317.8 352.58,-556.57 0,-453.74 -70.58,-732.89 -352.58,-732.89 -319.22,0 -360.48,363.72 -360.48,732.89 0,238.77 68.6,556.57 360.48,556.57z"/>
 <path class="fil1" d="M290427.24 30756.2l-924.63 0 1990.19 -4724.34 642.48 0 1982.28 4724.34 -973.48 0 -193.95 -771.46 -2266.34 0 -256.55 771.46zm456.35 -1522.77l1858.91 0 -932.38 -2617.49 -926.53 2617.49zm5680.58 -3939.99c-103.85,-84.49 -172.46,-123.06 -235.05,-123.06 -82.28,0 -144.95,38.57 -186.13,117.53 -41.1,77.22 -62.68,200.28 -68.6,374.79l-421.1 0c13.67,-569.45 248.72,-894.6 656.15,-894.6 172.38,0 303.73,53.27 470.18,194.74l191.98 174.51c97.92,84.49 174.27,123.06 229.2,123.06 90.1,0 150.72,-38.57 193.87,-115.71 41.18,-77.14 60.7,-200.28 60.7,-376.6l429 0c-13.75,571.27 -254.65,894.6 -664.05,894.6 -172.38,0 -303.57,-51.45 -468.13,-194.74l-188.03 -174.51 0.01 -0.01zm1962.76 5462.76l-883.54 0 131.28 -2150.95c0,-674.09 -215.45,-1004.78 -767.83,-1004.78 -760,0 -1118.51,428.06 -1118.51,1120.48l103.77 2035.24 -863.78 0 101.88 -3576.35 622.88 0 0 426.16c297.73,-218.53 697.33,-479.43 1222.28,-479.43 863.94,0 1306.53,512.54 1355.53,1491.55l96.03 2138.06 0.01 0.02zm2750.12 -3629.62c1077.41,0 1733.56,694.33 1733.56,1860.73 0,1159.05 -656.15,1858.91 -1733.56,1858.91 -1085.16,0 -1733.48,-699.86 -1733.48,-1858.91 0,-1166.4 648.33,-1860.73 1733.48,-1860.73zm0 427.98c-663.98,0 -1077.25,505.19 -1077.25,1328.03 0,830.27 407.43,960.67 1077.25,960.67 664.13,0 1077.41,-137.76 1077.41,-960.67 0,-810.03 -413.28,-1328.03 -1077.41,-1328.03zm5431.78 246.19c-352.58,-161.63 -732.58,-251.65 -1134.08,-251.65 -620.98,0 -959.88,213.08 -959.88,563.92 0,317.72 199.88,466.55 863.86,602.49l213.47 44.02c877.61,176.33 1216.51,440.86 1216.51,1017.66 0,661.21 -587.63,1069.03 -1561.18,1069.03 -401.58,0 -836.43,-69.79 -1326.13,-220.43l0 -854.13c462.28,225.96 904.95,336.14 1339.81,336.14 587.63,0 842.28,-168.98 842.28,-472.08 -74.45,-130.41 -137.13,-220.43 -191.9,-279.15 -49,-58.8 -270.38,-123.14 -658.21,-207.63l-213.47 -45.92c-767.91,-148.74 -1091.16,-382.06 -1091.16,-933.09 0,-666.74 525.03,-1043.35 1449.67,-1043.35 464.17,0 871.6,66.15 1210.43,189.21l0 484.96 -0.02 0z"/>
</symbol>
<symbol id="Fm0-111-0" viewBox="142708.17 -58232.98 19127.96 27940">
 <polygon class="fil11" points="146964.13,-30292.98 142708.17,-30292.98 143383.74,-57657.22 147572.07,-57657.22 158226.72,-35615.93 158738.23,-58232.98 161836.13,-58232.98 161836.13,-30292.98 156972,-30292.98 145970.13,-53670.49 "/>
</symbol>
<symbol id="Fm10-113-0" viewBox="531209.75 -54122.28 21590.01 5453.83">
 <path class="fil9" d="M552799.76 -51395.23c0,1498.55 -4783.53,2714.21 -10702.36,2726.78l-185.84 0c-5904.06,-12.56 -10678.75,-1222.42 -10701.81,-2716.01l0 -21.54c23.06,-1501.45 4847.86,-2716.28 10794.72,-2716.28 5961.63,0 10795.28,1220.49 10795.28,2727.05l0.01 0z"/>
</symbol>
<symbol id="Fm0-135-0" viewBox="171313.05 -59071.63 15747.63 27940.01">
 <polygon class="fil10" points="187060.68,-31131.62 171313.05,-31131.62 171313.05,-59071.63 186756.79,-59071.63 186756.79,-55888.69 174627.8,-55888.69 174627.8,-47611.05 186253.38,-47611.05 186253.38,-44428.12 174627.8,-44428.12 174627.8,-36921.71 187060.68,-36921.71 "/>
</symbol>
 <g id="Capa_x0020_1">
  <metadata id="CorelCorpID_0Corel-Layer"/>
 </g>
 <g id="Capa_x0020_1_0">
  <metadata id="CorelCorpID_1Corel-Layer"/>
  <g id="_2194184791888">
   <path class="fil12" d="M3394.27 3188.92c2.23,-6.05 11.15,-10.78 18.43,-16.5 41.6,-32.84 86.89,-60.44 134.66,-83.66 131.61,-63.91 270.7,-106.51 414.93,-133.61 47.14,-8.89 94.67,-15.17 142.55,-19.36 16.44,-1.47 24.92,1.5 28.13,19.17 10.69,58.18 23.42,115.99 34.59,174.06 5.05,26.2 4.36,26.86 -23.58,32.39 -27.17,5.36 -54.64,9.16 -81.88,14.19 -155.46,28.72 -308.21,67.06 -454.96,125.34 -36.45,14.45 -71.22,32.86 -106.82,49.33 -5.79,2.66 -11.69,5.27 -17.8,6.9 -32.19,8.49 -37.34,5.29 -47.14,-25.43 -12.3,-38.59 -25.24,-77.02 -37.94,-115.49 -2.58,-7.81 -7.49,-15.17 -3.17,-27.33z"/>
   <path class="fil13" d="M6177.62 363.52c-14.09,-11.91 -7.81,-24.59 -2.39,-37.29 19.57,-46.06 45.48,-88.75 73.18,-130.48 4.04,-6.09 7.74,-12.37 11.8,-18.42 13.67,-20.4 19.12,-22.8 36.34,-7.39 87.04,77.68 194.6,113.28 305.7,140.52 80.61,19.75 162.84,31.53 245.92,37.35 29.67,2.08 59.05,8.26 89.07,2.54 13.5,-2.56 17.18,5.05 14,16.72 -4.11,15.02 -8.75,29.89 -12.53,44.97 -8.77,35.22 -18.28,70.31 -25.26,105.83 -4.07,20.62 -14.69,29.34 -35.53,32.96 -105.59,18.25 -210.07,15.52 -313.38,-13.04 -131.09,-36.26 -252.87,-92.68 -368.52,-162.12 -6.3,-3.78 -12.27,-8.1 -18.4,-12.15z"/>
   <path class="fil14" d="M4940.13 85.93c22.23,-2.51 58.08,5.98 94.36,5.97 13.95,0 21.04,5.6 23.21,19.82 7.74,51.19 16.83,102.16 24.91,153.31 4.14,26.24 0.13,30.32 -27.6,32.7 -106.15,9.12 -211.81,21.29 -316.56,41.4 -58.43,11.2 -118.34,14.74 -177.45,22.36 -36.16,4.68 -72.1,-3.48 -107.71,4.12 -9.79,2.06 -15.98,-2.28 -17.32,-13.02 -6.75,-54.45 -13.74,-108.85 -24.78,-162.69 -3.45,-16.81 8,-20.76 21.04,-25.28 66.56,-22.92 134.82,-40.03 204.09,-52.16 95.62,-16.75 192.42,-23.61 303.81,-26.53z"/>
   <path class="fil15" d="M6187.14 3176.15c-1.97,0.72 -3.98,1.09 -6.06,1.13 -24.32,5.43 -42.46,-6.89 -59.61,-20.52 -13.7,-10.89 -27.53,-18.94 -49.08,-11.01 19.98,25.55 18.8,47.33 -13.35,61.29 -60.45,12.19 -121.28,19.26 -183.2,21.11 -40.38,1.18 -80.48,-0.35 -120.61,-1.82 -33.91,-1.3 -67.57,-6.17 -99.59,-18.25 -10.12,-4.9 -10.49,-13.02 -10.86,-23.09 -1.95,-54.38 9.02,-108.07 7.9,-162.51 -0.63,-31.42 5.56,-33.79 33.41,-28.75 71.26,24.03 144.96,19.11 218.26,16.55 23.23,-0.82 46.55,-4.31 69.78,-6.24 27.02,22.47 48.23,50.21 71.87,75.77 11.2,12.13 0.08,23.07 -3.65,35.65 13.19,-15.77 25.64,-39.28 48.97,-29.64 28.68,11.83 68.19,13.35 76.22,52.95 3.02,14.93 21.18,21.05 19.6,37.38z"/>
   <path class="fil16" d="M6187.14 3176.15c-13.43,-11.77 -29.94,-20.89 -29.31,-42.65 0.17,-5.88 -6.04,-14.72 -11.75,-17.47 -19.32,-9.25 -40.13,-15.06 -59.37,-25.28 -10.74,-5.71 -26.81,7.35 -29.37,24.65 -1.7,11.34 -8.04,13.58 -15.83,15.66 -5.59,1.48 -10.23,-2.55 -12.22,-7.74 -3.13,-8.23 -2.37,-14.49 6.11,-21.24 14.02,-11.18 13.8,-15.18 -1.89,-23.4 -8.65,-4.54 -12.14,-10.03 -15.33,-17.8 -3.09,-7.57 -5.88,-17.96 -14.91,-18.81 -23.53,-2.28 -22,-17.68 -21.16,-33.48 2.1,-2.13 4.61,-3.6 7.58,-4.28 21.12,4.41 38.8,15.39 54.73,30.81 10.53,-19.43 -17.19,-23.95 -10.91,-39.24 136.98,-26.59 271.6,-61.07 402.64,-108.29 28.16,-10.14 34.96,-5.12 36.56,25.15 0.54,10.29 -1.16,20.83 6.15,29.75 -0.72,26.48 5.88,51.99 10.96,77.69 2.8,14.04 6.45,28.14 -7.18,39.34 -93.38,51.08 -192.19,89.27 -295.5,116.63z"/>
   <path class="fil17" d="M6475.86 2940.22c-10.21,-9.27 -4.7,-21.51 -6.45,-32.36 -3.34,-20.63 -9.41,-25.04 -29.73,-17.1 -61.25,24 -124.89,40.65 -188.08,58.77 -68.23,19.57 -137.32,35.45 -207.49,46.89 -4.47,0.74 -7.92,2.61 -10.83,5.84 -12.9,15.75 -30.66,-0.94 -44.83,6.29l-3.15 -0.02 -3.19 0.08c-68.64,8.03 -137.56,6.69 -206.45,6.06 -30.7,-0.26 -60.59,-5.83 -88.73,-18.4 -2.21,-1.24 -2.95,-2.5 -2.21,-3.72 0.74,-1.23 1.51,-1.84 2.23,-1.84 65.45,18.38 132.62,21.79 199.8,16.82 84.92,-6.29 169.1,-18.81 252.16,-37.95 97.58,-22.52 193.3,-51.11 288,-83.09 12.91,-4.34 25.32,-11.02 39.93,-10.79 11.05,18.01 9.31,37.91 9.57,57.49 1.67,1.67 2.15,3.29 1.44,4.8 -0.7,1.49 -1.38,2.23 -1.99,2.23z"/>
   <path class="fil16" d="M6059.04 3207.03c-1.36,-5.93 -2.73,-11.83 -4.09,-17.82 7.39,-10.68 17.95,5.47 27.11,-5.27 -5.72,-13.63 -9.48,-29.67 -28.6,-37.28 36.41,-19.32 43.65,-18.67 71.72,3.82 16.42,13.17 34.61,23.06 55.9,26.81 -39.5,14.46 -80.46,23.34 -122.04,29.74z"/>
   <path class="fil18" d="M5686.96 2990.7c0,1.86 0,3.71 -0.03,5.57 -7.41,-0.54 -14.8,-1.08 -22.23,-1.62 -10.02,20.18 -10.96,41.75 -9.57,63.36 2.58,39.41 -9.91,77.92 -6.87,117.35 0.88,11.4 -0.05,22.85 7.35,32.69 -13.06,-0.46 -17.83,-5.73 -16.9,-19.54 3.77,-54.18 10.51,-108.19 10.34,-162.63 0,-4.09 0,-8.23 0.51,-12.29 3.72,-30.92 5.96,-32.24 37.4,-22.89z"/>
   <path class="fil19" d="M6475.86 2940.22c0.18,-2.34 0.37,-4.69 0.55,-7.03 10.13,35.56 14.35,72.09 19.17,108.56 1.27,9.4 -2.4,16.11 -12.96,17.76 15.06,-22.95 0.19,-45.75 -2.1,-68.1 -1.76,-16.99 -4.27,-33.99 -4.66,-51.19z"/>
   <path class="fil15" d="M5988.46 3008.55c13.53,-11.4 29.92,-4.04 44.81,-6.29 20.79,0.91 20.05,20.79 31.42,29.18 -6.72,10.57 -16.39,9.46 -23.59,13.04 -3.79,1.91 -10.49,1.02 -10.66,-2.99 -1.1,-27.01 -31.46,-17.97 -41.98,-32.94z"/>
   <path class="fil20" d="M276.25 2870.18c-43.02,-53.65 -71.89,-114.95 -100.41,-176.34 -15.39,-33.11 -26.92,-67.7 -37.21,-102.6 -6.88,-23.11 -4.87,-26.08 18,-34.47 38.95,-14.27 77.98,-28.32 117.02,-42.3 28.17,-10.07 28.47,-10.11 41.55,15.34 22.41,43.6 43.19,87.95 68.29,130.27 24.04,40.58 52.97,77.77 80.82,115.72 0.98,1.83 2.03,3.65 2.89,5.56 6.51,14.3 30.51,21.9 14.53,44.85 -15.69,22.44 -38.47,32.49 -62.93,39.11 -11.67,3.16 -20.28,-9.75 -29.48,-16.54 -8.58,-6.33 -16.33,-14.38 -28.45,-8.55 -14.21,6.84 -2.94,15.78 -1.78,23.9 1.95,13.9 -3.66,23.82 -18.69,22.1 -14.45,-1.66 -31.01,-5.81 -30.07,-24.89 0.5,-10 6.44,-19.61 10.58,-29.22 6.97,-16.02 24.55,-34.01 -8.23,-41.41 19.3,27.19 -5.98,53.08 -9.43,80.96 -2.75,21.92 -17.85,5.46 -27,-1.49z"/>
   <path class="fil21" d="M276.25 2870.18c7.45,-1.52 11.72,11.98 19.47,4.86 5.31,-4.86 9.45,-12.78 5.71,-19.9 -7.22,-13.71 -2.82,-23.61 7.81,-32.96 5.25,-4.65 5.29,-9.75 2.24,-16.65 -4.51,-10.05 -6.57,-21.11 -9.72,-31.9 9.56,-1.3 12.1,3.58 13.44,8.49 2.38,8.85 5.23,11.63 15.58,7.51 10.04,-4.02 19.07,5.33 13.67,13.38 -12.81,18.99 -18.2,40.95 -28.32,62.39 1.7,6.5 10.7,6.69 15.49,11.79 5.38,5.77 14.36,6.31 19.63,-0.65 4.66,-6.16 5.04,-14.54 -3.73,-18.43 -18.19,-8.05 -8.34,-15.92 0.46,-21.89 6.76,-4.6 15.5,-6.64 23.6,-9.18 11.99,-3.78 12.37,7.99 18.26,12.7 7.23,5.81 15.75,9.93 21.43,17.74 2.49,3.39 7.87,5.47 11.36,2.28 16.48,-14.78 43.67,-14.92 53.66,-39.66 3.63,-8.94 7.88,-14.22 -1.8,-20.19 -9.37,-5.81 -12.06,-13.99 -10.18,-24.13 34.22,32.86 68.42,65.73 102.63,98.57 -5.08,11.11 -12.48,9.46 -20.16,3.14 -32.49,-26.76 -67.61,-9.64 -101.86,-5.73 -4.07,0.46 -7.89,3.86 -7.41,8.59 0.5,4.95 5.06,6.93 9.24,6.99 29.63,0.35 43.82,17.1 49.95,43.1 0.93,4.04 4.53,9 8.27,8.59 20.06,-2.28 38.35,-10.81 56.86,-17.94 13.9,-5.32 11.36,-18.14 9.24,-29.63 -0.78,-4.12 -1.02,-8.16 2.65,-11.32 40.9,27.75 80.79,56.94 126.03,83.39 -17.2,19.73 -32.49,37.85 -48.42,55.36 -33.2,36.48 -65.92,73.35 -96.63,111.88 -15.43,19.34 -16.38,19.58 -37.72,3.13 -71.51,-55.01 -133.79,-118.83 -188.09,-189.94 -18.33,-24.02 -39.49,-46.25 -52.64,-73.78z"/>
   <path class="fil20" d="M573.72 2880.14c2.43,4.49 4.33,9.39 7.35,13.47 6.44,8.62 -2.21,15.67 -2.01,23.61 0.31,12.05 -11.16,8.44 -16.26,12.33 -14.42,10.98 -36.45,2.41 -47.95,21.09 -5.17,8.36 -30.5,-6.55 -28.77,-21.38 1.63,-13.66 -7.12,-18.18 -12.01,-26.28 -4.12,-6.83 -11.32,-10.76 -19.02,-7.25 -16.47,7.52 -22.92,-4.55 -32.66,-14.62 7.98,-14.28 18.44,-23.46 36.83,-18.85 2.9,0.75 7.84,3.19 8.23,1.04 4.89,-27.8 14.85,-8.44 25.26,-3.78 8.44,3.78 8.28,-6.51 10.98,-11.44 2.61,-4.79 6.28,-9.3 12.2,-7.26 5.34,1.86 2.82,6.87 1.68,10.72 -1.34,4.53 -0.16,10.37 4.5,8.74 17.82,-6.23 24.5,5.86 33.36,16.17 2.77,3.27 7.75,-0.52 11.51,-2.09 2.26,1.92 4.53,3.85 6.78,5.78z"/>
   <path class="fil22" d="M214.32 2634.15c-14.36,-1.61 -14.13,-13.89 -17.62,-23 -2.7,-6.99 1.67,-13.57 8.32,-13.79 11.15,-0.38 19.17,7.36 24.74,16.04 2.52,3.93 -10.61,20.25 -15.44,20.75z"/>
   <path class="fil20" d="M794.69 3011.09c0.71,4.82 -1.98,6.17 -4.98,5.45 -2.41,-0.59 -5.54,-2.47 -6.3,-4.47 -1.11,-3.08 1.34,-5.71 4.85,-4.9 2.52,0.56 4.66,2.77 6.43,3.92z"/>
   <g>
    <g>
     <polygon class="fil23" points="462.78,2274.11 265.23,2274.11 296.59,1040.26 491,1040.26 985.57,2034.1 1009.31,1014.3 1153.11,1014.3 1153.11,2274.11 927.33,2274.11 416.64,1220.02 "/>
    </g>
   </g>
   <g>
    <g>
     <polygon class="fil24" points="2006.61,2259.29 1295.35,2259.29 1295.35,1033.46 1992.88,1033.46 1992.88,1173.11 1445.07,1173.11 1445.07,1536.28 1970.15,1536.28 1970.15,1675.93 1445.07,1675.93 1445.07,2005.26 2006.61,2005.26 "/>
    </g>
   </g>
   <path class="fil25" d="M1755.16 2900.25c30.7,-36.6 69.86,-63.27 108.48,-90.16 47.47,-33.01 96.87,-63.35 144.26,-96.5 13.59,-9.51 23.63,-8.18 35.53,1.8 39.48,33.07 79.03,66.01 118.28,99.38 13.19,11.25 15.46,24.42 8.11,39.78 -7.84,16.47 -18.46,30.43 -31.42,42.73 -52.3,49.54 -104.52,99.1 -156.99,148.49 -36.12,33.98 -66,74.18 -104.06,106.23 -14.56,4.07 -17.58,22.5 -32.39,26.12 -2.43,-0.04 -3.18,-4.3 -5.41,-3.38 -1.14,0.51 -0.82,3.75 -0.76,5.96 -5.54,19.25 -14.8,25.2 -29.08,5.52 -10.35,-14.3 -19.4,-29.35 -16.65,-48.05 1.01,-6.88 1.73,-16.01 -9.13,-16.58 -8.67,-0.5 -11.76,6.58 -13.34,14.04 -1.28,5.97 -1.55,12.28 0.06,18.23 4.92,18.05 1.85,33.44 -8.58,48.06 -5.9,8.28 -11.63,17.63 -3.67,30.1 15.85,24.81 -3.16,22.66 -17.98,23.33 -3.42,-0.96 -6.59,-2.47 -9.59,-4.43 -18.38,-14.21 -29.97,-30.07 -18.92,-53.83 4.43,-9.47 -1.87,-19.06 -6.7,-27.95 -3.74,-6.92 -7.27,-16.19 -1.51,-20.6 13.29,-10.07 12.01,-27.68 17.72,-37.41 13.71,-23.41 5.61,-36.23 -6.59,-54.86 -8.97,-13.71 -9.75,-31.14 -6.93,-46.8 2.54,-14.06 10.12,-24.3 27.61,-20.35 8.78,1.97 20.13,13.97 26.04,2.77 6.84,-12.91 3.8,-29.2 -7.52,-41.12 -18.02,-18.99 -14.95,-35.04 1.13,-50.52z"/>
   <path class="fil25" d="M1728.99 3322.34c-14.05,23.57 -32.95,43.14 -50.41,63.91 -26.78,-7.92 -45.95,-29.1 -68.82,-43.81 -31.57,-20.38 -61.77,-42.99 -93.33,-63.38 -16.33,-10.53 -18.87,-20.73 -9.65,-36.4 15.05,-25.56 26.26,-53.57 44.89,-76.84 17.61,-10.95 21.77,-30.96 29.96,-48.26l0.63 -1.15c1.51,-4.99 7.9,-6.43 8.27,-12.3l0.53 -0.85c6.8,-4.49 12.89,-10.33 19.91,-14.14 9.51,-5.15 18.07,-0.62 16.16,10.75 -3.38,20.01 7.58,39.54 5.88,57.42 -1.89,19.51 5.4,25.94 17.97,38.08 15.61,15.07 17.89,47.79 51.36,33.34 3.01,-1.29 2.32,-0.93 2.25,1.71 -0.61,27.84 22.32,11.55 31.96,19.43l0 0c37.67,30.98 1.68,49.47 -7.56,72.49z"/>
   <path class="fil25" d="M1736.55 3249.87c-8.29,0.37 -16.69,-0.56 -22.07,8.18 -4.01,6.49 -7.53,14.52 -16.54,16.47 -8.44,-12.69 5.46,-14.39 7.07,-21.63 1.38,-6.17 2.96,-13.26 -2.22,-17.17 -8.21,-6.2 -7.85,4.77 -11.85,7.36 -13.2,8.62 -39.62,-6.31 -37.86,-23.29 1.77,-17.11 -1.57,-20.22 -18.26,-22.06 -18.31,-1.96 -11.41,-21.1 -15.61,-32.73 15.33,-1.19 8.87,-9.85 4.27,-16.91 -11.53,-17.81 -9.68,-34.97 1.4,-56.79 -13.96,5.52 -21.58,16.69 -33.84,11.97 28.43,-55.64 67.34,-103.19 108.55,-148.84 17.31,-19.17 32.76,-40.61 55.58,-54.19 -6.44,18.04 -17.23,36.89 12.79,47.2 5.17,1.82 6.41,7.11 5.63,12.37 -0.92,5.96 -3.07,12.02 -2.43,17.88 4.32,36.97 2.26,38.51 -33.03,22.43 -13.86,-6.33 -24.95,-1.82 -23.19,12.11 2.44,19.68 -2.01,42.56 19.83,56.81 11.61,7.6 10.45,18.4 9.13,29.62 -0.84,7.08 -2.67,10.42 -10.83,9.88 -14.12,-0.89 -13.61,6.32 -4.48,14.1 4.33,3.67 11.85,3 15.2,9.39 2.52,4.72 2.8,9.51 0.26,13.9 -2.06,3.57 -5.72,3.73 -9.35,2.56 -5.44,-1.82 -9.91,-7.32 -16.65,-3.59 -7.25,4.05 -17.74,7.11 -8.06,17.84 15.47,17.06 22.48,32.58 4.91,50.83 -4.37,4.55 0.13,11.76 5.31,15.94 6.99,5.65 12.27,12.46 16.34,20.36z"/>
   <path class="fil25" d="M1728.99 3322.34c-0.28,-2.39 -1.53,-5.27 -0.69,-7.09 8.59,-19.21 12.2,-46.61 8.25,-65.4 7.73,-1.05 17.03,2.42 22.42,-5.59 -3.52,-11.86 -16.31,-4.16 -21,-13.56 -2.07,-9.04 9.88,-11.88 9.73,-21.08 -0.07,-3.76 12.1,-60.99 12.03,-65.58 -0.5,-31.45 4.03,-34.73 47.12,-31.73 -10.96,28.71 -4.58,54.92 16.23,78.75 10.88,-2.02 6.15,-17.62 16.37,-20.18 6.33,3.71 12.38,2.51 13.82,-3.97 3.07,-13.72 14.97,-11.77 24.09,-14.91 -48.21,57.9 -97.03,115.27 -148.37,170.34z"/>
   <path class="fil25" d="M1581.61 3117.56c-2.51,21.11 1.07,46.35 -29.93,48.28 7.14,-18.03 14.73,-35.71 29.93,-48.28z"/>
   <path class="fil25" d="M1590.51 3104.13c0.84,6.7 -2.97,10.05 -8.28,12.3 -0.5,-6.48 2.96,-10.08 8.28,-12.3z"/>
   <path class="fil25" d="M2041.68 2858.31c14.01,28.71 15.58,51.28 0.84,72.7 -2.71,3.97 -5.12,8.51 -10.66,5.9 -2.82,-1.33 -5.54,-4.93 -6.62,-8.05 -2.01,-5.71 -1.89,-12.15 -4.28,-17.67 -7.51,-17.51 -10.92,-32.59 12.11,-38.88 3.28,-0.91 4.71,-7.41 8.61,-14z"/>
   <path class="fil25" d="M1839.44 3170.88c-1.83,-4.25 -4.32,-8.62 -1.13,-12.76 0.57,-0.76 4.57,-0.11 4.76,0.54 1.66,4.93 -0.84,8.7 -3.63,12.22z"/>
   <path class="fil25" d="M1588.17 3195.89c8.97,-1.91 14.18,3.04 17.87,10.01 3.76,6.99 5.5,14.32 -3.53,17.81 -6.99,2.72 -11.11,-2.52 -14.36,-8.01 -4.09,-6.92 -4.81,-13.73 0.02,-19.81z"/>
   <path class="fil25" d="M1600.15 3173.61c0.91,-0.13 2.48,-0.59 2.67,-0.28 0.52,0.89 0.49,2.12 0.71,3.19 -0.96,0.13 -2.5,0.59 -2.68,0.28 -0.53,-0.89 -0.51,-2.1 -0.7,-3.19z"/>
   <g>
    <g>
     <path class="fil26" d="M2264.25 1062.47l135.37 0 -12.95 626.33c-3.69,260.37 76.93,367.36 242.63,367.36 164.59,0 245.59,-106.99 240.04,-367.36l-12.95 -626.33 135.74 0 0 759.83c0,317.66 -123.9,480.98 -362.83,480.98 -241.15,0 -365.05,-163.32 -365.05,-480.98l0 -759.83z"/>
    </g>
   </g>
   <g>
    <g>
     <path class="fil27" d="M3701.93 1670.24c54.74,24.1 105.77,104.09 159.41,243.35l130.19 338.28 -182.72 0 -96.52 -318.04c-62.51,-166.25 -109.49,-205.76 -211.2,-205.76l-96.53 0 0 523.8 -153.86 0 0 -1239.39 290.71 0c191.96,0 304.02,117.57 304.02,357.07 0,156.61 -54.74,261.66 -143.5,300.69zm-309.2 -569.1l0 455.38 162 0c97.64,0 199.35,-86.74 199.35,-186.97 0,-212.51 -101.71,-268.41 -199.35,-268.41l-162 0z"/>
    </g>
   </g>
   <g>
    <g>
     <path class="fil28" d="M4482.09 1037.5c240.17,0 394.98,240.29 394.98,614.09 0,373.34 -154.81,613.63 -394.98,613.63 -240.18,0 -395.97,-238.45 -395.97,-613.63 0,-373.8 155.79,-614.09 395.97,-614.09zm0 130.27c-167.76,0 -274.39,185.06 -274.39,483.82 0,245.36 106.63,310.27 274.39,310.27 167.42,0 273.06,-64.91 273.06,-310.27 0,-298.76 -105.64,-483.82 -273.06,-483.82z"/>
    </g>
   </g>
   <g>
    <g>
     <polygon class="fil29" points="5218.13,2279.29 5051.32,2279.29 5077.21,1022.47 5205.18,1022.47 5193.35,1553.64 5620.17,1022.47 5785.86,1022.47 5313.55,1608.86 5819.52,2279.29 5515.49,2279.29 5193.35,1674.34 "/>
    </g>
   </g>
   <g>
    <g>
     <path class="fil30" d="M6045.28 2301.88c25.95,-418.78 25.95,-838.05 34.94,-1256.82l147.75 0c5.49,418.77 1.99,838.04 24.96,1256.82l-207.65 0z"/>
    </g>
   </g>
   <g>
    <g>
     <path class="fil31" d="M6428.91 2301.03l0 -1256.82 229.81 0c320.32,0 464.11,196.43 464.11,627.43 0,432.95 -146.04,629.39 -464.11,629.39l-229.81 0zm117.47 -1117.07l0 799.93 134.81 0c227.56,0 310.37,-72.32 327.38,-329.36 0,-313.71 -99.82,-470.57 -327.38,-470.57l-134.81 0z"/>
    </g>
   </g>
   <g>
    <g>
     <path class="fil32" d="M8069.25 1313.08c-110.96,-57.01 -210.02,-83.95 -303.13,-83.95 -160.28,0 -251.69,67.79 -251.69,189.9 0,101.45 48.04,147.24 210.02,179.12l88.44 18.85c220.22,44.45 322.26,153.53 322.26,342.08 0,223.12 -143.7,340.29 -418.35,340.29 -103.31,0 -220.65,-23.8 -346.5,-72.73l0 -246.91c119.9,71.38 235.54,107.75 346.5,107.75 169.63,0 264.02,-87.1 264.02,-155.33 0,-61.96 -61.65,-134.68 -211.3,-166.11l-90.13 -19.3c-220.66,-45.79 -313.34,-139.17 -313.34,-315.14 0,-204.26 143.7,-329.52 383.91,-329.52 102.04,0 208.33,19.31 319.29,58.81l0 152.19z"/>
    </g>
   </g>
  </g>
 </g>
</svg>
