<?xml version="1.0" encoding="UTF-8" standalone="no"?>
<!-- Created with Inkscape (http://www.inkscape.org/) -->

<svg
   width="41.422314mm"
   height="13.18781mm"
   viewBox="0 0 41.422314 13.18781"
   version="1.1"
   id="svg1"
   xmlns="http://www.w3.org/2000/svg"
   xmlns:svg="http://www.w3.org/2000/svg">
  <defs
     id="defs1">
    <clipPath
       clipPathUnits="userSpaceOnUse"
       id="clipPath7-1">
      <path
         d="M 0,500 H 1040 V 0 H 0 Z"
         transform="translate(-247.71471,-211.266)"
         id="path7-5" />
    </clipPath>
  </defs>
  <g
     id="layer1"
     style="stroke:#b3b3b3;stroke-opacity:0.167147"
     transform="matrix(0.76651026,0,0,0.80081968,0.09054102,0.05392758)">
    <path
       id="path6-8"
       d="m 0,0 c -2.522,0.868 -3.371,2.253 -3.199,4.378 0.044,0.541 0.062,1.084 0.078,1.626 0.055,1.897 0.182,3.795 0.142,5.691 -0.209,9.973 -10.711,14.518 -18.787,13.279 -2.543,-0.389 -5.041,-1.027 -7.524,-1.656 -2.608,-0.66 -5.141,-1.543 -7.762,-2.156 -5.753,-1.343 -11.184,-0.632 -16.151,2.238 -1.677,0.969 -3.255,2.065 -4.862,3.122 -2.812,1.851 -5.567,3.766 -8.427,5.56 -2.565,1.608 -5.38,2.851 -8.425,3.683 -8.897,2.432 -17.419,-0.025 -22.682,-6.634 -1.097,-1.377 -1.976,-2.904 -2.764,-4.434 -0.763,-1.482 -1.25,-3.067 -1.914,-4.589 -0.663,-1.521 -1.308,-3.055 -2.121,-4.517 -0.933,-1.677 -2.573,-2.587 -4.744,-2.896 -2.12,-0.302 -4.168,0.023 -6.226,0.307 -3.434,0.473 -6.832,1.184 -10.362,0.844 -3.47,-0.335 -6.123,-1.759 -7.732,-4.392 -0.812,-1.329 -1.339,-2.801 -1.844,-4.247 -0.379,-1.084 -0.58,-2.223 -0.745,-3.35 -0.276,-1.898 -1.438,-3.057 -3.612,-3.51 -1.106,-0.23 -2.192,-0.529 -3.287,-0.799 -0.608,-0.15 -1.23,-0.267 -1.819,-0.461 -2.113,-0.694 -3.595,-2.673 -3.487,-4.611 0.051,-0.925 0.377,-1.258 1.479,-1.346 0.818,-0.066 1.646,-0.054 2.47,-0.054 40.869,0 81.738,-0.081 122.607,-0.076 3.931,10e-4 7.862,10e-4 11.793,0.002 3.105,10e-4 6.21,0.06 9.314,0.053 C 0.804,-8.948 1.79,-8.482 2.559,-7.47 4.996,-4.262 4.185,-1.441 0,0"
       style="fill:#ffffff;fill-opacity:1;fill-rule:nonzero;stroke:#b3b3b3;stroke-opacity:0.167147"
       transform="matrix(0.35277776,0,0,-0.35277776,52.36171,13.049081)"
       clip-path="url(#clipPath7-1)" />
  </g>
</svg>
