<?xml version="1.0" encoding="UTF-8"?>
<!DOCTYPE svg PUBLIC "-//W3C//DTD SVG 1.1//EN" "http://www.w3.org/Graphics/SVG/1.1/DTD/svg11.dtd">
<!-- Creator: CorelDRAW 2021 (64-Bit) -->
<svg xmlns="http://www.w3.org/2000/svg" xml:space="preserve" width="50mm" height="50mm" version="1.1" style="shape-rendering:geometricPrecision; text-rendering:geometricPrecision; image-rendering:optimizeQuality; fill-rule:evenodd; clip-rule:evenodd"
viewBox="0 0 5000 5000"
 xmlns:xlink="http://www.w3.org/1999/xlink"
 xmlns:xodm="http://www.corel.com/coreldraw/odm/2003">
 <defs>
  <style type="text/css">
   <![CDATA[
    .fil4 {fill:black;fill-rule:nonzero}
    .fil9 {fill:#00BFBA;fill-rule:nonzero}
    .fil3 {fill:#00D095;fill-rule:nonzero}
    .fil12 {fill:#010101;fill-rule:nonzero}
    .fil27 {fill:#010102;fill-rule:nonzero}
    .fil25 {fill:#020101;fill-rule:nonzero}
    .fil26 {fill:#040404;fill-rule:nonzero}
    .fil34 {fill:#07C3C7;fill-rule:nonzero}
    .fil5 {fill:#5764B3;fill-rule:nonzero}
    .fil23 {fill:#6A9690;fill-rule:nonzero}
    .fil19 {fill:#809F9A;fill-rule:nonzero}
    .fil22 {fill:#8A8A92;fill-rule:nonzero}
    .fil15 {fill:#8B8B93;fill-rule:nonzero}
    .fil16 {fill:#98989F;fill-rule:nonzero}
    .fil18 {fill:#9DE0D7;fill-rule:nonzero}
    .fil21 {fill:#A69272;fill-rule:nonzero}
    .fil20 {fill:#AA9063;fill-rule:nonzero}
    .fil7 {fill:#B2D722;fill-rule:nonzero}
    .fil24 {fill:#B9E8DF;fill-rule:nonzero}
    .fil11 {fill:#C400FA;fill-rule:nonzero}
    .fil2 {fill:#CFCFDB;fill-rule:nonzero}
    .fil14 {fill:#E3E3ED;fill-rule:nonzero}
    .fil33 {fill:#EEB22E;fill-rule:nonzero}
    .fil28 {fill:#F03A58;fill-rule:nonzero}
    .fil30 {fill:#F69EAE;fill-rule:nonzero}
    .fil29 {fill:#F87D91;fill-rule:nonzero}
    .fil32 {fill:#FCCB66;fill-rule:nonzero}
    .fil31 {fill:#FECBD7;fill-rule:nonzero}
    .fil17 {fill:#FED794;fill-rule:nonzero}
    .fil13 {fill:#FEFEFE;fill-rule:nonzero}
    .fil0 {fill:#FF1183;fill-rule:nonzero}
    .fil6 {fill:#FF4646;fill-rule:nonzero}
    .fil10 {fill:#FF770C;fill-rule:nonzero}
    .fil8 {fill:#FFAF00;fill-rule:nonzero}
    .fil1 {fill:white;fill-rule:nonzero}
   ]]>
  </style>
 </defs>
<symbol id="Fm0-111-0" viewBox="4412.91 -15416.28 1640.5 2396.26">
 <polygon class="fil0" points="4777.92,-13020.02 4412.91,-13020.02 4470.85,-15366.9 4830.06,-15366.9 5743.85,-13476.54 5787.72,-15416.28 6053.41,-15416.28 6053.41,-13020.02 5636.24,-13020.02 4692.67,-15024.98 "/>
</symbol>
<symbol id="Fm0-138-0" viewBox="28652.24 -8610.92 2560.94 619.83">
 <path class="fil1" d="M28693.13 -8137.04c42.87,19.75 88.48,30.44 131.35,30.44 113.52,0 173,-23.7 181.68,-169.66 -33.21,45.79 -85.51,71.35 -146.73,71.35 -127.64,0 -207.19,-77.16 -207.19,-202.66 0,-122.94 83.76,-203.35 212.39,-203.35 147.72,0 227.28,108.3 227.28,310.03 0,188.48 -103.1,309.8 -263.95,309.8 -42.88,0 -86.74,-8.14 -134.83,-23.71l0 -122.24zm164.57 -188.49c94.42,0 152.91,-8.13 152.91,-95.05 0,-86.22 -58.49,-139.44 -152.91,-139.44 -94.43,0 -153.91,53.22 -153.91,139.44 0,86.92 59.48,95.05 153.91,95.05zm933.61 127.83l-229.75 3.25 3.47 -65.54 229.76 -3.95 -3.48 66.24zm852.58 195.22l-367.3 0 0 -112.25 141.51 0 0 -411.6 -153.66 28.59 0 -73.67 152.93 -28.82 85.75 0 0 485.5 140.77 0 0 112.25zm353.17 -608.44c143.5,0 216.12,108.3 216.12,310.03 -5.45,201.73 -81.54,309.8 -224.79,309.8 -142.52,0 -215.88,-108.07 -215.88,-309.8 5.95,-201.73 82.04,-310.03 224.55,-310.03zm0 32.07c-88.24,0 -133.84,72.98 -133.84,219.63 0,151.76 36.93,219.85 125.17,219.85 89.21,0 131.1,-72.97 142.5,-219.85 0,-146.65 -44.61,-219.63 -133.83,-219.63zm-2.48 310.73c35.68,0 44.61,-40.21 44.61,-70.42 0,-57.41 -8.93,-92.73 -44.61,-92.73 -40.39,0 -45.61,46.02 -45.61,92.73 0,30.21 8.68,70.42 45.61,70.42z"/>
</symbol>
<symbol id="Fm12-115-0" viewBox="30244.35 -9582.39 2631.4 319.05">
 <path class="fil2" d="M32875.75 -9422.86c0,88.12 -589.03,159.52 -1315.68,159.52 -725.6,0 -1314.01,-71.19 -1315.72,-159.14l0 -0.76c1.71,-87.96 590.12,-159.15 1315.72,-159.15 726.65,0 1315.68,71.4 1315.68,159.53z"/>
</symbol>
<symbol id="Fm1-112-0" viewBox="6316.23 -15379.83 1314.16 2331.63">
 <polygon class="fil3" points="7630.39,-13048.2 6316.23,-13048.2 6316.23,-15379.83 7605.03,-15379.83 7605.03,-15114.21 6592.85,-15114.21 6592.85,-14423.43 7563.02,-14423.43 7563.02,-14157.81 6592.85,-14157.81 6592.85,-13531.39 7630.39,-13531.39 "/>
</symbol>
<symbol id="Fm10-113-0" viewBox="30665.35 -15319.31 1563.76 395.02">
 <path class="fil2" d="M32229.11 -15121.79c0,108.54 -346.47,196.59 -775.17,197.5l-13.46 0c-427.63,-0.91 -773.46,-88.54 -775.13,-196.72l0 -1.56c1.67,-108.75 351.13,-196.74 781.86,-196.74 431.8,0 781.9,88.4 781.9,197.52z"/>
</symbol>
<symbol id="Fm13-116-0" viewBox="33960.3 -8602.34 3204.7 1644.68">
 <path class="fil1" d="M34339.75 -7993.9l-367.3 0 0 -112.25 141.51 0 0 -411.6 -153.66 28.59 0 -73.67 152.93 -28.82 85.75 0 0 485.5 140.77 0 0 112.25zm353.17 -608.44c143.5,0 216.11,108.3 216.11,310.03 -5.44,201.73 -81.53,309.8 -224.78,309.8 -142.52,0 -215.88,-108.07 -215.88,-309.8 5.95,-201.73 82.04,-310.03 224.55,-310.03zm0 32.07c-88.24,0 -133.84,72.98 -133.84,219.63 0,151.76 36.93,219.85 125.17,219.85 89.21,0 131.1,-72.97 142.5,-219.85 0,-146.65 -44.61,-219.63 -133.83,-219.63zm-2.48 310.73c35.68,0 44.61,-40.21 44.61,-70.42 0,-57.41 -8.93,-92.73 -44.61,-92.73 -40.39,0 -45.61,46.02 -45.61,92.73 0,30.21 8.68,70.42 45.61,70.42zm917.75 70.42l-229.74 3.25 3.46 -65.54 229.76 -3.95 -3.48 66.24zm852.59 195.22l-367.31 0 0 -112.25 141.52 0 0 -411.6 -153.66 28.59 0 -73.67 152.92 -28.82 85.75 0 0 485.5 140.78 0 0 112.25zm533.34 -116.44l0 116.44 -404.72 0 0 -116.44c45.35,-34.39 92.44,-69.72 143.25,-105.74 100.62,-72.05 132.84,-110.63 155.64,-151.76 10.41,-19.53 15.87,-39.28 15.87,-59.03 0,-62.99 -51.81,-107.38 -128.63,-107.38 -54.28,0 -113.77,17.2 -181.92,53.22l0 -81.8c69.89,-26.26 130.37,-39.51 180.18,-39.51 132.1,0 216.86,66.47 216.86,170.59 0,49.27 -16.6,87.85 -68.15,147.57 -7.19,7.44 -29.74,30.45 -68.41,67.17 -37.42,36.95 -60.97,72.28 -71.62,106.67l211.65 0z"/>
 <path class="fil1" d="M35079.67 -6969.05l-116.98 0 251.81 -597.75 81.29 0 250.81 597.75 -123.17 0 -24.54 -97.61 -286.76 0 -32.46 97.61zm57.75 -192.67l235.19 0 -117.96 -331.18 -117.23 331.18zm718.74 -498.51c-13.14,-10.69 -21.82,-15.57 -29.75,-15.57 -10.4,0 -18.34,4.88 -23.54,14.87 -5.21,9.77 -7.94,25.34 -8.68,47.42l-53.28 0c1.73,-72.05 31.47,-113.19 83.02,-113.19 21.81,0 38.42,6.74 59.48,24.64l24.3 22.08c12.39,10.69 22.05,15.57 28.99,15.57 11.4,0 19.08,-4.88 24.54,-14.64 5.2,-9.76 7.68,-25.34 7.68,-47.65l54.28 0c-1.74,72.28 -32.23,113.19 -84.02,113.19 -21.81,0 -38.42,-6.51 -59.23,-24.64l-23.79 -22.08zm248.33 691.18l-111.78 0 16.6 -272.15c0,-85.29 -27.25,-127.13 -97.15,-127.13 -96.15,0 -141.52,54.16 -141.52,141.77l13.14 257.51 -109.3 0 12.9 -452.5 78.8 0 0 53.92c37.68,-27.65 88.24,-60.66 154.65,-60.66 109.31,0 165.32,64.85 171.51,188.72l12.15 270.52zm347.97 -459.24c136.32,0 219.34,87.85 219.34,235.43 0,146.65 -83.02,235.2 -219.34,235.2 -137.3,0 -219.34,-88.55 -219.34,-235.2 0,-147.58 82.04,-235.43 219.34,-235.43zm0 54.15c-84.01,0 -136.31,63.92 -136.31,168.03 0,105.05 51.55,121.55 136.31,121.55 84.02,0 136.32,-17.43 136.32,-121.55 0,-102.49 -52.3,-168.03 -136.32,-168.03zm687.26 31.15c-44.61,-20.45 -92.69,-31.84 -143.5,-31.84 -78.56,0 -121.44,26.96 -121.44,71.35 0,40.2 25.28,59.03 109.3,76.23l27.01 5.57c111.03,22.31 153.91,55.78 153.91,128.76 0,83.66 -74.35,135.26 -197.53,135.26 -50.8,0 -105.83,-8.83 -167.79,-27.89l0 -108.07c58.5,28.59 114.5,42.53 169.53,42.53 74.35,0 106.57,-21.38 106.57,-59.73 -9.42,-16.5 -17.35,-27.89 -24.29,-35.32 -6.19,-7.44 -34.21,-15.58 -83.27,-26.27l-27.01 -5.81c-97.16,-18.82 -138.06,-48.34 -138.06,-118.06 0,-84.36 66.43,-132.01 183.41,-132.01 58.74,0 110.29,8.37 153.16,23.94l0 61.36z"/>
</symbol>
<symbol id="Fm11-114-0" viewBox="28652.24 -8610.92 2731.69 1644.68">
 <path class="fil1" d="M28693.13 -8137.04c42.87,19.75 88.48,30.44 131.35,30.44 113.52,0 173,-23.7 181.68,-169.66 -33.21,45.79 -85.51,71.35 -146.73,71.35 -127.64,0 -207.19,-77.16 -207.19,-202.66 0,-122.94 83.76,-203.35 212.39,-203.35 147.72,0 227.28,108.3 227.28,310.03 0,188.48 -103.1,309.8 -263.95,309.8 -42.88,0 -86.74,-8.14 -134.83,-23.71l0 -122.24zm164.57 -188.49c94.42,0 152.91,-8.13 152.91,-95.05 0,-86.22 -58.49,-139.44 -152.91,-139.44 -94.43,0 -153.91,53.22 -153.91,139.44 0,86.92 59.48,95.05 153.91,95.05zm933.61 127.83l-229.75 3.25 3.47 -65.54 229.76 -3.95 -3.48 66.24zm852.58 195.22l-367.3 0 0 -112.25 141.51 0 0 -411.6 -153.66 28.59 0 -73.67 152.93 -28.82 85.75 0 0 485.5 140.77 0 0 112.25zm353.17 -608.44c143.5,0 216.12,108.3 216.12,310.03 -5.45,201.73 -81.54,309.8 -224.79,309.8 -142.52,0 -215.88,-108.07 -215.88,-309.8 5.95,-201.73 82.04,-310.03 224.55,-310.03zm0 32.07c-88.24,0 -133.84,72.98 -133.84,219.63 0,151.76 36.93,219.85 125.17,219.85 89.21,0 131.1,-72.97 142.5,-219.85 0,-146.65 -44.61,-219.63 -133.83,-219.63zm-2.48 310.73c35.68,0 44.61,-40.21 44.61,-70.42 0,-57.41 -8.93,-92.73 -44.61,-92.73 -40.39,0 -45.61,46.02 -45.61,92.73 0,30.21 8.68,70.42 45.61,70.42z"/>
 <path class="fil1" d="M29298.6 -6977.63l-116.99 0 251.81 -597.75 81.29 0 250.81 597.75 -123.17 0 -24.54 -97.61 -286.75 0 -32.46 97.61zm57.74 -192.67l235.2 0 -117.97 -331.18 -117.23 331.18zm718.74 -498.51c-13.14,-10.69 -21.82,-15.57 -29.74,-15.57 -10.41,0 -18.34,4.88 -23.55,14.87 -5.2,9.77 -7.93,25.34 -8.68,47.42l-53.28 0c1.73,-72.05 31.47,-113.19 83.02,-113.19 21.81,0 38.43,6.74 59.49,24.64l24.29 22.08c12.39,10.69 22.05,15.57 29,15.57 11.4,0 19.07,-4.88 24.53,-14.64 5.21,-9.76 7.68,-25.34 7.68,-47.65l54.28 0c-1.74,72.28 -32.22,113.19 -84.02,113.19 -21.81,0 -38.41,-6.51 -59.23,-24.64l-23.79 -22.08zm248.34 691.18l-111.79 0 16.61 -272.15c0,-85.29 -27.26,-127.13 -97.15,-127.13 -96.16,0 -141.52,54.16 -141.52,141.77l13.13 257.51 -109.29 0 12.89 -452.5 78.81 0 0 53.92c37.67,-27.65 88.23,-60.66 154.65,-60.66 109.31,0 165.31,64.85 171.51,188.72l12.15 270.52zm347.96 -459.24c136.32,0 219.34,87.85 219.34,235.43 0,146.65 -83.02,235.2 -219.34,235.2 -137.3,0 -219.33,-88.55 -219.33,-235.2 0,-147.58 82.03,-235.43 219.33,-235.43zm0 54.15c-84.01,0 -136.3,63.92 -136.3,168.03 0,105.05 51.55,121.55 136.3,121.55 84.03,0 136.32,-17.43 136.32,-121.55 0,-102.49 -52.29,-168.03 -136.32,-168.03zm687.26 31.15c-44.61,-20.45 -92.69,-31.84 -143.49,-31.84 -78.57,0 -121.45,26.96 -121.45,71.35 0,40.2 25.29,59.03 109.3,76.23l27.01 5.57c111.04,22.31 153.92,55.78 153.92,128.76 0,83.66 -74.35,135.26 -197.53,135.26 -50.81,0 -105.83,-8.83 -167.79,-27.89l0 -108.07c58.49,28.59 114.5,42.53 169.52,42.53 74.35,0 106.57,-21.38 106.57,-59.73 -9.42,-16.5 -17.35,-27.89 -24.28,-35.32 -6.2,-7.44 -34.21,-15.58 -83.28,-26.27l-27.01 -5.81c-97.16,-18.82 -138.06,-48.34 -138.06,-118.06 0,-84.36 66.43,-132.01 183.42,-132.01 58.73,0 110.28,8.37 153.15,23.94l0 61.36z"/>
</symbol>
<symbol id="Fm0-133-0" viewBox="4412.91 -15416.28 1640.5 2396.26">
 <polygon class="fil0" points="4777.92,-13020.02 4412.91,-13020.02 4470.85,-15366.9 4830.06,-15366.9 5743.85,-13476.54 5787.72,-15416.28 6053.41,-15416.28 6053.41,-13020.02 5636.24,-13020.02 4692.67,-15024.98 "/>
</symbol>
<symbol id="Fm0-135-0" viewBox="6316.23 -15379.83 1314.16 2331.63">
 <polygon class="fil3" points="7630.39,-13048.2 6316.23,-13048.2 6316.23,-15379.83 7605.03,-15379.83 7605.03,-15114.21 6592.85,-15114.21 6592.85,-14423.43 7563.02,-14423.43 7563.02,-14157.81 6592.85,-14157.81 6592.85,-13531.39 7630.39,-13531.39 "/>
</symbol>
<symbol id="Fm1-139-0" viewBox="29181.61 -7735.28 2202.32 769.04">
 <path class="fil1" d="M29298.6 -6977.63l-116.99 0 251.81 -597.75 81.29 0 250.81 597.75 -123.17 0 -24.54 -97.61 -286.75 0 -32.46 97.61zm57.74 -192.67l235.2 0 -117.97 -331.18 -117.23 331.18zm718.74 -498.51c-13.14,-10.69 -21.82,-15.57 -29.74,-15.57 -10.41,0 -18.34,4.88 -23.55,14.87 -5.2,9.77 -7.93,25.34 -8.68,47.42l-53.28 0c1.73,-72.05 31.47,-113.19 83.02,-113.19 21.81,0 38.43,6.74 59.49,24.64l24.29 22.08c12.39,10.69 22.05,15.57 29,15.57 11.4,0 19.07,-4.88 24.53,-14.64 5.21,-9.76 7.68,-25.34 7.68,-47.65l54.28 0c-1.74,72.28 -32.22,113.19 -84.02,113.19 -21.81,0 -38.41,-6.51 -59.23,-24.64l-23.79 -22.08zm248.34 691.18l-111.79 0 16.61 -272.15c0,-85.29 -27.26,-127.13 -97.15,-127.13 -96.16,0 -141.52,54.16 -141.52,141.77l13.13 257.51 -109.29 0 12.89 -452.5 78.81 0 0 53.92c37.67,-27.65 88.23,-60.66 154.65,-60.66 109.31,0 165.31,64.85 171.51,188.72l12.15 270.52zm347.96 -459.24c136.32,0 219.34,87.85 219.34,235.43 0,146.65 -83.02,235.2 -219.34,235.2 -137.3,0 -219.33,-88.55 -219.33,-235.2 0,-147.58 82.03,-235.43 219.33,-235.43zm0 54.15c-84.01,0 -136.3,63.92 -136.3,168.03 0,105.05 51.55,121.55 136.3,121.55 84.03,0 136.32,-17.43 136.32,-121.55 0,-102.49 -52.29,-168.03 -136.32,-168.03zm687.26 31.15c-44.61,-20.45 -92.69,-31.84 -143.49,-31.84 -78.57,0 -121.45,26.96 -121.45,71.35 0,40.2 25.29,59.03 109.3,76.23l27.01 5.57c111.04,22.31 153.92,55.78 153.92,128.76 0,83.66 -74.35,135.26 -197.53,135.26 -50.81,0 -105.83,-8.83 -167.79,-27.89l0 -108.07c58.49,28.59 114.5,42.53 169.52,42.53 74.35,0 106.57,-21.38 106.57,-59.73 -9.42,-16.5 -17.35,-27.89 -24.28,-35.32 -6.2,-7.44 -34.21,-15.58 -83.28,-26.27l-27.01 -5.81c-97.16,-18.82 -138.06,-48.34 -138.06,-118.06 0,-84.36 66.43,-132.01 183.42,-132.01 58.73,0 110.28,8.37 153.15,23.94l0 61.36z"/>
</symbol>
<symbol id="Fm0-142-0" viewBox="33960.3 -8602.34 3033.82 619.83">
 <path class="fil1" d="M34339.75 -7993.9l-367.3 0 0 -112.25 141.51 0 0 -411.6 -153.66 28.59 0 -73.67 152.93 -28.82 85.75 0 0 485.5 140.77 0 0 112.25zm353.17 -608.44c143.5,0 216.11,108.3 216.11,310.03 -5.44,201.73 -81.53,309.8 -224.78,309.8 -142.52,0 -215.88,-108.07 -215.88,-309.8 5.95,-201.73 82.04,-310.03 224.55,-310.03zm0 32.07c-88.24,0 -133.84,72.98 -133.84,219.63 0,151.76 36.93,219.85 125.17,219.85 89.21,0 131.1,-72.97 142.5,-219.85 0,-146.65 -44.61,-219.63 -133.83,-219.63zm-2.48 310.73c35.68,0 44.61,-40.21 44.61,-70.42 0,-57.41 -8.93,-92.73 -44.61,-92.73 -40.39,0 -45.61,46.02 -45.61,92.73 0,30.21 8.68,70.42 45.61,70.42zm917.75 70.42l-229.74 3.25 3.46 -65.54 229.76 -3.95 -3.48 66.24zm852.59 195.22l-367.31 0 0 -112.25 141.52 0 0 -411.6 -153.66 28.59 0 -73.67 152.92 -28.82 85.75 0 0 485.5 140.78 0 0 112.25zm533.34 -116.44l0 116.44 -404.72 0 0 -116.44c45.35,-34.39 92.44,-69.72 143.25,-105.74 100.62,-72.05 132.84,-110.63 155.64,-151.76 10.41,-19.53 15.87,-39.28 15.87,-59.03 0,-62.99 -51.81,-107.38 -128.63,-107.38 -54.28,0 -113.77,17.2 -181.92,53.22l0 -81.8c69.89,-26.26 130.37,-39.51 180.18,-39.51 132.1,0 216.86,66.47 216.86,170.59 0,49.27 -16.6,87.85 -68.15,147.57 -7.19,7.44 -29.74,30.45 -68.41,67.17 -37.42,36.95 -60.97,72.28 -71.62,106.67l211.65 0z"/>
</symbol>
<symbol id="Fm1-143-0" viewBox="34962.69 -7726.7 2202.31 769.04">
 <path class="fil1" d="M35079.67 -6969.05l-116.98 0 251.81 -597.75 81.29 0 250.81 597.75 -123.17 0 -24.54 -97.61 -286.76 0 -32.46 97.61zm57.75 -192.67l235.19 0 -117.96 -331.18 -117.23 331.18zm718.74 -498.51c-13.14,-10.69 -21.82,-15.57 -29.75,-15.57 -10.4,0 -18.34,4.88 -23.54,14.87 -5.21,9.77 -7.94,25.34 -8.68,47.42l-53.28 0c1.73,-72.05 31.47,-113.19 83.02,-113.19 21.81,0 38.42,6.74 59.48,24.64l24.3 22.08c12.39,10.69 22.05,15.57 28.99,15.57 11.4,0 19.08,-4.88 24.54,-14.64 5.2,-9.76 7.68,-25.34 7.68,-47.65l54.28 0c-1.74,72.28 -32.23,113.19 -84.02,113.19 -21.81,0 -38.42,-6.51 -59.23,-24.64l-23.79 -22.08zm248.33 691.18l-111.78 0 16.6 -272.15c0,-85.29 -27.25,-127.13 -97.15,-127.13 -96.15,0 -141.52,54.16 -141.52,141.77l13.14 257.51 -109.3 0 12.9 -452.5 78.8 0 0 53.92c37.68,-27.65 88.24,-60.66 154.65,-60.66 109.31,0 165.32,64.85 171.51,188.72l12.15 270.52zm347.97 -459.24c136.32,0 219.34,87.85 219.34,235.43 0,146.65 -83.02,235.2 -219.34,235.2 -137.3,0 -219.34,-88.55 -219.34,-235.2 0,-147.58 82.04,-235.43 219.34,-235.43zm0 54.15c-84.01,0 -136.31,63.92 -136.31,168.03 0,105.05 51.55,121.55 136.31,121.55 84.02,0 136.32,-17.43 136.32,-121.55 0,-102.49 -52.3,-168.03 -136.32,-168.03zm687.26 31.15c-44.61,-20.45 -92.69,-31.84 -143.5,-31.84 -78.56,0 -121.44,26.96 -121.44,71.35 0,40.2 25.28,59.03 109.3,76.23l27.01 5.57c111.03,22.31 153.91,55.78 153.91,128.76 0,83.66 -74.35,135.26 -197.53,135.26 -50.8,0 -105.83,-8.83 -167.79,-27.89l0 -108.07c58.5,28.59 114.5,42.53 169.53,42.53 74.35,0 106.57,-21.38 106.57,-59.73 -9.42,-16.5 -17.35,-27.89 -24.29,-35.32 -6.19,-7.44 -34.21,-15.58 -83.27,-26.27l-27.01 -5.81c-97.16,-18.82 -138.06,-48.34 -138.06,-118.06 0,-84.36 66.43,-132.01 183.41,-132.01 58.74,0 110.29,8.37 153.16,23.94l0 61.36z"/>
</symbol>
<symbol id="Fm17-120-0" viewBox="47224.64 -19651.87 2248.1 788.76">
 <path class="fil4" d="M47337.57 -19355.68c10.13,-94.68 10.13,-189.47 13.64,-284.15l57.63 0c2.13,94.68 0.78,189.47 9.73,284.15l-81 0zm519.88 0l-87.81 0 13.05 -129.37c0,-40.55 -21.42,-60.43 -76.33,-60.43 -75.54,0 -111.18,25.74 -111.18,67.39l10.31 122.41 -85.86 0 10.13 -215.1 61.91 0 0 25.63c29.6,-13.15 69.32,-28.83 121.51,-28.83 85.86,0 129.87,30.82 134.73,89.7l9.54 128.6zm169.6 -251.78l-61.72 0 3.31 -44.41 55.09 0 3.32 44.41zm-68.54 251.78c8.75,-74.79 10.9,-146.16 10.13,-213.22l55.09 0c-4.09,63.96 -0.77,135.66 13.64,213.22l-78.86 0zm476.64 -174.22c-35.03,-10.94 -70.09,-16.35 -105.73,-16.35 -80.4,0 -123.05,32.37 -123.05,84.18 6.24,36.68 39.92,49.05 120.34,51.48 35.62,0 72.03,2.65 107.09,-8.28l1.35 55.01c-34.26,8.95 -70.67,13.59 -112.53,13.59 -112.74,0 -184.79,-43.19 -184.79,-111.8 0,-69.38 72.05,-111.91 188.88,-111.91 37.77,0 74.76,4.3 108.44,13.25l0 30.83zm169.02 -77.56l-61.72 0 3.31 -44.41 55.1 0 3.31 44.41zm-68.54 251.78c8.76,-74.79 10.91,-146.16 10.13,-213.22l55.1 0c-4.09,63.96 -0.78,135.66 13.64,213.22l-78.87 0zm496.51 0l-61.72 0 0 -30.38c-28.24,23.31 -68.74,35.79 -129.87,35.79 -76.14,0 -125.6,-26.51 -125.6,-67.39 0,-47.95 56.86,-72.47 168.83,-72.47l86.64 0 0 -3.54c0,-32.37 -34.46,-51.81 -106.51,-54.57 -42.65,0 -83.73,5.85 -121.5,17.56l0 -28.5c45.17,-9.72 87.83,-14.8 127.73,-14.8 109.23,0 162,31.59 162,96.66l0 121.64zm-96.18 -108.71l-55.5 0c-89.95,0 -113.32,10.94 -114.1,37.01 6.83,21.76 39.15,23.75 83.93,23.75 61.72,0 85.67,-7.4 85.67,-53.03l0 -7.73zm424.66 -67.83c-13.82,-4.64 -26.86,-4.64 -46.72,-4.64 -69.32,0 -98.33,28.83 -98.33,74.79l13.82 106.39 -96.78 0c28.04,-88.05 31.55,-120.09 26.11,-211.23l56.85 0 0 21.76c12.46,-5.41 57.05,-24.86 116.81,-24.86 8.18,0 15.2,0.33 27.46,1.88l0.78 35.91z"/>
 <path class="fil4" d="M47546.69 -19105.83c-50.81,-14.03 -96.18,-20.66 -138.83,-20.66 -73.4,0 -115.26,16.69 -115.26,46.74 0,24.96 22,36.23 96.19,44.08l40.5 4.64c100.85,10.93 147.59,37.78 147.59,84.18 0,54.91 -65.81,83.74 -191.59,83.74 -47.32,0 -101.06,-5.85 -158.69,-17.89l0 -60.77c54.9,17.57 107.86,26.52 158.69,26.52 77.68,0 120.9,-21.43 120.9,-38.23 0,-15.24 -28.22,-33.14 -96.76,-40.87l-41.27 -4.75c-101.06,-11.27 -143.52,-34.25 -143.52,-77.56 0,-50.27 65.81,-81.09 175.82,-81.09 46.74,0 95.42,4.75 146.23,14.47l0 37.45zm475.87 121.97l-280.19 0c1.36,56.9 50.83,66.62 132.61,68.94 47.3,0 92.08,0.44 136.09,-12.82l1.36 48.28c-44.79,10.94 -91.51,16.35 -139.6,16.35 -119.36,-2.32 -194.91,-42.42 -194.91,-109.81 4.67,-69.82 71.27,-113.9 184.79,-113.9 100.26,2.43 151.67,28.83 159.85,89.7l0 13.26zm-53.54 -30.82c-6.82,-23.76 -45.37,-53.81 -106.31,-53.81 -68.74,0 -113.52,28.51 -113.52,54.25l219.83 -0.44zm421.15 -31.6c-35.06,-9.72 -72.83,-15.13 -112.74,-15.13 -61.72,0 -95.4,12.81 -95.4,33.91 0,19.11 19.86,28.06 85.86,36.24l21.22 2.65c87.24,10.61 120.92,26.52 120.92,61.21 0,39.77 -58.42,64.29 -155.18,64.29 -39.92,0 -83.15,-4.19 -131.83,-13.25l0 -51.38c45.96,13.59 89.95,20.22 133.19,20.22 58.4,0 83.73,-10.16 83.73,-28.39 -7.4,-7.85 -13.64,-13.26 -19.09,-16.79 -4.86,-3.54 -26.88,-7.41 -65.42,-12.49l-21.22 -2.76c-76.33,-8.95 -108.46,-22.98 -108.46,-56.12 0,-40.11 52.19,-62.75 144.08,-62.75 46.16,0 86.66,3.97 120.34,11.37l0 29.17zm188.86 -74.02l-61.72 0 3.31 -44.41 55.1 0 3.31 44.41zm-68.54 251.78c8.76,-74.79 10.91,-146.16 10.13,-213.22l55.1 0c-4.09,63.96 -0.78,135.66 13.64,213.22l-78.87 0zm381.25 -310.22l-57.05 0 105.14 -79.55 73.41 0 -121.5 79.55zm-29.6 91.92c107.09,0 172.32,41.76 172.32,111.91 0,69.71 -65.23,111.8 -172.32,111.8 -107.87,0 -172.33,-42.09 -172.33,-111.8 0,-70.15 64.46,-111.91 172.33,-111.91zm0 25.74c-66.02,0 -107.1,30.38 -107.1,79.87 0,49.94 40.5,57.78 107.1,57.78 66.01,0 107.09,-8.28 107.09,-57.78 0,-48.72 -41.08,-79.87 -107.09,-79.87zm610.6 192.56l-87.81 0 13.04 -129.37c0,-40.55 -21.41,-60.43 -76.33,-60.43 -75.53,0 -111.17,25.74 -111.17,67.39l10.31 122.41 -85.87 0 10.14 -215.1 61.91 0 0 25.63c29.59,-13.15 69.32,-28.83 121.5,-28.83 85.87,0 129.88,30.82 134.74,89.7l9.54 128.6z"/>
</symbol>
<symbol id="Fm0-150-0" viewBox="47337.57 -19651.87 2023.05 301.6">
 <path class="fil4" d="M47337.57 -19355.68c10.13,-94.68 10.13,-189.47 13.64,-284.15l57.63 0c2.13,94.68 0.78,189.47 9.73,284.15l-81 0zm519.88 0l-87.81 0 13.05 -129.37c0,-40.55 -21.42,-60.43 -76.33,-60.43 -75.54,0 -111.18,25.74 -111.18,67.39l10.31 122.41 -85.86 0 10.13 -215.1 61.91 0 0 25.63c29.6,-13.15 69.32,-28.83 121.51,-28.83 85.86,0 129.87,30.82 134.73,89.7l9.54 128.6zm169.6 -251.78l-61.72 0 3.31 -44.41 55.09 0 3.32 44.41zm-68.54 251.78c8.75,-74.79 10.9,-146.16 10.13,-213.22l55.09 0c-4.09,63.96 -0.77,135.66 13.64,213.22l-78.86 0zm476.64 -174.22c-35.03,-10.94 -70.09,-16.35 -105.73,-16.35 -80.4,0 -123.05,32.37 -123.05,84.18 6.24,36.68 39.92,49.05 120.34,51.48 35.62,0 72.03,2.65 107.09,-8.28l1.35 55.01c-34.26,8.95 -70.67,13.59 -112.53,13.59 -112.74,0 -184.79,-43.19 -184.79,-111.8 0,-69.38 72.05,-111.91 188.88,-111.91 37.77,0 74.76,4.3 108.44,13.25l0 30.83zm169.02 -77.56l-61.72 0 3.31 -44.41 55.1 0 3.31 44.41zm-68.54 251.78c8.76,-74.79 10.91,-146.16 10.13,-213.22l55.1 0c-4.09,63.96 -0.78,135.66 13.64,213.22l-78.87 0zm496.51 0l-61.72 0 0 -30.38c-28.24,23.31 -68.74,35.79 -129.87,35.79 -76.14,0 -125.6,-26.51 -125.6,-67.39 0,-47.95 56.86,-72.47 168.83,-72.47l86.64 0 0 -3.54c0,-32.37 -34.46,-51.81 -106.51,-54.57 -42.65,0 -83.73,5.85 -121.5,17.56l0 -28.5c45.17,-9.72 87.83,-14.8 127.73,-14.8 109.23,0 162,31.59 162,96.66l0 121.64zm-96.18 -108.71l-55.5 0c-89.95,0 -113.32,10.94 -114.1,37.01 6.83,21.76 39.15,23.75 83.93,23.75 61.72,0 85.67,-7.4 85.67,-53.03l0 -7.73zm424.66 -67.83c-13.82,-4.64 -26.86,-4.64 -46.72,-4.64 -69.32,0 -98.33,28.83 -98.33,74.79l13.82 106.39 -96.78 0c28.04,-88.05 31.55,-120.09 26.11,-211.23l56.85 0 0 21.76c12.46,-5.41 57.05,-24.86 116.81,-24.86 8.18,0 15.2,0.33 27.46,1.88l0.78 35.91z"/>
</symbol>
<symbol id="Fm1-151-0" viewBox="47224.64 -19258.29 2248.1 395.18">
 <path class="fil4" d="M47546.69 -19105.83c-50.81,-14.03 -96.18,-20.66 -138.83,-20.66 -73.4,0 -115.26,16.69 -115.26,46.74 0,24.96 22,36.23 96.19,44.08l40.5 4.64c100.85,10.93 147.59,37.78 147.59,84.18 0,54.91 -65.81,83.74 -191.59,83.74 -47.32,0 -101.06,-5.85 -158.69,-17.89l0 -60.77c54.9,17.57 107.86,26.52 158.69,26.52 77.68,0 120.9,-21.43 120.9,-38.23 0,-15.24 -28.22,-33.14 -96.76,-40.87l-41.27 -4.75c-101.06,-11.27 -143.52,-34.25 -143.52,-77.56 0,-50.27 65.81,-81.09 175.82,-81.09 46.74,0 95.42,4.75 146.23,14.47l0 37.45zm475.87 121.97l-280.19 0c1.36,56.9 50.83,66.62 132.61,68.94 47.3,0 92.08,0.44 136.09,-12.82l1.36 48.28c-44.79,10.94 -91.51,16.35 -139.6,16.35 -119.36,-2.32 -194.91,-42.42 -194.91,-109.81 4.67,-69.82 71.27,-113.9 184.79,-113.9 100.26,2.43 151.67,28.83 159.85,89.7l0 13.26zm-53.54 -30.82c-6.82,-23.76 -45.37,-53.81 -106.31,-53.81 -68.74,0 -113.52,28.51 -113.52,54.25l219.83 -0.44zm421.15 -31.6c-35.06,-9.72 -72.83,-15.13 -112.74,-15.13 -61.72,0 -95.4,12.81 -95.4,33.91 0,19.11 19.86,28.06 85.86,36.24l21.22 2.65c87.24,10.61 120.92,26.52 120.92,61.21 0,39.77 -58.42,64.29 -155.18,64.29 -39.92,0 -83.15,-4.19 -131.83,-13.25l0 -51.38c45.96,13.59 89.95,20.22 133.19,20.22 58.4,0 83.73,-10.16 83.73,-28.39 -7.4,-7.85 -13.64,-13.26 -19.09,-16.79 -4.86,-3.54 -26.88,-7.41 -65.42,-12.49l-21.22 -2.76c-76.33,-8.95 -108.46,-22.98 -108.46,-56.12 0,-40.11 52.19,-62.75 144.08,-62.75 46.16,0 86.66,3.97 120.34,11.37l0 29.17zm188.86 -74.02l-61.72 0 3.31 -44.41 55.1 0 3.31 44.41zm-68.54 251.78c8.76,-74.79 10.91,-146.16 10.13,-213.22l55.1 0c-4.09,63.96 -0.78,135.66 13.64,213.22l-78.87 0zm381.25 -310.22l-57.05 0 105.14 -79.55 73.41 0 -121.5 79.55zm-29.6 91.92c107.09,0 172.32,41.76 172.32,111.91 0,69.71 -65.23,111.8 -172.32,111.8 -107.87,0 -172.33,-42.09 -172.33,-111.8 0,-70.15 64.46,-111.91 172.33,-111.91zm0 25.74c-66.02,0 -107.1,30.38 -107.1,79.87 0,49.94 40.5,57.78 107.1,57.78 66.01,0 107.09,-8.28 107.09,-57.78 0,-48.72 -41.08,-79.87 -107.09,-79.87zm610.6 192.56l-87.81 0 13.04 -129.37c0,-40.55 -21.41,-60.43 -76.33,-60.43 -75.53,0 -111.17,25.74 -111.17,67.39l10.31 122.41 -85.87 0 10.14 -215.1 61.91 0 0 25.63c29.59,-13.15 69.32,-28.83 121.5,-28.83 85.87,0 129.88,30.82 134.74,89.7l9.54 128.6z"/>
</symbol>
<symbol id="Fm2-121-0" viewBox="8106.42 -15324.64 1344.89 2360.11">
 <path class="fil5" d="M8106.42 -15324.64l250.12 0 -23.92 1191.31c-6.83,495.26 142.14,698.76 448.3,698.76 304.1,0 453.76,-203.5 443.51,-698.76l-23.92 -1191.31 250.8 0 0 1445.24c0,604.21 -228.94,914.87 -670.39,914.87 -445.57,0 -674.5,-310.66 -674.5,-914.87l0 -1445.24z"/>
</symbol>
<symbol id="Fm15-118-0" viewBox="24221.09 -8792.92 2202.31 1644.68">
 <path class="fil1" d="M24361.86 -8502.65c-73.61,-17.19 -108.56,-67.16 -108.56,-135.26 0,-85.29 68.17,-146.64 195.06,-146.64 126.65,0 194.8,61.35 194.8,146.64 0,68.1 -34.95,118.07 -108.3,135.26 83.02,18.13 140.77,73.91 140.77,150.14 0,115.51 -86.49,179.42 -227.27,179.42 -140.78,0 -227.27,-63.91 -227.27,-179.42 0,-76.23 57.5,-132.01 140.77,-150.14zm-31.48 -151.52c0,61.35 43.63,98.3 117.98,98.3 73.36,0 117.97,-36.95 117.97,-98.3 0,-51.83 -44.61,-91.11 -117.97,-91.11 -74.35,0 -117.98,39.28 -117.98,91.11zm117.98 177.79c-82.28,0 -132.1,43.46 -132.1,115.74 0,39.97 49.82,87.61 132.1,87.61 82.03,0 131.85,-48.34 131.85,-87.61 0,-72.28 -49.82,-115.74 -131.85,-115.74zm926.68 96.68l-229.75 3.25 3.47 -65.54 229.75 -3.95 -3.47 66.24zm514.03 60.66c42.87,19.75 88.48,30.44 131.35,30.44 113.52,0 172.99,-23.7 181.67,-169.66 -33.21,45.79 -85.5,71.35 -146.73,71.35 -127.64,0 -207.19,-77.16 -207.19,-202.66 0,-122.94 83.77,-203.35 212.4,-203.35 147.72,0 227.27,108.3 227.27,310.03 0,188.48 -103.1,309.8 -263.95,309.8 -42.88,0 -86.74,-8.14 -134.82,-23.71l0 -122.24zm164.57 -188.49c94.42,0 152.91,-8.13 152.91,-95.05 0,-86.22 -58.49,-139.44 -152.91,-139.44 -94.43,0 -153.92,53.22 -153.92,139.44 0,86.92 59.49,95.05 153.92,95.05z"/>
 <path class="fil1" d="M24338.07 -7159.63l-116.98 0 251.81 -597.75 81.29 0 250.81 597.75 -123.17 0 -24.54 -97.61 -286.76 0 -32.46 97.61zm57.75 -192.67l235.19 0 -117.96 -331.18 -117.23 331.18zm718.74 -498.51c-13.14,-10.69 -21.82,-15.57 -29.75,-15.57 -10.4,0 -18.34,4.88 -23.54,14.87 -5.21,9.77 -7.94,25.34 -8.68,47.42l-53.28 0c1.73,-72.05 31.47,-113.19 83.02,-113.19 21.81,0 38.42,6.74 59.48,24.64l24.3 22.08c12.39,10.69 22.05,15.57 28.99,15.57 11.4,0 19.08,-4.88 24.54,-14.64 5.2,-9.76 7.68,-25.34 7.68,-47.65l54.28 0c-1.74,72.28 -32.23,113.19 -84.02,113.19 -21.81,0 -38.42,-6.51 -59.23,-24.64l-23.79 -22.08zm248.33 691.18l-111.78 0 16.6 -272.15c0,-85.29 -27.25,-127.13 -97.15,-127.13 -96.15,0 -141.52,54.16 -141.52,141.77l13.14 257.51 -109.3 0 12.9 -452.5 78.8 0 0 53.92c37.68,-27.65 88.24,-60.66 154.65,-60.66 109.31,0 165.32,64.85 171.51,188.72l12.15 270.52zm347.97 -459.24c136.32,0 219.34,87.85 219.34,235.43 0,146.65 -83.02,235.2 -219.34,235.2 -137.3,0 -219.34,-88.55 -219.34,-235.2 0,-147.58 82.04,-235.43 219.34,-235.43zm0 54.15c-84.01,0 -136.31,63.92 -136.31,168.03 0,105.05 51.55,121.55 136.31,121.55 84.02,0 136.32,-17.43 136.32,-121.55 0,-102.49 -52.3,-168.03 -136.32,-168.03zm687.26 31.15c-44.61,-20.45 -92.69,-31.84 -143.5,-31.84 -78.56,0 -121.44,26.96 -121.44,71.35 0,40.2 25.28,59.03 109.3,76.23l27.01 5.57c111.03,22.31 153.91,55.78 153.91,128.76 0,83.66 -74.35,135.26 -197.53,135.26 -50.8,0 -105.83,-8.83 -167.79,-27.89l0 -108.07c58.5,28.59 114.5,42.53 169.53,42.53 74.35,0 106.57,-21.38 106.57,-59.73 -9.42,-16.5 -17.35,-27.89 -24.29,-35.32 -6.19,-7.44 -34.21,-15.58 -83.27,-26.27l-27.01 -5.81c-97.16,-18.82 -138.06,-48.34 -138.06,-118.06 0,-84.36 66.43,-132.01 183.41,-132.01 58.74,0 110.29,8.37 153.16,23.94l0 61.36z"/>
</symbol>
<symbol id="Fm0-146-0" viewBox="24221.09 -8792.92 2066.75 619.83">
 <path class="fil1" d="M24361.86 -8502.65c-73.61,-17.19 -108.56,-67.16 -108.56,-135.26 0,-85.29 68.17,-146.64 195.06,-146.64 126.65,0 194.8,61.35 194.8,146.64 0,68.1 -34.95,118.07 -108.3,135.26 83.02,18.13 140.77,73.91 140.77,150.14 0,115.51 -86.49,179.42 -227.27,179.42 -140.78,0 -227.27,-63.91 -227.27,-179.42 0,-76.23 57.5,-132.01 140.77,-150.14zm-31.48 -151.52c0,61.35 43.63,98.3 117.98,98.3 73.36,0 117.97,-36.95 117.97,-98.3 0,-51.83 -44.61,-91.11 -117.97,-91.11 -74.35,0 -117.98,39.28 -117.98,91.11zm117.98 177.79c-82.28,0 -132.1,43.46 -132.1,115.74 0,39.97 49.82,87.61 132.1,87.61 82.03,0 131.85,-48.34 131.85,-87.61 0,-72.28 -49.82,-115.74 -131.85,-115.74zm926.68 96.68l-229.75 3.25 3.47 -65.54 229.75 -3.95 -3.47 66.24zm514.03 60.66c42.87,19.75 88.48,30.44 131.35,30.44 113.52,0 172.99,-23.7 181.67,-169.66 -33.21,45.79 -85.5,71.35 -146.73,71.35 -127.64,0 -207.19,-77.16 -207.19,-202.66 0,-122.94 83.77,-203.35 212.4,-203.35 147.72,0 227.27,108.3 227.27,310.03 0,188.48 -103.1,309.8 -263.95,309.8 -42.88,0 -86.74,-8.14 -134.82,-23.71l0 -122.24zm164.57 -188.49c94.42,0 152.91,-8.13 152.91,-95.05 0,-86.22 -58.49,-139.44 -152.91,-139.44 -94.43,0 -153.92,53.22 -153.92,139.44 0,86.92 59.49,95.05 153.92,95.05z"/>
</symbol>
<symbol id="Fm16-119-0" viewBox="24241.09 -9784.36 2428.44 417.69">
 <path class="fil2" d="M26669.53 -9575.52c0,114.63 -536.39,207.61 -1200.79,208.85l-26.86 0c-664.15,-1.24 -1200.37,-94.16 -1200.79,-208.72l0 -0.26c0.42,-115.28 543.88,-208.71 1214.22,-208.71 670.59,0 1214.22,93.49 1214.22,208.84z"/>
</symbol>
<symbol id="Fm14-117-0" viewBox="36300.56 -9827.18 2039.19 348.15">
 <path class="fil2" d="M38339.75 -9652.71c-1.3,95.73 -454.87,173.27 -1015.18,173.68l-8.78 0c-560.8,-0.41 -1014.8,-78.1 -1015.23,-173.95l0 -0.28c0.43,-96.06 456.79,-173.92 1019.62,-173.92 562.34,0 1018.27,77.71 1019.57,173.65l0 0.82z"/>
</symbol>
<symbol id="Fm1-147-0" viewBox="24221.09 -7917.28 2202.31 769.04">
 <path class="fil1" d="M24338.07 -7159.63l-116.98 0 251.81 -597.75 81.29 0 250.81 597.75 -123.17 0 -24.54 -97.61 -286.76 0 -32.46 97.61zm57.75 -192.67l235.19 0 -117.96 -331.18 -117.23 331.18zm718.74 -498.51c-13.14,-10.69 -21.82,-15.57 -29.75,-15.57 -10.4,0 -18.34,4.88 -23.54,14.87 -5.21,9.77 -7.94,25.34 -8.68,47.42l-53.28 0c1.73,-72.05 31.47,-113.19 83.02,-113.19 21.81,0 38.42,6.74 59.48,24.64l24.3 22.08c12.39,10.69 22.05,15.57 28.99,15.57 11.4,0 19.08,-4.88 24.54,-14.64 5.2,-9.76 7.68,-25.34 7.68,-47.65l54.28 0c-1.74,72.28 -32.23,113.19 -84.02,113.19 -21.81,0 -38.42,-6.51 -59.23,-24.64l-23.79 -22.08zm248.33 691.18l-111.78 0 16.6 -272.15c0,-85.29 -27.25,-127.13 -97.15,-127.13 -96.15,0 -141.52,54.16 -141.52,141.77l13.14 257.51 -109.3 0 12.9 -452.5 78.8 0 0 53.92c37.68,-27.65 88.24,-60.66 154.65,-60.66 109.31,0 165.32,64.85 171.51,188.72l12.15 270.52zm347.97 -459.24c136.32,0 219.34,87.85 219.34,235.43 0,146.65 -83.02,235.2 -219.34,235.2 -137.3,0 -219.34,-88.55 -219.34,-235.2 0,-147.58 82.04,-235.43 219.34,-235.43zm0 54.15c-84.01,0 -136.31,63.92 -136.31,168.03 0,105.05 51.55,121.55 136.31,121.55 84.02,0 136.32,-17.43 136.32,-121.55 0,-102.49 -52.3,-168.03 -136.32,-168.03zm687.26 31.15c-44.61,-20.45 -92.69,-31.84 -143.5,-31.84 -78.56,0 -121.44,26.96 -121.44,71.35 0,40.2 25.28,59.03 109.3,76.23l27.01 5.57c111.03,22.31 153.91,55.78 153.91,128.76 0,83.66 -74.35,135.26 -197.53,135.26 -50.8,0 -105.83,-8.83 -167.79,-27.89l0 -108.07c58.5,28.59 114.5,42.53 169.53,42.53 74.35,0 106.57,-21.38 106.57,-59.73 -9.42,-16.5 -17.35,-27.89 -24.29,-35.32 -6.19,-7.44 -34.21,-15.58 -83.27,-26.27l-27.01 -5.81c-97.16,-18.82 -138.06,-48.34 -138.06,-118.06 0,-84.36 66.43,-132.01 183.41,-132.01 58.74,0 110.29,8.37 153.16,23.94l0 61.36z"/>
</symbol>
<symbol id="Fm4-123-0" viewBox="11472.62 -15372.15 1461.41 2335.23">
 <path class="fil6" d="M12204.24 -15372.15c443.77,0 729.79,457.06 729.79,1168.05 0,710.12 -286.02,1167.18 -729.79,1167.18 -443.77,0 -731.62,-453.56 -731.62,-1167.18 0,-710.99 287.85,-1168.05 731.62,-1168.05zm0 247.79c-309.96,0 -506.98,352 -506.98,920.26 0,466.7 197.02,590.16 506.98,590.16 309.35,0 504.53,-123.46 504.53,-590.16 0,-568.26 -195.18,-920.26 -504.53,-920.26z"/>
</symbol>
<symbol id="Fm0-155-0" viewBox="9929.05 -15419.74 1368.81 2357.42">
 <path class="fil7" d="M10762.77 -14168.62c101.14,45.83 195.44,197.98 294.54,462.87l240.55 643.43 -337.6 0 -178.35 -604.94c-115.49,-316.21 -202.29,-391.37 -390.22,-391.37l-178.36 0 0 996.31 -284.28 0 0 -2357.42 537.13 0c354.68,0 561.74,223.64 561.74,679.18 0,297.88 -101.14,497.7 -265.15,571.94zm-571.3 -1082.47l0 866.16 299.32 0c180.41,0 368.34,-164.99 368.34,-355.63 0,-404.21 -187.93,-510.53 -368.34,-510.53l-299.32 0z"/>
</symbol>
<symbol id="Fm3-122-0" viewBox="9929.05 -15419.74 1368.81 2357.42">
 <path class="fil7" d="M10762.77 -14168.62c101.14,45.83 195.44,197.98 294.54,462.87l240.55 643.43 -337.6 0 -178.35 -604.94c-115.49,-316.21 -202.29,-391.37 -390.22,-391.37l-178.36 0 0 996.31 -284.28 0 0 -2357.42 537.13 0c354.68,0 561.74,223.64 561.74,679.18 0,297.88 -101.14,497.7 -265.15,571.94zm-571.3 -1082.47l0 866.16 299.32 0c180.41,0 368.34,-164.99 368.34,-355.63 0,-404.21 -187.93,-510.53 -368.34,-510.53l-299.32 0z"/>
</symbol>
<symbol id="Fm5-124-0" viewBox="13255.99 -15400.73 1419.38 2390.57">
 <polygon class="fil8" points="13564.2,-13010.16 13255.99,-13010.16 13303.83,-15400.73 13540.28,-15400.73 13518.41,-14390.41 14307.03,-15400.73 14613.18,-15400.73 13740.51,-14285.38 14675.37,-13010.16 14113.63,-13010.16 13518.41,-14160.83 "/>
</symbol>
<symbol id="Fm0-159-0" viewBox="13255.99 -15400.73 1419.38 2390.57">
 <polygon class="fil8" points="13564.2,-13010.16 13255.99,-13010.16 13303.83,-15400.73 13540.28,-15400.73 13518.41,-14390.41 14307.03,-15400.73 14613.18,-15400.73 13740.51,-14285.38 14675.37,-13010.16 14113.63,-13010.16 13518.41,-14160.83 "/>
</symbol>
<symbol id="Fm6-125-0" viewBox="15092.5 -15357.77 383.66 2390.57">
 <path class="fil9" d="M15092.5 -12967.2c47.95,-796.55 47.95,-1594.03 64.55,-2390.57l272.99 0c10.15,796.54 3.69,1594.02 46.12,2390.57l-383.66 0z"/>
</symbol>
<symbol id="Fm0-157-0" viewBox="11472.62 -15372.15 1461.41 2335.23">
 <path class="fil6" d="M12204.24 -15372.15c443.77,0 729.79,457.06 729.79,1168.05 0,710.12 -286.02,1167.18 -729.79,1167.18 -443.77,0 -731.62,-453.56 -731.62,-1167.18 0,-710.99 287.85,-1168.05 731.62,-1168.05zm0 247.79c-309.96,0 -506.98,352 -506.98,920.26 0,466.7 197.02,590.16 506.98,590.16 309.35,0 504.53,-123.46 504.53,-590.16 0,-568.26 -195.18,-920.26 -504.53,-920.26z"/>
</symbol>
<symbol id="Fm0-153-0" viewBox="8106.42 -15324.64 1344.89 2360.11">
 <path class="fil5" d="M8106.42 -15324.64l250.12 0 -23.92 1191.31c-6.83,495.26 142.14,698.76 448.3,698.76 304.1,0 453.76,-203.5 443.51,-698.76l-23.92 -1191.31 250.8 0 0 1445.24c0,604.21 -228.94,914.87 -670.39,914.87 -445.57,0 -674.5,-310.66 -674.5,-914.87l0 -1445.24z"/>
</symbol>
<symbol id="Fm0-161-0" viewBox="15092.5 -15357.77 383.66 2390.57">
 <path class="fil9" d="M15092.5 -12967.2c47.95,-796.55 47.95,-1594.03 64.55,-2390.57l272.99 0c10.15,796.54 3.69,1594.02 46.12,2390.57l-383.66 0z"/>
</symbol>
<symbol id="Fm7-126-0" viewBox="15801.31 -15359.39 1282.14 2390.57">
 <path class="fil10" d="M15801.31 -12968.82l0 -2390.57 424.62 0c591.84,0 857.52,373.64 857.52,1193.42 0,823.51 -269.83,1197.15 -857.52,1197.15l-424.62 0zm217.05 -2124.75l0 1521.53 249.08 0c420.46,0 573.46,-137.56 604.89,-626.46 0,-596.71 -184.43,-895.07 -604.89,-895.07l-249.08 0z"/>
</symbol>
<symbol id="Fm9-128-0" viewBox="30370.2 -14181.09 2202.32 1636.31">
 <path class="fil1" d="M30697.85 -14118.81l-327.65 0 0 -59.96 405.47 0 0 34.4 -159.11 563.35 -153.91 0 235.2 -537.79zm777.23 342.57l-229.75 3.25 3.47 -65.54 229.76 -3.95 -3.48 66.24zm613.91 -122.95c-73.62,-17.19 -108.56,-67.16 -108.56,-135.26 0,-85.29 68.16,-146.64 195.06,-146.64 126.64,0 194.8,61.35 194.8,146.64 0,68.1 -34.95,118.07 -108.31,135.26 83.02,18.13 140.78,73.91 140.78,150.14 0,115.51 -86.5,179.42 -227.27,179.42 -140.78,0 -227.28,-63.91 -227.28,-179.42 0,-76.23 57.5,-132.01 140.78,-150.14zm-31.48 -151.52c0,61.35 43.63,98.3 117.98,98.3 73.35,0 117.96,-36.95 117.96,-98.3 0,-51.83 -44.61,-91.11 -117.96,-91.11 -74.35,0 -117.98,39.28 -117.98,91.11zm117.98 177.79c-82.29,0 -132.1,43.46 -132.1,115.74 0,39.97 49.81,87.61 132.1,87.61 82.02,0 131.85,-48.34 131.85,-87.61 0,-72.28 -49.83,-115.74 -131.85,-115.74z"/>
 <path class="fil1" d="M30487.19 -12556.17l-116.99 0 251.82 -597.75 81.29 0 250.81 597.75 -123.17 0 -24.54 -97.61 -286.76 0 -32.46 97.61zm57.75 -192.67l235.19 0 -117.96 -331.18 -117.23 331.18zm718.73 -498.51c-13.13,-10.69 -21.82,-15.57 -29.74,-15.57 -10.41,0 -18.34,4.88 -23.54,14.87 -5.21,9.77 -7.94,25.34 -8.69,47.42l-53.27 0c1.72,-72.05 31.47,-113.19 83.02,-113.19 21.8,0 38.42,6.74 59.48,24.64l24.29 22.08c12.4,10.69 22.06,15.57 29,15.57 11.4,0 19.08,-4.88 24.54,-14.64 5.2,-9.76 7.68,-25.34 7.68,-47.65l54.28 0c-1.74,72.28 -32.23,113.19 -84.03,113.19 -21.8,0 -38.41,-6.51 -59.22,-24.64l-23.8 -22.08zm248.34 691.18l-111.78 0 16.6 -272.15c0,-85.29 -27.26,-127.13 -97.15,-127.13 -96.16,0 -141.52,54.16 -141.52,141.77l13.14 257.51 -109.3 0 12.89 -452.5 78.81 0 0 53.92c37.68,-27.65 88.24,-60.66 154.65,-60.66 109.31,0 165.32,64.85 171.51,188.72l12.15 270.52zm347.97 -459.24c136.32,0 219.34,87.85 219.34,235.43 0,146.65 -83.02,235.2 -219.34,235.2 -137.3,0 -219.34,-88.55 -219.34,-235.2 0,-147.58 82.04,-235.43 219.34,-235.43zm0 54.15c-84.01,0 -136.31,63.92 -136.31,168.03 0,105.05 51.55,121.55 136.31,121.55 84.02,0 136.32,-17.43 136.32,-121.55 0,-102.49 -52.3,-168.03 -136.32,-168.03zm687.26 31.15c-44.61,-20.45 -92.7,-31.84 -143.5,-31.84 -78.56,0 -121.44,26.96 -121.44,71.35 0,40.2 25.28,59.03 109.29,76.23l27.02 5.57c111.03,22.31 153.91,55.78 153.91,128.76 0,83.66 -74.35,135.26 -197.53,135.26 -50.8,0 -105.83,-8.83 -167.79,-27.89l0 -108.07c58.49,28.59 114.5,42.53 169.53,42.53 74.35,0 106.56,-21.38 106.56,-59.73 -9.41,-16.5 -17.35,-27.89 -24.28,-35.32 -6.19,-7.44 -34.21,-15.58 -83.27,-26.27l-27.02 -5.81c-97.16,-18.82 -138.05,-48.34 -138.05,-118.06 0,-84.36 66.42,-132.01 183.41,-132.01 58.74,0 110.29,8.37 153.16,23.94l0 61.36z"/>
</symbol>
<symbol id="Fm0-165-0" viewBox="17532.84 -15249.3 1421.03 2277.32">
 <path class="fil11" d="M18832.11 -14847.97c-205.02,-108.44 -388.05,-159.68 -560.08,-159.68 -296.15,0 -465.04,128.94 -465.04,361.2 0,192.98 88.77,280.07 388.05,340.7l163.4 35.86c406.9,84.54 595.43,292.03 595.43,650.66 0,424.39 -265.51,647.25 -772.97,647.25 -190.88,0 -407.69,-45.26 -640.21,-138.33l0 -469.64c221.53,135.77 435.19,204.94 640.21,204.94 313.43,0 487.82,-165.66 487.82,-295.45 0,-117.84 -113.9,-256.17 -390.41,-315.94l-166.53 -36.71c-407.7,-87.1 -578.94,-264.71 -578.94,-599.43 0,-388.52 265.51,-626.76 709.33,-626.76 188.54,0 384.92,36.72 589.94,111.86l0 289.47z"/>
</symbol>
<symbol id="Fm0-163-0" viewBox="15801.31 -15359.39 1282.14 2390.57">
 <path class="fil10" d="M15801.31 -12968.82l0 -2390.57 424.62 0c591.84,0 857.52,373.64 857.52,1193.42 0,823.51 -269.83,1197.15 -857.52,1197.15l-424.62 0zm217.05 -2124.75l0 1521.53 249.08 0c420.46,0 573.46,-137.56 604.89,-626.46 0,-596.71 -184.43,-895.07 -604.89,-895.07l-249.08 0z"/>
</symbol>
<symbol id="Fm0-167-0" viewBox="30370.2 -14181.09 2032.56 611.46">
 <path class="fil1" d="M30697.85 -14118.81l-327.65 0 0 -59.96 405.47 0 0 34.4 -159.11 563.35 -153.91 0 235.2 -537.79zm777.23 342.57l-229.75 3.25 3.47 -65.54 229.76 -3.95 -3.48 66.24zm613.91 -122.95c-73.62,-17.19 -108.56,-67.16 -108.56,-135.26 0,-85.29 68.16,-146.64 195.06,-146.64 126.64,0 194.8,61.35 194.8,146.64 0,68.1 -34.95,118.07 -108.31,135.26 83.02,18.13 140.78,73.91 140.78,150.14 0,115.51 -86.5,179.42 -227.27,179.42 -140.78,0 -227.28,-63.91 -227.28,-179.42 0,-76.23 57.5,-132.01 140.78,-150.14zm-31.48 -151.52c0,61.35 43.63,98.3 117.98,98.3 73.35,0 117.96,-36.95 117.96,-98.3 0,-51.83 -44.61,-91.11 -117.96,-91.11 -74.35,0 -117.98,39.28 -117.98,91.11zm117.98 177.79c-82.29,0 -132.1,43.46 -132.1,115.74 0,39.97 49.81,87.61 132.1,87.61 82.02,0 131.85,-48.34 131.85,-87.61 0,-72.28 -49.83,-115.74 -131.85,-115.74z"/>
</symbol>
<symbol id="Fm8-127-0" viewBox="17532.84 -15249.3 1421.03 2277.32">
 <path class="fil11" d="M18832.11 -14847.97c-205.02,-108.44 -388.05,-159.68 -560.08,-159.68 -296.15,0 -465.04,128.94 -465.04,361.2 0,192.98 88.77,280.07 388.05,340.7l163.4 35.86c406.9,84.54 595.43,292.03 595.43,650.66 0,424.39 -265.51,647.25 -772.97,647.25 -190.88,0 -407.69,-45.26 -640.21,-138.33l0 -469.64c221.53,135.77 435.19,204.94 640.21,204.94 313.43,0 487.82,-165.66 487.82,-295.45 0,-117.84 -113.9,-256.17 -390.41,-315.94l-166.53 -36.71c-407.7,-87.1 -578.94,-264.71 -578.94,-599.43 0,-388.52 265.51,-626.76 709.33,-626.76 188.54,0 384.92,36.72 589.94,111.86l0 289.47z"/>
</symbol>
<symbol id="Fm1-168-0" viewBox="30370.2 -13313.82 2202.32 769.04">
 <path class="fil1" d="M30487.19 -12556.17l-116.99 0 251.82 -597.75 81.29 0 250.81 597.75 -123.17 0 -24.54 -97.61 -286.76 0 -32.46 97.61zm57.75 -192.67l235.19 0 -117.96 -331.18 -117.23 331.18zm718.73 -498.51c-13.13,-10.69 -21.82,-15.57 -29.74,-15.57 -10.41,0 -18.34,4.88 -23.54,14.87 -5.21,9.77 -7.94,25.34 -8.69,47.42l-53.27 0c1.72,-72.05 31.47,-113.19 83.02,-113.19 21.8,0 38.42,6.74 59.48,24.64l24.29 22.08c12.4,10.69 22.06,15.57 29,15.57 11.4,0 19.08,-4.88 24.54,-14.64 5.2,-9.76 7.68,-25.34 7.68,-47.65l54.28 0c-1.74,72.28 -32.23,113.19 -84.03,113.19 -21.8,0 -38.41,-6.51 -59.22,-24.64l-23.8 -22.08zm248.34 691.18l-111.78 0 16.6 -272.15c0,-85.29 -27.26,-127.13 -97.15,-127.13 -96.16,0 -141.52,54.16 -141.52,141.77l13.14 257.51 -109.3 0 12.89 -452.5 78.81 0 0 53.92c37.68,-27.65 88.24,-60.66 154.65,-60.66 109.31,0 165.32,64.85 171.51,188.72l12.15 270.52zm347.97 -459.24c136.32,0 219.34,87.85 219.34,235.43 0,146.65 -83.02,235.2 -219.34,235.2 -137.3,0 -219.34,-88.55 -219.34,-235.2 0,-147.58 82.04,-235.43 219.34,-235.43zm0 54.15c-84.01,0 -136.31,63.92 -136.31,168.03 0,105.05 51.55,121.55 136.31,121.55 84.02,0 136.32,-17.43 136.32,-121.55 0,-102.49 -52.3,-168.03 -136.32,-168.03zm687.26 31.15c-44.61,-20.45 -92.7,-31.84 -143.5,-31.84 -78.56,0 -121.44,26.96 -121.44,71.35 0,40.2 25.28,59.03 109.29,76.23l27.02 5.57c111.03,22.31 153.91,55.78 153.91,128.76 0,83.66 -74.35,135.26 -197.53,135.26 -50.8,0 -105.83,-8.83 -167.79,-27.89l0 -108.07c58.49,28.59 114.5,42.53 169.53,42.53 74.35,0 106.56,-21.38 106.56,-59.73 -9.41,-16.5 -17.35,-27.89 -24.28,-35.32 -6.19,-7.44 -34.21,-15.58 -83.27,-26.27l-27.02 -5.81c-97.16,-18.82 -138.05,-48.34 -138.05,-118.06 0,-84.36 66.42,-132.01 183.41,-132.01 58.74,0 110.29,8.37 153.16,23.94l0 61.36z"/>
</symbol>
 <g id="Capa_x0020_1">
  <metadata id="CorelCorpID_0Corel-Layer"/>
  <g id="_2271195140736">
   <path class="fil2" d="M3175.1 3469.31c0,108.54 -346.47,196.59 -775.17,197.5l-13.46 0c-427.63,-0.91 -773.46,-88.54 -775.13,-196.72l0 -1.56c1.67,-108.75 351.13,-196.74 781.86,-196.74 431.8,0 781.9,88.4 781.9,197.52z"/>
   <path class="fil12" d="M2163 2877.6c0.46,-0.5 0.74,-1.03 1.13,-1.52 -0.43,0 -0.92,-0.07 -1.38,-0.18 0.11,0.6 0.14,1.17 0.25,1.7z"/>
   <path class="fil12" d="M4126.77 1801.52c-166.3,-105.98 -346.53,-191.81 -535.87,-262.89 -82.87,-31.05 -130.32,-16.02 -184.86,45.12 -3.21,3.7 -6.42,7.55 -9.66,11.25 -194.13,221.09 -374.86,450.39 -565.96,673.35 -5.26,6.1 -7.16,18.31 -20.25,13.97 -9.99,-3.35 -5.82,-13.09 -5.19,-20.07 5.72,-67.81 10.37,-135.75 18.13,-203.45 24.42,-213.33 49.32,-426.65 63.5,-640.79 0.68,-12.06 2.44,-24.16 1.8,-36.19 -1.97,-38.14 -15.52,-51.05 -59.37,-57.72 -11.78,-1.76 -23.67,-3.21 -35.56,-4.05 -70.41,-5.08 -140.93,-9.28 -211.28,-15.03 -149.19,-12.24 -297.25,-3.64 -445.24,13.86 -31.08,3.67 -45.01,19.19 -46.28,42.27 -7.06,123.79 -28.58,246.34 -37.26,369.92 -4.93,69.74 -6.84,139.66 -9.2,209.55 -0.57,17.39 -5.97,34.57 -24.98,38.13 -14.36,2.76 -17.04,-16.01 -23.11,-25.89 -73.87,-119.91 -147.03,-240.14 -220.84,-360.05 -21.97,-35.7 -49.38,-68.01 -87.52,-92.74 -11.89,-7.73 -22.12,-10.69 -37.68,-3.78 -205.98,91.3 -405.9,190.22 -580.56,323.04 -18.14,13.8 -14.33,22.09 -5.4,36.27 87.35,138.71 174.55,277.49 261.16,416.59 191.17,306.96 390.03,609.96 618.31,898.11 27.66,34.89 46.57,73.44 50.17,116.38 4.09,49 -1.76,98.46 10.55,147.14 7.58,30.09 21.31,41.98 57.04,42.33 29.39,0.32 58.85,0.92 88.16,-0.24 17.96,-0.78 30.52,3.95 42.12,15.7 32.21,32.66 65.73,64.34 98.43,96.66 37.29,36.86 57.36,39.44 105.62,11.81 39.72,-22.82 78.46,-46.81 118.74,-68.93 48.83,-26.74 98.61,-31.71 149.23,-1.66 22.58,13.37 40.25,11.29 59.12,-10.47 175.34,-203.06 351.79,-405.42 528.68,-607.49 248.74,-284.09 490.22,-572.91 752.44,-848.18 52.84,-55.46 108.76,-109.15 144.71,-175.15 26.42,-48.48 27.44,-55.25 -21.84,-86.68zm-2119.42 986.72c-0.56,13.93 -1.73,27.87 -3.46,41.7 -0.91,7.51 5.33,17.6 -8.82,21.13 -12.98,3.17 -17.14,-5.72 -22.11,-12.56 -24.38,-33.94 -48.51,-68.05 -72.68,-102.1 -9.91,-13.26 -19.89,-26.52 -29.63,-39.86 -27.16,-37.25 -27.2,-37.29 11.18,-65.76 5.65,-4.2 12.14,-7.58 18.21,-11.29 25.36,-19.72 55.88,-31.18 87.41,-41.52 19.02,-6.28 26.71,-5.22 27.42,14.99 2.15,65.3 -5.12,130.18 -7.52,195.27zm-67.24 -659.77c-10.05,-16.47 -19.08,-33.26 -33.9,-47.16 -19.83,-10.83 -37.99,-3.53 -54.79,5.08 -93.76,48.19 -187.36,96.73 -280.7,145.52 -22.58,11.74 -25.75,28.15 -12.07,47.62 48.12,68.23 96.03,136.7 143.83,205.21 15.38,22.02 35.49,27.24 63.32,17.08 44,-16.16 83.93,-38.6 126.37,-56.98 30.87,-15.2 61.88,-30.16 92.46,-45.75 13.58,-6.88 20.43,-4.41 27.1,8.04 23.56,44.03 10.44,90.52 -36.23,118.36 -24.88,14.82 -51.16,27.9 -76.73,41.8 -35.56,19.41 -70.49,39.65 -106.82,57.93 -17.08,8.61 -18.07,15.94 -9,30.34 38.31,61.49 89.92,115.6 130.39,175.72 27.97,34.29 56.02,68.51 83.71,102.9 2.96,3.71 5.86,8.79 5.36,12.91 -6.14,55.6 4.34,112.15 -12.94,167.04 -1.63,5.08 -4.63,9.81 -7.94,16.62 -23.96,-15.45 -40.39,-33.87 -56.52,-52.39 -105.87,-121.14 -190.6,-253.47 -278.41,-384.42 -173.21,-258.52 -346.36,-517 -502.04,-783.73 -30.9,-53.02 -31.5,-52.81 22.4,-92.85 24.31,-24.45 56.77,-39.9 87.67,-56.98 102.09,-56.41 203.91,-113.34 310.06,-163.93 104.49,-49.85 119.66,-44.88 177.09,43.07 60.89,93.24 120.54,186.97 171.03,284.84 34,52.91 68.61,105.51 101.91,158.78 25.86,41.49 17.5,85.02 7.27,131.37 -37.22,-23.42 -61.88,-53.23 -81.88,-86.04zm76.34 183.45c-38.41,20.03 -67.02,52.24 -110.95,65.37 -11.53,11.96 -27.55,18.73 -44.3,21.41 -34.01,5.4 -64.63,11.43 -88.55,37.92 -17.39,19.16 -43.43,5.75 -55.11,-9.87 -36.44,-48.48 -69.35,-98.89 -103.64,-148.52 -6.32,-9.18 0.42,-13.44 8.47,-17.47 81.24,-41.31 161.78,-83.71 244.22,-123.26 28.44,-13.68 27.56,16.97 40.43,27.03 36.3,43.74 72.71,87.45 108.94,131.3 4.2,5.04 10.86,10.72 0.49,16.09zm70.63 1114.56c-35.31,-2.18 -44.38,-22.22 -46,-47.97 -6.18,-99.77 -6.32,-199.68 -3.5,-299.37 5.12,-176.14 12.07,-352.32 20.01,-528.36 12.2,-272.06 25.47,-544.02 39.16,-815.97 5.78,-115.61 24.27,-230.15 41.73,-344.7 1.27,-8.43 -6.32,-25.19 16.65,-24.17 204.15,-33.65 408.38,-29.21 612.7,-0.84 61.71,8.57 76.06,25.5 69.96,79.83 -23.78,211.35 -46.88,422.8 -70.13,634.26 -4.62,41.7 -8.86,83.47 -13.27,125.2 -6.56,55.53 -13.33,111.09 -19.54,166.69 -4.23,37.78 -29.32,67.59 -50.24,98.99 -3.74,5.57 -7.79,7.97 -15.66,5.89 -8.47,-2.22 -11.75,-6.85 -13.83,-13.72 -5.82,-19.34 -4.09,-39.09 -2.57,-58.42 2.08,-26.57 -1.17,-51.83 -14.75,-75.92 -7.13,-12.03 -19.61,-12.35 -33.27,-12.28 -104.45,0.25 -208.95,-0.28 -313.44,0.25 -55.6,0.32 -73.84,15.41 -77.58,63.32 -5.92,75.32 -11.39,150.64 -16.36,225.96 -2.97,43.88 8.11,54.82 58.7,59.69 22.65,2.22 45.44,3.59 68.12,5.32 46.57,2.33 93.13,4.66 139.73,6.85 21.28,0.98 26.22,8.04 20.57,26.84 -10.48,35.25 -33.02,55.14 -76.27,57.4 -49.78,2.61 -98.99,11.57 -149.22,8.96 -17.68,2.19 -35.63,3.6 -53.03,6.95 -12.66,2.47 -22.75,9.42 -26.91,20.96 1.34,76.41 0.88,152.89 10.47,229.09 2.79,22.08 -4.09,41.66 -19.29,60.43 -24.84,30.55 -46,63.32 -70.91,93.84 -12.17,14.99 -8.54,23.32 5.33,35.06 59.97,51.05 131.72,88.41 200.94,128.7 25.89,15.06 51.15,30.94 78.39,47.41 -27.27,21.2 -57.72,27.24 -88.52,31.54 -69.21,9.45 -138.71,6.53 -208.17,2.29zm510.68 -1031.63c13.94,61.18 6.95,121.96 -7.94,181.97 -6.7,26.53 -32.98,43.5 -63.29,45.93 -47.97,3.88 -96.27,4.02 -144.35,-0.14 -8.29,0.28 -17.04,-0.64 -26.28,-2.61 -28.54,1.69 -55.92,-5.61 -84,-7.8 -14.36,-1.02 -20.32,-6.7 -20.64,-19.37 -1.73,-65.15 -2.86,-130.1 13.87,-194.41 4.65,-17.85 14.6,-23.74 34.71,-25.83 94.33,-9.84 188.67,3.07 282.89,-1.44 23.11,-1.06 14.04,13.93 15.03,23.7zm-220.8 435.61c-38.74,55.81 -73.28,114.2 -134.59,164.26 -7.09,-45.93 -14.04,-86.22 -19.33,-126.65 -3.7,-28.57 10.16,-44.77 42.83,-49.18 31.01,-4.23 62.47,-6.38 93.73,-8.57 16.93,-1.2 26.71,6.81 17.36,20.14zm98 668.34c-24.55,12.03 -46.32,27.17 -68.72,41.88 -46.43,30.48 -74.54,26.91 -109.68,-12.42 -41.7,-46.81 -41.38,-45.9 24.69,-58.31 63.71,-12 127.29,-21.67 196.61,-14.86 -11.22,19.41 -23.57,34.22 -42.9,43.71zm1620.06 -1612.37c-15.28,26.78 -31.47,53.17 -53.8,76.27 -235.9,244.3 -450.64,502.36 -674.3,754.66 -213.85,241.16 -413.95,491.18 -638.95,725.07 -38.21,39.69 -59.65,44.34 -110.95,17.32 -111.97,-58.98 -223.34,-118.71 -335.38,-177.69 -40.04,-21.21 -73.98,-48.62 -109.33,-74.79 -23.32,-17.32 -25.01,-31.68 -5.33,-52.85 114.23,-122.27 216.08,-252.31 320.01,-381 210.36,-260.38 417.9,-522.39 628.9,-782.35 104.28,-128.56 213.74,-253.93 320.71,-380.83 19.22,-22.79 41.62,-40.74 81.91,-40.99 37.43,4.66 77.47,16.65 115.11,33.27 123.51,54.61 244.55,112.99 364.53,173.07 32.98,16.54 59.44,40.64 87.73,62.37 17.64,13.58 19.3,30.41 9.14,48.47z"/>
   <path class="fil13" d="M4085.88 1837.95c-28.3,-21.73 -54.79,-45.79 -87.74,-62.37 -119.98,-60.04 -241.02,-118.46 -364.49,-173.04 -37.68,-16.65 -77.68,-28.64 -115.15,-33.26 -40.28,0.24 -62.69,18.17 -81.88,40.92 -106.99,126.96 -216.46,252.34 -320.74,380.86 -211,259.96 -418.54,522 -628.9,782.35 -103.93,128.7 -205.77,258.73 -319.97,381.04 -19.75,21.13 -18.03,35.49 5.33,52.77 35.31,26.22 69.21,53.66 109.32,74.83 112.01,58.95 223.38,118.74 335.36,177.73 51.29,26.99 72.74,22.33 110.91,-17.36 225,-233.85 425.17,-483.87 638.98,-725.03 223.67,-252.34 438.4,-510.4 674.3,-754.69 22.34,-23.11 38.53,-49.46 53.8,-76.28 10.2,-18.06 8.5,-34.89 -9.13,-48.47zm-1607.15 1465.48c-29.18,0 -50.63,-29.88 -37.29,-52 19.89,-32.7 63.11,-45.44 91.61,-26.74 4.17,2.68 9.39,5.99 10.69,9.77 6.88,21.1 -38.66,68.9 -65.01,68.97zm485.95 -326.6c-6.85,10.54 -15.21,20.39 -23.78,29.98 -38.88,43.68 -76.48,87.98 -110.03,134.9 -28.33,39.51 -76.41,51.16 -123.68,28.26 -66.08,-32.03 -131.03,-66 -191.18,-105.94 -41.38,-27.48 -46.56,-49 -17.74,-86.18 48.05,-61.91 98.5,-122.56 148.27,-183.55 8.79,-10.73 19.16,-20.71 36.87,-19.12 12.98,-0.81 23.7,4.2 33.41,9.98 78.59,46.5 157.02,93.17 235.19,140.16 22.19,13.44 25.47,31.68 12.67,51.51zm282.64 -358.6c-5.18,41.24 -24.2,77.04 -51.78,109.85 -30.48,36.27 -62.34,71.65 -93.77,107.25 -17.96,20.39 -41.24,32.59 -71.76,33.05 -18.1,0.11 -33.83,-5.64 -48.65,-14.04 -80.36,-45.82 -160.93,-91.44 -241.19,-137.58 -30.3,-17.39 -32.88,-29.78 -11.68,-55.28 54.9,-65.87 109.96,-131.62 165.74,-196.96 24.94,-29.21 44.1,-31.78 80.4,-12.56 84.91,44.88 169.54,90.17 254.6,134.87 14.6,7.69 20.1,15.59 18.09,31.4zm285.72 -303.64c-50.03,63.15 -100.79,125.8 -152.05,188.17 -21.8,26.53 -48.96,31.65 -84.6,19.44 -97.75,-33.55 -180.16,-88.86 -266.17,-138.85 -29.98,-17.43 -35.98,-39.76 -17.25,-65.87 52.32,-72.88 110.42,-142.55 169.23,-211.66 7.9,-9.32 19.05,-15.28 33.2,-14.18 15.31,-0.92 27.55,5.22 39.9,11.18 88.16,41.91 174.02,87.21 258.93,133.84 38.03,20.89 44.17,45.93 18.81,77.93zm351.36 -429.54c-1.55,14.36 -11.35,32.07 -24.65,47.94 -61.35,73.41 -123.65,146.23 -184.68,219.78 -19.94,24.06 -40.57,28.12 -71.72,13.9 -86.08,-39.12 -174.13,-75 -263.14,-109.29 -60.4,-23.32 -73.87,-66.74 -37.32,-113.66 61.45,-78.92 123.19,-157.7 185.27,-236.22 22.9,-29 30.24,-30.34 66.68,-14.19 85.69,37.89 171.27,75.89 256.75,114.23 21.13,9.42 41.17,20.71 57.4,36.27 10.62,10.16 16.37,21.69 15.41,41.24z"/>
   <path class="fil2" d="M2136.3 1923.92c0.28,138.75 -1.02,277.82 5.82,416.49 6.63,134.24 2.5,268.43 4.94,402.63 0.74,43.21 7.72,85.72 15.7,132.86 0.46,0.14 0.91,0.14 1.37,0.14 20.53,-26.81 -2.08,-55.28 14.75,-77.9 4.13,-11.53 14.18,-18.52 26.88,-20.99 17.39,-3.35 35.35,-4.72 53.02,-6.95 17.25,-28.71 40.57,-53.83 63.82,-78.91 6.67,-7.13 16.58,-13.27 1.38,-21.13 -22.69,-1.73 -45.48,-3.11 -68.12,-5.33 -50.59,-4.83 -61.67,-15.81 -58.74,-59.66 5.01,-75.35 10.48,-150.67 16.37,-225.95 3.77,-47.91 22.01,-63.04 77.61,-63.36 104.49,-0.49 208.98,0 313.41,-0.25 13.68,-0.03 26.17,0.25 33.3,12.28 14.64,-0.46 18.55,-11.96 25.36,-19.47 31.01,-34.22 60.89,-69.29 91.23,-104.04 4.41,-41.73 8.64,-83.5 13.23,-125.2 23.28,-211.42 46.39,-422.87 70.17,-634.29 6.1,-54.29 -8.29,-71.23 -69.96,-79.8 -204.33,-28.36 -408.55,-32.81 -612.7,0.88 -36.73,185.1 -19.23,371.94 -18.84,557.95zm116.7 -201.75c3.67,-73.45 10.55,-146.75 17.99,-219.96 3.39,-33.37 16.26,-41.45 55.46,-40 113.87,4.2 227.75,9.31 341.63,12.7 18.41,0.6 25.26,6.21 26.91,20.11 3.21,26.88 6.74,53.8 5.01,80.92 -5.92,51.86 -11.36,103.79 -18.06,155.62 -5.5,42.58 -15.06,52.63 -64.06,56.05 -90.88,6.35 -181.93,11.43 -273.09,14.18 -59.76,1.8 -94.44,-28.29 -91.79,-79.62zm-40.08 190.54c4.98,-30.27 31.82,-32.35 58.78,-31.79 55.42,1.13 110.87,2.44 166.19,5.61 68.3,3.88 136.52,8.96 204.65,15.1 35.17,3.1 43.21,13.16 38.02,42.79 -11.78,67.21 -23.88,134.41 -36.68,201.54 -5.9,30.73 -31.65,43.96 -88.34,47.1 -58.6,3.14 -117.16,6.03 -175.79,9.03l0 2.58c-30.41,0 -60.82,0.49 -91.26,-0.15 -52.53,-1.05 -88.48,-27.37 -90.42,-71.57 -3.14,-73.63 2.93,-147.18 14.85,-220.24z"/>
   <path class="fil14" d="M1912.88 1932.62c0.11,-2.79 0,-5.54 -0.07,-8.25 -50.52,-97.86 -110.17,-191.63 -171.06,-284.84 -57.43,-87.94 -72.57,-92.88 -177.06,-43.11 -106.19,50.59 -207.96,107.57 -310.06,163.97 -30.9,17.08 -63.32,32.5 -87.73,56.98 66.53,112.22 128.66,226.52 200.62,336.09 89.57,136.28 178.23,273.19 282.89,402.06 85.69,105.45 173.43,209.97 249.59,320.99 3.71,5.4 6.71,11.96 13.34,12.77l0 -57.99c-40.46,-60.12 -92.08,-114.23 -130.42,-175.69 -9.03,-14.43 -8.01,-21.76 9.06,-30.37 36.31,-18.27 71.23,-38.52 106.79,-57.93 0.6,-35.27 1.2,-70.55 1.73,-105.76 0.1,-6.56 -0.14,-13.16 -8.36,-16.72 -42.41,18.41 -82.34,40.82 -126.33,56.97 -27.87,10.2 -47.91,4.98 -63.33,-17.07 -47.76,-68.48 -95.74,-136.92 -143.82,-205.21 -13.69,-19.44 -10.52,-35.85 12.06,-47.63 93.35,-48.75 186.9,-97.29 280.67,-145.48 16.79,-8.61 35,-15.91 54.86,-5.08 12.98,-49.22 4.51,-99.13 6.63,-148.7zm-89.22 64.35c-108.02,49.39 -214.94,100.72 -327.34,142.73 -44.45,16.65 -79.59,8.86 -103.86,-27.02 -42.93,-63.4 -81.42,-128.98 -121.56,-193.75 -9.35,-15.1 -5.37,-28.78 7.72,-40.95 94.93,-89.01 207.26,-155.09 343.33,-188.92 41.73,-10.4 58.84,-3.49 79.62,29.64 16.9,26.95 31.71,54.96 48.33,82.12 16.72,27.38 36.55,53.84 65.47,72.25 32.21,20.46 35.85,48.93 39.8,78.42 2.18,21.77 -11.57,36.31 -31.51,45.48z"/>
   <path class="fil15" d="M2383.76 3392.66c-27.2,-16.48 -52.49,-32.35 -78.39,-47.45 -69.21,-40.29 -140.97,-77.61 -200.94,-128.66 -13.87,-11.75 -17.5,-20.07 -5.29,-35.07 24.9,-30.51 46.03,-63.25 70.87,-93.84 15.21,-18.76 22.08,-38.34 19.3,-60.39 -9.6,-76.24 -9.14,-152.72 -10.48,-229.13 -3.81,20.39 -0.71,40.92 -1.76,61.38 -0.32,7.55 -0.22,16.05 -12.03,16.58 -0.36,0 -0.53,-0.03 -0.92,-0.03 -0.35,0.49 -0.67,1.06 -1.13,1.55 -0.11,-0.56 -0.14,-1.09 -0.25,-1.69 -7.76,-0.89 -9.45,-8.05 -11.25,-13.37 -9.28,-28.97 -9.81,-58.92 -13.76,-88.52 -0.99,-7.4 -0.53,-14.92 -0.39,-22.36 4.73,-232.13 -4.37,-464.22 -8.6,-696.17 -3,-167.82 -3.43,-335.53 -3.04,-503.21 0.11,-62.76 7.48,-125.62 29.46,-186.3 -23,-1.06 -15.38,15.7 -16.69,24.1 -17.46,114.58 -35.95,229.13 -41.73,344.73 -13.65,271.96 -26.92,543.91 -39.16,815.98 -7.9,176 -14.89,352.21 -20,528.35 -2.82,99.7 -2.68,199.6 3.49,299.37 1.62,25.75 10.69,45.82 46,47.98 69.5,4.27 138.96,7.19 208.18,-2.3 30.79,-4.27 61.27,-10.33 88.51,-31.53z"/>
   <path class="fil15" d="M2164.17 2876.04c0.32,0 0.53,0.04 0.81,0.04 11.85,-0.49 11.71,-9.03 12.1,-16.58 1.06,-20.46 -2.05,-40.99 1.8,-61.38 -16.83,22.64 5.78,51.15 -14.71,77.92z"/>
   <path class="fil15" d="M2128.75 2055.49c4.2,231.95 13.34,464.01 8.58,696.17 -0.15,7.41 -0.57,14.96 0.38,22.37 3.95,29.6 4.52,59.55 13.8,88.51 1.76,5.29 3.45,12.49 11.25,13.37 -7.97,-47.13 -14.96,-89.64 -15.7,-132.89 -2.43,-134.16 1.66,-268.36 -4.94,-402.59 -6.88,-138.68 -5.54,-277.74 -5.82,-416.49 -0.42,-186.02 -17.88,-372.85 18.84,-557.99 -21.94,60.68 -29.32,123.58 -29.46,186.34 -0.38,167.68 0.04,335.42 3.07,503.2z"/>
   <path class="fil16" d="M1918.26 2893.08c-7.06,3.32 -12.17,-1.31 -17.04,-4.73 -5.08,-3.63 -8.36,-8.5 -11.75,-13.37 -86.99,-121.49 -185.67,-236.32 -276.96,-355.42 -105.63,-137.8 -203.1,-279.82 -290.34,-426.9 -48.37,-81.38 -93.59,-164.07 -145.27,-243.94 -6.18,-9.6 -14.43,-19.12 -9.99,-31.33 -53.83,40.04 -53.3,39.83 -22.36,92.82 155.68,266.73 328.85,525.21 502.07,783.69 87.81,130.95 172.54,263.31 278.38,384.49 16.12,18.49 32.59,36.9 56.55,52.39 3.28,-6.84 6.31,-11.57 7.93,-16.65 17.29,-54.89 6.81,-111.44 12.99,-167.04 0.38,-4.09 -2.47,-9.21 -5.4,-12.88 -27.73,-34.39 -55.78,-68.65 -83.75,-102.9 9.45,15.56 6.88,32.77 9.59,49.25 0.71,4.55 0.82,9.87 -4.65,12.52z"/>
   <path class="fil16" d="M1900 2876.51c-76.17,-110.98 -163.9,-215.51 -249.59,-320.99 -104.67,-128.84 -193.32,-265.79 -282.89,-402.06 -71.97,-109.58 -134.1,-223.91 -200.59,-336.06 -4.48,12.21 3.77,21.73 9.98,31.33 51.68,79.83 96.87,162.59 145.24,243.94 87.24,147.08 184.71,289.1 290.37,426.86 91.26,119.1 189.93,233.93 276.93,355.46 3.42,4.84 6.7,9.74 11.75,13.37 4.9,3.46 9.98,8.05 17.07,4.73 5.47,-2.65 5.36,-7.97 4.62,-12.52 -2.71,-16.48 -0.14,-33.69 -9.56,-49.29l0 58c-6.63,-0.81 -9.63,-7.37 -13.33,-12.77z"/>
   <path class="fil17" d="M2582.75 2371.17c-94.27,4.48 -188.6,-8.44 -282.93,1.44 -20.11,2.05 -30.02,7.98 -34.68,25.83 -16.76,64.27 -15.59,129.25 -13.86,194.41 0.28,12.67 6.24,18.31 20.6,19.37 28.08,2.15 55.49,9.49 83.99,7.76 60.12,6.42 77.9,-39.83 110.32,-66.64 45.72,-37.78 77.61,-84.7 108.16,-132.15 6.14,-9.53 11.18,-20.46 23.42,-26.32 -1.02,-9.8 8.05,-24.8 -15.02,-23.7z"/>
   <path class="fil17" d="M2382.21 2622.62c-8.82,-0.77 -17.57,-1.59 -26.32,-2.64 9.25,2.01 18.03,2.92 26.32,2.64z"/>
   <path class="fil18" d="M1866.58 2137.52c-82.44,39.51 -162.95,81.92 -244.23,123.26 -8.01,4.02 -14.78,8.29 -8.47,17.43 34.33,49.67 67.21,100.08 103.62,148.55 11.71,15.6 37.78,29 55.13,9.88 23.92,-26.49 54.54,-32.56 88.62,-37.92 16.69,-2.68 32.7,-9.49 44.28,-21.45 0.45,-70.91 0.98,-141.82 1.51,-212.73 -12.91,-10.05 -11.99,-40.74 -40.46,-27.02z"/>
   <path class="fil19" d="M1987.47 2577.99c-31.61,10.34 -62.09,21.8 -87.45,41.52 8.18,38.95 9.38,77.9 0.24,116.92 24.2,34.04 48.3,68.12 72.71,102.09 4.94,6.88 9.14,15.73 22.12,12.56 14.11,-3.49 7.9,-13.65 8.82,-21.1 1.73,-13.86 2.89,-27.8 3.42,-41.77 2.43,-65.05 9.74,-129.93 7.51,-195.26 -0.67,-20.18 -8.39,-21.24 -27.37,-14.96z"/>
   <path class="fil20" d="M2433.92 2594.65c-13.19,18.94 -30.73,27.34 -51.72,27.98 48.05,4.12 96.38,3.98 144.32,0.14 30.31,-2.44 56.62,-19.44 63.29,-45.97 14.92,-59.97 21.87,-120.79 7.94,-181.93 -35.21,69.04 -85.94,129.01 -145.94,183.59 -5.93,5.43 -13.55,9.95 -17.89,16.19z"/>
   <path class="fil20" d="M2574.34 2421.21c-30.48,47.41 -62.44,94.37 -108.09,132.15 -32.46,26.77 -50.24,73.02 -110.32,66.64 8.75,1.02 17.47,1.83 26.29,2.64 20.92,-0.67 38.52,-9.03 51.71,-27.97 4.38,-6.28 11.89,-10.76 17.85,-16.19 60.05,-54.58 110.78,-114.55 145.95,-183.63 -12.17,5.9 -17.25,16.83 -23.39,26.36z"/>
   <path class="fil16" d="M2014.72 2083.17c-33.23,-53.3 -67.91,-105.9 -101.92,-158.82 15.56,43.75 9.99,88.62 9.28,133.18 -0.17,9.24 1.13,21.69 -15.87,23.77 14.81,13.9 23.88,30.69 33.9,47.17 20,32.81 44.66,62.65 81.84,86.04 10.27,-46.35 18.63,-89.89 -7.23,-131.34z"/>
   <path class="fil16" d="M1922.08 2057.56c0.67,-44.63 6.28,-89.46 -9.28,-133.21 0.07,2.72 0.18,5.51 0.07,8.26 -2.08,49.56 6.35,99.48 -6.63,148.69 16.97,-2.08 15.67,-14.53 15.84,-23.74z"/>
   <path class="fil21" d="M2359.61 2810.35c-31.33,2.15 -62.69,4.34 -93.74,8.57 -32.66,4.41 -46.56,20.6 -42.82,49.18 5.25,40.42 12.24,80.68 19.29,126.64 61.35,-50.09 95.89,-108.48 134.62,-164.25 9.35,-13.41 -0.45,-21.34 -17.35,-20.14z"/>
   <path class="fil16" d="M2321.26 3469.96c-66.04,12.42 -66.42,11.5 -24.69,58.32 35.14,39.33 63.25,42.89 109.71,12.38 22.33,-14.68 44.14,-29.85 68.69,-41.88 19.3,-9.45 31.64,-24.27 42.86,-43.67 -69.28,-6.81 -132.82,2.86 -196.57,14.85z"/>
   <path class="fil22" d="M2637.8 2327.91c13.58,24.1 16.83,49.32 14.75,75.92 -1.56,19.33 -3.25,39.09 2.57,58.45 2.08,6.85 5.36,11.47 13.83,13.69 7.87,2.08 11.92,-0.35 15.66,-5.89 20.92,-31.43 46.01,-61.24 50.2,-99.02 6.25,-55.57 13.02,-111.13 19.58,-166.66 -21.76,46.36 -62.54,81.5 -97.12,120.23 -4.65,5.29 -11.39,9.03 -19.47,3.28z"/>
   <path class="fil22" d="M2637.8 2327.91c8.08,5.75 14.82,2.01 19.47,-3.28 34.58,-38.73 75.36,-73.87 97.12,-120.23 -30.34,34.72 -60.18,69.78 -91.22,104 -6.85,7.52 -10.73,19.02 -25.37,19.51z"/>
   <path class="fil15" d="M2335.18 2686.41c-26.6,27.23 -43.96,60.61 -76.41,83.78 50.23,2.61 99.45,-6.35 149.19,-8.92 43.25,-2.26 65.79,-22.16 76.34,-57.43 5.61,-18.81 0.67,-25.86 -20.6,-26.85 -46.6,-2.15 -93.14,-4.52 -139.7,-6.81 8.78,3 21.41,5.79 11.18,16.23z"/>
   <path class="fil15" d="M2322.61 2691.28c-23.29,25.09 -46.57,50.2 -63.89,78.92 32.49,-23.21 49.85,-56.55 76.45,-83.78 10.23,-10.48 -2.4,-13.23 -11.19,-16.27 15.21,7.9 5.26,14.01 -1.37,21.13z"/>
   <path class="fil16" d="M1904.41 2451.52c6.56,38.84 14.18,77.82 -5.65,115.78 25.61,-13.93 51.86,-26.95 76.73,-41.8 46.67,-27.83 59.8,-74.37 36.23,-118.32 -6.63,-12.49 -13.51,-14.96 -27.09,-8.05 -30.59,15.56 -61.6,30.48 -92.46,45.69 6.17,-0.6 11.43,1.87 12.24,6.7z"/>
   <path class="fil16" d="M1900.52 2461.53c-0.57,35.24 -1.13,70.48 -1.77,105.76 19.83,-37.96 12.21,-76.97 5.65,-115.78 -0.85,-4.83 -6.07,-7.3 -12.24,-6.7 8.18,3.56 8.46,10.16 8.36,16.72z"/>
   <path class="fil23" d="M1916.74 2221.63c-0.39,39.69 0.18,79.41 -0.25,119.17 -0.14,12.8 1.06,26.17 -10.97,36.48 43.92,-13.09 72.46,-45.34 110.92,-65.34 10.37,-5.36 3.77,-11.04 -0.46,-16.12 -36.27,-43.85 -72.64,-87.56 -108.94,-131.3 9.21,18.27 9.91,37.57 9.7,57.11z"/>
   <path class="fil23" d="M1916.74 2221.63c0.21,-19.54 -0.49,-38.84 -9.7,-57.11 -0.53,70.94 -1.06,141.81 -1.52,212.76 12.03,-10.31 10.83,-23.68 10.97,-36.48 0.43,-39.76 -0.14,-79.48 0.25,-119.17z"/>
   <path class="fil24" d="M1900.03 2619.49c-6.06,3.74 -12.52,7.09 -18.2,11.29 -38.38,28.5 -38.35,28.54 -11.18,65.76 9.77,13.33 19.75,26.6 29.63,39.9 -4.94,-38.99 -6.67,-77.97 -0.25,-116.95z"/>
   <path class="fil24" d="M1900.03 2619.49c-6.42,38.98 -4.69,77.96 0.25,116.95 9.14,-39.06 7.9,-78 -0.25,-116.95z"/>
   <path class="fil25" d="M3811.55 1807.52c-85.41,-38.32 -171.03,-76.31 -256.69,-114.16 -36.44,-16.16 -43.81,-14.86 -66.71,14.14 -62.08,78.53 -123.82,157.31 -185.27,236.22 -36.52,46.89 -23.04,90.35 37.32,113.67 88.97,34.29 177.06,70.17 263.17,109.29 31.12,14.22 51.79,10.16 71.76,-13.94 60.96,-73.52 123.26,-146.36 184.6,-219.74 13.3,-15.91 23.11,-33.59 24.66,-47.98 0.99,-19.51 -4.76,-31.04 -15.45,-41.24 -16.23,-15.56 -36.19,-26.78 -57.39,-36.26zm1.55 101.45c-44.17,67.49 -97.33,129.86 -150.81,192.02 -7.91,9.24 -19.27,15.06 -39.66,14.32 -2.64,-0.6 -11.64,-1.37 -19.05,-4.72 -82.37,-37.33 -169.61,-66.61 -249.23,-108.8 -19.69,-10.48 -26.53,-18.38 -10.48,-37.82 53.87,-65.37 105.44,-132.15 157.05,-198.89 9.64,-12.35 18,-18.28 36.52,-13.09 98.14,27.16 188.13,66.46 267.23,124.03 14.74,10.76 17.14,19.55 8.43,32.95z"/>
   <path class="fil25" d="M3514.23 2236.65c-84.91,-46.6 -170.78,-91.9 -258.94,-133.84 -12.31,-5.93 -24.59,-12.07 -39.86,-11.15 -14.15,-1.16 -25.33,4.83 -33.23,14.15 -58.81,69.11 -116.91,138.78 -169.23,211.66 -18.77,26.11 -12.74,48.44 17.25,65.9 86.01,49.99 168.42,105.27 266.14,138.82 35.66,12.21 62.83,7.09 84.63,-19.47 51.26,-62.34 102.02,-124.99 152.04,-188.1 25.4,-32 19.23,-57.08 -18.8,-77.97zm-42.44 74.16c-25.43,60.57 -75.25,106.04 -125.55,151.34 -8.57,7.69 -19.37,7.3 -30.16,7.12 -20.29,-0.21 -38.32,-6.28 -54.93,-15.73 -62.48,-35.45 -124.6,-71.44 -187.71,-106.15 -15.03,-8.29 -14.5,-14.11 -5.33,-25.51 40.71,-50.66 80.89,-101.63 120.26,-153.03 10.76,-14.15 22.19,-17.29 40.64,-12.35 49.32,13.3 93.84,34.15 135.4,59.94 32.59,20.25 63.67,42.33 96.94,61.66 16.3,9.49 16.16,18.95 10.44,32.71z"/>
   <path class="fil25" d="M3229.25 2586.83c-85.05,-44.7 -169.72,-89.99 -254.63,-134.83 -36.3,-19.26 -55.46,-16.69 -80.4,12.56 -55.77,65.3 -110.84,131.09 -165.7,196.95 -21.24,25.47 -18.63,37.86 11.68,55.28 80.18,46.11 160.76,91.73 241.23,137.55 14.74,8.36 30.48,14.15 48.58,14.04 30.51,-0.46 53.76,-12.66 71.75,-33.05 31.43,-35.6 63.36,-70.98 93.77,-107.25 27.55,-32.81 46.6,-68.61 51.82,-109.85 2.01,-15.81 -3.53,-23.71 -18.1,-31.4zm-45.43 64.45c-11.08,30.87 -31.26,57.22 -55.53,81.35 -24.13,24.03 -48.75,47.59 -72.43,71.93 -6.95,7.17 -12.41,10.41 -24.34,7.8 -97.68,-21.7 -170.28,-75.78 -239.46,-134.51 -8.36,-7.2 -5.3,-12.99 0.03,-19.65 39.55,-48.97 78.99,-98.01 118.46,-147.11 4.31,-5.33 8.22,-11.5 18.49,-10.73 25.22,8.47 51.29,15.38 75.6,25.47 61.95,25.62 116.49,61.21 171.34,96.28 14.19,9.06 11.72,18.17 7.84,29.17z"/>
   <path class="fil25" d="M2951.99 2925.33c-78.14,-46.99 -156.6,-93.67 -235.16,-140.2 -9.7,-5.75 -20.43,-10.76 -33.41,-9.98 -17.71,-1.55 -28.08,8.43 -36.86,19.16 -49.82,60.99 -100.23,121.6 -148.28,183.51 -28.89,37.22 -23.63,58.74 17.75,86.18 60.15,39.94 125.06,73.91 191.2,105.98 47.17,22.89 95.33,11.25 123.58,-28.29 33.62,-46.89 71.23,-91.23 110.1,-134.87 8.58,-9.63 16.94,-19.47 23.71,-29.99 12.91,-19.82 9.6,-38.1 -12.63,-51.5zm-56.58 61.38c-35.7,45.61 -73.98,89.57 -114.76,132.01 -10.44,10.9 -19.93,14.25 -35.7,9.45 -79.38,-24.23 -144.36,-67.02 -205.74,-114.93 -9.42,-7.27 -8.08,-12.42 -1.13,-20.64 41.94,-49.7 83.43,-99.8 124.35,-150.18 8.15,-9.98 15.67,-13.33 29.49,-8.32 80.58,29.07 148.38,72.99 205.92,128.97 2.75,2.69 5.12,5.65 8.33,9.21 -3.85,5.19 -7.24,9.81 -10.76,14.43z"/>
   <path class="fil26" d="M2533.07 3224.67c-28.54,-18.7 -71.72,-5.93 -91.65,26.78 -13.34,22.08 8.15,51.96 37.32,51.96 26.35,-0.07 71.9,-47.87 64.98,-68.93 -1.27,-3.85 -6.52,-7.13 -10.65,-9.81z"/>
   <path class="fil12" d="M2288.5 2204.51c30.41,0.67 60.86,0.14 91.27,0.14l0 -2.57c58.59,-2.97 117.15,-5.86 175.75,-9 56.73,-3.17 82.44,-16.4 88.33,-47.1 12.85,-67.16 24.91,-134.33 36.69,-201.57 5.22,-29.6 -2.85,-39.69 -38.03,-42.76 -68.12,-6.14 -136.31,-11.22 -204.64,-15.13 -55.28,-3.18 -110.74,-4.48 -166.2,-5.61 -26.91,-0.57 -53.79,1.55 -58.77,31.82 -11.89,73.02 -17.96,146.61 -14.82,220.2 1.91,44.24 37.89,70.56 90.42,71.58zm-41.34 -237.53c3.17,-21.51 18.27,-34.07 43.71,-33.72 102.05,1.45 204.18,1.13 305.32,16.44 20.85,3.17 26,10.65 25.58,27.34 -1.02,46.21 -12.88,90.52 -31.18,133.49 -9.57,22.26 -31.37,32.95 -58.67,33.27 -43.43,0.63 -86.89,0.17 -130.35,0.17l0 1.73c-41.28,0 -82.66,-0.74 -123.93,0.43 -18.52,0.49 -27.56,-4.03 -30.45,-20.36 -9.24,-53.02 -7.94,-105.87 -0.03,-158.79z"/>
   <path class="fil27" d="M2344.83 1801.78c91.12,-2.72 182.21,-7.8 273.05,-14.15 49,-3.42 58.53,-13.47 64.06,-56.05 6.74,-51.83 12.1,-103.76 18.03,-155.61 1.76,-27.17 -1.76,-54.08 -4.97,-80.93 -1.66,-13.9 -8.51,-19.55 -26.92,-20.11 -113.91,-3.39 -227.79,-8.5 -341.67,-12.73 -39.19,-1.45 -52.03,6.66 -55.42,40 -7.44,73.2 -14.32,146.51 -18.02,219.99 -2.61,51.3 32.06,81.42 91.86,79.59zm-46.25 -131.83c0.71,-36.98 11.47,-89.22 19.83,-141.79 2.29,-14.42 10.37,-18.2 26.17,-17.25 89.82,5.44 179.64,10.76 269.52,15.24 16.34,0.74 21.45,6.18 24.52,19.55 12.6,54.61 1.41,107.49 -15.06,159.77 -4.59,14.71 -17.18,26.46 -36.55,28.33 -61.38,6.07 -122.87,11.64 -184.36,16.83 -12.91,1.13 -26.11,0.17 -39.09,-0.92 -66.18,-5.4 -66.99,-6.39 -64.98,-79.76z"/>
   <path class="fil27" d="M1815.39 1873.06c-28.93,-18.42 -48.76,-44.88 -65.48,-72.22 -16.61,-27.19 -31.43,-55.17 -48.36,-82.12 -20.75,-33.16 -37.89,-40.04 -79.59,-29.64 -136.07,33.84 -248.39,99.91 -343.36,188.88 -13.05,12.21 -17.04,25.9 -7.72,40.99 40.18,64.77 78.66,130.36 121.6,193.75 24.23,35.84 59.37,43.64 103.86,27.02 112.39,-42.05 219.32,-93.34 327.3,-142.73 19.97,-9.21 33.69,-23.74 31.54,-45.47 -3.95,-29.5 -7.58,-57.97 -39.79,-78.46zm-47.03 83.85c-78.28,47.56 -163.62,84.28 -249.59,119.59 -42.4,17.4 -79.73,8.22 -105.97,-24.72 -34.08,-42.87 -67.63,-86.51 -76.77,-139.6 -0.95,-21.8 9.63,-39.86 28.83,-51.29 70.44,-41.56 139.59,-85.62 223.94,-105.48 55.88,-13.2 62.44,-11.01 90.91,31.46 31.82,47.59 62.9,95.61 95.11,142.95 8.15,11.92 7.44,18.63 -6.46,27.09z"/>
   <path class="fil28" d="M3804.65 1876.04c-79.02,-57.58 -169.08,-96.91 -267.19,-124.08 -18.56,-5.18 -26.92,0.74 -36.51,13.09 -51.65,66.78 -103.23,133.53 -157.1,198.93 -16.01,19.44 -9.13,27.34 10.52,37.82 79.58,42.19 166.83,71.47 249.23,108.76 7.45,3.39 16.41,4.16 19.02,4.73 20.35,0.74 31.75,-5.05 39.69,-14.29 53.44,-62.16 106.61,-124.53 150.77,-192.02 8.72,-13.44 6.32,-22.22 -8.43,-32.94z"/>
   <path class="fil29" d="M3461.35 2278.1c-33.23,-19.34 -64.35,-41.42 -96.94,-61.67 -41.56,-25.75 -86.08,-46.6 -135.4,-59.94 -18.41,-4.94 -29.88,-1.8 -40.67,12.39 -39.34,51.36 -79.52,102.34 -120.23,153 -9.17,11.39 -9.7,17.21 5.33,25.5 63.11,34.71 125.23,70.7 187.71,106.19 16.61,9.45 34.64,15.48 54.93,15.7 10.79,0.17 21.59,0.56 30.16,-7.13 50.3,-45.3 100.12,-90.77 125.52,-151.34 5.75,-13.72 5.89,-23.21 -10.41,-32.7z"/>
   <path class="fil30" d="M3175.99 2622.11c-54.93,-35.07 -109.47,-70.66 -171.38,-96.28 -24.27,-10.09 -50.34,-17.03 -75.56,-25.47 -10.27,-0.77 -14.15,5.4 -18.45,10.73 -39.55,49.1 -78.99,98.11 -118.5,147.11 -5.36,6.7 -8.4,12.45 -0.04,19.61 69.18,58.77 141.75,112.82 239.47,134.52 11.92,2.64 17.39,-0.6 24.38,-7.77 23.63,-24.34 48.26,-47.9 72.35,-71.93 24.34,-24.13 44.49,-50.44 55.56,-81.31 3.92,-11.04 6.32,-20.15 -7.83,-29.21z"/>
   <path class="fil31" d="M2691.92 2834.1c-13.82,-5.01 -21.3,-1.66 -29.49,8.33 -40.92,50.37 -82.41,100.47 -124.35,150.18 -6.92,8.21 -8.33,13.37 1.16,20.63 61.35,47.91 126.33,90.7 205.71,114.9 15.77,4.84 25.29,1.45 35.73,-9.42 40.75,-42.44 79.03,-86.39 114.76,-132.01 3.53,-4.62 6.88,-9.27 10.73,-14.42 -3.21,-3.57 -5.58,-6.53 -8.33,-9.21 -57.54,-55.99 -125.34,-99.91 -205.92,-128.98z"/>
   <path class="fil32" d="M2277.65 2146.1c41.27,-1.17 82.66,-0.43 123.93,-0.43l0 -1.72c43.46,0 86.93,0.45 130.35,-0.15 27.27,-0.35 49.11,-10.97 58.6,-33.26 18.38,-43.01 30.23,-87.32 31.25,-133.53 0.39,-16.65 -4.76,-24.16 -25.61,-27.3 -101.1,-15.31 -203.23,-15.03 -305.29,-16.44 -25.47,-0.36 -40.54,12.2 -43.71,33.72 -7.94,52.92 -9.21,105.76 0.04,158.79 2.89,16.33 11.92,20.85 30.44,20.32z"/>
   <path class="fil33" d="M2363.57 1749.71c12.95,1.09 26.21,2.08 39.02,0.91 61.56,-5.18 123.05,-10.76 184.43,-16.79 19.37,-1.87 31.92,-13.65 36.55,-28.36 16.47,-52.28 27.62,-105.17 15.06,-159.81 -3.07,-13.34 -8.18,-18.73 -24.55,-19.51 -89.82,-4.48 -179.71,-9.81 -269.49,-15.24 -15.8,-0.99 -23.88,2.86 -26.18,17.25 -8.36,52.56 -19.12,104.81 -19.82,141.78 -2.01,73.38 -1.17,74.33 64.98,79.77z"/>
   <path class="fil34" d="M1679.72 1786.88c-28.5,-42.48 -35.03,-44.7 -90.91,-31.47 -84.42,19.86 -153.53,63.92 -223.98,105.48 -19.19,11.43 -29.77,29.49 -28.79,51.29 9.14,53.1 42.69,96.7 76.8,139.6 26.21,32.91 63.54,42.12 105.94,24.69 85.97,-35.31 171.31,-72 249.59,-119.55 13.87,-8.47 14.57,-15.14 6.46,-27.1 -32.21,-47.34 -63.29,-95.39 -95.11,-142.94z"/>
  </g>
 </g>
</svg>
