<?xml version="1.0" encoding="UTF-8"?>
<!DOCTYPE svg PUBLIC "-//W3C//DTD SVG 1.1//EN" "http://www.w3.org/Graphics/SVG/1.1/DTD/svg11.dtd">
<!-- Creator: CorelDRAW 2021 (64-Bit) -->
<svg xmlns="http://www.w3.org/2000/svg" xml:space="preserve" width="50.9mm" height="50.9mm" version="1.1" style="shape-rendering:geometricPrecision; text-rendering:geometricPrecision; image-rendering:optimizeQuality; fill-rule:evenodd; clip-rule:evenodd"
viewBox="0 0 5090 5090"
 xmlns:xlink="http://www.w3.org/1999/xlink"
 xmlns:xodm="http://www.corel.com/coreldraw/odm/2003">
 <defs>
  <style type="text/css">
   <![CDATA[
    .fil4 {fill:black;fill-rule:nonzero}
    .fil8 {fill:#00BFBA;fill-rule:nonzero}
    .fil0 {fill:#00D095;fill-rule:nonzero}
    .fil12 {fill:#020102;fill-rule:nonzero}
    .fil15 {fill:#0B7F82;fill-rule:nonzero}
    .fil13 {fill:#11BDC1;fill-rule:nonzero}
    .fil5 {fill:#5764B3;fill-rule:nonzero}
    .fil18 {fill:#91473A;fill-rule:nonzero}
    .fil20 {fill:#9E761D;fill-rule:nonzero}
    .fil16 {fill:#9F771D;fill-rule:nonzero}
    .fil6 {fill:#B2D722;fill-rule:nonzero}
    .fil11 {fill:#C400FA;fill-rule:nonzero}
    .fil1 {fill:#CFCFDB;fill-rule:nonzero}
    .fil17 {fill:#D86A56;fill-rule:nonzero}
    .fil19 {fill:#EBB02C;fill-rule:nonzero}
    .fil14 {fill:#ECB02C;fill-rule:nonzero}
    .fil2 {fill:#FF1183;fill-rule:nonzero}
    .fil7 {fill:#FF4646;fill-rule:nonzero}
    .fil10 {fill:#FF770C;fill-rule:nonzero}
    .fil9 {fill:#FFAF00;fill-rule:nonzero}
    .fil3 {fill:white;fill-rule:nonzero}
   ]]>
  </style>
 </defs>
<symbol id="Fm1-112-0" viewBox="6361.23 -15334.83 1314.16 2331.63">
 <polygon class="fil0" points="7675.39,-13003.2 6361.23,-13003.2 6361.23,-15334.83 7650.03,-15334.83 7650.03,-15069.21 6637.85,-15069.21 6637.85,-14378.43 7608.02,-14378.43 7608.02,-14112.81 6637.85,-14112.81 6637.85,-13486.39 7675.39,-13486.39 "/>
</symbol>
<symbol id="Fm0-135-0" viewBox="6361.23 -15334.83 1314.16 2331.63">
 <polygon class="fil0" points="7675.39,-13003.2 6361.23,-13003.2 6361.23,-15334.83 7650.03,-15334.83 7650.03,-15069.21 6637.85,-15069.21 6637.85,-14378.43 7608.02,-14378.43 7608.02,-14112.81 6637.85,-14112.81 6637.85,-13486.39 7675.39,-13486.39 "/>
</symbol>
<symbol id="Fm10-113-0" viewBox="30710.35 -15274.31 1563.76 395.02">
 <path class="fil1" d="M32274.11 -15076.79c0,108.54 -346.47,196.59 -775.17,197.5l-13.46 0c-427.63,-0.91 -773.46,-88.54 -775.13,-196.72l0 -1.56c1.67,-108.75 351.13,-196.74 781.86,-196.74 431.8,0 781.9,88.4 781.9,197.52z"/>
</symbol>
<symbol id="Fm0-111-0" viewBox="4457.91 -15371.28 1640.5 2396.26">
 <polygon class="fil2" points="4822.92,-12975.02 4457.91,-12975.02 4515.85,-15321.9 4875.06,-15321.9 5788.85,-13431.54 5832.72,-15371.28 6098.41,-15371.28 6098.41,-12975.02 5681.24,-12975.02 4737.67,-14979.98 "/>
</symbol>
<symbol id="Fm0-133-0" viewBox="4457.91 -15371.28 1640.5 2396.26">
 <polygon class="fil2" points="4822.92,-12975.02 4457.91,-12975.02 4515.85,-15321.9 4875.06,-15321.9 5788.85,-13431.54 5832.72,-15371.28 6098.41,-15371.28 6098.41,-12975.02 5681.24,-12975.02 4737.67,-14979.98 "/>
</symbol>
<symbol id="Fm11-114-0" viewBox="28697.24 -8565.92 2731.69 1644.68">
 <path class="fil3" d="M28738.13 -8092.04c42.87,19.75 88.48,30.44 131.35,30.44 113.52,0 173,-23.7 181.68,-169.66 -33.21,45.79 -85.51,71.35 -146.73,71.35 -127.64,0 -207.19,-77.16 -207.19,-202.66 0,-122.94 83.76,-203.35 212.39,-203.35 147.72,0 227.28,108.3 227.28,310.03 0,188.48 -103.1,309.8 -263.95,309.8 -42.88,0 -86.74,-8.14 -134.83,-23.71l0 -122.24zm164.57 -188.49c94.42,0 152.91,-8.13 152.91,-95.05 0,-86.22 -58.49,-139.44 -152.91,-139.44 -94.43,0 -153.91,53.22 -153.91,139.44 0,86.92 59.48,95.05 153.91,95.05zm933.61 127.83l-229.75 3.25 3.47 -65.54 229.76 -3.95 -3.48 66.24zm852.58 195.22l-367.3 0 0 -112.25 141.51 0 0 -411.6 -153.66 28.59 0 -73.67 152.93 -28.82 85.75 0 0 485.5 140.77 0 0 112.25zm353.17 -608.44c143.5,0 216.12,108.3 216.12,310.03 -5.45,201.73 -81.54,309.8 -224.79,309.8 -142.52,0 -215.88,-108.07 -215.88,-309.8 5.95,-201.73 82.04,-310.03 224.55,-310.03zm0 32.07c-88.24,0 -133.84,72.98 -133.84,219.63 0,151.76 36.93,219.85 125.17,219.85 89.21,0 131.1,-72.97 142.5,-219.85 0,-146.65 -44.61,-219.63 -133.83,-219.63zm-2.48 310.73c35.68,0 44.61,-40.21 44.61,-70.42 0,-57.41 -8.93,-92.73 -44.61,-92.73 -40.39,0 -45.61,46.02 -45.61,92.73 0,30.21 8.68,70.42 45.61,70.42z"/>
 <path class="fil3" d="M29343.6 -6932.63l-116.99 0 251.81 -597.75 81.29 0 250.81 597.75 -123.17 0 -24.54 -97.61 -286.75 0 -32.46 97.61zm57.74 -192.67l235.2 0 -117.97 -331.18 -117.23 331.18zm718.74 -498.51c-13.14,-10.69 -21.82,-15.57 -29.74,-15.57 -10.41,0 -18.34,4.88 -23.55,14.87 -5.2,9.77 -7.93,25.34 -8.68,47.42l-53.28 0c1.73,-72.05 31.47,-113.19 83.02,-113.19 21.81,0 38.43,6.74 59.49,24.64l24.29 22.08c12.39,10.69 22.05,15.57 29,15.57 11.4,0 19.07,-4.88 24.53,-14.64 5.21,-9.76 7.68,-25.34 7.68,-47.65l54.28 0c-1.74,72.28 -32.22,113.19 -84.02,113.19 -21.81,0 -38.41,-6.51 -59.23,-24.64l-23.79 -22.08zm248.34 691.18l-111.79 0 16.61 -272.15c0,-85.29 -27.26,-127.13 -97.15,-127.13 -96.16,0 -141.52,54.16 -141.52,141.77l13.13 257.51 -109.29 0 12.89 -452.5 78.81 0 0 53.92c37.67,-27.65 88.23,-60.66 154.65,-60.66 109.31,0 165.31,64.85 171.51,188.72l12.15 270.52zm347.96 -459.24c136.32,0 219.34,87.85 219.34,235.43 0,146.65 -83.02,235.2 -219.34,235.2 -137.3,0 -219.33,-88.55 -219.33,-235.2 0,-147.58 82.03,-235.43 219.33,-235.43zm0 54.15c-84.01,0 -136.3,63.92 -136.3,168.03 0,105.05 51.55,121.55 136.3,121.55 84.03,0 136.32,-17.43 136.32,-121.55 0,-102.49 -52.29,-168.03 -136.32,-168.03zm687.26 31.15c-44.61,-20.45 -92.69,-31.84 -143.49,-31.84 -78.57,0 -121.45,26.96 -121.45,71.35 0,40.2 25.29,59.03 109.3,76.23l27.01 5.57c111.04,22.31 153.92,55.78 153.92,128.76 0,83.66 -74.35,135.26 -197.53,135.26 -50.81,0 -105.83,-8.83 -167.79,-27.89l0 -108.07c58.49,28.59 114.5,42.53 169.52,42.53 74.35,0 106.57,-21.38 106.57,-59.73 -9.42,-16.5 -17.35,-27.89 -24.28,-35.32 -6.2,-7.44 -34.21,-15.58 -83.28,-26.27l-27.01 -5.81c-97.16,-18.82 -138.06,-48.34 -138.06,-118.06 0,-84.36 66.43,-132.01 183.42,-132.01 58.73,0 110.28,8.37 153.15,23.94l0 61.36z"/>
</symbol>
<symbol id="Fm1-139-0" viewBox="29226.61 -7690.28 2202.32 769.04">
 <path class="fil3" d="M29343.6 -6932.63l-116.99 0 251.81 -597.75 81.29 0 250.81 597.75 -123.17 0 -24.54 -97.61 -286.75 0 -32.46 97.61zm57.74 -192.67l235.2 0 -117.97 -331.18 -117.23 331.18zm718.74 -498.51c-13.14,-10.69 -21.82,-15.57 -29.74,-15.57 -10.41,0 -18.34,4.88 -23.55,14.87 -5.2,9.77 -7.93,25.34 -8.68,47.42l-53.28 0c1.73,-72.05 31.47,-113.19 83.02,-113.19 21.81,0 38.43,6.74 59.49,24.64l24.29 22.08c12.39,10.69 22.05,15.57 29,15.57 11.4,0 19.07,-4.88 24.53,-14.64 5.21,-9.76 7.68,-25.34 7.68,-47.65l54.28 0c-1.74,72.28 -32.22,113.19 -84.02,113.19 -21.81,0 -38.41,-6.51 -59.23,-24.64l-23.79 -22.08zm248.34 691.18l-111.79 0 16.61 -272.15c0,-85.29 -27.26,-127.13 -97.15,-127.13 -96.16,0 -141.52,54.16 -141.52,141.77l13.13 257.51 -109.29 0 12.89 -452.5 78.81 0 0 53.92c37.67,-27.65 88.23,-60.66 154.65,-60.66 109.31,0 165.31,64.85 171.51,188.72l12.15 270.52zm347.96 -459.24c136.32,0 219.34,87.85 219.34,235.43 0,146.65 -83.02,235.2 -219.34,235.2 -137.3,0 -219.33,-88.55 -219.33,-235.2 0,-147.58 82.03,-235.43 219.33,-235.43zm0 54.15c-84.01,0 -136.3,63.92 -136.3,168.03 0,105.05 51.55,121.55 136.3,121.55 84.03,0 136.32,-17.43 136.32,-121.55 0,-102.49 -52.29,-168.03 -136.32,-168.03zm687.26 31.15c-44.61,-20.45 -92.69,-31.84 -143.49,-31.84 -78.57,0 -121.45,26.96 -121.45,71.35 0,40.2 25.29,59.03 109.3,76.23l27.01 5.57c111.04,22.31 153.92,55.78 153.92,128.76 0,83.66 -74.35,135.26 -197.53,135.26 -50.81,0 -105.83,-8.83 -167.79,-27.89l0 -108.07c58.49,28.59 114.5,42.53 169.52,42.53 74.35,0 106.57,-21.38 106.57,-59.73 -9.42,-16.5 -17.35,-27.89 -24.28,-35.32 -6.2,-7.44 -34.21,-15.58 -83.28,-26.27l-27.01 -5.81c-97.16,-18.82 -138.06,-48.34 -138.06,-118.06 0,-84.36 66.43,-132.01 183.42,-132.01 58.73,0 110.28,8.37 153.15,23.94l0 61.36z"/>
</symbol>
<symbol id="Fm0-138-0" viewBox="28697.24 -8565.92 2560.94 619.83">
 <path class="fil3" d="M28738.13 -8092.04c42.87,19.75 88.48,30.44 131.35,30.44 113.52,0 173,-23.7 181.68,-169.66 -33.21,45.79 -85.51,71.35 -146.73,71.35 -127.64,0 -207.19,-77.16 -207.19,-202.66 0,-122.94 83.76,-203.35 212.39,-203.35 147.72,0 227.28,108.3 227.28,310.03 0,188.48 -103.1,309.8 -263.95,309.8 -42.88,0 -86.74,-8.14 -134.83,-23.71l0 -122.24zm164.57 -188.49c94.42,0 152.91,-8.13 152.91,-95.05 0,-86.22 -58.49,-139.44 -152.91,-139.44 -94.43,0 -153.91,53.22 -153.91,139.44 0,86.92 59.48,95.05 153.91,95.05zm933.61 127.83l-229.75 3.25 3.47 -65.54 229.76 -3.95 -3.48 66.24zm852.58 195.22l-367.3 0 0 -112.25 141.51 0 0 -411.6 -153.66 28.59 0 -73.67 152.93 -28.82 85.75 0 0 485.5 140.77 0 0 112.25zm353.17 -608.44c143.5,0 216.12,108.3 216.12,310.03 -5.45,201.73 -81.54,309.8 -224.79,309.8 -142.52,0 -215.88,-108.07 -215.88,-309.8 5.95,-201.73 82.04,-310.03 224.55,-310.03zm0 32.07c-88.24,0 -133.84,72.98 -133.84,219.63 0,151.76 36.93,219.85 125.17,219.85 89.21,0 131.1,-72.97 142.5,-219.85 0,-146.65 -44.61,-219.63 -133.83,-219.63zm-2.48 310.73c35.68,0 44.61,-40.21 44.61,-70.42 0,-57.41 -8.93,-92.73 -44.61,-92.73 -40.39,0 -45.61,46.02 -45.61,92.73 0,30.21 8.68,70.42 45.61,70.42z"/>
</symbol>
<symbol id="Fm12-115-0" viewBox="30289.35 -9537.39 2631.4 319.05">
 <path class="fil1" d="M32920.75 -9377.86c0,88.12 -589.03,159.52 -1315.68,159.52 -725.6,0 -1314.01,-71.19 -1315.72,-159.14l0 -0.76c1.71,-87.96 590.12,-159.15 1315.72,-159.15 726.65,0 1315.68,71.4 1315.68,159.53z"/>
</symbol>
<symbol id="Fm15-118-0" viewBox="24266.09 -8747.92 2202.31 1644.68">
 <path class="fil3" d="M24406.86 -8457.65c-73.61,-17.19 -108.56,-67.16 -108.56,-135.26 0,-85.29 68.17,-146.64 195.06,-146.64 126.65,0 194.8,61.35 194.8,146.64 0,68.1 -34.95,118.07 -108.3,135.26 83.02,18.13 140.77,73.91 140.77,150.14 0,115.51 -86.49,179.42 -227.27,179.42 -140.78,0 -227.27,-63.91 -227.27,-179.42 0,-76.23 57.5,-132.01 140.77,-150.14zm-31.48 -151.52c0,61.35 43.63,98.3 117.98,98.3 73.36,0 117.97,-36.95 117.97,-98.3 0,-51.83 -44.61,-91.11 -117.97,-91.11 -74.35,0 -117.98,39.28 -117.98,91.11zm117.98 177.79c-82.28,0 -132.1,43.46 -132.1,115.74 0,39.97 49.82,87.61 132.1,87.61 82.03,0 131.85,-48.34 131.85,-87.61 0,-72.28 -49.82,-115.74 -131.85,-115.74zm926.68 96.68l-229.75 3.25 3.47 -65.54 229.75 -3.95 -3.47 66.24zm514.03 60.66c42.87,19.75 88.48,30.44 131.35,30.44 113.52,0 172.99,-23.7 181.67,-169.66 -33.21,45.79 -85.5,71.35 -146.73,71.35 -127.64,0 -207.19,-77.16 -207.19,-202.66 0,-122.94 83.77,-203.35 212.4,-203.35 147.72,0 227.27,108.3 227.27,310.03 0,188.48 -103.1,309.8 -263.95,309.8 -42.88,0 -86.74,-8.14 -134.82,-23.71l0 -122.24zm164.57 -188.49c94.42,0 152.91,-8.13 152.91,-95.05 0,-86.22 -58.49,-139.44 -152.91,-139.44 -94.43,0 -153.92,53.22 -153.92,139.44 0,86.92 59.49,95.05 153.92,95.05z"/>
 <path class="fil3" d="M24383.07 -7114.63l-116.98 0 251.81 -597.75 81.29 0 250.81 597.75 -123.17 0 -24.54 -97.61 -286.76 0 -32.46 97.61zm57.75 -192.67l235.19 0 -117.96 -331.18 -117.23 331.18zm718.74 -498.51c-13.14,-10.69 -21.82,-15.57 -29.75,-15.57 -10.4,0 -18.34,4.88 -23.54,14.87 -5.21,9.77 -7.94,25.34 -8.68,47.42l-53.28 0c1.73,-72.05 31.47,-113.19 83.02,-113.19 21.81,0 38.42,6.74 59.48,24.64l24.3 22.08c12.39,10.69 22.05,15.57 28.99,15.57 11.4,0 19.08,-4.88 24.54,-14.64 5.2,-9.76 7.68,-25.34 7.68,-47.65l54.28 0c-1.74,72.28 -32.23,113.19 -84.02,113.19 -21.81,0 -38.42,-6.51 -59.23,-24.64l-23.79 -22.08zm248.33 691.18l-111.78 0 16.6 -272.15c0,-85.29 -27.25,-127.13 -97.15,-127.13 -96.15,0 -141.52,54.16 -141.52,141.77l13.14 257.51 -109.3 0 12.9 -452.5 78.8 0 0 53.92c37.68,-27.65 88.24,-60.66 154.65,-60.66 109.31,0 165.32,64.85 171.51,188.72l12.15 270.52zm347.97 -459.24c136.32,0 219.34,87.85 219.34,235.43 0,146.65 -83.02,235.2 -219.34,235.2 -137.3,0 -219.34,-88.55 -219.34,-235.2 0,-147.58 82.04,-235.43 219.34,-235.43zm0 54.15c-84.01,0 -136.31,63.92 -136.31,168.03 0,105.05 51.55,121.55 136.31,121.55 84.02,0 136.32,-17.43 136.32,-121.55 0,-102.49 -52.3,-168.03 -136.32,-168.03zm687.26 31.15c-44.61,-20.45 -92.69,-31.84 -143.5,-31.84 -78.56,0 -121.44,26.96 -121.44,71.35 0,40.2 25.28,59.03 109.3,76.23l27.01 5.57c111.03,22.31 153.91,55.78 153.91,128.76 0,83.66 -74.35,135.26 -197.53,135.26 -50.8,0 -105.83,-8.83 -167.79,-27.89l0 -108.07c58.5,28.59 114.5,42.53 169.53,42.53 74.35,0 106.57,-21.38 106.57,-59.73 -9.42,-16.5 -17.35,-27.89 -24.29,-35.32 -6.19,-7.44 -34.21,-15.58 -83.27,-26.27l-27.01 -5.81c-97.16,-18.82 -138.06,-48.34 -138.06,-118.06 0,-84.36 66.43,-132.01 183.41,-132.01 58.74,0 110.29,8.37 153.16,23.94l0 61.36z"/>
</symbol>
<symbol id="Fm0-142-0" viewBox="34005.3 -8557.34 3033.82 619.83">
 <path class="fil3" d="M34384.75 -7948.9l-367.3 0 0 -112.25 141.51 0 0 -411.6 -153.66 28.59 0 -73.67 152.93 -28.82 85.75 0 0 485.5 140.77 0 0 112.25zm353.17 -608.44c143.5,0 216.11,108.3 216.11,310.03 -5.44,201.73 -81.53,309.8 -224.78,309.8 -142.52,0 -215.88,-108.07 -215.88,-309.8 5.95,-201.73 82.04,-310.03 224.55,-310.03zm0 32.07c-88.24,0 -133.84,72.98 -133.84,219.63 0,151.76 36.93,219.85 125.17,219.85 89.21,0 131.1,-72.97 142.5,-219.85 0,-146.65 -44.61,-219.63 -133.83,-219.63zm-2.48 310.73c35.68,0 44.61,-40.21 44.61,-70.42 0,-57.41 -8.93,-92.73 -44.61,-92.73 -40.39,0 -45.61,46.02 -45.61,92.73 0,30.21 8.68,70.42 45.61,70.42zm917.75 70.42l-229.74 3.25 3.46 -65.54 229.76 -3.95 -3.48 66.24zm852.59 195.22l-367.31 0 0 -112.25 141.52 0 0 -411.6 -153.66 28.59 0 -73.67 152.92 -28.82 85.75 0 0 485.5 140.78 0 0 112.25zm533.34 -116.44l0 116.44 -404.72 0 0 -116.44c45.35,-34.39 92.44,-69.72 143.25,-105.74 100.62,-72.05 132.84,-110.63 155.64,-151.76 10.41,-19.53 15.87,-39.28 15.87,-59.03 0,-62.99 -51.81,-107.38 -128.63,-107.38 -54.28,0 -113.77,17.2 -181.92,53.22l0 -81.8c69.89,-26.26 130.37,-39.51 180.18,-39.51 132.1,0 216.86,66.47 216.86,170.59 0,49.27 -16.6,87.85 -68.15,147.57 -7.19,7.44 -29.74,30.45 -68.41,67.17 -37.42,36.95 -60.97,72.28 -71.62,106.67l211.65 0z"/>
</symbol>
<symbol id="Fm14-117-0" viewBox="36345.56 -9782.18 2039.19 348.15">
 <path class="fil1" d="M38384.75 -9607.71c-1.3,95.73 -454.87,173.27 -1015.18,173.68l-8.78 0c-560.8,-0.41 -1014.8,-78.1 -1015.23,-173.95l0 -0.28c0.43,-96.06 456.79,-173.92 1019.62,-173.92 562.34,0 1018.27,77.71 1019.57,173.65l0 0.82z"/>
</symbol>
<symbol id="Fm13-116-0" viewBox="34005.3 -8557.34 3204.7 1644.68">
 <path class="fil3" d="M34384.75 -7948.9l-367.3 0 0 -112.25 141.51 0 0 -411.6 -153.66 28.59 0 -73.67 152.93 -28.82 85.75 0 0 485.5 140.77 0 0 112.25zm353.17 -608.44c143.5,0 216.11,108.3 216.11,310.03 -5.44,201.73 -81.53,309.8 -224.78,309.8 -142.52,0 -215.88,-108.07 -215.88,-309.8 5.95,-201.73 82.04,-310.03 224.55,-310.03zm0 32.07c-88.24,0 -133.84,72.98 -133.84,219.63 0,151.76 36.93,219.85 125.17,219.85 89.21,0 131.1,-72.97 142.5,-219.85 0,-146.65 -44.61,-219.63 -133.83,-219.63zm-2.48 310.73c35.68,0 44.61,-40.21 44.61,-70.42 0,-57.41 -8.93,-92.73 -44.61,-92.73 -40.39,0 -45.61,46.02 -45.61,92.73 0,30.21 8.68,70.42 45.61,70.42zm917.75 70.42l-229.74 3.25 3.46 -65.54 229.76 -3.95 -3.48 66.24zm852.59 195.22l-367.31 0 0 -112.25 141.52 0 0 -411.6 -153.66 28.59 0 -73.67 152.92 -28.82 85.75 0 0 485.5 140.78 0 0 112.25zm533.34 -116.44l0 116.44 -404.72 0 0 -116.44c45.35,-34.39 92.44,-69.72 143.25,-105.74 100.62,-72.05 132.84,-110.63 155.64,-151.76 10.41,-19.53 15.87,-39.28 15.87,-59.03 0,-62.99 -51.81,-107.38 -128.63,-107.38 -54.28,0 -113.77,17.2 -181.92,53.22l0 -81.8c69.89,-26.26 130.37,-39.51 180.18,-39.51 132.1,0 216.86,66.47 216.86,170.59 0,49.27 -16.6,87.85 -68.15,147.57 -7.19,7.44 -29.74,30.45 -68.41,67.17 -37.42,36.95 -60.97,72.28 -71.62,106.67l211.65 0z"/>
 <path class="fil3" d="M35124.67 -6924.05l-116.98 0 251.81 -597.75 81.29 0 250.81 597.75 -123.17 0 -24.54 -97.61 -286.76 0 -32.46 97.61zm57.75 -192.67l235.19 0 -117.96 -331.18 -117.23 331.18zm718.74 -498.51c-13.14,-10.69 -21.82,-15.57 -29.75,-15.57 -10.4,0 -18.34,4.88 -23.54,14.87 -5.21,9.77 -7.94,25.34 -8.68,47.42l-53.28 0c1.73,-72.05 31.47,-113.19 83.02,-113.19 21.81,0 38.42,6.74 59.48,24.64l24.3 22.08c12.39,10.69 22.05,15.57 28.99,15.57 11.4,0 19.08,-4.88 24.54,-14.64 5.2,-9.76 7.68,-25.34 7.68,-47.65l54.28 0c-1.74,72.28 -32.23,113.19 -84.02,113.19 -21.81,0 -38.42,-6.51 -59.23,-24.64l-23.79 -22.08zm248.33 691.18l-111.78 0 16.6 -272.15c0,-85.29 -27.25,-127.13 -97.15,-127.13 -96.15,0 -141.52,54.16 -141.52,141.77l13.14 257.51 -109.3 0 12.9 -452.5 78.8 0 0 53.92c37.68,-27.65 88.24,-60.66 154.65,-60.66 109.31,0 165.32,64.85 171.51,188.72l12.15 270.52zm347.97 -459.24c136.32,0 219.34,87.85 219.34,235.43 0,146.65 -83.02,235.2 -219.34,235.2 -137.3,0 -219.34,-88.55 -219.34,-235.2 0,-147.58 82.04,-235.43 219.34,-235.43zm0 54.15c-84.01,0 -136.31,63.92 -136.31,168.03 0,105.05 51.55,121.55 136.31,121.55 84.02,0 136.32,-17.43 136.32,-121.55 0,-102.49 -52.3,-168.03 -136.32,-168.03zm687.26 31.15c-44.61,-20.45 -92.69,-31.84 -143.5,-31.84 -78.56,0 -121.44,26.96 -121.44,71.35 0,40.2 25.28,59.03 109.3,76.23l27.01 5.57c111.03,22.31 153.91,55.78 153.91,128.76 0,83.66 -74.35,135.26 -197.53,135.26 -50.8,0 -105.83,-8.83 -167.79,-27.89l0 -108.07c58.5,28.59 114.5,42.53 169.53,42.53 74.35,0 106.57,-21.38 106.57,-59.73 -9.42,-16.5 -17.35,-27.89 -24.29,-35.32 -6.19,-7.44 -34.21,-15.58 -83.27,-26.27l-27.01 -5.81c-97.16,-18.82 -138.06,-48.34 -138.06,-118.06 0,-84.36 66.43,-132.01 183.41,-132.01 58.74,0 110.29,8.37 153.16,23.94l0 61.36z"/>
</symbol>
<symbol id="Fm1-143-0" viewBox="35007.69 -7681.7 2202.31 769.04">
 <path class="fil3" d="M35124.67 -6924.05l-116.98 0 251.81 -597.75 81.29 0 250.81 597.75 -123.17 0 -24.54 -97.61 -286.76 0 -32.46 97.61zm57.75 -192.67l235.19 0 -117.96 -331.18 -117.23 331.18zm718.74 -498.51c-13.14,-10.69 -21.82,-15.57 -29.75,-15.57 -10.4,0 -18.34,4.88 -23.54,14.87 -5.21,9.77 -7.94,25.34 -8.68,47.42l-53.28 0c1.73,-72.05 31.47,-113.19 83.02,-113.19 21.81,0 38.42,6.74 59.48,24.64l24.3 22.08c12.39,10.69 22.05,15.57 28.99,15.57 11.4,0 19.08,-4.88 24.54,-14.64 5.2,-9.76 7.68,-25.34 7.68,-47.65l54.28 0c-1.74,72.28 -32.23,113.19 -84.02,113.19 -21.81,0 -38.42,-6.51 -59.23,-24.64l-23.79 -22.08zm248.33 691.18l-111.78 0 16.6 -272.15c0,-85.29 -27.25,-127.13 -97.15,-127.13 -96.15,0 -141.52,54.16 -141.52,141.77l13.14 257.51 -109.3 0 12.9 -452.5 78.8 0 0 53.92c37.68,-27.65 88.24,-60.66 154.65,-60.66 109.31,0 165.32,64.85 171.51,188.72l12.15 270.52zm347.97 -459.24c136.32,0 219.34,87.85 219.34,235.43 0,146.65 -83.02,235.2 -219.34,235.2 -137.3,0 -219.34,-88.55 -219.34,-235.2 0,-147.58 82.04,-235.43 219.34,-235.43zm0 54.15c-84.01,0 -136.31,63.92 -136.31,168.03 0,105.05 51.55,121.55 136.31,121.55 84.02,0 136.32,-17.43 136.32,-121.55 0,-102.49 -52.3,-168.03 -136.32,-168.03zm687.26 31.15c-44.61,-20.45 -92.69,-31.84 -143.5,-31.84 -78.56,0 -121.44,26.96 -121.44,71.35 0,40.2 25.28,59.03 109.3,76.23l27.01 5.57c111.03,22.31 153.91,55.78 153.91,128.76 0,83.66 -74.35,135.26 -197.53,135.26 -50.8,0 -105.83,-8.83 -167.79,-27.89l0 -108.07c58.5,28.59 114.5,42.53 169.53,42.53 74.35,0 106.57,-21.38 106.57,-59.73 -9.42,-16.5 -17.35,-27.89 -24.29,-35.32 -6.19,-7.44 -34.21,-15.58 -83.27,-26.27l-27.01 -5.81c-97.16,-18.82 -138.06,-48.34 -138.06,-118.06 0,-84.36 66.43,-132.01 183.41,-132.01 58.74,0 110.29,8.37 153.16,23.94l0 61.36z"/>
</symbol>
<symbol id="Fm0-146-0" viewBox="24266.09 -8747.92 2066.75 619.83">
 <path class="fil3" d="M24406.86 -8457.65c-73.61,-17.19 -108.56,-67.16 -108.56,-135.26 0,-85.29 68.17,-146.64 195.06,-146.64 126.65,0 194.8,61.35 194.8,146.64 0,68.1 -34.95,118.07 -108.3,135.26 83.02,18.13 140.77,73.91 140.77,150.14 0,115.51 -86.49,179.42 -227.27,179.42 -140.78,0 -227.27,-63.91 -227.27,-179.42 0,-76.23 57.5,-132.01 140.77,-150.14zm-31.48 -151.52c0,61.35 43.63,98.3 117.98,98.3 73.36,0 117.97,-36.95 117.97,-98.3 0,-51.83 -44.61,-91.11 -117.97,-91.11 -74.35,0 -117.98,39.28 -117.98,91.11zm117.98 177.79c-82.28,0 -132.1,43.46 -132.1,115.74 0,39.97 49.82,87.61 132.1,87.61 82.03,0 131.85,-48.34 131.85,-87.61 0,-72.28 -49.82,-115.74 -131.85,-115.74zm926.68 96.68l-229.75 3.25 3.47 -65.54 229.75 -3.95 -3.47 66.24zm514.03 60.66c42.87,19.75 88.48,30.44 131.35,30.44 113.52,0 172.99,-23.7 181.67,-169.66 -33.21,45.79 -85.5,71.35 -146.73,71.35 -127.64,0 -207.19,-77.16 -207.19,-202.66 0,-122.94 83.77,-203.35 212.4,-203.35 147.72,0 227.27,108.3 227.27,310.03 0,188.48 -103.1,309.8 -263.95,309.8 -42.88,0 -86.74,-8.14 -134.82,-23.71l0 -122.24zm164.57 -188.49c94.42,0 152.91,-8.13 152.91,-95.05 0,-86.22 -58.49,-139.44 -152.91,-139.44 -94.43,0 -153.92,53.22 -153.92,139.44 0,86.92 59.49,95.05 153.92,95.05z"/>
</symbol>
<symbol id="Fm0-150-0" viewBox="47382.57 -19606.87 2023.05 301.6">
 <path class="fil4" d="M47382.57 -19310.68c10.13,-94.68 10.13,-189.47 13.64,-284.15l57.63 0c2.13,94.68 0.78,189.47 9.73,284.15l-81 0zm519.88 0l-87.81 0 13.05 -129.37c0,-40.55 -21.42,-60.43 -76.33,-60.43 -75.54,0 -111.18,25.74 -111.18,67.39l10.31 122.41 -85.86 0 10.13 -215.1 61.91 0 0 25.63c29.6,-13.15 69.32,-28.83 121.51,-28.83 85.86,0 129.87,30.82 134.73,89.7l9.54 128.6zm169.6 -251.78l-61.72 0 3.31 -44.41 55.09 0 3.32 44.41zm-68.54 251.78c8.75,-74.79 10.9,-146.16 10.13,-213.22l55.09 0c-4.09,63.96 -0.77,135.66 13.64,213.22l-78.86 0zm476.64 -174.22c-35.03,-10.94 -70.09,-16.35 -105.73,-16.35 -80.4,0 -123.05,32.37 -123.05,84.18 6.24,36.68 39.92,49.05 120.34,51.48 35.62,0 72.03,2.65 107.09,-8.28l1.35 55.01c-34.26,8.95 -70.67,13.59 -112.53,13.59 -112.74,0 -184.79,-43.19 -184.79,-111.8 0,-69.38 72.05,-111.91 188.88,-111.91 37.77,0 74.76,4.3 108.44,13.25l0 30.83zm169.02 -77.56l-61.72 0 3.31 -44.41 55.1 0 3.31 44.41zm-68.54 251.78c8.76,-74.79 10.91,-146.16 10.13,-213.22l55.1 0c-4.09,63.96 -0.78,135.66 13.64,213.22l-78.87 0zm496.51 0l-61.72 0 0 -30.38c-28.24,23.31 -68.74,35.79 -129.87,35.79 -76.14,0 -125.6,-26.51 -125.6,-67.39 0,-47.95 56.86,-72.47 168.83,-72.47l86.64 0 0 -3.54c0,-32.37 -34.46,-51.81 -106.51,-54.57 -42.65,0 -83.73,5.85 -121.5,17.56l0 -28.5c45.17,-9.72 87.83,-14.8 127.73,-14.8 109.23,0 162,31.59 162,96.66l0 121.64zm-96.18 -108.71l-55.5 0c-89.95,0 -113.32,10.94 -114.1,37.01 6.83,21.76 39.15,23.75 83.93,23.75 61.72,0 85.67,-7.4 85.67,-53.03l0 -7.73zm424.66 -67.83c-13.82,-4.64 -26.86,-4.64 -46.72,-4.64 -69.32,0 -98.33,28.83 -98.33,74.79l13.82 106.39 -96.78 0c28.04,-88.05 31.55,-120.09 26.11,-211.23l56.85 0 0 21.76c12.46,-5.41 57.05,-24.86 116.81,-24.86 8.18,0 15.2,0.33 27.46,1.88l0.78 35.91z"/>
</symbol>
<symbol id="Fm1-151-0" viewBox="47269.64 -19213.29 2248.1 395.18">
 <path class="fil4" d="M47591.69 -19060.83c-50.81,-14.03 -96.18,-20.66 -138.83,-20.66 -73.4,0 -115.26,16.69 -115.26,46.74 0,24.96 22,36.23 96.19,44.08l40.5 4.64c100.85,10.93 147.59,37.78 147.59,84.18 0,54.91 -65.81,83.74 -191.59,83.74 -47.32,0 -101.06,-5.85 -158.69,-17.89l0 -60.77c54.9,17.57 107.86,26.52 158.69,26.52 77.68,0 120.9,-21.43 120.9,-38.23 0,-15.24 -28.22,-33.14 -96.76,-40.87l-41.27 -4.75c-101.06,-11.27 -143.52,-34.25 -143.52,-77.56 0,-50.27 65.81,-81.09 175.82,-81.09 46.74,0 95.42,4.75 146.23,14.47l0 37.45zm475.87 121.97l-280.19 0c1.36,56.9 50.83,66.62 132.61,68.94 47.3,0 92.08,0.44 136.09,-12.82l1.36 48.28c-44.79,10.94 -91.51,16.35 -139.6,16.35 -119.36,-2.32 -194.91,-42.42 -194.91,-109.81 4.67,-69.82 71.27,-113.9 184.79,-113.9 100.26,2.43 151.67,28.83 159.85,89.7l0 13.26zm-53.54 -30.82c-6.82,-23.76 -45.37,-53.81 -106.31,-53.81 -68.74,0 -113.52,28.51 -113.52,54.25l219.83 -0.44zm421.15 -31.6c-35.06,-9.72 -72.83,-15.13 -112.74,-15.13 -61.72,0 -95.4,12.81 -95.4,33.91 0,19.11 19.86,28.06 85.86,36.24l21.22 2.65c87.24,10.61 120.92,26.52 120.92,61.21 0,39.77 -58.42,64.29 -155.18,64.29 -39.92,0 -83.15,-4.19 -131.83,-13.25l0 -51.38c45.96,13.59 89.95,20.22 133.19,20.22 58.4,0 83.73,-10.16 83.73,-28.39 -7.4,-7.85 -13.64,-13.26 -19.09,-16.79 -4.86,-3.54 -26.88,-7.41 -65.42,-12.49l-21.22 -2.76c-76.33,-8.95 -108.46,-22.98 -108.46,-56.12 0,-40.11 52.19,-62.75 144.08,-62.75 46.16,0 86.66,3.97 120.34,11.37l0 29.17zm188.86 -74.02l-61.72 0 3.31 -44.41 55.1 0 3.31 44.41zm-68.54 251.78c8.76,-74.79 10.91,-146.16 10.13,-213.22l55.1 0c-4.09,63.96 -0.78,135.66 13.64,213.22l-78.87 0zm381.25 -310.22l-57.05 0 105.14 -79.55 73.41 0 -121.5 79.55zm-29.6 91.92c107.09,0 172.32,41.76 172.32,111.91 0,69.71 -65.23,111.8 -172.32,111.8 -107.87,0 -172.33,-42.09 -172.33,-111.8 0,-70.15 64.46,-111.91 172.33,-111.91zm0 25.74c-66.02,0 -107.1,30.38 -107.1,79.87 0,49.94 40.5,57.78 107.1,57.78 66.01,0 107.09,-8.28 107.09,-57.78 0,-48.72 -41.08,-79.87 -107.09,-79.87zm610.6 192.56l-87.81 0 13.04 -129.37c0,-40.55 -21.41,-60.43 -76.33,-60.43 -75.53,0 -111.17,25.74 -111.17,67.39l10.31 122.41 -85.87 0 10.14 -215.1 61.91 0 0 25.63c29.59,-13.15 69.32,-28.83 121.5,-28.83 85.87,0 129.88,30.82 134.74,89.7l9.54 128.6z"/>
</symbol>
<symbol id="Fm2-121-0" viewBox="8151.42 -15279.64 1344.89 2360.11">
 <path class="fil5" d="M8151.42 -15279.64l250.12 0 -23.92 1191.31c-6.83,495.26 142.14,698.76 448.3,698.76 304.1,0 453.76,-203.5 443.51,-698.76l-23.92 -1191.31 250.8 0 0 1445.24c0,604.21 -228.94,914.87 -670.39,914.87 -445.57,0 -674.5,-310.66 -674.5,-914.87l0 -1445.24z"/>
</symbol>
<symbol id="Fm17-120-0" viewBox="47269.64 -19606.87 2248.1 788.76">
 <path class="fil4" d="M47382.57 -19310.68c10.13,-94.68 10.13,-189.47 13.64,-284.15l57.63 0c2.13,94.68 0.78,189.47 9.73,284.15l-81 0zm519.88 0l-87.81 0 13.05 -129.37c0,-40.55 -21.42,-60.43 -76.33,-60.43 -75.54,0 -111.18,25.74 -111.18,67.39l10.31 122.41 -85.86 0 10.13 -215.1 61.91 0 0 25.63c29.6,-13.15 69.32,-28.83 121.51,-28.83 85.86,0 129.87,30.82 134.73,89.7l9.54 128.6zm169.6 -251.78l-61.72 0 3.31 -44.41 55.09 0 3.32 44.41zm-68.54 251.78c8.75,-74.79 10.9,-146.16 10.13,-213.22l55.09 0c-4.09,63.96 -0.77,135.66 13.64,213.22l-78.86 0zm476.64 -174.22c-35.03,-10.94 -70.09,-16.35 -105.73,-16.35 -80.4,0 -123.05,32.37 -123.05,84.18 6.24,36.68 39.92,49.05 120.34,51.48 35.62,0 72.03,2.65 107.09,-8.28l1.35 55.01c-34.26,8.95 -70.67,13.59 -112.53,13.59 -112.74,0 -184.79,-43.19 -184.79,-111.8 0,-69.38 72.05,-111.91 188.88,-111.91 37.77,0 74.76,4.3 108.44,13.25l0 30.83zm169.02 -77.56l-61.72 0 3.31 -44.41 55.1 0 3.31 44.41zm-68.54 251.78c8.76,-74.79 10.91,-146.16 10.13,-213.22l55.1 0c-4.09,63.96 -0.78,135.66 13.64,213.22l-78.87 0zm496.51 0l-61.72 0 0 -30.38c-28.24,23.31 -68.74,35.79 -129.87,35.79 -76.14,0 -125.6,-26.51 -125.6,-67.39 0,-47.95 56.86,-72.47 168.83,-72.47l86.64 0 0 -3.54c0,-32.37 -34.46,-51.81 -106.51,-54.57 -42.65,0 -83.73,5.85 -121.5,17.56l0 -28.5c45.17,-9.72 87.83,-14.8 127.73,-14.8 109.23,0 162,31.59 162,96.66l0 121.64zm-96.18 -108.71l-55.5 0c-89.95,0 -113.32,10.94 -114.1,37.01 6.83,21.76 39.15,23.75 83.93,23.75 61.72,0 85.67,-7.4 85.67,-53.03l0 -7.73zm424.66 -67.83c-13.82,-4.64 -26.86,-4.64 -46.72,-4.64 -69.32,0 -98.33,28.83 -98.33,74.79l13.82 106.39 -96.78 0c28.04,-88.05 31.55,-120.09 26.11,-211.23l56.85 0 0 21.76c12.46,-5.41 57.05,-24.86 116.81,-24.86 8.18,0 15.2,0.33 27.46,1.88l0.78 35.91z"/>
 <path class="fil4" d="M47591.69 -19060.83c-50.81,-14.03 -96.18,-20.66 -138.83,-20.66 -73.4,0 -115.26,16.69 -115.26,46.74 0,24.96 22,36.23 96.19,44.08l40.5 4.64c100.85,10.93 147.59,37.78 147.59,84.18 0,54.91 -65.81,83.74 -191.59,83.74 -47.32,0 -101.06,-5.85 -158.69,-17.89l0 -60.77c54.9,17.57 107.86,26.52 158.69,26.52 77.68,0 120.9,-21.43 120.9,-38.23 0,-15.24 -28.22,-33.14 -96.76,-40.87l-41.27 -4.75c-101.06,-11.27 -143.52,-34.25 -143.52,-77.56 0,-50.27 65.81,-81.09 175.82,-81.09 46.74,0 95.42,4.75 146.23,14.47l0 37.45zm475.87 121.97l-280.19 0c1.36,56.9 50.83,66.62 132.61,68.94 47.3,0 92.08,0.44 136.09,-12.82l1.36 48.28c-44.79,10.94 -91.51,16.35 -139.6,16.35 -119.36,-2.32 -194.91,-42.42 -194.91,-109.81 4.67,-69.82 71.27,-113.9 184.79,-113.9 100.26,2.43 151.67,28.83 159.85,89.7l0 13.26zm-53.54 -30.82c-6.82,-23.76 -45.37,-53.81 -106.31,-53.81 -68.74,0 -113.52,28.51 -113.52,54.25l219.83 -0.44zm421.15 -31.6c-35.06,-9.72 -72.83,-15.13 -112.74,-15.13 -61.72,0 -95.4,12.81 -95.4,33.91 0,19.11 19.86,28.06 85.86,36.24l21.22 2.65c87.24,10.61 120.92,26.52 120.92,61.21 0,39.77 -58.42,64.29 -155.18,64.29 -39.92,0 -83.15,-4.19 -131.83,-13.25l0 -51.38c45.96,13.59 89.95,20.22 133.19,20.22 58.4,0 83.73,-10.16 83.73,-28.39 -7.4,-7.85 -13.64,-13.26 -19.09,-16.79 -4.86,-3.54 -26.88,-7.41 -65.42,-12.49l-21.22 -2.76c-76.33,-8.95 -108.46,-22.98 -108.46,-56.12 0,-40.11 52.19,-62.75 144.08,-62.75 46.16,0 86.66,3.97 120.34,11.37l0 29.17zm188.86 -74.02l-61.72 0 3.31 -44.41 55.1 0 3.31 44.41zm-68.54 251.78c8.76,-74.79 10.91,-146.16 10.13,-213.22l55.1 0c-4.09,63.96 -0.78,135.66 13.64,213.22l-78.87 0zm381.25 -310.22l-57.05 0 105.14 -79.55 73.41 0 -121.5 79.55zm-29.6 91.92c107.09,0 172.32,41.76 172.32,111.91 0,69.71 -65.23,111.8 -172.32,111.8 -107.87,0 -172.33,-42.09 -172.33,-111.8 0,-70.15 64.46,-111.91 172.33,-111.91zm0 25.74c-66.02,0 -107.1,30.38 -107.1,79.87 0,49.94 40.5,57.78 107.1,57.78 66.01,0 107.09,-8.28 107.09,-57.78 0,-48.72 -41.08,-79.87 -107.09,-79.87zm610.6 192.56l-87.81 0 13.04 -129.37c0,-40.55 -21.41,-60.43 -76.33,-60.43 -75.53,0 -111.17,25.74 -111.17,67.39l10.31 122.41 -85.87 0 10.14 -215.1 61.91 0 0 25.63c29.59,-13.15 69.32,-28.83 121.5,-28.83 85.87,0 129.88,30.82 134.74,89.7l9.54 128.6z"/>
</symbol>
<symbol id="Fm1-147-0" viewBox="24266.09 -7872.28 2202.31 769.04">
 <path class="fil3" d="M24383.07 -7114.63l-116.98 0 251.81 -597.75 81.29 0 250.81 597.75 -123.17 0 -24.54 -97.61 -286.76 0 -32.46 97.61zm57.75 -192.67l235.19 0 -117.96 -331.18 -117.23 331.18zm718.74 -498.51c-13.14,-10.69 -21.82,-15.57 -29.75,-15.57 -10.4,0 -18.34,4.88 -23.54,14.87 -5.21,9.77 -7.94,25.34 -8.68,47.42l-53.28 0c1.73,-72.05 31.47,-113.19 83.02,-113.19 21.81,0 38.42,6.74 59.48,24.64l24.3 22.08c12.39,10.69 22.05,15.57 28.99,15.57 11.4,0 19.08,-4.88 24.54,-14.64 5.2,-9.76 7.68,-25.34 7.68,-47.65l54.28 0c-1.74,72.28 -32.23,113.19 -84.02,113.19 -21.81,0 -38.42,-6.51 -59.23,-24.64l-23.79 -22.08zm248.33 691.18l-111.78 0 16.6 -272.15c0,-85.29 -27.25,-127.13 -97.15,-127.13 -96.15,0 -141.52,54.16 -141.52,141.77l13.14 257.51 -109.3 0 12.9 -452.5 78.8 0 0 53.92c37.68,-27.65 88.24,-60.66 154.65,-60.66 109.31,0 165.32,64.85 171.51,188.72l12.15 270.52zm347.97 -459.24c136.32,0 219.34,87.85 219.34,235.43 0,146.65 -83.02,235.2 -219.34,235.2 -137.3,0 -219.34,-88.55 -219.34,-235.2 0,-147.58 82.04,-235.43 219.34,-235.43zm0 54.15c-84.01,0 -136.31,63.92 -136.31,168.03 0,105.05 51.55,121.55 136.31,121.55 84.02,0 136.32,-17.43 136.32,-121.55 0,-102.49 -52.3,-168.03 -136.32,-168.03zm687.26 31.15c-44.61,-20.45 -92.69,-31.84 -143.5,-31.84 -78.56,0 -121.44,26.96 -121.44,71.35 0,40.2 25.28,59.03 109.3,76.23l27.01 5.57c111.03,22.31 153.91,55.78 153.91,128.76 0,83.66 -74.35,135.26 -197.53,135.26 -50.8,0 -105.83,-8.83 -167.79,-27.89l0 -108.07c58.5,28.59 114.5,42.53 169.53,42.53 74.35,0 106.57,-21.38 106.57,-59.73 -9.42,-16.5 -17.35,-27.89 -24.29,-35.32 -6.19,-7.44 -34.21,-15.58 -83.27,-26.27l-27.01 -5.81c-97.16,-18.82 -138.06,-48.34 -138.06,-118.06 0,-84.36 66.43,-132.01 183.41,-132.01 58.74,0 110.29,8.37 153.16,23.94l0 61.36z"/>
</symbol>
<symbol id="Fm3-122-0" viewBox="9974.05 -15374.74 1368.81 2357.42">
 <path class="fil6" d="M10807.77 -14123.62c101.14,45.83 195.44,197.98 294.54,462.87l240.55 643.43 -337.6 0 -178.35 -604.94c-115.49,-316.21 -202.29,-391.37 -390.22,-391.37l-178.36 0 0 996.31 -284.28 0 0 -2357.42 537.13 0c354.68,0 561.74,223.64 561.74,679.18 0,297.88 -101.14,497.7 -265.15,571.94zm-571.3 -1082.47l0 866.16 299.32 0c180.41,0 368.34,-164.99 368.34,-355.63 0,-404.21 -187.93,-510.53 -368.34,-510.53l-299.32 0z"/>
</symbol>
<symbol id="Fm0-153-0" viewBox="8151.42 -15279.64 1344.89 2360.11">
 <path class="fil5" d="M8151.42 -15279.64l250.12 0 -23.92 1191.31c-6.83,495.26 142.14,698.76 448.3,698.76 304.1,0 453.76,-203.5 443.51,-698.76l-23.92 -1191.31 250.8 0 0 1445.24c0,604.21 -228.94,914.87 -670.39,914.87 -445.57,0 -674.5,-310.66 -674.5,-914.87l0 -1445.24z"/>
</symbol>
<symbol id="Fm0-155-0" viewBox="9974.05 -15374.74 1368.81 2357.42">
 <path class="fil6" d="M10807.77 -14123.62c101.14,45.83 195.44,197.98 294.54,462.87l240.55 643.43 -337.6 0 -178.35 -604.94c-115.49,-316.21 -202.29,-391.37 -390.22,-391.37l-178.36 0 0 996.31 -284.28 0 0 -2357.42 537.13 0c354.68,0 561.74,223.64 561.74,679.18 0,297.88 -101.14,497.7 -265.15,571.94zm-571.3 -1082.47l0 866.16 299.32 0c180.41,0 368.34,-164.99 368.34,-355.63 0,-404.21 -187.93,-510.53 -368.34,-510.53l-299.32 0z"/>
</symbol>
<symbol id="Fm4-123-0" viewBox="11517.62 -15327.15 1461.41 2335.23">
 <path class="fil7" d="M12249.24 -15327.15c443.77,0 729.79,457.06 729.79,1168.05 0,710.12 -286.02,1167.18 -729.79,1167.18 -443.77,0 -731.62,-453.56 -731.62,-1167.18 0,-710.99 287.85,-1168.05 731.62,-1168.05zm0 247.79c-309.96,0 -506.98,352 -506.98,920.26 0,466.7 197.02,590.16 506.98,590.16 309.35,0 504.53,-123.46 504.53,-590.16 0,-568.26 -195.18,-920.26 -504.53,-920.26z"/>
</symbol>
<symbol id="Fm16-119-0" viewBox="24286.09 -9739.36 2428.44 417.69">
 <path class="fil1" d="M26714.53 -9530.52c0,114.63 -536.39,207.61 -1200.79,208.85l-26.86 0c-664.15,-1.24 -1200.37,-94.16 -1200.79,-208.72l0 -0.26c0.42,-115.28 543.88,-208.71 1214.22,-208.71 670.59,0 1214.22,93.49 1214.22,208.84z"/>
</symbol>
<symbol id="Fm0-157-0" viewBox="11517.62 -15327.15 1461.41 2335.23">
 <path class="fil7" d="M12249.24 -15327.15c443.77,0 729.79,457.06 729.79,1168.05 0,710.12 -286.02,1167.18 -729.79,1167.18 -443.77,0 -731.62,-453.56 -731.62,-1167.18 0,-710.99 287.85,-1168.05 731.62,-1168.05zm0 247.79c-309.96,0 -506.98,352 -506.98,920.26 0,466.7 197.02,590.16 506.98,590.16 309.35,0 504.53,-123.46 504.53,-590.16 0,-568.26 -195.18,-920.26 -504.53,-920.26z"/>
</symbol>
<symbol id="Fm0-161-0" viewBox="15137.5 -15312.77 383.66 2390.57">
 <path class="fil8" d="M15137.5 -12922.2c47.95,-796.55 47.95,-1594.03 64.55,-2390.57l272.99 0c10.15,796.54 3.69,1594.02 46.12,2390.57l-383.66 0z"/>
</symbol>
<symbol id="Fm0-159-0" viewBox="13300.99 -15355.73 1419.38 2390.57">
 <polygon class="fil9" points="13609.2,-12965.16 13300.99,-12965.16 13348.83,-15355.73 13585.28,-15355.73 13563.41,-14345.41 14352.03,-15355.73 14658.18,-15355.73 13785.51,-14240.38 14720.37,-12965.16 14158.63,-12965.16 13563.41,-14115.83 "/>
</symbol>
<symbol id="Fm5-124-0" viewBox="13300.99 -15355.73 1419.38 2390.57">
 <polygon class="fil9" points="13609.2,-12965.16 13300.99,-12965.16 13348.83,-15355.73 13585.28,-15355.73 13563.41,-14345.41 14352.03,-15355.73 14658.18,-15355.73 13785.51,-14240.38 14720.37,-12965.16 14158.63,-12965.16 13563.41,-14115.83 "/>
</symbol>
<symbol id="Fm6-125-0" viewBox="15137.5 -15312.77 383.66 2390.57">
 <path class="fil8" d="M15137.5 -12922.2c47.95,-796.55 47.95,-1594.03 64.55,-2390.57l272.99 0c10.15,796.54 3.69,1594.02 46.12,2390.57l-383.66 0z"/>
</symbol>
<symbol id="Fm7-126-0" viewBox="15846.31 -15314.39 1282.14 2390.57">
 <path class="fil10" d="M15846.31 -12923.82l0 -2390.57 424.62 0c591.84,0 857.52,373.64 857.52,1193.42 0,823.51 -269.83,1197.15 -857.52,1197.15l-424.62 0zm217.05 -2124.75l0 1521.53 249.08 0c420.46,0 573.46,-137.56 604.89,-626.46 0,-596.71 -184.43,-895.07 -604.89,-895.07l-249.08 0z"/>
</symbol>
<symbol id="Fm8-127-0" viewBox="17577.84 -15204.3 1421.03 2277.32">
 <path class="fil11" d="M18877.11 -14802.97c-205.02,-108.44 -388.05,-159.68 -560.08,-159.68 -296.15,0 -465.04,128.94 -465.04,361.2 0,192.98 88.77,280.07 388.05,340.7l163.4 35.86c406.9,84.54 595.43,292.03 595.43,650.66 0,424.39 -265.51,647.25 -772.97,647.25 -190.88,0 -407.69,-45.26 -640.21,-138.33l0 -469.64c221.53,135.77 435.19,204.94 640.21,204.94 313.43,0 487.82,-165.66 487.82,-295.45 0,-117.84 -113.9,-256.17 -390.41,-315.94l-166.53 -36.71c-407.7,-87.1 -578.94,-264.71 -578.94,-599.43 0,-388.52 265.51,-626.76 709.33,-626.76 188.54,0 384.92,36.72 589.94,111.86l0 289.47z"/>
</symbol>
<symbol id="Fm0-167-0" viewBox="30415.2 -14136.09 2032.56 611.46">
 <path class="fil3" d="M30742.85 -14073.81l-327.65 0 0 -59.96 405.47 0 0 34.4 -159.11 563.35 -153.91 0 235.2 -537.79zm777.23 342.57l-229.75 3.25 3.47 -65.54 229.76 -3.95 -3.48 66.24zm613.91 -122.95c-73.62,-17.19 -108.56,-67.16 -108.56,-135.26 0,-85.29 68.16,-146.64 195.06,-146.64 126.64,0 194.8,61.35 194.8,146.64 0,68.1 -34.95,118.07 -108.31,135.26 83.02,18.13 140.78,73.91 140.78,150.14 0,115.51 -86.5,179.42 -227.27,179.42 -140.78,0 -227.28,-63.91 -227.28,-179.42 0,-76.23 57.5,-132.01 140.78,-150.14zm-31.48 -151.52c0,61.35 43.63,98.3 117.98,98.3 73.35,0 117.96,-36.95 117.96,-98.3 0,-51.83 -44.61,-91.11 -117.96,-91.11 -74.35,0 -117.98,39.28 -117.98,91.11zm117.98 177.79c-82.29,0 -132.1,43.46 -132.1,115.74 0,39.97 49.81,87.61 132.1,87.61 82.02,0 131.85,-48.34 131.85,-87.61 0,-72.28 -49.83,-115.74 -131.85,-115.74z"/>
</symbol>
<symbol id="Fm0-165-0" viewBox="17577.84 -15204.3 1421.03 2277.32">
 <path class="fil11" d="M18877.11 -14802.97c-205.02,-108.44 -388.05,-159.68 -560.08,-159.68 -296.15,0 -465.04,128.94 -465.04,361.2 0,192.98 88.77,280.07 388.05,340.7l163.4 35.86c406.9,84.54 595.43,292.03 595.43,650.66 0,424.39 -265.51,647.25 -772.97,647.25 -190.88,0 -407.69,-45.26 -640.21,-138.33l0 -469.64c221.53,135.77 435.19,204.94 640.21,204.94 313.43,0 487.82,-165.66 487.82,-295.45 0,-117.84 -113.9,-256.17 -390.41,-315.94l-166.53 -36.71c-407.7,-87.1 -578.94,-264.71 -578.94,-599.43 0,-388.52 265.51,-626.76 709.33,-626.76 188.54,0 384.92,36.72 589.94,111.86l0 289.47z"/>
</symbol>
<symbol id="Fm9-128-0" viewBox="30415.2 -14136.09 2202.32 1636.31">
 <path class="fil3" d="M30742.85 -14073.81l-327.65 0 0 -59.96 405.47 0 0 34.4 -159.11 563.35 -153.91 0 235.2 -537.79zm777.23 342.57l-229.75 3.25 3.47 -65.54 229.76 -3.95 -3.48 66.24zm613.91 -122.95c-73.62,-17.19 -108.56,-67.16 -108.56,-135.26 0,-85.29 68.16,-146.64 195.06,-146.64 126.64,0 194.8,61.35 194.8,146.64 0,68.1 -34.95,118.07 -108.31,135.26 83.02,18.13 140.78,73.91 140.78,150.14 0,115.51 -86.5,179.42 -227.27,179.42 -140.78,0 -227.28,-63.91 -227.28,-179.42 0,-76.23 57.5,-132.01 140.78,-150.14zm-31.48 -151.52c0,61.35 43.63,98.3 117.98,98.3 73.35,0 117.96,-36.95 117.96,-98.3 0,-51.83 -44.61,-91.11 -117.96,-91.11 -74.35,0 -117.98,39.28 -117.98,91.11zm117.98 177.79c-82.29,0 -132.1,43.46 -132.1,115.74 0,39.97 49.81,87.61 132.1,87.61 82.02,0 131.85,-48.34 131.85,-87.61 0,-72.28 -49.83,-115.74 -131.85,-115.74z"/>
 <path class="fil3" d="M30532.19 -12511.17l-116.99 0 251.82 -597.75 81.29 0 250.81 597.75 -123.17 0 -24.54 -97.61 -286.76 0 -32.46 97.61zm57.75 -192.67l235.19 0 -117.96 -331.18 -117.23 331.18zm718.73 -498.51c-13.13,-10.69 -21.82,-15.57 -29.74,-15.57 -10.41,0 -18.34,4.88 -23.54,14.87 -5.21,9.77 -7.94,25.34 -8.69,47.42l-53.27 0c1.72,-72.05 31.47,-113.19 83.02,-113.19 21.8,0 38.42,6.74 59.48,24.64l24.29 22.08c12.4,10.69 22.06,15.57 29,15.57 11.4,0 19.08,-4.88 24.54,-14.64 5.2,-9.76 7.68,-25.34 7.68,-47.65l54.28 0c-1.74,72.28 -32.23,113.19 -84.03,113.19 -21.8,0 -38.41,-6.51 -59.22,-24.64l-23.8 -22.08zm248.34 691.18l-111.78 0 16.6 -272.15c0,-85.29 -27.26,-127.13 -97.15,-127.13 -96.16,0 -141.52,54.16 -141.52,141.77l13.14 257.51 -109.3 0 12.89 -452.5 78.81 0 0 53.92c37.68,-27.65 88.24,-60.66 154.65,-60.66 109.31,0 165.32,64.85 171.51,188.72l12.15 270.52zm347.97 -459.24c136.32,0 219.34,87.85 219.34,235.43 0,146.65 -83.02,235.2 -219.34,235.2 -137.3,0 -219.34,-88.55 -219.34,-235.2 0,-147.58 82.04,-235.43 219.34,-235.43zm0 54.15c-84.01,0 -136.31,63.92 -136.31,168.03 0,105.05 51.55,121.55 136.31,121.55 84.02,0 136.32,-17.43 136.32,-121.55 0,-102.49 -52.3,-168.03 -136.32,-168.03zm687.26 31.15c-44.61,-20.45 -92.7,-31.84 -143.5,-31.84 -78.56,0 -121.44,26.96 -121.44,71.35 0,40.2 25.28,59.03 109.29,76.23l27.02 5.57c111.03,22.31 153.91,55.78 153.91,128.76 0,83.66 -74.35,135.26 -197.53,135.26 -50.8,0 -105.83,-8.83 -167.79,-27.89l0 -108.07c58.49,28.59 114.5,42.53 169.53,42.53 74.35,0 106.56,-21.38 106.56,-59.73 -9.41,-16.5 -17.35,-27.89 -24.28,-35.32 -6.19,-7.44 -34.21,-15.58 -83.27,-26.27l-27.02 -5.81c-97.16,-18.82 -138.05,-48.34 -138.05,-118.06 0,-84.36 66.42,-132.01 183.41,-132.01 58.74,0 110.29,8.37 153.16,23.94l0 61.36z"/>
</symbol>
<symbol id="Fm0-163-0" viewBox="15846.31 -15314.39 1282.14 2390.57">
 <path class="fil10" d="M15846.31 -12923.82l0 -2390.57 424.62 0c591.84,0 857.52,373.64 857.52,1193.42 0,823.51 -269.83,1197.15 -857.52,1197.15l-424.62 0zm217.05 -2124.75l0 1521.53 249.08 0c420.46,0 573.46,-137.56 604.89,-626.46 0,-596.71 -184.43,-895.07 -604.89,-895.07l-249.08 0z"/>
</symbol>
<symbol id="Fm1-168-0" viewBox="30415.2 -13268.82 2202.32 769.04">
 <path class="fil3" d="M30532.19 -12511.17l-116.99 0 251.82 -597.75 81.29 0 250.81 597.75 -123.17 0 -24.54 -97.61 -286.76 0 -32.46 97.61zm57.75 -192.67l235.19 0 -117.96 -331.18 -117.23 331.18zm718.73 -498.51c-13.13,-10.69 -21.82,-15.57 -29.74,-15.57 -10.41,0 -18.34,4.88 -23.54,14.87 -5.21,9.77 -7.94,25.34 -8.69,47.42l-53.27 0c1.72,-72.05 31.47,-113.19 83.02,-113.19 21.8,0 38.42,6.74 59.48,24.64l24.29 22.08c12.4,10.69 22.06,15.57 29,15.57 11.4,0 19.08,-4.88 24.54,-14.64 5.2,-9.76 7.68,-25.34 7.68,-47.65l54.28 0c-1.74,72.28 -32.23,113.19 -84.03,113.19 -21.8,0 -38.41,-6.51 -59.22,-24.64l-23.8 -22.08zm248.34 691.18l-111.78 0 16.6 -272.15c0,-85.29 -27.26,-127.13 -97.15,-127.13 -96.16,0 -141.52,54.16 -141.52,141.77l13.14 257.51 -109.3 0 12.89 -452.5 78.81 0 0 53.92c37.68,-27.65 88.24,-60.66 154.65,-60.66 109.31,0 165.32,64.85 171.51,188.72l12.15 270.52zm347.97 -459.24c136.32,0 219.34,87.85 219.34,235.43 0,146.65 -83.02,235.2 -219.34,235.2 -137.3,0 -219.34,-88.55 -219.34,-235.2 0,-147.58 82.04,-235.43 219.34,-235.43zm0 54.15c-84.01,0 -136.31,63.92 -136.31,168.03 0,105.05 51.55,121.55 136.31,121.55 84.02,0 136.32,-17.43 136.32,-121.55 0,-102.49 -52.3,-168.03 -136.32,-168.03zm687.26 31.15c-44.61,-20.45 -92.7,-31.84 -143.5,-31.84 -78.56,0 -121.44,26.96 -121.44,71.35 0,40.2 25.28,59.03 109.29,76.23l27.02 5.57c111.03,22.31 153.91,55.78 153.91,128.76 0,83.66 -74.35,135.26 -197.53,135.26 -50.8,0 -105.83,-8.83 -167.79,-27.89l0 -108.07c58.49,28.59 114.5,42.53 169.53,42.53 74.35,0 106.56,-21.38 106.56,-59.73 -9.41,-16.5 -17.35,-27.89 -24.28,-35.32 -6.19,-7.44 -34.21,-15.58 -83.27,-26.27l-27.02 -5.81c-97.16,-18.82 -138.05,-48.34 -138.05,-118.06 0,-84.36 66.42,-132.01 183.41,-132.01 58.74,0 110.29,8.37 153.16,23.94l0 61.36z"/>
</symbol>
 <g id="Capa_x0020_1">
  <metadata id="CorelCorpID_0Corel-Layer"/>
  <g id="_2274252296672">
   <path class="fil1" d="M3450.05 3456.45c-1.3,95.73 -454.87,173.27 -1015.18,173.68l-8.78 0c-560.8,-0.41 -1014.8,-78.1 -1015.23,-173.95l0 -0.28c0.43,-96.06 456.79,-173.92 1019.62,-173.92 562.34,0 1018.27,77.71 1019.57,173.65l0 0.82z"/>
   <path class="fil12" d="M3404.26 1152.24c-33.66,-27.2 -33.87,-27.2 -64.63,3.74 -64.35,64.8 -128.1,130.6 -193.01,194.63 -93.27,92.07 -190.89,178.18 -280.35,275.55 -113.7,123.75 -227.05,248.29 -337.47,376.77 -67.7,78.7 -55.6,69.07 -108.16,-5.68 -99.34,-141.33 -197.1,-284.41 -292.52,-429.76 -78.28,-119.17 -169.65,-214.8 -286.21,-272.27 -31.47,-15.49 -62.02,-33.69 -92.78,-51.29 -15.52,-8.93 -31.15,-16.73 -46.96,-15.32 -57.68,-6.7 -76.48,23.11 -56.34,86.65 12.28,38.77 26.18,76.83 37.29,116.13 56.27,199.07 149.76,365.87 276.97,507.93 97.93,109.29 188.49,228.53 282.71,342.94 9.85,11.96 11.79,18.2 -0.67,30.51 -119.45,118.57 -239.67,236.12 -357.04,357.82 -106.86,110.92 -220.31,213.01 -313.16,343.5 -26.25,36.87 -54.61,71.48 -82.8,106.12 -53.3,65.37 -54.4,87.21 -6.21,159.49 1.1,1.59 2.19,3.25 3.35,4.73 57.08,72.99 114.27,145.87 171.24,219 10.34,13.27 19.33,16.02 32.53,3.6 19.51,-18.38 40.53,-34.33 58.56,-55.1 173.18,-199.18 361.7,-375.92 544.41,-561.2 69.25,-70.31 137.4,-142.56 214.8,-199.82 10.97,-8.07 17.08,-11.11 27.41,2.69 162.35,216.6 325.44,432.32 487.72,648.97 28.11,37.53 52.39,79.33 79.58,117.89 28.58,40.43 60.22,45.58 97.62,19.65 43.78,-30.34 78.67,-71.89 107.52,-122.06 34.47,-60.01 33.55,-91.26 -6.17,-146.58 -9.52,-13.3 -19.33,-26.35 -29.35,-39.12 -89.22,-114.72 -179.53,-228.21 -264.62,-347.66 -81.7,-114.66 -163.97,-228.67 -244.61,-344.42 -35.78,-51.4 -34.89,-53.87 5.04,-100.01 231.39,-267.65 464.93,-532.52 705.03,-788.39 46.77,-49.85 95,-97.9 137.76,-153.32 5.68,-7.33 12.77,-12.17 4.26,-25.22 -62.97,-96.03 -125.51,-192.26 -210.74,-261.09zm-1679.4 293.02c-19.3,-47.56 -33.38,-97.3 -39.9,-151.24 12.2,-2.65 23.6,-3.56 34.32,4.37 30.13,4.91 55.92,23.43 82.69,38.88 17.61,10.16 34.36,24.06 52.81,30.23 25.16,8.33 25.16,21.73 12.67,44.59 -15.66,28.37 -35.03,50.52 -61.42,62.73 -1.23,1.34 -2.29,3.1 -3.7,3.98 -51.54,30.13 -51.61,30.17 -77.47,-33.54zm88.83 202.91c-3.25,-6.06 -6.81,-11.92 -10.09,-17.95 -35.49,-64.7 -35.49,-64.7 20.18,-105.62 34.14,-28.61 68.72,-56.48 102.27,-86.22 17.11,-15.17 28.82,0.14 41.2,8.11 20.88,13.51 39.16,32.6 36.09,65.16 -6.53,70.41 -40.46,118.5 -88.34,153.67 -5.71,4.2 -12.52,6.03 -18.83,8.96 -2.97,1.8 -5.79,4.13 -8.93,5.29 -45.76,17.6 -47.48,16.83 -73.55,-31.4zm663.75 994.41c-29.71,27.66 -58.92,56.17 -88.34,84.35 -43.92,46.53 -43.92,46.46 -83.61,-5.71 -8.08,-10.69 -15.94,-21.84 -24.97,-31.19 -9.18,-9.56 -23.04,-19.37 -32.21,-10.23 -9.35,9.35 -9.32,28.47 -1.87,43.39 12.8,25.76 25.22,51.97 39.51,76.49 9.1,15.52 10.3,24.55 -3.6,37.64 -61.98,58.31 -123.33,117.61 -184.08,177.8 -13.93,13.79 -21.87,12.66 -32.21,-4.24 -8.04,-13.08 -16.75,-26.28 -29.28,-34.25 -11.67,-7.41 -23.81,-8.15 -33.41,2.4 -9.38,10.33 -7.44,25.19 -1.72,37.6 6.7,14.4 13.47,29.43 22.75,41.24 13.83,17.78 9.7,27.77 -4.41,41.81 -47.48,47.23 -94.69,95.04 -140.16,145.1 -18.24,20.14 -32.35,16.93 -48.61,0.52 -11.78,-11.85 -23.11,-24.41 -35.35,-35.49 -6.14,-5.53 -14.67,-9.13 -21.41,-2.68 -7.73,7.27 -6.53,18.77 -3.32,28.68 2.79,8.61 6.81,16.73 10.9,24.59 29.46,57.01 28.15,64.6 -18.38,104.28 -23.25,24.24 -46.64,48.3 -69.67,72.82 -6.6,7.02 -11.36,10.58 -18.88,0.53 -52.91,-70.45 -113.55,-132.01 -159.49,-210.68 -11.67,-19.93 -12.91,-34.79 0.53,-54.86 55.81,-83.29 118.82,-157.8 182.92,-230.82 160.16,-182.49 324.2,-359.48 501.72,-516.5 24.06,-21.31 50.09,-39.23 75.03,-58.99 10.27,-8.04 17.64,-6.67 26.11,5.15 58.67,81.14 117.69,161.93 177.13,242.22 9.14,12.28 8.89,19.23 -1.62,29.03zm691.19 474.81c20.78,28.96 41.99,57.39 62.98,86.07 13.93,18.17 28.01,36.06 41.66,54.58 11.43,15.45 15.49,33.51 4.16,50.94 -26.42,40.64 -53.23,81.14 -86.96,113.17 -22.93,21.73 -41.41,21.34 -60.68,-4.65 -35.87,-48.44 -69.49,-99.35 -104.63,-148.77 -7.76,-10.9 -5.68,-18.13 2.29,-25.68 7.94,-7.62 15.91,-15.24 23.85,-22.83 29.63,-38.87 65.37,-69.35 96.84,-105.62 8.96,-10.27 13.97,-6.39 20.49,2.79zm-168.73 -233.12c32.42,45.58 64.74,91.3 97.79,136.21 12.03,16.3 13.34,31.57 5.12,50.87 -18.24,43.11 -44.56,75.67 -79.17,98.57 -41.91,31.96 -46.53,31.36 -79.34,-11.96 -175.79,-232.13 -350.23,-465.85 -527.96,-695.75 -65.02,-84.1 -120.97,-177.34 -185.14,-261.83 -83.89,-110.49 -179.42,-206.8 -263.42,-317.36 -27.66,-36.41 -59.2,-68.76 -81.1,-111.8 -8.44,-16.54 -9.67,-26.67 7.55,-34.08 11.92,-5.08 22.93,-13.19 34.32,-20 48.4,-37.22 89.68,-82.87 111.58,-149.65 6.28,-19.05 12.17,-10.76 19.83,-2.61 45.3,48.19 80.82,107.14 118.18,163.87 113.38,172.15 235.37,335 354.82,500.7 156.6,217.17 311.33,436.49 466.94,654.82zm532.41 -1424.13c-43.53,49.82 -43.53,49.78 -92.6,8.68 -9.84,-8.22 -19.9,-16.05 -29.95,-23.85 -12.38,-9.59 -28.54,-14.57 -37.5,-1.55 -8.61,12.52 1.02,29.81 10.23,40.85 14.46,17.5 29.53,34.72 45.65,49.85 13.93,13.02 16.3,21.34 1.13,36.65 -44.63,45.12 -88.3,91.55 -131.59,138.61 -11.29,12.24 -17.74,9.7 -26.67,-2.61 -12.38,-17.15 -25.65,-33.44 -39.3,-49.14 -6.45,-7.52 -11.43,-23.5 -24.52,-10.34 -11.74,11.78 -15.13,25.15 -6.49,40.89 7.16,12.91 15.7,24.59 23.07,37.32 18.88,32.63 18.17,45.37 -5.43,72.53 -35.98,41.45 -73.13,81.39 -108.55,123.51 -13.97,16.62 -24.66,13.51 -36.9,-0.49 -11.11,-12.77 -22.05,-26 -33.8,-37.93 -8.32,-8.36 -19.54,-12.13 -28.29,-3.74 -9.59,9.25 -9.95,24.59 -4.37,37.22 6.45,14.57 15.45,27.41 22.79,41.42 11.74,22.58 13.83,41.48 -6.46,61.8 -37.53,37.58 -73.13,78.18 -108.55,118.75 -13.37,15.31 -22.54,17.6 -34.43,-1.87 -9.6,-15.8 -21.66,-28.93 -38.1,-35.03 -17.46,-6.49 -26.28,-1.69 -24.31,21.87 -3.28,24.91 7.52,42.65 20.15,58.46 11.36,14.28 12.56,25.33 1.55,42.01 -39.02,59.27 -90.73,100.37 -137.44,148.63 -8.29,8.57 -12.03,0.28 -16.27,-5.51 -58.94,-80.89 -117.54,-162.17 -176.91,-242.64 -9.63,-13.15 -3.67,-18.9 3.52,-27.55 198.16,-237.95 397.34,-474.52 618.64,-680.75 67.09,-62.48 131.62,-128.84 194.41,-197.7 32.32,-35.42 45.51,-34.85 75.67,2.08 45.09,55.28 89.82,111.06 133.63,167.92 25.55,33.2 24.31,41.46 -2.01,71.65z"/>
   <path class="fil13" d="M3534.31 1388.52c-43.78,-56.9 -88.51,-112.68 -133.63,-167.92 -30.16,-36.94 -43.36,-37.54 -75.67,-2.08 -62.76,68.86 -127.32,135.18 -194.35,197.66 -221.33,206.27 -420.51,442.84 -618.66,680.76 -7.24,8.64 -13.2,14.39 -3.53,27.55 59.37,80.5 117.97,161.75 176.95,242.64 4.2,5.78 7.87,14.11 16.19,5.5 46.75,-48.26 98.46,-89.32 137.48,-148.59 11.01,-16.69 9.77,-27.76 -1.59,-42.01 -12.59,-15.84 -23.42,-33.59 -20.14,-58.5 -1.98,-23.56 6.84,-28.36 24.31,-21.9 16.44,6.14 28.54,19.26 38.1,35.06 11.88,19.48 21.09,17.18 34.46,1.87 35.42,-40.6 71.02,-81.17 108.52,-118.71 20.25,-20.39 18.24,-39.23 6.49,-61.8 -7.34,-14.04 -16.34,-26.85 -22.79,-41.42 -5.58,-12.66 -5.22,-28.01 4.3,-37.22 8.79,-8.43 20.01,-4.65 28.37,3.71 11.78,11.92 22.61,25.18 33.79,37.96 12.28,14 22.9,17.11 36.9,0.42 35.42,-42.05 72.57,-82.02 108.52,-123.47 23.63,-27.17 24.27,-39.87 5.43,-72.53 -7.37,-12.7 -15.88,-24.42 -23.04,-37.33 -8.67,-15.73 -5.22,-29.14 6.49,-40.89 13.13,-13.12 18.03,2.86 24.56,10.31 13.62,15.76 26.88,32.06 39.23,49.17 8.92,12.31 15.41,14.89 26.74,2.61 43.21,-47.02 86.92,-93.52 131.51,-138.57 15.14,-15.31 12.81,-23.67 -1.13,-36.69 -16.12,-15.13 -31.15,-32.35 -45.65,-49.84 -9.17,-11.05 -18.87,-28.3 -10.23,-40.86 8.96,-13.01 25.12,-8 37.54,1.56 10.05,7.76 20.07,15.62 29.92,23.84 49.1,41.07 49.1,41.14 92.6,-8.67 26.32,-30.2 27.55,-38.46 2.01,-71.62z"/>
   <path class="fil14" d="M2178.15 1728.74c-37.4,-56.69 -72.89,-115.67 -118.22,-163.86 -7.62,-8.12 -13.51,-16.41 -19.79,2.64 -21.91,66.78 -63.18,112.36 -111.58,149.61 22.26,28.44 43.74,57.82 66.85,85.13 106.47,125.91 204.96,260.81 302.22,397.33 61.39,86.19 124.39,170.68 192.69,249.24 36.48,41.91 68.76,89.36 102.41,134.97 106.01,143.69 212.87,286.46 317.01,432.23 33.48,46.88 68.61,92.32 99.38,142.17 3.84,6.21 8.6,9.87 14.53,11.71 34.57,-22.86 60.92,-55.46 79.16,-98.53 8.22,-19.33 6.92,-34.57 -5.15,-50.91 -33.02,-44.91 -65.33,-90.63 -97.75,-136.21 -155.61,-218.36 -310.34,-437.62 -466.94,-654.82 -119.45,-165.67 -241.47,-328.54 -354.82,-500.7z"/>
   <path class="fil13" d="M2192.58 2590.69c-110.03,107.81 -219.21,216.95 -330.06,323.39 -87.91,84.35 -167.32,180.13 -250.57,270.68 -16.62,18.14 -11.65,27.77 2.4,39.8 19.47,16.68 38.55,34.18 58.56,49.84 33.09,25.9 62.33,57.4 90.77,90.25 46.53,-39.66 47.83,-47.24 18.34,-104.25 -4.06,-7.9 -8.08,-15.98 -10.86,-24.59 -3.22,-9.91 -4.41,-21.41 3.28,-28.68 6.77,-6.42 15.31,-2.82 21.44,2.72 12.28,11.04 23.57,23.6 35.35,35.45 16.27,16.4 30.34,19.62 48.62,-0.49 45.5,-50.06 92.67,-97.9 140.15,-145.14 14.12,-14.04 18.24,-24.02 4.38,-41.8 -9.21,-11.82 -16.05,-26.85 -22.68,-41.28 -5.75,-12.38 -7.7,-27.23 1.69,-37.57 9.56,-10.54 21.73,-9.8 33.37,-2.39 12.53,8 21.31,21.16 29.32,34.25 10.33,16.86 18.27,18.03 32.21,4.23 60.74,-60.18 122.09,-119.48 184.08,-177.83 13.86,-13.05 12.62,-22.09 3.59,-37.61 -14.28,-24.52 -26.7,-50.73 -39.54,-76.48 -7.45,-14.92 -7.48,-34.01 1.94,-43.39 9.13,-9.1 22.93,0.67 32.17,10.23 9.03,9.35 16.93,20.49 25.01,31.18 39.66,52.18 39.66,52.25 83.54,5.72 -38.95,-49.35 -83.47,-90.98 -125.48,-136 -34.05,-36.37 -35,-35.59 -71.02,-0.24z"/>
   <path class="fil15" d="M2301.93 2371.3c-8.5,-11.74 -15.84,-13.19 -26.07,-5.15 -24.94,19.79 -51.01,37.72 -75.07,58.99 -177.52,157.05 -341.53,334.04 -501.72,516.5 -64.1,73.1 -127.11,147.57 -182.88,230.86 -13.48,20.11 -12.24,34.92 -0.57,54.89 45.97,78.6 106.58,140.19 159.49,210.68 7.52,9.98 12.28,6.45 18.84,-0.57 23.07,-24.51 46.46,-48.57 69.71,-72.81 -5.64,2.54 -10.23,-0.74 -13.72,-5.26 -38.17,-48.68 -86.71,-80.43 -130.07,-120.57 -31.89,-29.53 -32.07,-35.6 -3.81,-68.66 120.83,-141.14 248.53,-272.09 381.6,-395.64 70.45,-65.37 137.27,-136.56 205.42,-205.59 23.92,-24.2 27.1,-23.71 51.23,1.65 39.47,41.38 78.1,83.79 117.61,124.99 7.87,8.19 20.29,13.66 17.18,31.33 29.42,-28.22 58.63,-56.69 88.37,-84.38 10.48,-9.78 10.73,-16.73 1.63,-29 -59.48,-80.26 -118.5,-161.08 -177.17,-242.26z"/>
   <path class="fil15" d="M2371.93 2695.61c-39.51,-41.21 -78.21,-83.58 -117.61,-124.96 -24.17,-25.4 -27.31,-25.89 -51.23,-1.69 -68.19,69 -134.97,140.23 -205.42,205.6 -133.07,123.51 -260.81,254.49 -381.63,395.64 -28.26,33.05 -28.09,39.12 3.84,68.65 43.32,40.18 91.86,71.89 130.03,120.58 3.53,4.48 8.12,7.83 13.76,5.25 -28.43,-32.87 -57.68,-64.38 -90.77,-90.27 -20,-15.66 -39.08,-33.16 -58.56,-49.85 -14.04,-12.03 -19.01,-21.66 -2.4,-39.76 83.26,-90.59 162.67,-186.37 250.58,-270.72 110.84,-106.43 220.03,-215.58 330.06,-323.39 36.05,-35.38 37.01,-36.12 71.01,0.25 42.06,45.01 86.58,86.64 125.49,135.99 3.1,-17.67 -9.28,-23.14 -17.15,-31.32z"/>
   <path class="fil16" d="M3002.18 3158.4c-58.17,-80.11 -115.85,-160.86 -172.83,-242.18 -100.89,-143.97 -207.53,-281.34 -311.75,-421.46 -57.15,-76.91 -121.7,-145.31 -176.95,-224.65 -73.34,-105.48 -149.61,-207.68 -226.38,-309.42 -55.95,-74.12 -115,-144.57 -173.85,-215.23 -6.38,-7.66 -15.52,-14.08 -11.85,-28.29 -11.43,6.77 -22.4,14.88 -34.32,20 -17.25,7.37 -15.98,17.5 -7.55,34.08 21.9,43 53.44,75.32 81.14,111.76 83.96,110.56 179.49,206.87 263.38,317.39 64.17,84.49 120.12,177.7 185.14,261.8 177.73,229.9 352.14,463.65 527.93,695.75 32.81,43.35 37.46,43.92 79.34,11.96 -9.98,4.09 -15.45,-3.29 -21.45,-11.51z"/>
   <path class="fil16" d="M3009.11 3158.2c-30.8,-49.82 -65.87,-95.25 -99.35,-142.17 -104.17,-145.77 -211.03,-288.54 -317.04,-432.23 -33.65,-45.58 -65.93,-93.02 -102.41,-134.97 -68.3,-78.53 -131.3,-163.05 -192.69,-249.27 -97.26,-136.49 -195.75,-271.39 -302.19,-397.3 -23.14,-27.31 -44.62,-56.66 -66.88,-85.09 -3.64,14.22 5.5,20.64 11.89,28.33 58.87,70.62 117.86,141.07 173.84,215.19 76.73,101.71 153.07,203.94 226.38,309.42 55.21,79.38 119.77,147.75 176.92,224.65 104.25,140.13 210.89,277.5 311.75,421.43 57.01,81.35 114.65,162.1 172.86,242.22 6,8.22 11.47,15.63 21.45,11.5 -5.93,-1.84 -10.69,-5.5 -14.53,-11.71z"/>
   <path class="fil17" d="M1896.17 1674.29c6.31,-2.93 13.12,-4.76 18.83,-8.96 47.88,-35.21 81.81,-83.26 88.34,-153.71 3.07,-32.52 -15.21,-51.61 -36.09,-65.12 -12.38,-7.97 -24.09,-23.32 -41.2,-8.11 -33.55,29.74 -68.13,57.57 -102.27,86.18 16.89,55.25 33.44,110.63 72.39,149.72z"/>
   <path class="fil18" d="M3186.73 3310.02c-30.44,47.63 -30.8,46.5 -64.38,2.82 -23.71,-30.86 -44.38,-65.26 -71.05,-92.64 -7.94,7.62 -15.91,15.24 -23.85,22.86 -7.97,7.55 -10.05,14.79 -2.29,25.69 35.14,49.35 68.76,100.33 104.63,148.76 19.27,25.97 37.75,26.36 60.68,4.66 33.73,-32.03 60.54,-72.53 86.96,-113.21 11.33,-17.42 7.27,-35.45 -4.16,-50.94 -13.65,-18.48 -27.73,-36.37 -41.66,-54.57 4.9,48.05 -24.56,74.86 -44.88,106.57z"/>
   <path class="fil17" d="M3051.31 3220.21c12.59,-3.11 17.67,9.77 24.27,18.31 21.48,27.69 42.61,55.88 63.29,84.59 11.99,16.69 21.41,16.23 32.31,-1.44 13.3,-21.35 26.71,-42.9 41.91,-62.2 12.81,-16.19 5.51,-40.92 18.52,-56.02 -20.99,-28.68 -42.19,-57.11 -62.97,-86.08 -6.56,-9.13 -11.53,-13.01 -20.49,-2.78 -31.47,36.3 -67.21,66.74 -96.84,105.62z"/>
   <path class="fil17" d="M3171.2 3321.67c-10.98,17.67 -20.32,18.13 -32.35,1.44 -20.64,-28.71 -41.81,-56.9 -63.26,-84.59 -6.59,-8.54 -11.71,-21.42 -24.27,-18.31 26.64,27.37 47.31,61.77 71.02,92.64 33.62,43.64 33.93,44.8 64.38,-2.83 20.35,-31.71 49.81,-58.52 44.91,-106.57 -13.06,15.1 -5.72,39.83 -18.56,56.02 -15.17,19.3 -28.57,40.85 -41.87,62.2z"/>
   <path class="fil19" d="M1867.44 1412.08c12.48,-22.82 12.48,-36.26 -12.63,-44.59 -18.49,-6.17 -35.21,-20.07 -52.82,-30.23 -26.77,-15.45 -52.59,-33.94 -82.65,-38.88 24.13,62.27 53.3,120.97 86.71,176.43 26.42,-12.21 45.76,-34.33 61.39,-62.73z"/>
   <path class="fil20" d="M1806.04 1474.82c-10.79,1.84 -14.78,-8.5 -19.05,-17.04 -21.8,-43.42 -43.43,-87.06 -64.63,-130.95 -4.13,-8.57 -10.16,-17.67 -3.07,-28.43 -10.76,-7.94 -22.12,-6.99 -34.36,-4.38 6.56,53.94 20.6,103.65 39.9,151.24 25.9,63.71 25.97,63.68 77.51,33.55 1.41,-0.88 2.47,-2.65 3.7,-3.99z"/>
   <path class="fil20" d="M1722.36 1326.82c21.24,43.92 42.79,87.52 64.63,130.95 4.31,8.57 8.26,18.91 19.05,17.04 -33.37,-55.46 -62.55,-114.16 -86.75,-176.46 -7.09,10.79 -1.06,19.86 3.07,28.47z"/>
   <path class="fil18" d="M1896.17 1674.29c-12.92,0.95 -19.34,-11.01 -26.04,-21.06 -22.22,-33.06 -35.31,-72.25 -48.4,-111.34 -1.94,-5.89 -2.01,-12.13 2.05,-17.32 -55.67,40.92 -55.67,40.92 -20.18,105.66 3.28,5.99 6.84,11.89 10.09,17.95 26.07,48.23 27.79,49 73.55,31.4 3.14,-1.2 5.96,-3.49 8.93,-5.29z"/>
   <path class="fil18" d="M1821.72 1541.88c13.09,39.12 26.17,78.31 48.4,111.37 6.74,10.02 13.12,21.98 26.03,21.03 -38.94,-39.09 -55.49,-94.48 -72.35,-149.69 -4.09,5.15 -4.02,11.4 -2.08,17.29z"/>
  </g>
 </g>
</svg>
