<?xml version="1.0" encoding="UTF-8" standalone="no"?>
<!-- Created with Inkscape (http://www.inkscape.org/) -->

<svg
   version="1.1"
   id="svg1"
   width="1350"
   height="550"
   viewBox="0 0 1350 549.99999"
   xmlns="http://www.w3.org/2000/svg"
   xmlns:svg="http://www.w3.org/2000/svg">
  <defs
     id="defs1">
    <rect
       x="487.17575"
       y="319.70908"
       width="1140.1498"
       height="160.70033"
       id="rect292" />
    <rect
       x="485.48416"
       y="340.00806"
       width="614.04443"
       height="93.037033"
       id="rect291" />
    <clipPath
       clipPathUnits="userSpaceOnUse"
       id="clipPath14">
      <path
         d="M -23.2347,58.2892 H 428.33 V 26.1688 H -23.2347 Z"
         transform="translate(-428.33031,-42.228904)"
         id="path14" />
    </clipPath>
    <clipPath
       clipPathUnits="userSpaceOnUse"
       id="clipPath16">
      <path
         d="M 0,0 H 1200 V 628 H 0 Z"
         transform="matrix(1.3333333,0,0,-1.3333333,0,837.33333)"
         id="path16" />
    </clipPath>
    <clipPath
       clipPathUnits="userSpaceOnUse"
       id="clipPath18">
      <path
         d="M 0,628 H 1200 V 0 H 0 Z"
         transform="translate(-805.975,-326.41851)"
         id="path18" />
    </clipPath>
    <clipPath
       clipPathUnits="userSpaceOnUse"
       id="clipPath20">
      <path
         d="M 0,628 H 1200 V 0 H 0 Z"
         transform="translate(-422.13951,-341.77161)"
         id="path20" />
    </clipPath>
    <clipPath
       clipPathUnits="userSpaceOnUse"
       id="clipPath22">
      <path
         d="M 0,628 H 1200 V 0 H 0 Z"
         transform="translate(-789.49764,-341.77161)"
         id="path22" />
    </clipPath>
    <clipPath
       clipPathUnits="userSpaceOnUse"
       id="clipPath26">
      <path
         d="M 0,628 H 1200 V 0 H 0 Z"
         transform="translate(-230.71291,-352.14311)"
         id="path26" />
    </clipPath>
    <clipPath
       clipPathUnits="userSpaceOnUse"
       id="clipPath28">
      <path
         d="M 0,628 H 1200 V 0 H 0 Z"
         transform="translate(-977.86052,-338.62411)"
         id="path28" />
    </clipPath>
    <clipPath
       clipPathUnits="userSpaceOnUse"
       id="clipPath30">
      <path
         d="M 0,628 H 1200 V 0 H 0 Z"
         transform="translate(-201.6553,-421.93581)"
         id="path30" />
    </clipPath>
    <clipPath
       clipPathUnits="userSpaceOnUse"
       id="clipPath32">
      <path
         d="M 0,628 H 1200 V 0 H 0 Z"
         transform="translate(-385.21121,-219.3605)"
         id="path32" />
    </clipPath>
    <clipPath
       clipPathUnits="userSpaceOnUse"
       id="clipPath34">
      <path
         d="M 0,628 H 1200 V 0 H 0 Z"
         transform="translate(-867.76022,-224.7473)"
         id="path34" />
    </clipPath>
    <clipPath
       clipPathUnits="userSpaceOnUse"
       id="clipPath36">
      <path
         d="M 0,628 H 1200 V 0 H 0 Z"
         transform="translate(-797.00004,-543.10311)"
         id="path36" />
    </clipPath>
    <clipPath
       clipPathUnits="userSpaceOnUse"
       id="clipPath38">
      <path
         d="M 0,628 H 1200 V 0 H 0 Z"
         transform="translate(-1034.0394,-421.93581)"
         id="path38" />
    </clipPath>
    <clipPath
       clipPathUnits="userSpaceOnUse"
       id="clipPath40">
      <path
         d="M 0,628 H 1200 V 0 H 0 Z"
         transform="translate(-376.24571,-546.09521)"
         id="path40" />
    </clipPath>
    <clipPath
       clipPathUnits="userSpaceOnUse"
       id="clipPath62">
      <path
         d="M 0,0 H 1200 V 628 H 0 Z"
         transform="translate(-332.23981,-641.98012)"
         id="path62" />
    </clipPath>
    <clipPath
       clipPathUnits="userSpaceOnUse"
       id="clipPath64">
      <path
         d="M 0,0 H 1200 V 628 H 0 Z"
         transform="translate(-176.37591,-570.17171)"
         id="path64" />
    </clipPath>
    <clipPath
       clipPathUnits="userSpaceOnUse"
       id="clipPath66">
      <path
         d="M 0,0 H 1200 V 628 H 0 Z"
         transform="translate(-210.90021,-574.26841)"
         id="path66" />
    </clipPath>
    <clipPath
       clipPathUnits="userSpaceOnUse"
       id="clipPath68">
      <path
         d="M 0,0 H 1200 V 628 H 0 Z"
         transform="translate(-221.6275,-544.92851)"
         id="path68" />
    </clipPath>
    <clipPath
       clipPathUnits="userSpaceOnUse"
       id="clipPath70">
      <path
         d="M 0,0 H 1200 V 628 H 0 Z"
         transform="translate(10.4545,-543.47012)"
         id="path70" />
    </clipPath>
    <clipPath
       clipPathUnits="userSpaceOnUse"
       id="clipPath72">
      <path
         d="M 0,0 H 1200 V 628 H 0 Z"
         transform="translate(-8.7307,-524.41781)"
         id="path72" />
    </clipPath>
    <clipPath
       clipPathUnits="userSpaceOnUse"
       id="clipPath74">
      <path
         d="M 0,0 H 1200 V 628 H 0 Z"
         transform="translate(-87.125605,-549.24302)"
         id="path74" />
    </clipPath>
    <clipPath
       clipPathUnits="userSpaceOnUse"
       id="clipPath76">
      <path
         d="m 87.125,549.243 49.127,-72.386 16.934,85.828 z"
         transform="translate(-161.41131,-559.44271)"
         id="path76" />
    </clipPath>
    <clipPath
       clipPathUnits="userSpaceOnUse"
       id="clipPath78">
      <path
         d="m 87.125,549.243 49.127,-72.386 16.934,85.828 z"
         transform="translate(-164.64171,-543.56711)"
         id="path78" />
    </clipPath>
    <clipPath
       clipPathUnits="userSpaceOnUse"
       id="clipPath80">
      <path
         d="m 87.125,549.243 49.127,-72.386 16.934,85.828 z"
         transform="translate(-167.8719,-527.69151)"
         id="path80" />
    </clipPath>
    <clipPath
       clipPathUnits="userSpaceOnUse"
       id="clipPath82">
      <path
         d="m 87.125,549.243 49.127,-72.386 16.934,85.828 z"
         transform="translate(-171.10221,-511.81592)"
         id="path82" />
    </clipPath>
    <clipPath
       clipPathUnits="userSpaceOnUse"
       id="clipPath84">
      <path
         d="m 87.125,549.243 49.127,-72.386 16.934,85.828 z"
         transform="translate(-174.3325,-495.94021)"
         id="path84" />
    </clipPath>
    <clipPath
       clipPathUnits="userSpaceOnUse"
       id="clipPath86">
      <path
         d="M 0,0 H 1200 V 628 H 0 Z"
         transform="translate(-260.12431,-601.65231)"
         id="path86" />
    </clipPath>
    <clipPath
       clipPathUnits="userSpaceOnUse"
       id="clipPath88">
      <path
         d="M 310.065,628 260.124,601.653 327.606,545.98 320.21,628 Z"
         transform="translate(-352.47091,-548.23301)"
         id="path88" />
    </clipPath>
    <clipPath
       clipPathUnits="userSpaceOnUse"
       id="clipPath90">
      <path
         d="M 310.065,628 260.124,601.653 327.606,545.98 320.21,628 Z"
         transform="translate(-342.28081,-542.85681)"
         id="path90" />
    </clipPath>
    <clipPath
       clipPathUnits="userSpaceOnUse"
       id="clipPath92">
      <path
         d="M 310.065,628 260.124,601.653 327.606,545.98 320.21,628 Z"
         transform="translate(-332.09071,-537.48081)"
         id="path92" />
    </clipPath>
    <clipPath
       clipPathUnits="userSpaceOnUse"
       id="clipPath94">
      <path
         d="M 310.065,628 260.124,601.653 327.606,545.98 320.21,628 Z"
         transform="translate(-321.90051,-532.10471)"
         id="path94" />
    </clipPath>
    <clipPath
       clipPathUnits="userSpaceOnUse"
       id="clipPath96">
      <path
         d="M 310.065,628 260.124,601.653 327.606,545.98 320.21,628 Z"
         transform="translate(-311.71041,-526.72851)"
         id="path96" />
    </clipPath>
    <clipPath
       clipPathUnits="userSpaceOnUse"
       id="clipPath134">
      <path
         d="M 0,0 H 1200 V 628 H 0 Z"
         transform="translate(-1274.8297,-347.41811)"
         id="path134" />
    </clipPath>
    <clipPath
       clipPathUnits="userSpaceOnUse"
       id="clipPath136">
      <path
         d="M 0,0 H 1200 V 628 H 0 Z"
         transform="translate(-1261.0191,-357.80401)"
         id="path136" />
    </clipPath>
    <clipPath
       clipPathUnits="userSpaceOnUse"
       id="clipPath137">
      <path
         d="m 1180.34,423.194 h 42.74 v -93.702 h -42.74 z"
         transform="translate(-1220.8663,-331.04441)"
         id="path137" />
    </clipPath>
    <clipPath
       clipPathUnits="userSpaceOnUse"
       id="clipPath139">
      <path
         d="M 0,0 H 1200 V 628 H 0 Z"
         transform="matrix(1.3333333,0,0,-1.3333333,0,837.33333)"
         id="path139" />
    </clipPath>
    <clipPath
       clipPathUnits="userSpaceOnUse"
       id="clipPath141">
      <path
         d="M 0,0 H 1200 V 628 H 0 Z"
         transform="translate(-1220.5198,-315.41011)"
         id="path141" />
    </clipPath>
    <clipPath
       clipPathUnits="userSpaceOnUse"
       id="clipPath143">
      <path
         d="M 0,0 H 1200 V 628 H 0 Z"
         transform="translate(-1202.9745,-323.59501)"
         id="path143" />
    </clipPath>
    <clipPath
       clipPathUnits="userSpaceOnUse"
       id="clipPath144">
      <path
         d="m 1094.57,388.408 h 70.33 V 279.309 h -70.33 z"
         transform="translate(-1135.66,-280.8275)"
         id="path144" />
    </clipPath>
    <clipPath
       clipPathUnits="userSpaceOnUse"
       id="clipPath146">
      <path
         d="M 0,0 H 1200 V 628 H 0 Z"
         transform="matrix(1.3333333,0,0,-1.3333333,0,837.33333)"
         id="path146" />
    </clipPath>
    <clipPath
       clipPathUnits="userSpaceOnUse"
       id="clipPath148">
      <path
         d="M 0,0 H 1200 V 628 H 0 Z"
         transform="translate(-1136.4,-355.43801)"
         id="path148" />
    </clipPath>
    <clipPath
       clipPathUnits="userSpaceOnUse"
       id="clipPath149">
      <path
         d="m 1167.57,437.268 h 107.26 V 315.41 h -107.26 z"
         transform="translate(-1274.8297,-347.41811)"
         id="path149" />
    </clipPath>
    <clipPath
       clipPathUnits="userSpaceOnUse"
       id="clipPath151">
      <path
         d="M 0,0 H 1200 V 628 H 0 Z"
         transform="matrix(1.3333333,0,0,-1.3333333,0,837.33333)"
         id="path151" />
    </clipPath>
    <clipPath
       clipPathUnits="userSpaceOnUse"
       id="clipPath152">
      <path
         d="M 818.021,58.2892 H 1269.59 V 26.1688 H 818.021 Z"
         transform="translate(-1269.5862,-42.228904)"
         id="path152" />
    </clipPath>
    <clipPath
       clipPathUnits="userSpaceOnUse"
       id="clipPath154">
      <path
         d="M 0,0 H 1200 V 628 H 0 Z"
         transform="matrix(1.3333333,0,0,-1.3333333,0,837.33333)"
         id="path154" />
    </clipPath>
    <clipPath
       clipPathUnits="userSpaceOnUse"
       id="clipPath156">
      <path
         d="M 0,0 H 1200 V 628 H 0 Z"
         id="path156" />
    </clipPath>
    <clipPath
       clipPathUnits="userSpaceOnUse"
       id="clipPath158">
      <path
         d="M 0,0 H 1200 V 628 H 0 Z"
         transform="translate(-1201.6093,-59.644504)"
         id="path158" />
    </clipPath>
    <clipPath
       clipPathUnits="userSpaceOnUse"
       id="clipPath159">
      <path
         d="m 1151.82,137.018 h 49.55 V 55.0361 h -49.55 z"
         transform="translate(-1153.4304,-56.977901)"
         id="path159" />
    </clipPath>
    <clipPath
       clipPathUnits="userSpaceOnUse"
       id="clipPath161">
      <path
         d="M 0,0 H 1200 V 628 H 0 Z"
         transform="matrix(1.3333333,0,0,-1.3333333,0,837.33333)"
         id="path161" />
    </clipPath>
    <clipPath
       clipPathUnits="userSpaceOnUse"
       id="clipPath163">
      <path
         d="M 0,0 H 1200 V 628 H 0 Z"
         transform="translate(-1188.6901,-95.8313)"
         id="path163" />
    </clipPath>
    <clipPath
       clipPathUnits="userSpaceOnUse"
       id="clipPath165">
      <path
         d="M 0,0 H 1200 V 628 H 0 Z"
         id="path165" />
    </clipPath>
    <clipPath
       clipPathUnits="userSpaceOnUse"
       id="clipPath167">
      <path
         d="M 0,0 H 1200 V 628 H 0 Z"
         transform="translate(-1134.234,-59.644504)"
         id="path167" />
    </clipPath>
    <clipPath
       clipPathUnits="userSpaceOnUse"
       id="clipPath168">
      <path
         d="m 1051.86,137.018 h 81.98 V 55.0361 h -81.98 z"
         transform="translate(-1054.5273,-56.977901)"
         id="path168" />
    </clipPath>
    <clipPath
       clipPathUnits="userSpaceOnUse"
       id="clipPath170">
      <path
         d="M 0,0 H 1200 V 628 H 0 Z"
         transform="matrix(1.3333333,0,0,-1.3333333,0,837.33333)"
         id="path170" />
    </clipPath>
    <clipPath
       clipPathUnits="userSpaceOnUse"
       id="clipPath172">
      <path
         d="M 0,0 H 1200 V 628 H 0 Z"
         transform="translate(-1093.0473,-120.88)"
         id="path172" />
    </clipPath>
    <clipPath
       clipPathUnits="userSpaceOnUse"
       id="clipPath173">
      <path
         d="m 1145.19,147.978 h 63.04 V 43.6847 h -63.04 z"
         id="path173" />
    </clipPath>
    <clipPath
       clipPathUnits="userSpaceOnUse"
       id="clipPath175">
      <path
         d="M 0,0 H 1200 V 628 H 0 Z"
         transform="matrix(1.3333333,0,0,-1.3333333,0,837.33333)"
         id="path175" />
    </clipPath>
    <clipPath
       clipPathUnits="userSpaceOnUse"
       id="clipPath177">
      <path
         d="M 0,0 H 1200 V 628 H 0 Z"
         id="path177" />
    </clipPath>
    <clipPath
       clipPathUnits="userSpaceOnUse"
       id="clipPath179">
      <path
         d="M 0,0 H 1200 V 628 H 0 Z"
         transform="translate(-966.9007,-59.644504)"
         id="path179" />
    </clipPath>
    <clipPath
       clipPathUnits="userSpaceOnUse"
       id="clipPath180">
      <path
         d="m 884.527,137.018 h 81.982 V 55.0361 h -81.982 z"
         transform="translate(-887.19385,-56.977901)"
         id="path180" />
    </clipPath>
    <clipPath
       clipPathUnits="userSpaceOnUse"
       id="clipPath182">
      <path
         d="M 0,0 H 1200 V 628 H 0 Z"
         transform="matrix(1.3333333,0,0,-1.3333333,0,837.33333)"
         id="path182" />
    </clipPath>
    <clipPath
       clipPathUnits="userSpaceOnUse"
       id="clipPath184">
      <path
         d="M 0,0 H 1200 V 628 H 0 Z"
         transform="translate(-945.5272,-95.8313)"
         id="path184" />
    </clipPath>
    <clipPath
       clipPathUnits="userSpaceOnUse"
       id="clipPath186">
      <path
         d="M 0,0 H 1200 V 628 H 0 Z"
         id="path186" />
    </clipPath>
    <clipPath
       clipPathUnits="userSpaceOnUse"
       id="clipPath188">
      <path
         d="M 0,0 H 1200 V 628 H 0 Z"
         transform="translate(-1034.2761,-59.644504)"
         id="path188" />
    </clipPath>
    <clipPath
       clipPathUnits="userSpaceOnUse"
       id="clipPath189">
      <path
         d="m 984.485,137.018 h 49.555 V 55.0361 h -49.555 z"
         transform="translate(-986.0971,-56.977901)"
         id="path189" />
    </clipPath>
    <clipPath
       clipPathUnits="userSpaceOnUse"
       id="clipPath191">
      <path
         d="M 0,0 H 1200 V 628 H 0 Z"
         transform="matrix(1.3333333,0,0,-1.3333333,0,837.33333)"
         id="path191" />
    </clipPath>
    <clipPath
       clipPathUnits="userSpaceOnUse"
       id="clipPath193">
      <path
         d="M 0,0 H 1200 V 628 H 0 Z"
         transform="translate(-993.67652,-73.331299)"
         id="path193" />
    </clipPath>
    <clipPath
       clipPathUnits="userSpaceOnUse"
       id="clipPath194">
      <path
         d="m 977.86,147.978 h 63.04 V 43.6847 h -63.04 z"
         id="path194" />
    </clipPath>
    <clipPath
       clipPathUnits="userSpaceOnUse"
       id="clipPath196">
      <path
         d="M 0,0 H 1200 V 628 H 0 Z"
         transform="matrix(1.3333333,0,0,-1.3333333,0,837.33333)"
         id="path196" />
    </clipPath>
    <clipPath
       clipPathUnits="userSpaceOnUse"
       id="clipPath198">
      <path
         d="M 0,0 H 1200 V 628 H 0 Z"
         id="path198" />
    </clipPath>
    <clipPath
       clipPathUnits="userSpaceOnUse"
       id="clipPath200">
      <path
         d="M 0,0 H 1200 V 628 H 0 Z"
         transform="translate(-1025.4009,-163.93771)"
         id="path200" />
    </clipPath>
    <clipPath
       clipPathUnits="userSpaceOnUse"
       id="clipPath201">
      <path
         d="m 943.027,241.311 h 81.983 v -81.982 h -81.983 z"
         transform="translate(-945.69385,-161.27101)"
         id="path201" />
    </clipPath>
    <clipPath
       clipPathUnits="userSpaceOnUse"
       id="clipPath203">
      <path
         d="M 0,0 H 1200 V 628 H 0 Z"
         transform="matrix(1.3333333,0,0,-1.3333333,0,837.33333)"
         id="path203" />
    </clipPath>
    <clipPath
       clipPathUnits="userSpaceOnUse"
       id="clipPath205">
      <path
         d="M 0,0 H 1200 V 628 H 0 Z"
         transform="translate(-987.71642,-197.04661)"
         id="path205" />
    </clipPath>
    <clipPath
       clipPathUnits="userSpaceOnUse"
       id="clipPath207">
      <path
         d="M 0,0 H 1200 V 628 H 0 Z"
         id="path207" />
    </clipPath>
    <clipPath
       clipPathUnits="userSpaceOnUse"
       id="clipPath209">
      <path
         d="M 0,0 H 1200 V 628 H 0 Z"
         transform="translate(-1092.7761,-163.93771)"
         id="path209" />
    </clipPath>
    <clipPath
       clipPathUnits="userSpaceOnUse"
       id="clipPath210">
      <path
         d="m 1042.99,241.311 h 49.55 v -81.982 h -49.55 z"
         transform="translate(-1044.597,-161.27101)"
         id="path210" />
    </clipPath>
    <clipPath
       clipPathUnits="userSpaceOnUse"
       id="clipPath212">
      <path
         d="M 0,0 H 1200 V 628 H 0 Z"
         transform="matrix(1.3333333,0,0,-1.3333333,0,837.33333)"
         id="path212" />
    </clipPath>
    <clipPath
       clipPathUnits="userSpaceOnUse"
       id="clipPath214">
      <path
         d="M 0,0 H 1200 V 628 H 0 Z"
         transform="translate(-1074.5592,-193.4503)"
         id="path214" />
    </clipPath>
    <clipPath
       clipPathUnits="userSpaceOnUse"
       id="clipPath215">
      <path
         d="m 1036.36,252.271 h 63.04 V 147.978 h -63.04 z"
         id="path215" />
    </clipPath>
    <clipPath
       clipPathUnits="userSpaceOnUse"
       id="clipPath217">
      <path
         d="M 0,0 H 1200 V 628 H 0 Z"
         transform="matrix(1.3333333,0,0,-1.3333333,0,837.33333)"
         id="path217" />
    </clipPath>
    <clipPath
       clipPathUnits="userSpaceOnUse"
       id="clipPath219">
      <path
         d="M 0,628 H 1200 V 0 H 0 Z"
         id="path219" />
    </clipPath>
    <clipPath
       clipPathUnits="userSpaceOnUse"
       id="clipPath221">
      <path
         d="M 0,628 H 1200 V 0 H 0 Z"
         id="path221" />
    </clipPath>
    <clipPath
       clipPathUnits="userSpaceOnUse"
       id="clipPath222">
      <path
         d="m 324.647,118.883 h 37.599 V 43.6847 h -37.599 z"
         id="path222" />
    </clipPath>
    <clipPath
       clipPathUnits="userSpaceOnUse"
       id="clipPath224">
      <path
         d="M 0,628 H 1200 V 0 H 0 Z"
         transform="matrix(1.3333333,0,0,-1.3333333,0,837.33333)"
         id="path224" />
    </clipPath>
    <clipPath
       clipPathUnits="userSpaceOnUse"
       id="clipPath226">
      <path
         d="M 0,628 H 1200 V 0 H 0 Z"
         id="path226" />
    </clipPath>
    <clipPath
       clipPathUnits="userSpaceOnUse"
       id="clipPath228">
      <path
         d="M 0,628 H 1200 V 0 H 0 Z"
         id="path228" />
    </clipPath>
    <clipPath
       clipPathUnits="userSpaceOnUse"
       id="clipPath230">
      <path
         d="M 0,628 H 1200 V 0 H 0 Z"
         transform="translate(-49.033101,-156.90841)"
         id="path230" />
    </clipPath>
    <clipPath
       clipPathUnits="userSpaceOnUse"
       id="clipPath232">
      <path
         d="M 0,628 H 1200 V 0 H 0 Z"
         transform="translate(-172.04151,-261.74531)"
         id="path232" />
    </clipPath>
    <clipPath
       clipPathUnits="userSpaceOnUse"
       id="clipPath234">
      <path
         d="M 0,628 H 1200 V 0 H 0 Z"
         transform="translate(-155.2677,-156.90841)"
         id="path234" />
    </clipPath>
    <clipPath
       clipPathUnits="userSpaceOnUse"
       id="clipPath236">
      <path
         d="M 0,628 H 1200 V 0 H 0 Z"
         transform="translate(-102.1504,-413.40921)"
         id="path236" />
    </clipPath>
    <clipPath
       clipPathUnits="userSpaceOnUse"
       id="clipPath238">
      <path
         d="M 0,628 H 1200 V 0 H 0 Z"
         transform="translate(-102.1504,-413.40921)"
         id="path238" />
    </clipPath>
    <clipPath
       clipPathUnits="userSpaceOnUse"
       id="clipPath240">
      <path
         d="M 0,628 H 1200 V 0 H 0 Z"
         transform="translate(-53.591401,-351.90501)"
         id="path240" />
    </clipPath>
    <clipPath
       clipPathUnits="userSpaceOnUse"
       id="clipPath242">
      <path
         d="M 0,628 H 1200 V 0 H 0 Z"
         transform="translate(-111.23631,-52.770701)"
         id="path242" />
    </clipPath>
    <clipPath
       clipPathUnits="userSpaceOnUse"
       id="clipPath243">
      <path
         d="m 41.493,389.505 h 61.099 V 169.191 H 41.493 Z"
         transform="translate(-93.064502,-389.50251)"
         id="path243" />
    </clipPath>
    <clipPath
       clipPathUnits="userSpaceOnUse"
       id="clipPath245">
      <path
         d="M 0,628 H 1200 V 0 H 0 Z"
         transform="matrix(1.3333333,0,0,-1.3333333,0,837.33333)"
         id="path245" />
    </clipPath>
    <clipPath
       clipPathUnits="userSpaceOnUse"
       id="clipPath247">
      <path
         d="M 0,628 H 1200 V 0 H 0 Z"
         transform="translate(-132.553,-300.36011)"
         id="path247" />
    </clipPath>
    <clipPath
       clipPathUnits="userSpaceOnUse"
       id="clipPath249">
      <path
         d="M 0,628 H 1200 V 0 H 0 Z"
         transform="translate(-124.22421,-300.36011)"
         id="path249" />
    </clipPath>
    <clipPath
       clipPathUnits="userSpaceOnUse"
       id="clipPath250">
      <path
         d="m 124.224,300.36 c 0,-12.191 -9.883,-22.074 -22.074,-22.074 -12.191,0 -22.073,9.883 -22.073,22.074 0,12.191 9.882,22.074 22.073,22.074 12.191,0 22.074,-9.883 22.074,-22.074"
         transform="translate(-70.000502,-276.24781)"
         id="path250" />
    </clipPath>
    <clipPath
       clipPathUnits="userSpaceOnUse"
       id="clipPath251">
      <path
         d="M 68.2253,341.997 H 130.085 V 267.089 H 68.2253 Z"
         transform="matrix(1.3333333,0,0,-1.3333333,0,837.33333)"
         id="path251" />
    </clipPath>
    <clipPath
       clipPathUnits="userSpaceOnUse"
       id="clipPath252">
      <path
         d="M 68.2253,341.997 H 130.085 V 267.089 H 68.2253 Z"
         transform="translate(-79.788302,-269.9576)"
         id="path252" />
    </clipPath>
    <clipPath
       clipPathUnits="userSpaceOnUse"
       id="clipPath255">
      <path
         d="M 0,628 H 1200 V 0 H 0 Z"
         transform="matrix(1.3333333,0,0,-1.3333333,0,837.33333)"
         id="path255" />
    </clipPath>
    <clipPath
       clipPathUnits="userSpaceOnUse"
       id="clipPath257">
      <path
         d="M 0,628 H 1200 V 0 H 0 Z"
         transform="translate(-132.553,-217.79251)"
         id="path257" />
    </clipPath>
    <clipPath
       clipPathUnits="userSpaceOnUse"
       id="clipPath259">
      <path
         d="M 0,628 H 1200 V 0 H 0 Z"
         transform="translate(-124.22421,-217.79251)"
         id="path259" />
    </clipPath>
    <clipPath
       clipPathUnits="userSpaceOnUse"
       id="clipPath260">
      <path
         d="m 124.224,217.792 c 0,-12.191 -9.883,-22.073 -22.074,-22.073 -12.191,0 -22.073,9.882 -22.073,22.073 0,12.192 9.882,22.074 22.073,22.074 12.191,0 22.074,-9.882 22.074,-22.074"
         transform="translate(-70.000502,-193.6801)"
         id="path260" />
    </clipPath>
    <clipPath
       clipPathUnits="userSpaceOnUse"
       id="clipPath261">
      <path
         d="M 68.2253,259.43 H 130.085 V 184.521 H 68.2253 Z"
         transform="matrix(1.3333333,0,0,-1.3333333,0,837.33333)"
         id="path261" />
    </clipPath>
    <clipPath
       clipPathUnits="userSpaceOnUse"
       id="clipPath262">
      <path
         d="M 68.2253,259.43 H 130.085 V 184.521 H 68.2253 Z"
         transform="translate(-79.788302,-187.3898)"
         id="path262" />
    </clipPath>
    <clipPath
       clipPathUnits="userSpaceOnUse"
       id="clipPath265">
      <path
         d="M 0,628 H 1200 V 0 H 0 Z"
         transform="matrix(1.3333333,0,0,-1.3333333,0,837.33333)"
         id="path265" />
    </clipPath>
    <clipPath
       clipPathUnits="userSpaceOnUse"
       id="clipPath267">
      <path
         d="M 0,628 H 1200 V 0 H 0 Z"
         id="path267" />
    </clipPath>
    <clipPath
       clipPathUnits="userSpaceOnUse"
       id="clipPath268">
      <path
         d="m 199.735,146.455 h 13.786 V 43.6847 h -13.786 z"
         id="path268" />
    </clipPath>
    <clipPath
       clipPathUnits="userSpaceOnUse"
       id="clipPath270">
      <path
         d="M 0,628 H 1200 V 0 H 0 Z"
         transform="matrix(1.3333333,0,0,-1.3333333,0,837.33333)"
         id="path270" />
    </clipPath>
    <clipPath
       clipPathUnits="userSpaceOnUse"
       id="clipPath272">
      <path
         d="M 0,628 H 1200 V 0 H 0 Z"
         transform="translate(-222.2941,-146.45521)"
         id="path272" />
    </clipPath>
    <clipPath
       clipPathUnits="userSpaceOnUse"
       id="clipPath274">
      <path
         d="M 0,628 H 1200 V 0 H 0 Z"
         transform="translate(-199.00641,-258.9971)"
         id="path274" />
    </clipPath>
    <clipPath
       clipPathUnits="userSpaceOnUse"
       id="clipPath275">
      <path
         d="M 168.431,258.997 H 343.287 V 118.898 H 168.431 Z"
         transform="translate(-199.00641,-258.9971)"
         id="path275" />
    </clipPath>
    <clipPath
       clipPathUnits="userSpaceOnUse"
       id="clipPath277">
      <path
         d="M 0,628 H 1200 V 0 H 0 Z"
         transform="matrix(1.3333333,0,0,-1.3333333,0,837.33333)"
         id="path277" />
    </clipPath>
    <clipPath
       clipPathUnits="userSpaceOnUse"
       id="clipPath279">
      <path
         d="M 0,628 H 1200 V 0 H 0 Z"
         transform="translate(-189.06,-261.48941)"
         id="path279" />
    </clipPath>
    <clipPath
       clipPathUnits="userSpaceOnUse"
       id="clipPath281">
      <path
         d="M 0,628 H 1200 V 0 H 0 Z"
         transform="translate(-294.62901,-297.13211)"
         id="path281" />
    </clipPath>
    <clipPath
       clipPathUnits="userSpaceOnUse"
       id="clipPath282">
      <path
         d="M 195.643,301.072 H 340.047 V 212.281 H 195.643 Z"
         transform="translate(-294.62901,-297.13211)"
         id="path282" />
    </clipPath>
    <clipPath
       clipPathUnits="userSpaceOnUse"
       id="clipPath284">
      <path
         d="M 0,628 H 1200 V 0 H 0 Z"
         transform="matrix(1.3333333,0,0,-1.3333333,0,837.33333)"
         id="path284" />
    </clipPath>
    <clipPath
       clipPathUnits="userSpaceOnUse"
       id="clipPath286">
      <path
         d="M 0,628 H 1200 V 0 H 0 Z"
         transform="translate(-195.6429,-260.1113)"
         id="path286" />
    </clipPath>
    <clipPath
       clipPathUnits="userSpaceOnUse"
       id="clipPath8-4">
      <path
         d="M 0,500 H 500 V 0 H 0 Z"
         transform="matrix(1.3333333,0,0,-1.3333333,0,666.66667)"
         id="path8-7-7" />
    </clipPath>
    <clipPath
       clipPathUnits="userSpaceOnUse"
       id="clipPath6-7">
      <path
         d="m 86.35,278.21 h 99.41 V 262.32 H 86.35 Z"
         transform="translate(-185.7598,-271.6899)"
         id="path6-3-4" />
    </clipPath>
    <clipPath
       clipPathUnits="userSpaceOnUse"
       id="clipPath10-1">
      <path
         d="M 0,500 H 500 V 0 H 0 Z"
         transform="translate(-130.47411,-367.48341)"
         id="path10-2-1" />
    </clipPath>
    <clipPath
       clipPathUnits="userSpaceOnUse"
       id="clipPath12-9">
      <path
         d="M 0,500 H 500 V 0 H 0 Z"
         transform="translate(-147.604,-311.22021)"
         id="path12-9-8" />
    </clipPath>
    <clipPath
       clipPathUnits="userSpaceOnUse"
       id="clipPath14-1">
      <path
         d="M 0,500 H 500 V 0 H 0 Z"
         transform="translate(-115.1523,-312.04101)"
         id="path14-7-0" />
    </clipPath>
    <clipPath
       clipPathUnits="userSpaceOnUse"
       id="clipPath16-3">
      <path
         d="M 0,500 H 500 V 0 H 0 Z"
         transform="translate(-109.35741,-343.68461)"
         id="path16-5-2" />
    </clipPath>
    <clipPath
       clipPathUnits="userSpaceOnUse"
       id="clipPath18-5">
      <path
         d="M 0,500 H 500 V 0 H 0 Z"
         transform="translate(-163.55661,-365.64211)"
         id="path18-3-0" />
    </clipPath>
    <clipPath
       clipPathUnits="userSpaceOnUse"
       id="clipPath20-3">
      <path
         d="M 0,500 H 500 V 0 H 0 Z"
         transform="translate(-173.2666,-406.06351)"
         id="path20-4-2" />
    </clipPath>
    <clipPath
       clipPathUnits="userSpaceOnUse"
       id="clipPath22-2">
      <path
         d="M 0,500 H 500 V 0 H 0 Z"
         transform="translate(-172.10691,-405.09571)"
         id="path22-3-6" />
    </clipPath>
    <clipPath
       clipPathUnits="userSpaceOnUse"
       id="clipPath24-3">
      <path
         d="M 0,500 H 500 V 0 H 0 Z"
         transform="translate(-127.37301,-448.50981)"
         id="path24-21-3" />
    </clipPath>
    <clipPath
       clipPathUnits="userSpaceOnUse"
       id="clipPath26-6">
      <path
         d="M 0,500 H 500 V 0 H 0 Z"
         transform="translate(-151.0986,-391.48241)"
         id="path26-1-1" />
    </clipPath>
    <clipPath
       clipPathUnits="userSpaceOnUse"
       id="clipPath28-5">
      <path
         d="M 0,500 H 500 V 0 H 0 Z"
         transform="translate(-161.8872,-386.06051)"
         id="path28-3-8" />
    </clipPath>
    <clipPath
       clipPathUnits="userSpaceOnUse"
       id="clipPath30-2">
      <path
         d="M 0,500 H 500 V 0 H 0 Z"
         transform="translate(-132.1548,-400.82471)"
         id="path30-2-1" />
    </clipPath>
    <clipPath
       clipPathUnits="userSpaceOnUse"
       id="clipPath32-9">
      <path
         d="M 0,500 H 500 V 0 H 0 Z"
         transform="translate(-85.092302,-403.14601)"
         id="path32-5-3" />
    </clipPath>
    <clipPath
       clipPathUnits="userSpaceOnUse"
       id="clipPath34-9">
      <path
         d="M 0,500 H 500 V 0 H 0 Z"
         transform="translate(-121.17681,-392.96531)"
         id="path34-3-7" />
    </clipPath>
    <clipPath
       clipPathUnits="userSpaceOnUse"
       id="clipPath36-2">
      <path
         d="M 0,500 H 500 V 0 H 0 Z"
         transform="translate(-89.411102,-396.03321)"
         id="path36-5-1" />
    </clipPath>
    <clipPath
       clipPathUnits="userSpaceOnUse"
       id="clipPath38-3">
      <path
         d="M 0,500 H 500 V 0 H 0 Z"
         transform="translate(-107.93511,-392.72271)"
         id="path38-1-2" />
    </clipPath>
    <clipPath
       clipPathUnits="userSpaceOnUse"
       id="clipPath40-0">
      <path
         d="M 0,500 H 500 V 0 H 0 Z"
         transform="translate(-108.59571,-378.03471)"
         id="path40-2-9" />
    </clipPath>
    <clipPath
       clipPathUnits="userSpaceOnUse"
       id="clipPath42-2">
      <path
         d="M 0,500 H 500 V 0 H 0 Z"
         transform="translate(-108.59571,-378.03471)"
         id="path42-2-7" />
    </clipPath>
    <clipPath
       clipPathUnits="userSpaceOnUse"
       id="clipPath44-4">
      <path
         d="M 0,500 H 500 V 0 H 0 Z"
         transform="translate(-140.4478,-420.12891)"
         id="path44-2-5" />
    </clipPath>
    <clipPath
       clipPathUnits="userSpaceOnUse"
       id="clipPath46-0">
      <path
         d="M 0,500 H 500 V 0 H 0 Z"
         transform="translate(-147.59421,-311.22021)"
         id="path46-6-3" />
    </clipPath>
    <clipPath
       clipPathUnits="userSpaceOnUse"
       id="clipPath48-2">
      <path
         d="M 0,500 H 500 V 0 H 0 Z"
         transform="translate(-125.98,-274.86281)"
         id="path48-4-9" />
    </clipPath>
    <clipPath
       clipPathUnits="userSpaceOnUse"
       id="clipPath50-7">
      <path
         d="M 0,500 H 500 V 0 H 0 Z"
         transform="translate(-99.0493,-401.76761)"
         id="path50-0-8" />
    </clipPath>
    <clipPath
       clipPathUnits="userSpaceOnUse"
       id="clipPath52-7-0">
      <path
         d="M 0,500 H 500 V 0 H 0 Z"
         transform="translate(-100.9951,-402.20561)"
         id="path52-0-1" />
    </clipPath>
    <clipPath
       clipPathUnits="userSpaceOnUse"
       id="clipPath54-3-1">
      <path
         d="M 0,500 H 500 V 0 H 0 Z"
         transform="translate(-90.786602,-400.19191)"
         id="path54-4-4" />
    </clipPath>
    <clipPath
       clipPathUnits="userSpaceOnUse"
       id="clipPath56-0-7">
      <path
         d="M 0,500 H 500 V 0 H 0 Z"
         transform="translate(-114.9048,-401.12741)"
         id="path56-0-4" />
    </clipPath>
    <clipPath
       clipPathUnits="userSpaceOnUse"
       id="clipPath58-5-3">
      <path
         d="M 0,500 H 500 V 0 H 0 Z"
         transform="translate(-97.1035,-402.06451)"
         id="path58-3-9" />
    </clipPath>
    <clipPath
       clipPathUnits="userSpaceOnUse"
       id="clipPath60-1-9">
      <path
         d="M 0,500 H 500 V 0 H 0 Z"
         transform="translate(-109.5928,-345.62741)"
         id="path60-0-6" />
    </clipPath>
    <clipPath
       clipPathUnits="userSpaceOnUse"
       id="clipPath62-6-7">
      <path
         d="M 0,500 H 500 V 0 H 0 Z"
         transform="translate(-92.340302,-381.52251)"
         id="path62-7-6" />
    </clipPath>
    <clipPath
       clipPathUnits="userSpaceOnUse"
       id="clipPath64-5-2">
      <path
         d="M 0,500 H 500 V 0 H 0 Z"
         transform="translate(-111.35991,-387.91751)"
         id="path64-0-0" />
    </clipPath>
    <clipPath
       clipPathUnits="userSpaceOnUse"
       id="clipPath66-0-9">
      <path
         d="M 0,500 H 500 V 0 H 0 Z"
         transform="translate(-95.729005,-388.12701)"
         id="path66-4-6" />
    </clipPath>
    <clipPath
       clipPathUnits="userSpaceOnUse"
       id="clipPath68-5-2">
      <path
         d="M 0,500 H 500 V 0 H 0 Z"
         transform="translate(-121.37601,-362.10011)"
         id="path68-4-3" />
    </clipPath>
    <clipPath
       clipPathUnits="userSpaceOnUse"
       id="clipPath70-9-0">
      <path
         d="M 0,500 H 500 V 0 H 0 Z"
         transform="translate(-142.7622,-359.33451)"
         id="path70-5-3" />
    </clipPath>
    <clipPath
       clipPathUnits="userSpaceOnUse"
       id="clipPath72-6-5">
      <path
         d="M 0,500 H 500 V 0 H 0 Z"
         transform="translate(-119.42091,-360.31591)"
         id="path72-4-1" />
    </clipPath>
    <clipPath
       clipPathUnits="userSpaceOnUse"
       id="clipPath74-8-9">
      <path
         d="M 0,500 H 500 V 0 H 0 Z"
         transform="translate(-140.03121,-356.85251)"
         id="path74-2-6" />
    </clipPath>
    <clipPath
       clipPathUnits="userSpaceOnUse"
       id="clipPath76-1-7">
      <path
         d="M 0,500 H 500 V 0 H 0 Z"
         transform="translate(-129.08061,-375.77831)"
         id="path76-6-9" />
    </clipPath>
    <clipPath
       clipPathUnits="userSpaceOnUse"
       id="clipPath78-8-2">
      <path
         d="M 0,500 H 500 V 0 H 0 Z"
         transform="translate(-129.08061,-375.77831)"
         id="path78-31-7" />
    </clipPath>
  </defs>
  <g
     id="layer-MC0"
     transform="matrix(0.84356152,0,0,0.65697909,-0.05262768,-0.2051361)">
    <path
       id="path1"
       d="M -0.3364114,837.7445 H 1599.6635 V 0.41118709 H -0.3364114 Z"
       style="fill:#fffbf8;fill-opacity:1;fill-rule:nonzero;stroke:none;stroke-width:1.33333" />
  </g>
  <path
     id="path2"
     d="m 673.36926,549.90535 h 76.94068 V -0.20512454 h -76.94068 z"
     style="fill:#fff3ea;fill-opacity:1;fill-rule:nonzero;stroke:none;stroke-width:0.992594" />
  <path
     id="path3"
     d="m 529.69949,549.90535 h 76.94069 V -0.20512454 h -76.94069 z"
     style="fill:#fff3ea;fill-opacity:1;fill-rule:nonzero;stroke:none;stroke-width:0.992594" />
  <path
     id="path4"
     d="m 357.27156,549.90535 h 71.2098 V -0.20512454 h -71.2098 z"
     style="fill:#fff3ea;fill-opacity:1;fill-rule:nonzero;stroke:none;stroke-width:0.954912" />
  <path
     id="path5"
     d="m 213.76935,549.90535 h 67.86647 V -0.20512454 h -67.86647 z"
     style="fill:#fff3ea;fill-opacity:1;fill-rule:nonzero;stroke:none;stroke-width:0.932226" />
  <path
     id="path6"
     d="m 87.04269,549.90535 h 67.86647 V -0.20512454 H 87.04269 Z"
     style="fill:#fff3ea;fill-opacity:1;fill-rule:nonzero;stroke:none;stroke-width:0.932226" />
  <path
     id="path7"
     d="m 840.23472,549.90535 h 76.94071 V -0.20512454 h -76.94071 z"
     style="fill:#fff3ea;fill-opacity:1;fill-rule:nonzero;stroke:none;stroke-width:0.992594" />
  <path
     id="path8"
     d="m 1007.0991,549.90535 h 76.9418 V -0.20512454 h -76.9418 z"
     style="fill:#fff3ea;fill-opacity:1;fill-rule:nonzero;stroke:none;stroke-width:0.992594" />
  <path
     id="path9"
     d="m 1173.9645,549.90535 h 76.9407 V -0.20512454 h -76.9407 z"
     style="fill:#fff3ea;fill-opacity:1;fill-rule:nonzero;stroke:none;stroke-width:0.992594" />
  <path
     id="path10"
     d="M -0.05262768,405.24294 H 1349.6458 v -6.04245 H -0.05262768 Z"
     style="fill:#7c90d8;fill-opacity:1;fill-rule:nonzero;stroke:none;stroke-width:0.992594" />
  <path
     id="path11"
     d="M -0.05262768,440.11189 H 1349.6458 v -6.04246 H -0.05262768 Z"
     style="fill:#5873af;fill-opacity:1;fill-rule:nonzero;stroke:none;stroke-width:0.992594" />
  <path
     id="path12"
     d="M -0.05262768,434.06943 H 1349.6458 V 405.24294 H -0.05262768 Z"
     style="fill:#6b81bf;fill-opacity:1;fill-rule:nonzero;stroke:none;stroke-width:0.992594" />
  <path
     id="path13"
     d="M -0.05262768,549.90535 H 1349.6458 V 440.11189 H -0.05262768 Z"
     style="fill:#b297db;fill-opacity:1;fill-rule:nonzero;stroke:none;stroke-width:0.992594" />
  <g
     opacity="0.699997"
     id="g15"
     clip-path="url(#clipPath16)"
     transform="matrix(0.78072933,0,0,0.65697909,-0.05262768,-0.2051361)">
    <path
       d="m 0,0 c 0,-8.87 -101.086,-16.06 -225.783,-16.06 -124.696,0 -225.782,7.19 -225.782,16.06 0,8.87 101.086,16.06 225.782,16.06 C -101.086,16.06 0,8.87 0,0"
       style="fill:#b297db;fill-opacity:1;fill-rule:nonzero;stroke:none"
       transform="matrix(1.3333333,0,0,-1.3333333,571.10707,781.02813)"
       clip-path="url(#clipPath14)"
       id="path15" />
  </g>
  <path
     id="path17"
     d="m 0,0 c 0,-4.21 -3.413,-7.623 -7.623,-7.623 h -396.703 c -4.211,0 -7.624,3.413 -7.624,7.623 v 30.706 c 0,4.211 3.413,7.624 7.624,7.624 H -7.623 C -3.413,38.33 0,34.917 0,30.706 Z"
     style="fill:#adce36;fill-opacity:1;fill-rule:nonzero;stroke:none"
     transform="matrix(0.94582501,0,0,-0.8759721,925.54614,178.39912)"
     clip-path="url(#clipPath18)" />
  <path
     id="path19"
     d="m 0,0 c 0,-3.214 -2.605,-5.819 -5.819,-5.819 -3.213,0 -5.818,2.605 -5.818,5.819 0,3.214 2.605,5.818 5.818,5.818 C -2.605,5.818 0,3.214 0,0"
     style="fill:#ffce25;fill-opacity:1;fill-rule:nonzero;stroke:none"
     transform="matrix(0.90031646,0,0,-0.8759721,373.63001,271.63832)"
     clip-path="url(#clipPath20)" />
  <path
     id="path21"
     d="m 0,0 c 0,-3.214 -2.605,-5.819 -5.819,-5.819 -3.213,0 -5.818,2.605 -5.818,5.819 0,3.214 2.605,5.818 5.818,5.818 C -2.605,5.818 0,3.214 0,0"
     style="fill:#ffce25;fill-opacity:1;fill-rule:nonzero;stroke:none"
     transform="matrix(1.0787096,0,0,-0.8759721,881.76957,228.29628)"
     clip-path="url(#clipPath22)" />
  <path
     id="path25"
     d="M 0,0 5.26,-10.659 17.023,-12.368 8.512,-20.665 10.521,-32.38 0,-26.849 l -10.521,-5.531 2.009,11.715 -8.511,8.297 11.762,1.709 z"
     style="fill:#ffce25;fill-opacity:1;fill-rule:nonzero;stroke:none"
     transform="matrix(0.99209826,0,0,-0.8759721,246.45851,240.32648)"
     clip-path="url(#clipPath26)" />
  <path
     id="path27"
     d="M 0,0 5.26,-10.659 17.023,-12.368 8.512,-20.665 10.521,-32.38 0,-26.849 l -10.521,-5.531 2.009,11.715 -8.511,8.297 11.762,1.709 z"
     style="fill:#ffce25;fill-opacity:1;fill-rule:nonzero;stroke:none"
     transform="matrix(0.90535356,0,0,-0.85009162,1148.5309,247.2047)"
     clip-path="url(#clipPath28)" />
  <path
     id="path29"
     d="m 0,0 2.771,-5.614 6.194,-0.9 -4.482,-4.369 1.058,-6.17 -5.541,2.913 -5.541,-2.913 1.058,6.17 -4.482,4.369 6.195,0.9 z"
     style="fill:#ffce25;fill-opacity:1;fill-rule:nonzero;stroke:none"
     transform="matrix(0.91742027,0,0,-0.80990162,191.1644,191.83223)"
     clip-path="url(#clipPath30)" />
  <path
     id="path31"
     d="m 0,0 2.77,-5.614 6.195,-0.9 -4.482,-4.369 1.058,-6.17 -5.541,2.913 -5.541,-2.913 1.058,6.17 -4.482,4.369 6.195,0.9 z"
     style="fill:#ffce25;fill-opacity:1;fill-rule:nonzero;stroke:none"
     transform="matrix(0.90031646,0,0,-0.8759721,380.36054,357.75168)"
     clip-path="url(#clipPath32)" />
  <path
     id="path33"
     d="m 0,0 2.77,-5.613 6.195,-0.901 -4.482,-4.369 1.058,-6.17 -5.541,2.913 -5.541,-2.913 1.058,6.17 -4.483,4.369 6.195,0.901 z"
     style="fill:#ffce25;fill-opacity:1;fill-rule:nonzero;stroke:none"
     transform="matrix(0.90535356,0,0,-0.85009162,1048.8514,344.01041)"
     clip-path="url(#clipPath34)" />
  <path
     id="path35"
     d="m 0,0 2.77,-5.613 6.195,-0.901 -4.482,-4.369 1.058,-6.17 -5.541,2.913 -5.541,-2.913 1.058,6.17 -4.482,4.369 6.195,0.901 z"
     style="fill:#ffce25;fill-opacity:1;fill-rule:nonzero;stroke:none"
     transform="matrix(0.90535356,0,0,-0.85009162,1050.2592,126.2253)"
     clip-path="url(#clipPath36)" />
  <path
     id="path37"
     d="m 0,0 2.77,-5.613 6.195,-0.901 -4.482,-4.369 1.058,-6.17 -5.541,2.913 -5.541,-2.913 1.058,6.17 -4.482,4.369 6.195,0.901 z"
     style="fill:#ffce25;fill-opacity:1;fill-rule:nonzero;stroke:none"
     transform="matrix(0.90535356,0,0,-0.85009162,1199.3927,176.38211)"
     clip-path="url(#clipPath38)" />
  <path
     id="path39"
     d="m 0,0 2.77,-5.614 6.195,-0.9 -4.482,-4.369 1.058,-6.17 -5.541,2.913 -5.541,-2.913 1.058,6.17 -4.482,4.369 6.195,0.9 z"
     style="fill:#ffce25;fill-opacity:1;fill-rule:nonzero;stroke:none"
     transform="matrix(1.1419617,0,0,-0.94070872,354.26838,136.89487)"
     clip-path="url(#clipPath40)" />
  <path
     id="path61"
     d="M 0,0 C 0,0 -159.15137,-127.93696 -352.86637,-116.40396"
     style="fill:none;stroke:#5873af;stroke-width:1.17;stroke-linecap:butt;stroke-linejoin:miter;stroke-miterlimit:10;stroke-dasharray:none;stroke-opacity:1"
     transform="matrix(1.1509927,0,0,-0.95680491,382.35298,-13.679596)"
     clip-path="url(#clipPath62)" />
  <path
     id="path63"
     d="m 0,0 59.379,-64.244 0.818528,90.630027 C 40.504807,15.99097 20.471803,7.0548373 0,0 Z"
     style="fill:#ff6648;fill-opacity:1;fill-rule:nonzero;stroke:none"
     transform="matrix(1.1419617,0,0,-0.94070872,207.59197,65.981934)"
     clip-path="url(#clipPath64)" />
  <path
     id="path65"
     d="m 0,0 -1.008,-9.305 -8.237,-4.444 8.538,-3.834 1.682,-9.207 6.284,6.935 9.276,-1.246 -4.653,8.12 4.051,8.437 -9.161,-1.916 z"
     style="fill:#ffce25;fill-opacity:1;fill-rule:nonzero;stroke:none"
     transform="matrix(1.1419617,0,0,-0.94070872,247.01739,62.12813)"
     clip-path="url(#clipPath66)" />
  <path
     id="path67"
     d="m 0,0 -0.554,-5.113 -4.526,-2.442 4.691,-2.106 0.925,-5.059 3.453,3.81 5.096,-0.684 -2.556,4.462 2.225,4.636 -5.033,-1.053 z"
     style="fill:#fffbf8;fill-opacity:1;fill-rule:nonzero;stroke:none"
     transform="matrix(1.1419617,0,0,-0.94070872,259.26755,89.728429)"
     clip-path="url(#clipPath68)" />
  <path
     id="path69"
     d="M -3.3123144,1.8745864 35.595,-79.913 70.220209,4.3031503 C 45.560552,1.3041538 18.935331,0.48479738 -3.3123144,1.8745864 Z"
     style="fill:#ffce25;fill-opacity:1;fill-rule:nonzero;stroke:none"
     transform="matrix(1.1419617,0,0,-1.0480072,-11.768763,100.17028)"
     clip-path="url(#clipPath70)" />
  <path
     id="path71"
     d="M 0,0 C 1.275,8.257 13.045,7.064 14.971,0.352 16.579,7.147 28.28,8.891 29.941,0.704 31.603,-7.483 15.475,-21.084 15.475,-21.084 15.475,-21.084 -1.275,-8.257 0,0"
     style="fill:#ff6648;fill-opacity:1;fill-rule:nonzero;stroke:none"
     transform="matrix(1.1419617,0,0,-0.94070872,11.697517,110.59469)"
     clip-path="url(#clipPath72)" />
  <path
     id="path73"
     d="M 0,0.62652126 49.126,-72.386 64.599685,17.409968 C 43.284186,10.290282 22.024188,5.1254661 0,0.62652126 Z"
     style="fill:#6b81bf;fill-opacity:1;fill-rule:nonzero;stroke:none"
     transform="matrix(1.1419617,0,0,-0.94070872,102.11149,91.956404)"
     clip-path="url(#clipPath74)" />
  <path
     id="path75"
     d="m 0,0 -7.033,-7.85 -9.539,4.478 -7.032,-7.85 -9.541,4.478 -7.033,-7.85 -9.54,4.478 -7.033,-7.851 -9.543,4.478 -7.036,-7.851 -9.544,4.478"
     style="fill:none;stroke:#adce36;stroke-width:4.681;stroke-linecap:butt;stroke-linejoin:miter;stroke-miterlimit:10;stroke-dasharray:none;stroke-opacity:1"
     transform="matrix(1.0948078,0,0,-0.94070872,184.2188,82.361448)"
     clip-path="url(#clipPath76)" />
  <path
     id="path77"
     d="m 0,0 -7.033,-7.85 -9.539,4.478 -7.032,-7.85 -9.541,4.478 -7.033,-7.85 -9.54,4.478 -7.034,-7.851 -9.542,4.478 -7.036,-7.851 -9.544,4.478"
     style="fill:none;stroke:#adce36;stroke-width:4.681;stroke-linecap:butt;stroke-linejoin:miter;stroke-miterlimit:10;stroke-dasharray:none;stroke-opacity:1"
     transform="matrix(1.0948078,0,0,-0.94070872,187.97798,97.295765)"
     clip-path="url(#clipPath78)" />
  <path
     id="path79"
     d="m 0,0 -7.032,-7.85 -9.54,4.478 -7.032,-7.85 -9.541,4.478 -7.033,-7.851 -9.54,4.479 -7.034,-7.851 -9.542,4.478 -7.036,-7.851 -9.544,4.477"
     style="fill:none;stroke:#adce36;stroke-width:4.681;stroke-linecap:butt;stroke-linejoin:miter;stroke-miterlimit:10;stroke-dasharray:none;stroke-opacity:1"
     transform="matrix(1.1049122,0,0,-0.94070872,192.44157,112.23009)"
     clip-path="url(#clipPath80)" />
  <path
     id="path81"
     d="m 0,0 -7.033,-7.85 -9.539,4.478 -7.032,-7.85 -9.541,4.478 -7.033,-7.851 -9.54,4.479 -7.034,-7.851 -9.542,4.478 -7.036,-7.851 -9.544,4.477"
     style="fill:none;stroke:#adce36;stroke-width:4.681;stroke-linecap:butt;stroke-linejoin:miter;stroke-miterlimit:10;stroke-dasharray:none;stroke-opacity:1"
     transform="matrix(1.1014771,0,0,-0.94070872,195.94923,127.1644)"
     clip-path="url(#clipPath82)" />
  <path
     id="path83"
     d="m 0,0 -7.033,-7.85 -9.539,4.478 -7.032,-7.85 -9.541,4.478 -7.033,-7.85 -9.54,4.478 -7.034,-7.851 -9.542,4.478 -7.036,-7.851 -9.544,4.478"
     style="fill:none;stroke:#adce36;stroke-width:4.681;stroke-linecap:butt;stroke-linejoin:miter;stroke-miterlimit:10;stroke-dasharray:none;stroke-opacity:1"
     transform="matrix(1.1206769,0,0,-0.94070872,200.69208,142.0988)"
     clip-path="url(#clipPath84)" />
  <path
     id="path85"
     d="M 0.48710506,-2.4016648 67.482,-55.672 56.376677,34.024253 C 37.979507,20.828123 19.500337,8.3497723 0.48710506,-2.4016648 Z"
     style="fill:#adce36;fill-opacity:1;fill-rule:nonzero;stroke:none"
     transform="matrix(1.1419617,0,0,-0.94070872,309.23698,24.580375)"
     clip-path="url(#clipPath86)" />
  <path
     id="path87"
     d="M 0,0 -47.78,90.564"
     style="fill:none;stroke:#fffbf8;stroke-width:4.681;stroke-linecap:butt;stroke-linejoin:miter;stroke-miterlimit:10;stroke-dasharray:none;stroke-opacity:1"
     transform="matrix(1.1419617,0,0,-0.94070872,414.69326,74.832374)"
     clip-path="url(#clipPath88)" />
  <path
     id="path89"
     d="M 0,0 -47.78,90.564"
     style="fill:none;stroke:#fffbf8;stroke-width:4.681;stroke-linecap:butt;stroke-linejoin:miter;stroke-miterlimit:10;stroke-dasharray:none;stroke-opacity:1"
     transform="matrix(1.1419617,0,0,-0.94070872,402.16654,79.496913)"
     clip-path="url(#clipPath90)" />
  <path
     id="path91"
     d="M 0,0 -47.78,90.564"
     style="fill:none;stroke:#fffbf8;stroke-width:4.681;stroke-linecap:butt;stroke-linejoin:miter;stroke-miterlimit:10;stroke-dasharray:none;stroke-opacity:1"
     transform="matrix(1.1419617,0,0,-0.94070872,391.41986,84.947067)"
     clip-path="url(#clipPath92)" />
  <path
     id="path93"
     d="M 0,0 -47.78,90.564"
     style="fill:none;stroke:#fffbf8;stroke-width:4.681;stroke-linecap:butt;stroke-linejoin:miter;stroke-miterlimit:10;stroke-dasharray:none;stroke-opacity:1"
     transform="matrix(1.1419617,0,0,-0.94070872,380.67306,91.183153)"
     clip-path="url(#clipPath94)" />
  <path
     id="path95"
     d="M -0.09742101,-0.41768084 C -14.432935,26.754388 -29.49961,44.867568 -41.732566,79.208623 c -0.02943,0.08261 -0.05909,0.164558 -0.08899,0.245874 -0.100516,0.273405 -0.203655,0.539628 -0.30921,0.79939 -1.602273,3.943085 -3.760984,6.397633 -5.74666,9.892432"
     style="fill:none;stroke:#fffbf8;stroke-width:4.681;stroke-linecap:butt;stroke-linejoin:miter;stroke-miterlimit:10;stroke-dasharray:none;stroke-opacity:1"
     transform="matrix(1.1419617,0,0,-0.94070872,368.89728,96.903653)"
     clip-path="url(#clipPath96)" />
  <path
     id="path133"
     d="m 0,0 -54.31,-32.008 -52.954,89.85 54.31,32.008 z"
     style="fill:#ffce25;fill-opacity:1;fill-rule:nonzero;stroke:none"
     transform="matrix(0.90535356,0,0,-0.85009162,1417.3932,239.72898)"
     clip-path="url(#clipPath134)" />
  <path
     id="path135"
     d="m 0,0 c 1.402,-2.379 1.373,-4.995 -0.065,-5.842 l -37.688,-22.212 c -1.438,-0.847 -3.74,0.394 -5.142,2.773 L -79.642,37.07 c -1.402,2.379 -1.373,4.995 0.065,5.842 l 37.688,22.212 c 1.438,0.847 3.74,-0.394 5.142,-2.773 z"
     style="fill:#fff3ea;fill-opacity:1;fill-rule:nonzero;stroke:none"
     transform="matrix(0.90535356,0,0,-0.85009162,1404.8896,230.90002)"
     clip-path="url(#clipPath136)" />
  <g
     opacity="0.699997"
     id="g138"
     clip-path="url(#clipPath139)"
     transform="matrix(0.67901519,0,0,0.63756872,263.22152,1.2086549)">
    <path
       d="m 0,0 -36.747,62.35 c -1.402,2.379 -1.373,4.995 0.065,5.843 L 1.006,90.404 c 0.359,0.212 0.771,0.293 1.21,0.259 -1.307,1.315 -2.873,1.856 -3.953,1.22 L -39.424,69.672 c -1.439,-0.848 -1.468,-3.464 -0.066,-5.843 L -2.743,1.479 C -1.69,-0.307 -0.131,-1.451 1.19,-1.553 0.755,-1.116 0.35,-0.593 0,0"
       style="fill:#b297db;fill-opacity:1;fill-rule:nonzero;stroke:none"
       transform="matrix(1.3333333,0,0,-1.3333333,1627.8217,395.9408)"
       clip-path="url(#clipPath137)"
       id="path138" />
  </g>
  <path
     id="path140"
     d="m 0,0 -89.85,-52.954 -52.953,89.85 89.849,52.954 z"
     style="fill:#ff6648;fill-opacity:1;fill-rule:nonzero;stroke:none"
     transform="matrix(0.90535356,0,0,-0.85009162,1368.2234,266.93872)"
     clip-path="url(#clipPath141)" />
  <path
     id="path142"
     d="m 0,0 c 1.402,-2.379 0.61,-5.444 -1.769,-6.846 l -62.35,-36.747 c -2.379,-1.402 -5.445,-0.61 -6.847,1.769 l -36.747,62.35 c -1.402,2.379 -0.61,5.445 1.769,6.847 l 62.351,36.746 c 2.379,1.402 5.444,0.61 6.846,-1.769 z"
     style="fill:#fff3ea;fill-opacity:1;fill-rule:nonzero;stroke:none"
     transform="matrix(0.90535356,0,0,-0.85009162,1352.3387,259.98081)"
     clip-path="url(#clipPath143)" />
  <g
     opacity="0.699997"
     id="g145"
     clip-path="url(#clipPath146)"
     transform="matrix(0.67901519,0,0,0.63756872,263.22152,1.2086549)">
    <path
       d="m 0,0 -36.747,62.351 c -1.402,2.378 -0.61,5.444 1.769,6.846 l 62.351,36.746 c 0.593,0.35 1.229,0.563 1.871,0.649 -1.565,1.163 -3.737,1.347 -5.523,0.295 L -38.629,70.14 c -2.379,-1.402 -3.171,-4.467 -1.769,-6.846 L -3.651,0.943 C -2.599,-0.842 -0.61,-1.733 1.323,-1.474 0.803,-1.088 0.35,-0.593 0,0"
       style="fill:#b297db;fill-opacity:1;fill-rule:nonzero;stroke:none"
       transform="matrix(1.3333333,0,0,-1.3333333,1514.2133,462.89667)"
       clip-path="url(#clipPath144)"
       id="path145" />
  </g>
  <path
     id="path147"
     d="m 0,0 14.771,-9.673 16.341,6.685 -4.635,-17.037 11.408,-13.477 -17.636,-0.856 -9.292,-15.013 -6.264,16.507 -17.15,4.198 13.764,11.059 z"
     style="fill:#ffce25;fill-opacity:1;fill-rule:nonzero;stroke:none"
     transform="matrix(0.90535356,0,0,-0.85009162,1292.0653,232.91134)"
     clip-path="url(#clipPath148)" />
  <g
     opacity="0.5"
     id="g150"
     clip-path="url(#clipPath151)"
     transform="matrix(0.67901519,0,0,0.63756872,263.22152,1.2086549)">
    <path
       d="m 0,0 -54.31,-32.008 -52.954,89.85 54.31,32.008 z"
       style="fill:#b297db;fill-opacity:1;fill-rule:nonzero;stroke:none"
       transform="matrix(1.3333333,0,0,-1.3333333,1699.7729,374.1092)"
       clip-path="url(#clipPath149)"
       id="path150" />
  </g>
  <g
     opacity="0.699997"
     id="g153"
     clip-path="url(#clipPath154)"
     transform="matrix(0.76840787,0,0,0.62936205,120.19321,19.563659)">
    <path
       d="m 0,0 c 0,-8.87 -101.086,-16.06 -225.782,-16.06 -124.697,0 -225.783,7.19 -225.783,16.06 0,8.87 101.086,16.06 225.783,16.06 C -101.086,16.06 0,8.87 0,0"
       style="fill:#b297db;fill-opacity:1;fill-rule:nonzero;stroke:none"
       transform="matrix(1.3333333,0,0,-1.3333333,1692.7815,781.02813)"
       clip-path="url(#clipPath152)"
       id="path153" />
  </g>
  <path
     id="path155"
     d="m 1208.234,43.685 h -63.04 v 104.293 h 63.04 z"
     style="fill:#ffce25;fill-opacity:1;fill-rule:nonzero;stroke:none"
     transform="matrix(0.90535356,0,0,-0.85009162,263.22152,535.0662)"
     clip-path="url(#clipPath156)" />
  <path
     id="path157"
     d="m 0,0 c 0,-2.761 -1.353,-5 -3.022,-5 h -43.746 c -1.67,0 -3.023,2.239 -3.023,5 v 72.374 c 0,2.761 1.353,5 3.023,5 h 43.746 c 1.669,0 3.022,-2.239 3.022,-5 z"
     style="fill:#fff3ea;fill-opacity:1;fill-rule:nonzero;stroke:none"
     transform="matrix(0.90535356,0,0,-0.85009162,1351.1027,484.36291)"
     clip-path="url(#clipPath158)" />
  <g
     opacity="0.699997"
     id="g160"
     clip-path="url(#clipPath161)"
     transform="matrix(0.67901519,0,0,0.63756872,263.22152,1.2086549)">
    <path
       d="m 0,0 v 72.373 c 0,2.762 1.353,5 3.022,5 h 43.747 c 0.416,0 0.812,-0.139 1.173,-0.391 -0.458,1.797 -1.533,3.058 -2.785,3.058 H 1.41 c -1.669,0 -3.022,-2.238 -3.022,-5 V 2.667 c 0,-2.073 0.763,-3.851 1.849,-4.609 C 0.084,-1.345 0,-0.689 0,0"
       style="fill:#b297db;fill-opacity:1;fill-rule:nonzero;stroke:none"
       transform="matrix(1.3333333,0,0,-1.3333333,1537.9072,761.3628)"
       clip-path="url(#clipPath159)"
       id="path160" />
  </g>
  <path
     id="path162"
     d="m 0,0 c 0,-10.943 -5.362,-19.813 -11.976,-19.813 -6.614,0 -11.976,8.87 -11.976,19.813 0,10.943 5.362,19.813 11.976,19.813 C -5.362,19.813 0,10.943 0,0"
     style="fill:#adce36;fill-opacity:1;fill-rule:nonzero;stroke:none"
     transform="matrix(0.90535356,0,0,-0.85009162,1339.4064,453.60083)"
     clip-path="url(#clipPath163)" />
  <path
     id="path164"
     d="m 1145.194,43.685 h -104.293 v 104.293 h 104.293 z"
     style="fill:#ff6648;fill-opacity:1;fill-rule:nonzero;stroke:none"
     transform="matrix(0.90535356,0,0,-0.85009162,263.22152,535.0662)"
     clip-path="url(#clipPath165)" />
  <path
     id="path166"
     d="m 0,0 c 0,-2.761 -2.239,-5 -5,-5 h -72.374 c -2.761,0 -5,2.239 -5,5 v 72.374 c 0,2.761 2.239,5 5,5 H -5 c 2.761,0 5,-2.239 5,-5 z"
     style="fill:#fff3ea;fill-opacity:1;fill-rule:nonzero;stroke:none"
     transform="matrix(0.90535356,0,0,-0.85009162,1290.1043,484.36291)"
     clip-path="url(#clipPath167)" />
  <g
     opacity="0.699997"
     id="g169"
     clip-path="url(#clipPath170)"
     transform="matrix(0.67901519,0,0,0.63756872,263.22152,1.2086549)">
    <path
       d="m 0,0 v 72.373 c 0,2.762 2.239,5 5,5 h 72.374 c 0.688,0 1.344,-0.139 1.941,-0.391 -0.758,1.797 -2.536,3.058 -4.608,3.058 H 2.333 c -2.761,0 -5,-2.238 -5,-5 V 2.667 c 0,-2.073 1.262,-3.851 3.058,-4.609 C 0.14,-1.345 0,-0.689 0,0"
       style="fill:#b297db;fill-opacity:1;fill-rule:nonzero;stroke:none"
       transform="matrix(1.3333333,0,0,-1.3333333,1406.0363,761.3628)"
       clip-path="url(#clipPath168)"
       id="path169" />
  </g>
  <path
     id="path171"
     d="M 0,0 7.814,-15.833 25.286,-18.372 12.643,-30.696 15.628,-48.098 0,-39.881 l -15.628,-8.217 2.985,17.402 -12.643,12.324 17.472,2.539 z"
     style="fill:#ffce25;fill-opacity:1;fill-rule:nonzero;stroke:none"
     transform="matrix(0.90535356,0,0,-0.85009162,1252.8157,432.30713)"
     clip-path="url(#clipPath172)" />
  <g
     opacity="0.5"
     id="g174"
     clip-path="url(#clipPath175)"
     transform="matrix(0.67901519,0,0,0.63756872,263.22152,1.2086549)">
    <path
       d="m 1208.234,43.685 h -63.04 v 104.293 h 63.04 z"
       style="fill:#b297db;fill-opacity:1;fill-rule:nonzero;stroke:none"
       transform="matrix(1.3333333,0,0,-1.3333333,0,837.33333)"
       clip-path="url(#clipPath173)"
       id="path174" />
  </g>
  <path
     id="path176"
     d="M 977.86,43.685 H 873.567 V 147.978 H 977.86 Z"
     style="fill:#adce36;fill-opacity:1;fill-rule:nonzero;stroke:none"
     transform="matrix(0.90535356,0,0,-0.85009162,263.22152,535.0662)"
     clip-path="url(#clipPath177)" />
  <path
     id="path178"
     d="m 0,0 c 0,-2.761 -2.239,-5 -5,-5 h -72.374 c -2.761,0 -5,2.239 -5,5 v 72.374 c 0,2.761 2.239,5 5,5 H -5 c 2.761,0 5,-2.239 5,-5 z"
     style="fill:#fff3ea;fill-opacity:1;fill-rule:nonzero;stroke:none"
     transform="matrix(0.90535356,0,0,-0.85009162,1138.6085,484.36291)"
     clip-path="url(#clipPath179)" />
  <g
     opacity="0.699997"
     id="g181"
     clip-path="url(#clipPath182)"
     transform="matrix(0.67901519,0,0,0.63756872,263.22152,1.2086549)">
    <path
       d="m 0,0 v 72.373 c 0,2.762 2.239,5 5,5 h 72.374 c 0.688,0 1.344,-0.139 1.941,-0.391 -0.758,1.797 -2.535,3.058 -4.608,3.058 H 2.333 c -2.761,0 -5,-2.238 -5,-5 V 2.667 c 0,-2.073 1.262,-3.851 3.059,-4.609 C 0.14,-1.345 0,-0.689 0,0"
       style="fill:#b297db;fill-opacity:1;fill-rule:nonzero;stroke:none"
       transform="matrix(1.3333333,0,0,-1.3333333,1182.9251,761.3628)"
       clip-path="url(#clipPath180)"
       id="path181" />
  </g>
  <path
     id="path183"
     d="m 0,0 c 0,-10.943 -8.871,-19.813 -19.813,-19.813 -10.943,0 -19.813,8.87 -19.813,19.813 0,10.943 8.87,19.813 19.813,19.813 C -8.871,19.813 0,10.943 0,0"
     style="fill:#5873af;fill-opacity:1;fill-rule:nonzero;stroke:none"
     transform="matrix(0.90535356,0,0,-0.85009162,1119.2579,453.60083)"
     clip-path="url(#clipPath184)" />
  <path
     id="path185"
     d="m 1040.901,43.685 h -63.04 v 104.293 h 63.04 z"
     style="fill:#ffce25;fill-opacity:1;fill-rule:nonzero;stroke:none"
     transform="matrix(0.90535356,0,0,-0.85009162,263.22152,535.0662)"
     clip-path="url(#clipPath186)" />
  <path
     id="path187"
     d="m 0,0 c 0,-2.761 -1.353,-5 -3.022,-5 h -43.746 c -1.67,0 -3.023,2.239 -3.023,5 v 72.374 c 0,2.761 1.353,5 3.023,5 h 43.746 c 1.669,0 3.022,-2.239 3.022,-5 z"
     style="fill:#fff3ea;fill-opacity:1;fill-rule:nonzero;stroke:none"
     transform="matrix(0.90535356,0,0,-0.85009162,1199.607,484.36291)"
     clip-path="url(#clipPath188)" />
  <g
     opacity="0.699997"
     id="g190"
     clip-path="url(#clipPath191)"
     transform="matrix(0.67901519,0,0,0.63756872,263.22152,1.2086549)">
    <path
       d="m 0,0 v 72.373 c 0,2.762 1.353,5 3.022,5 h 43.746 c 0.417,0 0.813,-0.139 1.174,-0.391 -0.458,1.797 -1.533,3.058 -2.785,3.058 H 1.41 c -1.669,0 -3.022,-2.238 -3.022,-5 V 2.667 c 0,-2.073 0.763,-3.851 1.849,-4.609 C 0.084,-1.345 0,-0.689 0,0"
       style="fill:#b297db;fill-opacity:1;fill-rule:nonzero;stroke:none"
       transform="matrix(1.3333333,0,0,-1.3333333,1314.7961,761.3628)"
       clip-path="url(#clipPath189)"
       id="path190" />
  </g>
  <path
     id="path192"
     d="M 0,0 15.704,45 31.408,0 Z"
     style="fill:#ff6648;fill-opacity:1;fill-rule:nonzero;stroke:none"
     transform="matrix(0.90535356,0,0,-0.85009162,1162.85,472.72789)"
     clip-path="url(#clipPath193)" />
  <g
     opacity="0.5"
     id="g195"
     clip-path="url(#clipPath196)"
     transform="matrix(0.67901519,0,0,0.63756872,263.22152,1.2086549)">
    <path
       d="m 1040.901,43.685 h -63.04 v 104.293 h 63.04 z"
       style="fill:#b297db;fill-opacity:1;fill-rule:nonzero;stroke:none"
       transform="matrix(1.3333333,0,0,-1.3333333,0,837.33333)"
       clip-path="url(#clipPath194)"
       id="path195" />
  </g>
  <path
     id="path197"
     d="M 1036.36,147.978 H 932.067 v 104.293 h 104.293 z"
     style="fill:#5873af;fill-opacity:1;fill-rule:nonzero;stroke:none"
     transform="matrix(0.90535356,0,0,-0.85009162,263.22152,535.0662)"
     clip-path="url(#clipPath198)" />
  <path
     id="path199"
     d="m 0,0 c 0,-2.761 -2.239,-5 -5,-5 h -72.374 c -2.761,0 -5,2.239 -5,5 v 72.374 c 0,2.761 2.239,5 5,5 H -5 c 2.761,0 5,-2.239 5,-5 z"
     style="fill:#fff3ea;fill-opacity:1;fill-rule:nonzero;stroke:none"
     transform="matrix(0.90535356,0,0,-0.85009162,1191.5717,395.70414)"
     clip-path="url(#clipPath200)" />
  <g
     opacity="0.699997"
     id="g202"
     clip-path="url(#clipPath203)"
     transform="matrix(0.67901519,0,0,0.63756872,263.22152,1.2086549)">
    <path
       d="m 0,0 v 72.374 c 0,2.761 2.239,5 5,5 h 72.374 c 0.688,0 1.344,-0.14 1.941,-0.392 -0.758,1.797 -2.535,3.058 -4.608,3.058 H 2.333 c -2.761,0 -5,-2.238 -5,-5 V 2.667 c 0,-2.073 1.262,-3.851 3.059,-4.609 C 0.14,-1.345 0,-0.689 0,0"
       style="fill:#b297db;fill-opacity:1;fill-rule:nonzero;stroke:none"
       transform="matrix(1.3333333,0,0,-1.3333333,1260.9251,622.30533)"
       clip-path="url(#clipPath201)"
       id="path202" />
  </g>
  <path
     id="path204"
     d="M 0,0 -3.608,9.34 -7.218,0 Z m 3.45,-9.022 h -14.117 l -2.494,-6.475 h -12.737 l 16.24,37.149 H 2.653 L 18.894,-15.497 H 5.944 Z"
     style="fill:#ffce25;fill-opacity:1;fill-rule:nonzero;stroke:none"
     transform="matrix(0.90535356,0,0,-0.85009162,1157.454,367.55854)"
     clip-path="url(#clipPath205)" />
  <path
     id="path206"
     d="m 1099.401,147.978 h -63.04 v 104.293 h 63.04 z"
     style="fill:#adce36;fill-opacity:1;fill-rule:nonzero;stroke:none"
     transform="matrix(0.90535356,0,0,-0.85009162,263.22152,535.0662)"
     clip-path="url(#clipPath207)" />
  <path
     id="path208"
     d="m 0,0 c 0,-2.761 -1.353,-5 -3.022,-5 h -43.747 c -1.669,0 -3.022,2.239 -3.022,5 v 72.374 c 0,2.761 1.353,5 3.022,5 h 43.747 c 1.669,0 3.022,-2.239 3.022,-5 z"
     style="fill:#fff3ea;fill-opacity:1;fill-rule:nonzero;stroke:none"
     transform="matrix(0.90535356,0,0,-0.85009162,1252.5702,395.70414)"
     clip-path="url(#clipPath209)" />
  <g
     opacity="0.699997"
     id="g211"
     clip-path="url(#clipPath212)"
     transform="matrix(0.67901519,0,0,0.63756872,263.22152,1.2086549)">
    <path
       d="m 0,0 v 72.374 c 0,2.761 1.353,5 3.022,5 h 43.747 c 0.416,0 0.812,-0.14 1.173,-0.392 -0.458,1.797 -1.532,3.058 -2.785,3.058 H 1.41 c -1.669,0 -3.022,-2.238 -3.022,-5 V 2.667 c 0,-2.073 0.763,-3.851 1.849,-4.609 C 0.084,-1.345 0,-0.689 0,0"
       style="fill:#b297db;fill-opacity:1;fill-rule:nonzero;stroke:none"
       transform="matrix(1.3333333,0,0,-1.3333333,1392.796,622.30533)"
       clip-path="url(#clipPath210)"
       id="path211" />
  </g>
  <path
     id="path213"
     d="m 0,0 c 0,1.911 -0.958,2.919 -2.875,2.919 h -5.234 v -5.838 h 5.234 C -0.958,-2.919 0,-1.911 0,0 m -8.109,16.717 v -5.519 h 4.055 c 1.953,0 2.838,0.955 2.838,2.76 0,1.804 -0.885,2.759 -2.838,2.759 z M 8.772,-1.433 c 0,-6.474 -3.797,-10.242 -10.91,-10.242 h -14.52 v 37.149 h 13.783 c 7.113,0 10.43,-4.087 10.43,-9.712 C 7.555,12.313 6.339,9.447 3.98,7.749 7.002,6.156 8.772,2.972 8.772,-1.433"
     style="fill:#5873af;fill-opacity:1;fill-rule:nonzero;stroke:none"
     transform="matrix(0.90535356,0,0,-0.85009162,1236.0774,370.61572)"
     clip-path="url(#clipPath214)" />
  <g
     opacity="0.5"
     id="g216"
     clip-path="url(#clipPath217)"
     transform="matrix(0.67901519,0,0,0.63756872,263.22152,1.2086549)">
    <path
       d="m 1099.401,147.978 h -63.04 v 104.293 h 63.04 z"
       style="fill:#b297db;fill-opacity:1;fill-rule:nonzero;stroke:none"
       transform="matrix(1.3333333,0,0,-1.3333333,0,837.33333)"
       clip-path="url(#clipPath215)"
       id="path216" />
  </g>
  <path
     id="path218"
     d="M 324.647,118.883 H 249.449 V 43.685 h 75.198 z"
     style="fill:#ff6648;fill-opacity:1;fill-rule:nonzero;stroke:none"
     transform="matrix(0.99209826,0,0,-0.8759721,17.568641,548.79402)"
     clip-path="url(#clipPath219)" />
  <path
     id="path220"
     d="M 362.246,118.883 H 324.647 V 43.685 h 37.599 z"
     style="fill:#5873af;fill-opacity:1;fill-rule:nonzero;stroke:none"
     transform="matrix(0.99209826,0,0,-0.8759721,17.568641,548.46852)"
     clip-path="url(#clipPath221)" />
  <g
     opacity="0.699997"
     id="g223"
     clip-path="url(#clipPath224)"
     transform="matrix(0.74407372,0,0,0.65697909,17.529343,-1.4744304)">
    <path
       d="M 362.246,118.883 H 324.647 V 43.685 h 37.599 z"
       style="fill:#b297db;fill-opacity:1;fill-rule:nonzero;stroke:none"
       transform="matrix(1.3333333,0,0,-1.3333333,0,837.33333)"
       clip-path="url(#clipPath222)"
       id="path223" />
  </g>
  <path
     id="path225"
     d="M 128.884,69.195 H 75.417 v 14.852 h 53.467 z"
     style="fill:#5873af;fill-opacity:1;fill-rule:nonzero;stroke:none"
     transform="matrix(0.91742027,0,0,-0.80990162,23.62052,504.78841)"
     clip-path="url(#clipPath226)" />
  <path
     id="path227"
     d="M 134.3,77.582 H 70 V 98.2 h 64.3 z"
     style="fill:#7c90d8;fill-opacity:1;fill-rule:nonzero;stroke:none"
     transform="matrix(0.91742027,0,0,-0.80990162,23.62052,504.78841)"
     clip-path="url(#clipPath228)" />
  <path
     id="path229"
     d="m 0,0 c 0,0 -29.354,-13.978 -33.548,-27.956 -4.193,-13.979 0,-70.59 0,-75.483 0,-4.892 2.097,-9.785 5.592,-9.785 h 19.569 c 2.796,0 8.387,2.097 8.387,6.99 0,4.892 -4.193,40.536 20.967,49.622 z"
     style="fill:#ffce25;fill-opacity:1;fill-rule:nonzero;stroke:none"
     transform="matrix(0.91742027,0,0,-0.80990162,68.604482,377.70804)"
     clip-path="url(#clipPath230)" />
  <path
     id="path231"
     d="m 0,0 c -7.688,98.547 -55.913,151.664 -69.891,151.664 -13.978,0 -62.203,-53.117 -69.891,-151.664 -7.688,-98.546 34.945,-169.835 34.945,-169.835 h 34.946 34.946 c 0,0 42.633,71.289 34.945,169.835"
     style="fill:#e3eae8;fill-opacity:1;fill-rule:nonzero;stroke:none"
     transform="matrix(0.91742027,0,0,-0.80990162,181.4549,292.80046)"
     clip-path="url(#clipPath232)" />
  <path
     id="path233"
     d="m 0,0 c 0,0 29.354,-13.978 33.548,-27.956 4.193,-13.979 0,-70.59 0,-75.483 0,-4.892 -2.097,-9.785 -5.592,-9.785 H 8.387 c -2.796,0 -8.387,2.097 -8.387,6.99 0,4.892 4.193,40.536 -20.967,49.622 z"
     style="fill:#ffce25;fill-opacity:1;fill-rule:nonzero;stroke:none"
     transform="matrix(0.91742027,0,0,-0.80990162,173.71947,376.31724)"
     clip-path="url(#clipPath234)" />
  <path
     id="path235"
     d="m 0,0 c 0,0 -35.645,-48.225 -41.236,-141.18 -5.591,-92.956 12.581,-180.319 12.581,-180.319"
     style="fill:none;stroke:#7c90d8;stroke-width:1.093;stroke-linecap:butt;stroke-linejoin:miter;stroke-miterlimit:10;stroke-dasharray:none;stroke-opacity:1"
     transform="matrix(0.91742027,0,0,-0.80990162,117.33538,169.96762)"
     clip-path="url(#clipPath236)" />
  <path
     id="path237"
     d="M 0,0 C 0,0 35.644,-48.225 41.236,-141.18 46.827,-234.136 28.655,-321.499 28.655,-321.499"
     style="fill:none;stroke:#7c90d8;stroke-width:1.093;stroke-linecap:butt;stroke-linejoin:miter;stroke-miterlimit:10;stroke-dasharray:none;stroke-opacity:1"
     transform="matrix(0.91742027,0,0,-0.80990162,117.33538,169.96762)"
     clip-path="url(#clipPath238)" />
  <path
     id="path239"
     d="M 0,0 H 97.118 C 79.817,40.345 57.377,61.504 48.559,61.504 39.741,61.504 17.301,40.345 0,0"
     style="fill:#ff6648;fill-opacity:1;fill-rule:nonzero;stroke:none"
     transform="matrix(0.91742027,0,0,-0.80990162,72.786358,219.77997)"
     clip-path="url(#clipPath240)" />
  <path
     id="path241"
     d="m 0,0 c 0,-5.018 -4.068,-9.086 -9.086,-9.086 -5.018,0 -9.086,4.068 -9.086,9.086 v 90.858 c 0,5.018 4.068,9.086 9.086,9.086 5.018,0 9.086,-4.068 9.086,-9.086 z"
     style="fill:#ffce25;fill-opacity:1;fill-rule:nonzero;stroke:none"
     transform="matrix(0.91742027,0,0,-0.80990162,125.67097,462.04933)"
     clip-path="url(#clipPath242)" />
  <g
     id="g244"
     clip-path="url(#clipPath245)"
     transform="matrix(0.68806524,0,0,0.60742623,23.62052,-3.8298306)">
    <path
       d="m 0,0 c -20.356,0.487 -49.353,-77.855 -51.253,-136.843 -1.901,-58.988 4.663,-85.781 21.052,-83.313 16.388,2.469 5.674,30.517 18.135,100.093 C 0.394,-50.488 22.153,-0.53 0,0"
       style="fill:#fff3ea;fill-opacity:1;fill-rule:nonzero;stroke:none"
       transform="matrix(1.3333333,0,0,-1.3333333,124.086,317.99667)"
       clip-path="url(#clipPath243)"
       id="path244" />
  </g>
  <path
     id="path246"
     d="m 0,0 c 0,-16.791 -13.612,-30.402 -30.403,-30.402 -16.79,0 -30.402,13.611 -30.402,30.402 0,16.791 13.612,30.403 30.402,30.403 C -13.612,30.403 0,16.791 0,0"
     style="fill:#5873af;fill-opacity:1;fill-rule:nonzero;stroke:none"
     transform="matrix(0.91742027,0,0,-0.80990162,145.22733,261.52627)"
     clip-path="url(#clipPath247)" />
  <path
     id="path248"
     d="m 0,0 c 0,-12.191 -9.883,-22.074 -22.074,-22.074 -12.191,0 -22.074,9.883 -22.074,22.074 0,12.191 9.883,22.074 22.074,22.074 C -9.883,22.074 0,12.191 0,0"
     style="fill:#7c90d8;fill-opacity:1;fill-rule:nonzero;stroke:none"
     transform="matrix(0.91742027,0,0,-0.80990162,137.58633,261.52627)"
     clip-path="url(#clipPath249)" />
  <g
     opacity="0.5"
     id="g254"
     clip-path="url(#clipPath255)"
     transform="matrix(0.68806524,0,0,0.60742623,23.62052,-3.8298306)">
    <g
       clip-path="url(#clipPath251)"
       id="g253">
      <path
         d="M 0,0 46.303,64.474"
         style="fill:none;stroke:#e3eae8;stroke-width:4.371;stroke-linecap:butt;stroke-linejoin:miter;stroke-miterlimit:10;stroke-dasharray:none;stroke-opacity:1"
         transform="matrix(1.3333333,0,0,-1.3333333,93.334,469.00293)"
         clip-path="url(#clipPath250)"
         id="path253" />
    </g>
    <path
       d="M 0,0 46.303,64.474"
       style="fill:none;stroke:#e3eae8;stroke-width:9.835;stroke-linecap:butt;stroke-linejoin:miter;stroke-miterlimit:10;stroke-dasharray:none;stroke-opacity:1"
       transform="matrix(1.3333333,0,0,-1.3333333,106.3844,477.38987)"
       clip-path="url(#clipPath252)"
       id="path254" />
  </g>
  <path
     id="path256"
     d="m 0,0 c 0,-16.791 -13.612,-30.403 -30.403,-30.403 -16.79,0 -30.402,13.612 -30.402,30.403 0,16.791 13.612,30.403 30.402,30.403 C -13.612,30.403 0,16.791 0,0"
     style="fill:#5873af;fill-opacity:1;fill-rule:nonzero;stroke:none"
     transform="matrix(0.91742027,0,0,-0.80990162,145.22733,328.3979)"
     clip-path="url(#clipPath257)" />
  <path
     id="path258"
     d="m 0,0 c 0,-12.191 -9.883,-22.074 -22.074,-22.074 -12.191,0 -22.074,9.883 -22.074,22.074 0,12.191 9.883,22.074 22.074,22.074 C -9.883,22.074 0,12.191 0,0"
     style="fill:#7c90d8;fill-opacity:1;fill-rule:nonzero;stroke:none"
     transform="matrix(0.91742027,0,0,-0.80990162,137.58633,328.3979)"
     clip-path="url(#clipPath259)" />
  <g
     opacity="0.5"
     id="g264"
     clip-path="url(#clipPath265)"
     transform="matrix(0.68806524,0,0,0.60742623,23.62052,-3.8298306)">
    <g
       clip-path="url(#clipPath261)"
       id="g263">
      <path
         d="M 0,0 46.303,64.475"
         style="fill:none;stroke:#e3eae8;stroke-width:4.371;stroke-linecap:butt;stroke-linejoin:miter;stroke-miterlimit:10;stroke-dasharray:none;stroke-opacity:1"
         transform="matrix(1.3333333,0,0,-1.3333333,93.334,579.0932)"
         clip-path="url(#clipPath260)"
         id="path263" />
    </g>
    <path
       d="M 0,0 46.303,64.475"
       style="fill:none;stroke:#e3eae8;stroke-width:9.835;stroke-linecap:butt;stroke-linejoin:miter;stroke-miterlimit:10;stroke-dasharray:none;stroke-opacity:1"
       transform="matrix(1.3333333,0,0,-1.3333333,106.3844,587.48027)"
       clip-path="url(#clipPath262)"
       id="path264" />
  </g>
  <path
     id="path266"
     d="m 222.294,43.685 h -59.741 v 102.771 h 59.741 z"
     style="fill:#00baa7;fill-opacity:1;fill-rule:nonzero;stroke:none"
     transform="matrix(0.99209826,0,0,-0.8759721,17.568641,548.79402)"
     clip-path="url(#clipPath267)" />
  <g
     opacity="0.5"
     id="g269"
     clip-path="url(#clipPath270)"
     transform="matrix(0.74407372,0,0,0.65697909,17.568641,-1.3164704)">
    <path
       d="m 213.521,43.685 h -13.786 v 102.771 h 13.786 z"
       style="fill:#fff3ea;fill-opacity:1;fill-rule:nonzero;stroke:none"
       transform="matrix(1.3333333,0,0,-1.3333333,0,837.33333)"
       clip-path="url(#clipPath268)"
       id="path269" />
  </g>
  <path
     id="path271"
     d="m 0,0 c 0,-4.615 -13.373,-8.355 -29.87,-8.355 -16.497,0 -29.871,3.74 -29.871,8.355 0,4.615 13.374,8.355 29.871,8.355 C -13.373,8.355 0,4.615 0,0"
     style="fill:#e3eae8;fill-opacity:1;fill-rule:nonzero;stroke:none"
     transform="matrix(0.99209826,0,0,-0.8759721,238.10623,420.50336)"
     clip-path="url(#clipPath272)" />
  <path
     id="path273"
     d="m 0,0 -30.576,-92.31 44.15,-14.623 11.46,34.597 c 5.12,15.459 21.803,23.84 37.261,18.719 15.459,-5.12 23.84,-21.802 18.72,-37.261 l -11.46,-34.598 44.15,-14.623 30.575,92.309 z"
     style="fill:#ffce25;fill-opacity:1;fill-rule:nonzero;stroke:none"
     transform="matrix(0.99209826,0,0,-0.8759721,215.00255,321.91979)"
     clip-path="url(#clipPath274)" />
  <g
     opacity="0.699997"
     id="g276"
     clip-path="url(#clipPath277)"
     transform="matrix(0.74407372,0,0,0.65697909,17.568641,-1.3164704)">
    <path
       d="m 0,0 -30.576,-92.31 44.15,-14.623 11.46,34.597 c 5.12,15.459 21.803,23.84 37.261,18.719 15.459,-5.12 23.84,-21.802 18.72,-37.261 l -11.46,-34.598 44.15,-14.623 30.575,92.309 z"
       style="fill:#b297db;fill-opacity:1;fill-rule:nonzero;stroke:none"
       transform="matrix(1.3333333,0,0,-1.3333333,265.34187,492.00387)"
       clip-path="url(#clipPath275)"
       id="path276" />
  </g>
  <path
     id="path278"
     d="m 0,0 -29.652,-92.61 44.294,-14.182 11.113,34.71 c 4.966,15.509 21.564,24.056 37.073,19.09 15.509,-4.965 24.056,-21.563 19.09,-37.073 l -11.113,-34.71 44.294,-14.182 29.652,92.611 z"
     style="fill:#adce36;fill-opacity:1;fill-rule:nonzero;stroke:none"
     transform="matrix(0.99209826,0,0,-0.8759721,206.3934,319.7366)"
     clip-path="url(#clipPath279)" />
  <path
     id="path280"
     d="m 0,0 -11.895,3.94 -87.091,-40.961 11.895,-3.94 120.613,-39.95 11.896,-3.941 z"
     style="fill:#ff6648;fill-opacity:1;fill-rule:nonzero;stroke:none"
     transform="matrix(0.99209826,0,0,-0.8759721,309.86957,288.51459)"
     clip-path="url(#clipPath281)" />
  <g
     opacity="0.699997"
     id="g283"
     clip-path="url(#clipPath284)"
     transform="matrix(0.74407372,0,0,0.65697909,17.568641,-1.3164704)">
    <path
       d="m 0,0 -11.895,3.94 -87.091,-40.961 11.895,-3.94 120.613,-39.95 11.896,-3.941 z"
       style="fill:#b297db;fill-opacity:1;fill-rule:nonzero;stroke:none"
       transform="matrix(1.3333333,0,0,-1.3333333,392.83867,441.1572)"
       clip-path="url(#clipPath282)"
       id="path283" />
  </g>
  <path
     id="path285"
     d="m 0,0 87.091,40.961 45.418,-84.852 z"
     style="fill:#ff6648;fill-opacity:1;fill-rule:nonzero;stroke:none"
     transform="matrix(0.99209826,0,0,-0.8759721,211.66562,320.94378)"
     clip-path="url(#clipPath286)" />
  <g
     id="g1"
     transform="matrix(0.8561804,0,0,0.70025864,-835.79882,154.12295)">
    <g
       opacity="0.199997"
       id="g7-5-4"
       clip-path="url(#clipPath8-4)"
       transform="matrix(1.3038467,0,0,1.2948566,1598.354,80.939486)">
      <path
         d="m 0,0 c 0,-2.86 -9.64,-5.18 -21.54,-5.18 -3.11,0 -6.07,0.15 -8.74,0.44 -5.74,-2.73 -18.32,-4.63 -32.91,-4.63 -20,0 -36.22,3.56 -36.22,7.95 0,1.38 1.62,2.69 4.47,3.83 6.16,2.45 18.07,4.11 31.75,4.11 10.8,0 20.5,-1.04 27.14,-2.68 3.821,0.84 8.93,1.35 14.51,1.35 6.08,0 11.57,-0.61 15.48,-1.58 C -2.31,2.67 0,1.4 0,0"
         style="fill:#686868;fill-opacity:1;fill-rule:nonzero;stroke:none"
         transform="matrix(1.3333333,0,0,-1.3333333,247.67973,304.41347)"
         clip-path="url(#clipPath6-7)"
         id="path7-3-6" />
    </g>
    <path
       id="path9-2-3"
       d="m 0,0 c 0.41,-1.213 -0.601,-8.817 -2.527,-11.129 -1.572,-1.886 -6.356,-1.348 -6.452,2.889 -0.096,4.238 -0.674,9.245 0.481,10.497 C -7.342,3.509 -1.613,4.773 0,0"
       style="fill:#f7d2b2;fill-opacity:1;fill-rule:nonzero;stroke:none"
       transform="matrix(1.7384622,0,0,-1.7264754,1825.1784,309.72614)"
       clip-path="url(#clipPath10-1)" />
    <path
       id="path11-68-0"
       d="m 0,0 c -0.228,-3.17 -0.729,-5.792 -1.581,-7.485 -2.186,-4.334 -3.094,-6.151 -3.094,-6.151 0,0 -2.508,-27.756 -3.416,-27.983 -0.909,-0.227 -16.854,-3.861 -17.64,-2.953 -0.785,0.909 4.448,5.007 4.448,5.007 l -0.331,3.208 c 0,0 -17.535,-3.663 -18.444,-1.827 -0.918,1.827 5.943,5.176 5.943,5.176 0,0 -2.262,17.801 -3.483,32.005 -0.52,6.113 -0.851,11.555 -0.719,14.63 0.436,10.211 3.359,31.087 7.249,33.841 4.665,3.303 7.741,3.794 12.368,3.189 4.07,-0.53 10.836,-2.886 13.571,-9.255 C -2.924,36.263 0.927,13.287 0,0"
       style="fill:#f7d2b2;fill-opacity:1;fill-rule:nonzero;stroke:none"
       transform="matrix(1.7384622,0,0,-1.7264754,1854.958,406.86318)"
       clip-path="url(#clipPath12-9)" />
    <path
       id="path13-2-9"
       d="m 0,0 c 3.717,-4.904 42.649,-11.179 51.278,-5.591 8.037,5.2 5.707,49.229 -0.313,58.187 -0.437,0.655 -0.903,1.123 -1.382,1.378 l -0.012,0.005 C 49.357,54.09 49.113,54.201 48.849,54.315 36.152,57.761 9.045,61.485 -1.208,58.131 -1.646,57.852 -2.01,57.528 -2.266,57.178 -4.61,54.028 -5.861,43.58 -5.801,32.317 -5.798,32.089 -5.798,31.871 -5.795,31.644 -5.669,18.802 -3.852,5.08 0,0"
       style="fill:#ff8d00;fill-opacity:1;fill-rule:nonzero;stroke:none"
       transform="matrix(1.7384622,0,0,-1.7264754,1798.5419,405.44609)"
       clip-path="url(#clipPath14-1)" />
    <path
       id="path15-6-1"
       d="m 0,0 c 16.659,20.449 46.622,21.29 56.76,20.953 -0.437,0.655 -0.904,1.122 -1.382,1.377 l -0.012,0.006 c -0.214,0.111 -0.458,0.222 -0.722,0.336 C 41.947,26.118 14.84,29.841 4.586,26.487 4.148,26.208 3.785,25.884 3.529,25.535 1.185,22.385 -0.066,11.936 -0.006,0.673 -0.003,0.446 -0.003,0.227 0,0"
       style="fill:#ff7800;fill-opacity:1;fill-rule:nonzero;stroke:none"
       transform="matrix(1.7384622,0,0,-1.7264754,1788.4678,350.81418)"
       clip-path="url(#clipPath16-3)" />
    <path
       id="path17-6-8"
       d="M 0,0 C -8.354,0.564 -4.113,-57.363 1.121,-57.64 10.392,-58.13 8.735,-0.589 0,0"
       style="fill:#ffa442;fill-opacity:1;fill-rule:nonzero;stroke:none"
       transform="matrix(1.7384622,0,0,-1.7264754,1882.691,312.90511)"
       clip-path="url(#clipPath18-5)" />
    <path
       id="path19-3-7"
       d="m 0,0 c -5.985,4.284 -55.121,9.466 -65.02,2.577 -9.898,-6.889 -8.113,-35.587 -0.522,-38.215 7.59,-2.628 52.259,-7.579 61.979,-3.581 C 6.158,-35.222 9.967,-7.134 0,0"
       style="fill:#ff9c9c;fill-opacity:1;fill-rule:nonzero;stroke:none"
       transform="matrix(1.7384622,0,0,-1.7264754,1899.5714,243.11855)"
       clip-path="url(#clipPath20-3)" />
    <path
       id="path21-94-6"
       d="M 0,0 C -8.423,2.326 -16.526,-37.25 -4.334,-37.816 6.046,-38.299 10.685,-2.95 0,0"
       style="fill:#ffb5b5;fill-opacity:1;fill-rule:nonzero;stroke:none"
       transform="matrix(1.7384622,0,0,-1.7264754,1897.5554,244.78944)"
       clip-path="url(#clipPath22-2)" />
    <path
       id="path23-5-8"
       d="m 0,0 c -18.114,1.434 -39.974,-12.179 -40.841,-42.573 -0.867,-30.395 13.303,-45.591 38.636,-44.339 24.433,1.206 37.96,18.449 39.082,45.461 C 38,-14.438 18.426,-1.458 0,0"
       style="fill:#f7d2b2;fill-opacity:1;fill-rule:nonzero;stroke:none"
       transform="matrix(1.7384622,0,0,-1.7264754,1819.7872,169.83605)"
       clip-path="url(#clipPath24-3)" />
    <path
       id="path25-6-4"
       d="M 0,0 C 2.338,2.894 9.31,4.445 12.879,-1.722 16.975,-8.799 9.872,-19.187 1.31,-14.866 -4.798,-11.783 -2.964,-3.669 0,0"
       style="fill:#f7d2b2;fill-opacity:1;fill-rule:nonzero;stroke:none"
       transform="matrix(1.7384622,0,0,-1.7264754,1861.0332,268.29246)"
       clip-path="url(#clipPath26-6)" />
    <path
       id="path27-2-0"
       d="M 0,0 C -0.879,0.486 -1.827,0.822 -2.774,0.903 -3.722,0.99 -4.64,0.793 -5.432,0.349 -6.233,-0.093 -6.849,-0.823 -7.425,-1.561 -7.667,-1.973 -7.941,-2.364 -8.175,-2.784 -8.383,-3.222 -8.59,-3.66 -8.814,-4.092 l -0.518,0.626 c 0.61,0.086 1.171,0.092 1.756,0.018 0.576,-0.079 1.155,-0.223 1.679,-0.502 0.528,-0.269 0.98,-0.694 1.278,-1.187 0.327,-0.485 0.442,-1.056 0.505,-1.596 -0.216,0.506 -0.416,1.011 -0.791,1.381 -0.356,0.373 -0.777,0.662 -1.251,0.831 -0.475,0.162 -0.976,0.256 -1.487,0.268 -0.502,0.01 -1.041,-0.015 -1.506,-0.117 l -0.86,-0.188 0.342,0.814 c 0.199,0.475 0.415,0.944 0.629,1.414 0.247,0.456 0.523,0.904 0.803,1.345 0.658,0.82 1.38,1.651 2.391,2.118 0.984,0.488 2.14,0.598 3.167,0.348 C -2.161,1.362 -1.674,1.162 -1.228,0.905 -0.775,0.661 -0.358,0.357 0,0"
       style="fill:#e9a77b;fill-opacity:1;fill-rule:nonzero;stroke:none"
       transform="matrix(1.7384622,0,0,-1.7264754,1879.7888,277.65323)"
       clip-path="url(#clipPath28-5)" />
    <path
       id="path29-5-3"
       d="M 0,0 C -1.141,-3.196 -13.988,2.495 -12.659,5.619 -11.117,9.242 1.372,3.843 0,0"
       style="fill:#251309;fill-opacity:1;fill-rule:nonzero;stroke:none"
       transform="matrix(1.7384622,0,0,-1.7264754,1828.1001,252.1632)"
       clip-path="url(#clipPath30-2)" />
    <path
       id="path31-3-7"
       d="M 0,0 C 1.057,-2.713 11.936,2.483 10.719,5.13 9.308,8.199 -1.271,3.262 0,0"
       style="fill:#251309;fill-opacity:1;fill-rule:nonzero;stroke:none"
       transform="matrix(1.7384622,0,0,-1.7264754,1746.2838,248.15555)"
       clip-path="url(#clipPath32-9)" />
    <path
       id="path33-56-9"
       d="m 0,0 c 0.076,-1.67 1.49,-2.962 3.16,-2.887 1.67,0.075 2.962,1.491 2.887,3.16 C 5.971,1.943 4.557,3.235 2.887,3.16 1.217,3.084 -0.076,1.669 0,0"
       style="fill:#251309;fill-opacity:1;fill-rule:nonzero;stroke:none"
       transform="matrix(1.7384622,0,0,-1.7264754,1809.0153,265.73227)"
       clip-path="url(#clipPath34-9)" />
    <path
       id="path35-61-6"
       d="M 0,0 C 0.076,-1.67 1.257,-2.973 2.639,-2.91 4.021,-2.848 5.08,-1.443 5.004,0.226 4.929,1.896 3.748,3.199 2.366,3.137 0.984,3.074 -0.075,1.67 0,0"
       style="fill:#251309;fill-opacity:1;fill-rule:nonzero;stroke:none"
       transform="matrix(1.7384622,0,0,-1.7264754,1753.7918,260.43562)"
       clip-path="url(#clipPath36-2)" />
    <path
       id="path37-4-2"
       d="M 0,0 C -0.903,-0.009 -1.783,0.052 -2.654,0.121 -3.523,0.181 -4.393,0.276 -5.217,0.278 -5.603,0.302 -6.08,0.21 -6.076,0.178 -6.172,0.106 -6.194,-0.343 -6.13,-0.729 c 0.132,-0.811 0.397,-1.657 0.625,-2.526 -0.597,0.682 -1.077,1.447 -1.384,2.343 -0.074,0.228 -0.137,0.466 -0.153,0.734 -0.014,0.263 -0.009,0.584 0.209,0.924 0.26,0.337 0.649,0.441 0.878,0.47 0.271,0.055 0.499,0.052 0.741,0.061 C -4.277,1.253 -3.396,1.108 -2.529,0.888 -1.664,0.671 -0.814,0.395 0,0"
       style="fill:#e9a77b;fill-opacity:1;fill-rule:nonzero;stroke:none"
       transform="matrix(1.7384622,0,0,-1.7264754,1785.9952,266.15111)"
       clip-path="url(#clipPath38-3)" />
    <path
       id="path39-4-2"
       d="M 0,0 C 0.956,-0.539 2.243,-0.804 3.842,-0.558 6.586,-0.132 7.939,1.921 8.147,3.861 8.318,5.347 7.816,6.767 6.738,7.334 4.23,8.659 3.321,6.549 2.148,5.99 0.388,5.158 -0.748,5.953 -1.789,4.552 -2.612,3.426 -2.025,1.126 0,0"
       style="fill:#251309;fill-opacity:1;fill-rule:nonzero;stroke:none"
       transform="matrix(1.7384622,0,0,-1.7264754,1787.1436,291.50958)"
       clip-path="url(#clipPath40-0)" />
    <path
       id="path41-6-7"
       d="M 0,0 C 0.956,-0.539 2.243,-0.804 3.842,-0.558 6.586,-0.132 7.939,1.921 8.147,3.861 6.047,4.154 2.11,4.088 0,0"
       style="fill:#ffb5b5;fill-opacity:1;fill-rule:nonzero;stroke:none"
       transform="matrix(1.7384622,0,0,-1.7264754,1787.1436,291.50958)"
       clip-path="url(#clipPath42-2)" />
    <path
       id="path43-26-3"
       d="m 0,0 c 6.357,-3.019 5.533,-8.028 5.339,-11.49 -0.216,-3.874 -4.677,-17.757 -1.127,-20.635 3.551,-2.878 5.383,3.119 8.664,4.953 3.212,1.795 7.337,0.791 8.779,-0.862 0,0 10.207,29.316 5.558,36.167 -4.649,6.851 -8.318,7.83 -8.318,7.83 0,0 -8.32,19.329 -44.532,19.574 -36.213,0.245 -10.18,-10.032 -10.18,-10.032 0,0 -21.629,-0.734 -21.873,-7.095 -0.245,-6.362 10.453,-8.18 10.453,-8.18 0,0 -9.727,-3.308 -9.358,-6.996 0.368,-3.688 5.23,-2.051 5.23,-2.051 0,0 -2.414,-6.571 -2.478,-13.671 0,0 1.789,7.194 4.25,11.408 2.461,4.215 7.095,3.931 11.728,0.103 7.487,-6.184 17.993,-3.895 23.247,-0.903 C -9.365,1.11 -4.513,2.143 0,0"
       style="fill:#251309;fill-opacity:1;fill-rule:nonzero;stroke:none"
       transform="matrix(1.7384622,0,0,-1.7264754,1842.5172,218.83498)"
       clip-path="url(#clipPath44-4)" />
    <path
       id="path45-8-0"
       d="m 0,0 c -0.227,-3.17 -0.729,-5.792 -1.581,-7.485 -2.186,-4.334 -3.094,-6.151 -3.094,-6.151 0,0 -2.508,-27.756 -3.416,-27.983 -0.909,-0.227 -16.854,-3.861 -17.639,-2.953 -0.786,0.909 4.447,5.007 4.447,5.007 l -0.331,3.208 c 0,0 -17.535,-3.663 -18.444,-1.827 -0.918,1.827 5.943,5.176 5.943,5.176 0,0 -2.262,17.801 -3.483,32.005 C -32.904,-2.328 -15.879,-6.331 0,0"
       style="fill:#e8d8b1;fill-opacity:1;fill-rule:nonzero;stroke:none"
       transform="matrix(1.7384622,0,0,-1.7264754,1854.941,406.86318)"
       clip-path="url(#clipPath46-0)" />
    <path
       id="path47-2-7"
       d="m 0,0 c -0.253,1.899 -0.492,3.799 -0.667,5.703 -0.184,1.903 -0.382,3.805 -0.524,5.712 -0.297,3.811 -0.549,7.625 -0.71,11.445 l 0.35,-0.398 c -0.84,0.179 -1.637,0.43 -2.441,0.688 -0.8,0.265 -1.591,0.552 -2.364,0.889 -0.775,0.332 -1.528,0.717 -2.239,1.173 -0.709,0.453 -1.389,0.965 -1.94,1.596 1.294,-1.062 2.83,-1.709 4.38,-2.254 1.549,-0.549 3.17,-0.94 4.767,-1.241 l 0.322,-0.061 0.029,-0.336 c 0.329,-3.81 0.566,-7.625 0.759,-11.443 0.103,-1.909 0.15,-3.821 0.21,-5.732 C 0.002,3.831 0.009,1.916 0,0"
       style="fill:#e4ce9e;fill-opacity:1;fill-rule:nonzero;stroke:none"
       transform="matrix(1.7384622,0,0,-1.7264754,1817.3654,469.63333)"
       clip-path="url(#clipPath48-2)" />
    <path
       id="path49-5-3"
       d="m 0,0 c 0,0 2.587,4.23 3.781,4.502 1.194,0.272 7.258,0.472 8.037,-0.376 0.781,-0.847 1.863,-5.332 1.863,-5.332 z"
       style="fill:#686868;fill-opacity:1;fill-rule:nonzero;stroke:none"
       transform="matrix(1.7384622,0,0,-1.7264754,1770.5474,250.53531)"
       clip-path="url(#clipPath50-7)" />
    <path
       id="path51-5-0"
       d="M 0,0 C 0,0 1.832,2.995 2.677,3.188 3.522,3.38 7.816,3.521 8.369,2.922 8.921,2.322 9.687,-0.854 9.687,-0.854 Z"
       style="fill:#ffffff;fill-opacity:1;fill-rule:nonzero;stroke:none"
       transform="matrix(1.7384622,0,0,-1.7264754,1773.9301,249.77911)"
       clip-path="url(#clipPath52-7-0)" />
    <path
       id="path53-1-7"
       d="M 0,0 C 1.589,3.884 28.658,2.121 31.819,-0.555 34.98,-3.23 33.899,-23.604 30.857,-24.326 27.815,-25.048 2.862,-25.219 1.169,-22.641 -1.95,-17.892 -2.531,-6.185 0,0"
       style="fill:#686868;fill-opacity:1;fill-rule:nonzero;stroke:none"
       transform="matrix(1.7384622,0,0,-1.7264754,1756.1831,253.25573)"
       clip-path="url(#clipPath54-3-1)" />
    <path
       id="path55-0-3"
       d="m 0,0 c -3.057,-2.827 -2.68,-23.312 -0.181,-25.322 2.499,-2.011 7.967,-1.018 8.955,0.873 1.903,3.641 2.052,22.072 -0.301,23.767 C 6.12,1.013 1.354,1.252 0,0"
       style="fill:#575959;fill-opacity:1;fill-rule:nonzero;stroke:none"
       transform="matrix(1.7384622,0,0,-1.7264754,1798.1117,251.6406)"
       clip-path="url(#clipPath56-0-7)" />
    <path
       id="path57-15-6"
       d="m 0,0 c 2.597,-2.776 2.036,-23.24 -0.138,-25.286 -2.174,-2.046 -6.866,-1.139 -7.695,0.734 -1.595,3.607 -1.509,22.012 0.535,23.741 C -5.254,0.918 -1.151,1.23 0,0"
       style="fill:#575959;fill-opacity:1;fill-rule:nonzero;stroke:none"
       transform="matrix(1.7384622,0,0,-1.7264754,1767.1647,250.02273)"
       clip-path="url(#clipPath58-5-3)" />
    <path
       id="path59-17-4"
       d="m 0,0 c -7.857,-0.553 -20.926,3.06 -24.081,18.86 -2.679,13.42 0.611,21.967 0.611,21.967 0,0 -3.553,7.385 -1.552,11.437 2,4.052 6.378,5.38 6.875,4.654 0.497,-0.725 -2.792,-4.286 -2.792,-4.286 0,0 3.439,0.508 4.26,-1.172 0.821,-1.679 -3.553,-1.797 -3.553,-1.797 0,0 5.237,-0.706 4.817,-2.391 -0.42,-1.686 -3.286,-0.786 -3.286,-0.786 0,0 2.825,-3.322 0.958,-5.54 0,0 1.027,-18.655 6.835,-22.521 C -5.1,14.561 0.646,14.765 3.979,12.039 7.583,9.092 8.058,0.566 0,0"
       style="fill:#f7d2b2;fill-opacity:1;fill-rule:nonzero;stroke:none"
       transform="matrix(1.7384622,0,0,-1.7264754,1788.8769,347.45999)"
       clip-path="url(#clipPath60-1-9)" />
    <path
       id="path61-6-6"
       d="m 0,0 c 0,0 -1.993,-3.554 -7.679,-2.389 0,0 -11.832,-4.14 3.721,-24.857 9.242,-12.312 27.245,-11.272 28.055,-3.965 0.997,9.004 -5.652,9.83 -13.749,12.202 C 2.122,-16.599 1.53,-4.324 1.778,-2.111 2.026,0.102 0,0 0,0"
       style="fill:#007868;fill-opacity:1;fill-rule:nonzero;stroke:none"
       transform="matrix(1.7384622,0,0,-1.7264754,1758.8841,285.48798)"
       clip-path="url(#clipPath62-6-7)" />
    <path
       id="path63-0-7"
       d="m 0,0 c -0.062,-4.579 -2.745,-8.251 -6.001,-8.207 l -14.73,0.198 0.001,0.022 c -3.106,0.279 -5.511,3.919 -5.451,8.339 0.059,4.42 2.561,7.993 5.673,8.189 0.102,0.021 0.215,0.02 0.328,0.018 L -5.778,8.365 C -2.522,8.321 0.062,4.578 0,0"
       style="fill:#4d4d4d;fill-opacity:1;fill-rule:nonzero;stroke:none"
       transform="matrix(1.7384622,0,0,-1.7264754,1791.949,274.44717)"
       clip-path="url(#clipPath64-5-2)" />
    <path
       id="path65-0-4"
       d="m 0,0 c -0.048,-3.612 -2.172,-6.511 -4.744,-6.477 -2.571,0.035 -4.616,2.99 -4.568,6.602 0.049,3.611 2.173,6.511 4.744,6.477 C -1.997,6.567 0.049,3.611 0,0"
       style="fill:#50bef4;fill-opacity:1;fill-rule:nonzero;stroke:none"
       transform="matrix(1.7384622,0,0,-1.7264754,1764.7753,274.08548)"
       clip-path="url(#clipPath66-0-9)" />
    <path
       id="path67-24-0"
       d="M 0,0 C 0,0 -1.198,-6.691 1.662,-7.086 5.317,-7.59 8.856,0 8.856,0 c 0,0 9.212,-2.153 11.044,-4.266 1.831,-2.113 6.199,-27.192 7.185,-30.292 0.987,-3.099 5.777,-12.961 4.79,-15.356 -0.985,-2.396 -10.284,-11.412 -32.827,-8.313 -22.542,3.1 -16.499,9.146 -14.934,14.793 C -12.097,-29.767 -14.929,-3.201 0,0"
       style="fill:#00baa7;fill-opacity:1;fill-rule:nonzero;stroke:none"
       transform="matrix(1.7384622,0,0,-1.7264754,1809.3616,319.02028)"
       clip-path="url(#clipPath68-5-2)" />
    <path
       id="path69-3-1"
       d="m 0,0 c 0,0 -16.84,-7.087 -13.155,-29.807 3.686,-22.719 26.653,-12.572 26.653,-12.572 0,0 3.821,-1.679 2.048,-4.564 -1.773,-2.886 -27.979,-11.032 -34.688,16.231 -6.709,27.263 16.474,31.665 16.474,31.665 0,0 2.601,1.105 2.668,-0.953"
       style="fill:#fdc940;fill-opacity:1;fill-rule:nonzero;stroke:none"
       transform="matrix(1.7384622,0,0,-1.7264754,1846.5407,323.79502)"
       clip-path="url(#clipPath70-9-0)" />
    <path
       id="path71-3-2"
       d="m 0,0 c 0,0 -9.082,-5.737 -13.044,-38.727 -0.796,-6.631 -2.269,-2.56 -2.787,2.25 -0.496,4.599 -0.383,28.82 12.115,37.515 C 4.327,6.633 0,0 0,0"
       style="fill:#fdc940;fill-opacity:1;fill-rule:nonzero;stroke:none"
       transform="matrix(1.7384622,0,0,-1.7264754,1805.9628,322.10066)"
       clip-path="url(#clipPath72-6-5)" />
    <path
       id="path73-6-4"
       d="m 0,0 c 7.71,-1.871 7.496,-12.791 1.072,-13.762 -10.868,-1.644 -22.105,8.128 -22.768,19.677 -0.664,11.547 5.847,17.721 5.847,17.721 0,0 -2.246,2.198 -0.887,5.187 0,0 -4.858,-1.518 -4.939,0.467 -0.08,1.984 4.822,3.151 4.822,3.151 0,0 -5.21,2.155 -4.823,3.996 0.387,1.841 6.341,0 6.341,0 0,0 0.914,0.535 0.327,1.946 -0.588,1.412 -5.607,1.925 -5.607,3.769 0,1.846 6.486,-0.125 7.793,-1.593 2.384,-2.682 4.13,-12.027 3.026,-15.442 0,0 -6.572,-21.144 9.796,-25.117"
       style="fill:#f7d2b2;fill-opacity:1;fill-rule:nonzero;stroke:none"
       transform="matrix(1.7384622,0,0,-1.7264754,1841.793,328.08013)"
       clip-path="url(#clipPath74-8-9)" />
    <path
       id="path75-2-4"
       d="m 0,0 c 2.999,2.505 -1.612,-9.021 4.346,-15.304 4.972,-5.243 11.662,-1.787 13.108,-10.035 1.034,-5.893 -4.43,-8.679 -11.029,-7.955 -4.639,0.508 -16.765,5.647 -20.217,19.3 -3.451,13.654 4.848,12.761 4.848,12.761 0,0 4.413,-2.552 8.944,1.233"
       style="fill:#008c7d;fill-opacity:1;fill-rule:nonzero;stroke:none"
       transform="matrix(1.7384622,0,0,-1.7264754,1822.7558,295.4052)"
       clip-path="url(#clipPath76-1-7)" />
    <path
       id="path77-8-6"
       d="m 0,0 c -0.023,2.229 0.151,4.457 0.702,6.665 0.135,0.55 0.373,1.133 0.457,1.55 0.067,0.502 0.081,1.027 0.053,1.56 -0.045,1.068 -0.208,2.151 -0.417,3.22 -0.19,1.074 -0.447,2.139 -0.74,3.192 -0.274,1.059 -0.626,2.096 -1.008,3.111 -0.194,0.505 -0.408,1.006 -0.673,1.463 -0.242,0.464 -0.585,0.852 -0.974,1.253 -0.74,0.793 -1.572,1.539 -2.602,1.961 1.113,-0.208 2.064,-0.908 2.939,-1.605 0.218,-0.183 0.419,-0.376 0.623,-0.578 0.189,-0.226 0.404,-0.448 0.548,-0.694 0.332,-0.478 0.597,-0.982 0.844,-1.492 C 0.728,17.559 1.339,15.388 1.777,13.18 1.973,12.071 2.141,10.953 2.156,9.802 2.162,9.228 2.125,8.644 2.017,8.048 1.849,7.384 1.607,6.959 1.435,6.443 1.082,5.422 0.833,4.347 0.615,3.267 0.369,2.19 0.194,1.097 0,0"
       style="fill:#e9a77b;fill-opacity:1;fill-rule:nonzero;stroke:none"
       transform="matrix(1.7384622,0,0,-1.7264754,1822.7558,295.4052)"
       clip-path="url(#clipPath78-8-2)" />
  </g>
  <g
     id="layer-MC2"
     transform="matrix(0.80903216,0,0,0.65697909,55.609947,-0.2051361)">
    <text
       xml:space="preserve"
       id="text291"
       style="font-size:65.8612px;font-family:OpenDyslexic;-inkscape-font-specification:OpenDyslexic;text-align:center;writing-mode:lr-tb;direction:ltr;white-space:pre;shape-inside:url(#rect291);display:inline;fill:#000000;stroke-width:0.851"
       transform="matrix(0.79544699,0,0,0.82437859,195.93891,-56.730269)"><tspan
         x="590.54343"
         y="399.94582"
         id="tspan1">Bienvenidos</tspan></text>
    <text
       xml:space="preserve"
       id="text292"
       style="font-size:85.9969px;font-family:OpenDyslexic;-inkscape-font-specification:OpenDyslexic;text-align:center;writing-mode:lr-tb;direction:ltr;white-space:pre;shape-inside:url(#rect292);display:inline;fill:#5873af;fill-opacity:1;stroke-width:0.851"
       transform="matrix(0.60096852,0,0,1,179.91991,-30.033759)"><tspan
         x="532.19662"
         y="397.97181"
         id="tspan2">Detectives de palabras</tspan></text>
  </g>
</svg>
