<?xml version="1.0" encoding="UTF-8"?>
<!DOCTYPE svg PUBLIC "-//W3C//DTD SVG 1.1//EN" "http://www.w3.org/Graphics/SVG/1.1/DTD/svg11.dtd">
<!-- Creator: CorelDRAW -->
<svg xmlns="http://www.w3.org/2000/svg" xml:space="preserve" width="450mm" height="600mm" version="1.1" style="shape-rendering:geometricPrecision; text-rendering:geometricPrecision; image-rendering:optimizeQuality; fill-rule:evenodd; clip-rule:evenodd"
viewBox="0 0 45000 60000"
 xmlns:xlink="http://www.w3.org/1999/xlink"
 xmlns:xodm="http://www.corel.com/coreldraw/odm/2003">
 <defs>
  <style type="text/css">
   <![CDATA[
    .str4 {stroke:#BA4256;stroke-width:60;stroke-miterlimit:10}
    .str8 {stroke:#5662DB;stroke-width:44.8;stroke-miterlimit:10}
    .str1 {stroke:#5662DB;stroke-width:37.33;stroke-miterlimit:10}
    .str5 {stroke:#3A3A3A;stroke-width:35.28;stroke-miterlimit:10}
    .str2 {stroke:#5662DB;stroke-width:35.28;stroke-miterlimit:10}
    .str6 {stroke:#AC5641;stroke-width:60;stroke-linecap:round;stroke-linejoin:round;stroke-miterlimit:10}
    .str3 {stroke:#3390BC;stroke-width:40;stroke-linecap:round;stroke-linejoin:round;stroke-miterlimit:10}
    .str9 {stroke:#8C4634;stroke-width:40;stroke-linecap:round;stroke-linejoin:round;stroke-miterlimit:10}
    .str7 {stroke:#AC5641;stroke-width:40;stroke-linecap:round;stroke-linejoin:round;stroke-miterlimit:10}
    .str0 {stroke:white;stroke-width:40;stroke-linecap:round;stroke-linejoin:round;stroke-miterlimit:10}
    .fil1 {fill:none;fill-rule:nonzero}
    .fil5 {fill:#185B46;fill-rule:nonzero}
    .fil4 {fill:#34773A;fill-rule:nonzero}
    .fil23 {fill:#3A3A3A;fill-rule:nonzero}
    .fil25 {fill:#4DA8FF;fill-rule:nonzero}
    .fil6 {fill:#4F4F4F;fill-rule:nonzero}
    .fil3 {fill:#50931F;fill-rule:nonzero}
    .fil18 {fill:#5662DB;fill-rule:nonzero}
    .fil12 {fill:#56C8FB;fill-rule:nonzero}
    .fil14 {fill:#666666;fill-rule:nonzero}
    .fil7 {fill:#6772DF;fill-rule:nonzero}
    .fil21 {fill:#6D3BBC;fill-rule:nonzero}
    .fil26 {fill:#804BD8;fill-rule:nonzero}
    .fil20 {fill:#996FE0;fill-rule:nonzero}
    .fil19 {fill:#A5E1FB;fill-rule:nonzero}
    .fil8 {fill:#AC5641;fill-rule:nonzero}
    .fil11 {fill:#BA9CE9;fill-rule:nonzero}
    .fil10 {fill:#CDB6EF;fill-rule:nonzero}
    .fil22 {fill:#D8D8D8;fill-rule:nonzero}
    .fil24 {fill:#DDA336;fill-rule:nonzero}
    .fil9 {fill:#E89E7C;fill-rule:nonzero}
    .fil15 {fill:#F05959;fill-rule:nonzero}
    .fil13 {fill:#F26B6B;fill-rule:nonzero}
    .fil16 {fill:#F6CD50;fill-rule:nonzero}
    .fil0 {fill:#F6CF5B;fill-rule:nonzero}
    .fil2 {fill:white;fill-rule:nonzero}
    .fil17 {fill:#DD5224;fill-rule:nonzero;fill-opacity:0.301961}
   ]]>
  </style>
 </defs>
 <g id="Capa_x0020_1">
  <metadata id="CorelCorpID_0Corel-Layer"/>
  <g id="_2051052895520">
   <path class="fil0" d="M27851.5 38726.06l3858.57 1492 622.34 -135.63 3173.99 1627.63c0,0 3920.81,-1152.9 4231.99,-1695.44 311.16,-542.55 -8090.55,-2916.17 -8090.55,-2916.17 0,0 -4418.68,745.99 -3796.34,1627.61z"/>
   <path class="fil0" d="M5103.47 32554.76l36154.84 -354.71c-196.1,-2253.18 -1448.04,-5107.75 -3573.69,-5625.47 -1757.72,-428.12 -3320.52,1045.38 -5850.09,1288.56 -6189.96,595 -9279.91,-7317.71 -14314.03,-6523.35 -2395.88,378.05 -2432.62,2367.39 -6099.03,3014.27 -2629.36,463.91 -3872.18,-336.59 -5227.72,221.64 -1346.33,554.44 -2499.88,2324 -1090.28,7979.06z"/>
   <path class="fil0" d="M4202.23 38658.24c-1826.77,1592.52 -62.25,2916.19 2613.86,2848.38 2676.09,-67.84 11637.94,-3526.55 11575.71,-4882.9 -62.24,-1356.37 -12011.36,135.63 -14189.57,2034.52z"/>
   <path class="fil0" d="M21752.49 39392.96c-3858.57,271.26 -7654.91,1017.25 -4231.99,2305.81 3422.92,1288.53 3173.97,-1763.29 5041.03,-949.46 1867.05,813.83 4978.79,1763.26 5787.85,67.82 809.06,-1695.45 -6596.89,-1424.17 -6596.89,-1424.17z"/>
   <path class="fil1 str0" d="M13532.89 5849.67c0,179.48 -133.52,324.97 -298.22,324.97 -164.68,0 -298.19,-145.49 -298.19,-324.97 0,-179.48 133.51,-324.94 298.19,-324.94 164.7,0 298.22,145.46 298.22,324.94z"/>
   <path class="fil1 str0" d="M14864.7 4460.32c0,179.45 -133.51,324.94 -298.21,324.94 -164.68,0 -298.2,-145.49 -298.2,-324.94 0,-179.48 133.52,-324.97 298.2,-324.97 164.7,0 298.21,145.49 298.21,324.97z"/>
   <line class="fil1 str0" x1="13458.91" y1="5635.93" x2="14321.52" y2= "4695.89" />
   <line class="fil1 str0" x1="15990.2" y1="5439.84" x2="16909.47" y2= "4438.13" />
   <line class="fil1 str0" x1="14817.51" y1="4678.75" x2="15543.17" y2= "5469.51" />
   <path class="fil1 str0" d="M16063.14 5686.66c0,179.45 -133.49,324.94 -298.19,324.94 -164.7,0 -298.2,-145.49 -298.2,-324.94 0,-179.48 133.5,-324.95 298.2,-324.95 164.7,0 298.19,145.47 298.19,324.95z"/>
   <path class="fil1 str0" d="M17418.52 4208.33c0,179.48 -133.49,324.97 -298.2,324.97 -164.7,0 -298.19,-145.49 -298.19,-324.97 0,-179.45 133.49,-324.94 298.19,-324.94 164.71,0 298.2,145.49 298.2,324.94z"/>
   <path class="fil1 str0" d="M7078.81 11863.2c-94.24,-147.17 -61.17,-349.74 73.89,-452.44 135.06,-102.7 320.95,-66.66 415.2,80.52 94.24,147.15 61.17,349.74 -73.89,452.44 -135.04,102.7 -320.93,66.66 -415.2,-80.52z"/>
   <line class="fil1 str0" x1="5641.42" y1="11761.83" x2="5413.66" y2= "13156.6" />
   <line class="fil1 str0" x1="7002.79" y1="11654.64" x2="5992.4" y2= "11458.72" />
   <path class="fil1 str0" d="M5451.98 11604.95c-94.24,-147.18 -61.17,-349.75 73.89,-452.45 135.06,-102.7 320.93,-66.66 415.2,80.49 94.24,147.2 61.17,349.74 -73.89,452.44 -135.06,102.73 -320.95,66.69 -415.2,-80.48z"/>
   <path class="fil1 str0" d="M5116.89 13662.48c-94.24,-147.15 -61.17,-349.72 73.87,-452.42 135.08,-102.72 320.95,-66.68 415.22,80.49 94.24,147.18 61.17,349.74 -73.89,452.44 -135.06,102.71 -320.95,66.66 -415.2,-80.51z"/>
   <path class="fil1 str0" d="M34761.26 23459.77c52.99,169.91 -30.45,354.48 -186.38,412.23 -155.92,57.75 -325.3,-33.18 -378.3,-203.09 -53.01,-169.92 30.45,-354.49 186.38,-412.24 155.92,-57.75 325.3,33.18 378.3,203.1z"/>
   <line class="fil1 str0" x1="36116.17" y1="23992.5" x2="36690.7" y2= "22721.68" />
   <line class="fil1 str0" x1="34781.09" y1="23683.14" x2="35701.69" y2= "24177.34" />
   <path class="fil1 str0" d="M36258.12 24200.58c52.99,169.94 -30.45,354.49 -186.38,412.24 -155.92,57.77 -325.3,-33.16 -378.29,-203.07 -53,-169.94 30.42,-354.48 186.37,-412.26 155.93,-57.75 325.28,33.18 378.3,203.09z"/>
   <path class="fil1 str0" d="M37104.81 22325.61c53,169.92 -30.44,354.49 -186.37,412.24 -155.93,57.75 -325.3,-33.16 -378.3,-203.1 -52.99,-169.91 30.45,-354.48 186.38,-412.23 155.92,-57.75 325.3,33.18 378.29,203.09z"/>
   <path class="fil2" d="M6024.62 17649.8c444.59,859.36 2048.59,1224.99 2787.87,1261.38 1058.54,52.13 1969.41,-490.72 3008.69,-612.8 1000.78,-117.53 2071.21,176.92 3059.05,305.07 1117.15,144.94 2022.74,-31.27 3144.14,-31.37 1098.25,-0.1 2181.64,64.85 3283.26,67.81 402.8,1.11 1072.93,90.88 1381.03,-266.19 496.61,-575.54 -22.2,-891.9 -483.69,-1037.42 -615.25,-194.04 -1266.91,-108.8 -1875.6,-287.68 -698.39,-205.25 -1049.74,-767.54 -1533.16,-1293.5 -1169.37,-1272.29 -3255.25,-2150.97 -4900.66,-1899.21 -1131.77,173.15 -2009.69,1310.64 -3156.33,1550.25 -836.08,174.71 -1607.03,-211.58 -2408.99,-151.89 -727.92,54.16 -1742.85,450.98 -2166.01,1137.54 -309.96,502.96 -315.05,918.94 -139.6,1258.01z"/>
   <path class="fil2" d="M27881.1 8549.81c7.32,18.33 15.33,36.9 24.02,55.72 223.8,485.45 872.86,743.2 1343.51,743.3 989.57,0.21 1965.33,-41.83 2947.34,-92.83 738.52,-38.35 1468.16,44.82 2202.28,46.93 426.92,1.23 770.32,-108.52 1179.95,-174.41 420.67,-67.64 844.5,61.37 1262.95,83.71 432.99,23.11 1339.99,297.91 1653.73,-136.51 517.32,-716.32 -735.69,-936.51 -1139.02,-968.26 -1015.2,-79.94 -1826.65,-154.53 -2688.23,-806.8 -757.65,-573.61 -1783.95,-1182.64 -2696.84,-764.36 -511.93,234.54 -920.56,672.43 -1447.97,840.21 -441.36,140.4 -863.32,70.22 -1312.1,43.97 -553.43,-32.43 -1675.42,266.21 -1329.62,1129.33z"/>
   <path class="fil2" d="M33397.56 15538.18c22.6,37.15 47.98,74.39 76.31,111.69 605.48,796.66 2194.59,417.63 2993.7,342.58 987.49,-92.71 1897.13,305 2909.79,140 359.28,-58.55 1584,-285.16 1518.42,-843.09 -68.54,-582.95 -1082.91,-630.01 -1442.66,-650.62 -743.26,-42.54 -1139.92,-269.37 -1751.44,-742.6 -552.07,-427.24 -855.08,-705.05 -1493.43,-360.93 -366.71,197.67 -498.73,475.15 -938.17,564.15 -297.39,60.24 -648.33,-14.66 -951.66,-3.31 -726.9,27.15 -1363.37,714.19 -920.86,1442.13z"/>
   <path class="fil3" d="M28448.28 43209.14c0,0 109.95,-2096.94 1044.61,-2696.08 659.77,419.39 219.93,2216.78 219.93,2216.78 0,0 549.81,-2156.87 1594.44,-2456.44 549.8,1138.35 -274.9,2576.26 -274.9,2576.26 0,0 659.77,-1557.73 1869.33,-1557.73 -109.95,1258.16 -934.66,2216.78 -934.66,2216.78l-3518.75 -299.57z"/>
   <path class="fil4" d="M25424.34 43868.19l8961.82 0c0,0 -329.86,-1018.53 -1484.47,-599.14 -1154.59,419.39 -1704.4,-1857.3 -3298.83,-1078.41 -1594.44,778.84 -3463.78,-1318.1 -4178.52,1677.55z"/>
   <path class="fil4" d="M10736.89 32746.03c-1493.64,-3119.63 622.34,-2780.53 809.04,-1763.29 -373.39,-2983.97 1431.43,-2441.43 1431.43,-813.8 746.81,-2780.53 2364.91,-949.46 1555.87,678.17 871.27,-2102.36 1804.8,-474.72 871.27,678.2 1555.89,-1017.27 1680.36,678.18 248.95,1559.79 -1431.41,881.65 -4916.56,-339.07 -4916.56,-339.07z"/>
   <path class="fil5" d="M5882.56 33763.3l10517.72 0c0,0 -871.29,-2577.09 -2738.35,-2102.36 -1867.05,474.73 -2116,339.1 -3920.8,-1085.08 -1804.82,-1424.19 -4605.4,67.81 -3858.57,3187.44z"/>
   <path class="fil3" d="M32954.78 31864.39c-1493.66,-3119.64 622.34,-2780.54 809.04,-1763.26 -373.42,-2984.01 1431.4,-2441.46 1431.4,-813.83 746.83,-2780.54 2364.93,-949.43 1555.87,678.2 871.3,-2102.36 1804.82,-474.73 871.3,678.17 1555.86,-1017.27 1680.35,678.17 248.92,1559.82 -1431.38,881.61 -4916.53,-339.1 -4916.53,-339.1z"/>
   <path class="fil5" d="M27104.69 33831.12l12509.21 0c0,0 62.23,-3187.45 -2053.75,-2170.18 -2115.98,1017.28 -1306.94,-3323.07 -3983.03,-1152.9 -2676.11,2170.18 -2489.39,1966.71 -3236.23,1085.09 -746.8,-881.64 -2862.81,-542.55 -3236.2,2237.99z"/>
   <path class="fil3" d="M6816.09 33898.93c0,0 0,-1627.63 995.76,-2237.99 311.18,678.18 186.69,1627.63 186.69,1627.63 0,0 373.42,-1627.63 1369.18,-1831.1 497.88,881.65 124.46,2034.55 124.46,2034.55 0,0 497.88,-1017.27 1057.99,-1085.09 186.72,1559.82 186.72,1559.82 186.72,1559.82 0,0 -2738.35,339.1 -3920.8,-67.82z"/>
   <polygon class="fil6" points="26224.76,17587.71 25433.94,17587.71 25433.94,16852.56 26224.76,16852.56 "/>
   <path class="fil7" d="M26360.79 19455.9l0 -2293.28 -1068.86 0 0 1400.7 332.92 870.12c0,0 753.46,0 735.94,22.46z"/>
   <line class="fil1 str1" x1="25854.82" y1="19439.06" x2="25854.82" y2= "17171.06" />
   <path class="fil1 str2" d="M25652.6 18575.82c0,0 352.6,-18.05 643.03,238.15"/>
   <path class="fil7" d="M24035.7 20107.93c0,1303.79 757.84,2360.72 1692.68,2360.72 934.84,0 1692.65,-1056.93 1692.65,-2360.72 0,-1303.8 -757.81,-2360.75 -1692.65,-2360.75 -934.84,0 -1692.68,1056.95 -1692.68,2360.75z"/>
   <path class="fil6" d="M23457.69 20107.93c0,1214.39 734.3,2198.83 1640.1,2198.83 905.8,0 1640.1,-984.44 1640.1,-2198.83 0,-1214.4 -734.3,-2198.87 -1640.1,-2198.87 -905.8,0 -1640.1,984.47 -1640.1,2198.87z"/>
   <path class="fil8" d="M22012.17 19424.38c0,1608.01 -869.75,2911.6 -1942.67,2911.6 -1072.91,0 -1942.68,-1303.59 -1942.68,-2911.6 0,-1608.05 869.77,-3001.07 1942.68,-3001.07 1072.92,0 1942.67,1393.02 1942.67,3001.07z"/>
   <path class="fil9" d="M29863.01 26153.41c1787.45,-971.82 2193,-2038.89 2147.95,-2400.95 -45.08,-362.04 -600.84,-57.15 -600.84,-57.15 0,0 660.93,-533.56 600.84,-933.7 -60.09,-400.16 -645.91,-190.56 -645.91,-190.56l-3019.15 1143.31 1517.11 2439.05z"/>
   <path class="fil9" d="M30899.42 24314.58c0,973.48 -642.22,1762.61 -1434.47,1762.61 -792.25,0 -1434.47,-789.13 -1434.47,-1762.61 0,-973.45 642.22,-1762.58 1434.47,-1762.58 792.25,0 1434.47,789.13 1434.47,1762.58z"/>
   <path class="fil10" d="M25726.19 37953.34c-70.89,-441.07 -59.44,-856.87 -59.44,-856.87l-2605.76 23.62c0,0 67.97,606.84 96.85,1208.59 880.37,165.52 1750.4,-24.64 2568.35,-375.34z"/>
   <path class="fil10" d="M26135.21 41225.85c704.48,197.64 1807.36,58.75 1807.36,-917.59 0,-545.73 -315.77,-813.85 -699.82,-988.91 -697.18,406.94 -1265.95,1093.5 -1107.54,1906.5z"/>
   <path class="fil10" d="M23377.38 39424.39c-60.09,-65.51 -143.39,-105.42 -236.3,-120.73 -76.1,594.85 1.45,1160.36 690.42,1351.98 50.21,13.96 101.29,25.98 152.06,38.71 30.7,-511.15 -161.69,-1027.79 -606.18,-1269.96z"/>
   <path class="fil11" d="M27242.75 39319.35c-353.2,-160.98 -764.11,-243.27 -1040.93,-389.65 -276.43,-146.14 -410.63,-571.88 -475.63,-976.36 -817.95,350.7 -1687.98,540.86 -2568.35,375.34 16.93,353.01 20.41,704.25 -11.21,930.21 -2.12,14.96 -3.64,29.84 -5.55,44.77 92.91,15.31 176.21,55.22 236.3,120.73 444.49,242.17 636.88,758.81 606.18,1269.96 663.18,166.47 1368.06,239.98 2004.23,483.26 46.57,17.79 96.02,33.83 147.42,48.24 -158.41,-813 410.36,-1499.56 1107.54,-1906.5z"/>
   <path class="fil10" d="M21521.36 38276.28c69.51,-586.14 100.33,-1048.87 100.33,-1048.87l-2611.1 -414.67c0,0 -91.43,509.81 -260.74,1043.15 840.02,402.89 1819.24,555.19 2771.51,420.39z"/>
   <path class="fil10" d="M17341.18 39474.98c-583.54,627.5 -589.41,1638.38 556.47,1855.37 627.41,118.84 1167.27,94.9 1622.02,-7 -216.9,-1099.32 -1144.92,-1871.31 -2178.49,-1848.37z"/>
   <path class="fil11" d="M20553.5 39851.78c164.7,-314.1 481.06,-556.05 834.92,-654.63 54.47,-309.91 98.51,-630.51 132.94,-920.87 -952.27,134.8 -1931.49,-17.5 -2771.51,-420.39 -168.52,530.82 -414.18,1084.96 -723.78,1182.92 -272.12,86.13 -505.5,243.25 -684.89,436.17 1033.57,-22.94 1961.59,749.05 2178.49,1848.37 461.09,-103.33 833.03,-287.6 1116.97,-488.1 -191.69,-265.54 -233.08,-711.13 -83.14,-983.47z"/>
   <path class="fil10" d="M21388.42 39197.15c-353.86,98.58 -670.22,340.53 -834.92,654.63 -149.94,272.34 -108.55,717.93 83.14,983.47 104.7,-73.94 198.33,-149.89 278.78,-225.08 207.08,-193.58 361.87,-780.93 473,-1413.02z"/>
   <path class="fil9" d="M28233.94 23735.77l-768.94 2418.97c0,0 -501.38,-412.18 -597.37,-548.92 -433.37,826.71 -1088.17,1487.79 -1773.78,2078.12 624.07,534.84 1349.92,2744.79 3434.55,1857.38 1685.11,-717.36 1423.35,-3503.36 1357.92,-5038.15 -608.14,-163.57 -1086.99,-457.44 -1652.38,-767.4z"/>
   <path class="fil12" d="M27375.82 25975.41c-976.57,-853.08 -1748.67,-2233.59 -2619.87,-2413.65 -239.32,830.05 -2237.01,2060.83 -1620.61,2754.94 371.09,417.98 1885.06,1656.52 2409.57,1990.4 698.53,-571.59 1378.84,-1516.55 1830.91,-2331.69z"/>
   <path class="fil1 str3" d="M27122.45 25757.26c0,0 -1479.52,2067.1 -1786.53,2350.01"/>
   <path class="fil13" d="M19428.57 30317.67l-800.28 6891.36c1045.76,629.46 2833.33,445.39 3073.41,429.71 482.98,-1808.19 232.71,-1464.09 808.19,-3974.15l336.7 3887.94c1129.37,482.38 2847.1,-119.22 3035.48,-180.31 -293.86,-2635.44 42.47,-4363.34 -251.39,-6998.8l-6202.11 -55.75z"/>
   <polyline class="fil1 str4" points="23267.06,32551.85 22704.32,32720.81 22454.87,33760.14 "/>
   <path class="fil1 str4" d="M18819.71 36363.58c0,0 2110.06,492.83 3087.9,375.52"/>
   <path class="fil1 str4" d="M22724.13 36701.05c0,0 2264.47,23.47 3010.7,-234.69"/>
   <path class="fil12" d="M25901.67 30805.23c-1890.59,1248.9 -6736.35,134.62 -6736.35,134.62l753.63 -5221.01c-167.28,-1037.38 721.28,-1967.94 1853.25,-2151.48 621.79,-100.87 1806.04,-288.3 2704.84,-122.28 696.09,128.51 1102.05,725.91 1212.32,1365.79 187.8,1089.83 197.02,3634.34 212.31,5994.36z"/>
   <path class="fil9" d="M17439.18 25581.88c-1788.36,3105.25 -963.95,4160.27 -75.48,4440.61 888.48,280.37 2435.09,-310.41 2985.83,-3032.31l-2910.35 -1408.3z"/>
   <path class="fil12" d="M21542.62 23600.97c-2393.88,284.11 -3180.9,1256.15 -4312.23,2945.95 1590.42,1136.49 3064.41,1565.21 3064.41,1565.21 317.29,-240.74 896.77,-1299.9 1237.06,-2475.34 261.74,-903.98 112.77,-1664.07 10.76,-2035.82z"/>
   <path class="fil9" d="M24075.02 23403.55c290.52,1309.69 -2546.52,1396.93 -2735.49,242.34 0,0 1851.73,-355.08 2735.49,-242.34z"/>
   <path class="fil1 str3" d="M17476.3 26240.32c0,0 1616.86,1118.87 2923.67,1282.56"/>
   <path class="fil1 str3" d="M21039.61 23706.45c137.33,1252.8 3489.06,1478.33 3351.75,-250.55"/>
   <polygon class="fil9" points="21649.21,22818.41 21764,23880.11 23797.14,23775.42 23813.54,22683.81 "/>
   <path class="fil1 str3" d="M19256.16 30599.2c0,0 3816.05,1001.66 6639.98,-90.98"/>
   <path class="fil9" d="M20236.05 21201.67c121.03,591.79 -265.35,1168.67 -863.01,1288.51 -597.67,119.84 -1180.28,-262.7 -1301.34,-854.49 -121.05,-591.76 265.35,-1168.61 863,-1288.45 597.66,-119.87 1180.32,262.7 1301.35,854.43z"/>
   <path class="fil9" d="M25823.82 19894.84c412,2014.04 -849.92,3191.97 -2630.74,3549.09 -1780.82,357.09 -3406.18,-241.85 -3818.15,-2255.94 -411.94,-2014.04 -1538.5,-3422.89 2478.5,-4293.34 4017.01,-870.45 3558.42,986.13 3970.39,3000.19z"/>
   <path class="fil1 str5" d="M22208.13 20667.89c-9.47,-150.72 401.46,-175.99 410.93,-25.28"/>
   <path class="fil1 str5" d="M24431.3 20334.54c-12.99,-149.99 395.84,-184.75 408.86,-34.76"/>
   <path class="fil1 str6" d="M23780.19 20743.83c561.47,-330.66 592.6,367.04 114.49,446.7"/>
   <path class="fil1 str7" d="M22077.26 19864.4c0,0 130.17,-250.98 420.58,-109.13"/>
   <path class="fil1 str7" d="M24414.8 19577.38c0,0 145.89,-193.1 326.14,-29.42"/>
   <path class="fil1 str6" d="M22959.22 21577.99c0,0 373.76,359.25 981.98,41.01"/>
   <path class="fil14" d="M29881.8 18348.05l2085.67 0c161.96,0 456.22,136.36 424.87,304.54l-1045.69 5777.19c-31.35,168.21 -188.06,304.54 -349.99,304.54l-2375.9 -128.4c-161.96,0 -436.7,-119.77 -388.31,-389.22l1299.36 -5564.11c31.35,-168.18 188.03,-304.54 349.99,-304.54z"/>
   <path class="fil6" d="M29634.88 18348.05l2274.04 0c161.96,0 267.84,133.88 236.47,299.02l-1045.67 5596c-31.36,165.15 -188.05,299.02 -350.01,299.02l-2274.07 -87.92c-161.94,0 -267.82,-133.87 -236.45,-299.01l1045.67 -5508.09c31.35,-165.14 188.06,-299.02 350.02,-299.02z"/>
   <path class="fil6" d="M32071.07 19826.23c29.71,0 49.31,24.79 43.55,55.09l-116.52 613.77c-5.73,30.29 -34.75,55.06 -64.46,55.06 -29.71,0 -49.31,-24.77 -43.56,-55.06l116.52 -613.77c5.76,-30.3 34.76,-55.09 64.47,-55.09z"/>
   <path class="fil6" d="M32232.41 18976.41c29.71,0 49.31,24.79 43.55,55.09l-116.52 613.77c-5.76,30.27 -34.75,55.06 -64.46,55.06 -29.71,0 -49.32,-24.79 -43.56,-55.06l116.52 -613.77c5.74,-30.3 34.76,-55.09 64.47,-55.09z"/>
   <path class="fil15" d="M28504.01 23872.75l1014.63 -5153.25c7.64,-38.92 39.4,-66.61 75.95,-66.18l623.96 7.2c80.66,0.93 143.23,77.08 135.2,164.55 -8.09,88.09 55.41,164.54 136.67,164.54l143 0c111.34,0 210.51,-76.68 247.29,-191.2l12.58 -39.13c18.77,-58.45 68.66,-98.28 125.48,-100.14l799.99 -26.42c49.56,-1.64 87.56,47.53 77.64,100.49l-983.49 5248.22c-10.71,57.1 -57.44,97.6 -110.89,96.17l-2192.82 -59.38c-69.14,-1.86 -119.7,-71.78 -105.19,-145.47z"/>
   <path class="fil16" d="M29822.15 21453.58c-15.73,201.14 -142.18,353.61 -282.44,340.58 -140.26,-13.02 -241.24,-186.6 -225.51,-387.74 15.71,-201.11 142.18,-353.58 282.44,-340.55 140.27,13 241.22,186.6 225.51,387.71z"/>
   <path class="fil16" d="M30740.01 21538.79c-15.73,201.11 -142.17,353.6 -282.46,340.58 -140.26,-13.03 -241.21,-186.6 -225.48,-387.72 15.71,-201.13 142.17,-353.6 282.44,-340.58 140.26,13.03 241.21,186.61 225.5,387.72z"/>
   <path class="fil16" d="M29710.47 21389.43c2.28,-29.14 152.91,-1267.12 152.91,-1267.12l1037.51 47.41 -160.88 1369.07 -108.08 4.64 85.58 -979.92 -757.45 -70.33 -137.91 960.4 -111.68 -64.15z"/>
   <path class="fil2" d="M29043.12 23476.56l259.48 184.54c10.84,7.73 28.35,-1.98 31.46,-17.44l31.78 -365.13c3,-14.53 -10.2,-23.51 -23.74,-16.19l-291.36 180.56c-13.84,7.53 -18.08,26.2 -7.62,33.66z"/>
   <path class="fil2" d="M29985.93 23438.76l-227.07 -179.1c-10.9,-7.23 -27.66,1.98 -30.22,16.61l-107.37 366.76c-2.79,15.51 11.14,25.22 25.03,17.42l334.45 -187.71c13.56,-7.6 16.44,-26.5 5.18,-33.98z"/>
   <path class="fil2" d="M30524.27 23436.37l-286.05 -135.85c-11.31,-7.33 -27.96,2.01 -29.99,16.79l-44.2 324.57c-2.12,15.61 12.39,25.35 26.12,17.49l330.37 -188.81c13.4,-7.68 15.48,-26.66 3.75,-34.19z"/>
   <path class="fil2" d="M28997.72 23680.2l-44.54 0.08c-10.23,0.02 -16.42,-8.96 -13.86,-20.03l96.41 -416.48c2.39,-10.36 12.34,-18.77 22.22,-18.85l43.03 -0.3c9.88,-0.07 16,8.26 13.68,18.63l-93.86 416.85c-2.48,11.09 -12.83,20.1 -23.08,20.1z"/>
   <path class="fil2" d="M30554.38 23677.52l-46.14 0.07c-10.59,0.03 -18.17,-9.11 -16.92,-20.38l46.77 -423.53c1.18,-10.51 10.39,-19.07 20.62,-19.15l44.49 -0.3c10.23,-0.07 17.65,8.38 16.56,18.9l-44.06 423.91c-1.17,11.29 -10.71,20.45 -21.32,20.48z"/>
   <path class="fil17" d="M21400.68 21539.87c-59.06,324.16 158.48,634.38 485.9,692.85 327.4,58.51 640.7,-156.91 699.77,-481.07 59.06,-324.17 -158.48,-634.38 -485.9,-692.86 -327.4,-58.5 -640.7,156.89 -699.77,481.08z"/>
   <path class="fil17" d="M24569.76 21303.34c-55.32,303.56 135.5,591.72 426.21,643.64 290.68,51.93 571.19,-152.04 626.49,-455.6 55.3,-303.54 -135.52,-591.69 -426.21,-643.61 -290.71,-51.93 -571.19,152.04 -626.49,455.57z"/>
   <path class="fil9" d="M18068.57 25538.68c559.69,1650.75 1421.96,3997.49 137.8,4406.69 -1859.94,592.69 -2210.6,-1629.97 -2510.01,-3433.46 792.04,-324.92 1573.05,-677.42 2372.21,-973.23z"/>
   <path class="fil9" d="M17282.4 26913.23c1697.33,-609.21 1021.83,-3048.98 588.26,-3210.62 -433.53,-161.63 -271.92,1052.36 -271.92,1052.36 0,0 -604.19,-1839.71 -1056.63,-1680.53 -493.57,173.65 255.17,1447.2 255.17,1447.2 0,0 -501.89,-1350.78 -1043.39,-1110.09 -351.51,156.24 339.61,1286.1 339.61,1286.1 0,0 -602.15,-951.47 -991.57,-898.56 -389.49,52.88 359.99,1389.4 359.99,1389.4 0,0 -377.45,-886.69 -836.27,-691.52 -458.84,195.16 1209.52,2711.56 2003.41,2661.14l653.34 -244.88z"/>
   <path class="fil1 str6" d="M17554.94 24675.86c0,0 -1049.86,407.95 -641.69,1167.04"/>
   <line class="fil1 str6" x1="16472.76" y1="23823.66" x2="16793.8" y2= "24396.55" />
   <line class="fil1 str6" x1="15750.44" y1="24216.5" x2="16135.69" y2= "24773.02" />
   <line class="fil1 str6" x1="15156.52" y1="24707.54" x2="15461.92" y2= "25188.49" />
   <path class="fil9" d="M27805.16 25100.37c-630.87,-1571.33 360.49,-2520.69 826.15,-2422.48 465.64,98.21 -60.09,1249.45 -60.09,1249.45 0,0 971.32,327.36 440.6,1429.48l-1206.66 -256.45z"/>
   <line class="fil1 str6" x1="27465" y1="26154.74" x2="27059.14" y2= "27004.56" />
   <path class="fil8" d="M19028.05 20394.92c560.78,-91.35 1335.23,954.28 1355.26,1365.33 415.57,-524.32 467.09,-1556.55 186.7,-1876.27 -280.39,-319.7 -537.54,-1441.71 55.25,-1785.53 931.29,-540.16 1919.98,1188.37 2828.91,264.03 741,-753.59 1882.6,-621.97 2183,314.31 660.92,-2823.5 -3304.56,-4171.74 -5467.52,-2207.82 -2203.04,319.72 -1722.39,3492.06 -1141.6,3925.95z"/>
   <polygon class="fil6" points="18316.57,17587.71 17525.75,17587.71 17525.75,16852.56 18316.57,16852.56 "/>
   <path class="fil8" d="M20991.56 17983.25c448.04,89.68 779.42,750.41 779.42,750.41 0,0 203.63,-680.48 12.02,-963.11l-791.44 212.7z"/>
   <path class="fil6" d="M20218.38 20620.4c0,1270.11 -734.3,2299.78 -1640.09,2299.78 -905.8,0 -1640.1,-1029.67 -1640.1,-2299.78 0,-1270.16 734.3,-2299.83 1640.1,-2299.83 905.79,0 1640.09,1029.67 1640.09,2299.83z"/>
   <path class="fil7" d="M19902.96 20620.4c0,1363.63 -757.84,2469.09 -1692.68,2469.09 -934.81,0 -1692.65,-1105.46 -1692.65,-2469.09 0,-1363.67 757.84,-2469.14 1692.65,-2469.14 934.84,0 1692.68,1105.47 1692.68,2469.14z"/>
   <path class="fil18" d="M18662.37 20620.4c0,923.18 -442.46,1671.61 -988.27,1671.61 -545.81,0 -988.25,-748.43 -988.25,-1671.61 0,-923.23 442.44,-1671.65 988.25,-1671.65 545.81,0 988.27,748.42 988.27,1671.65z"/>
   <path class="fil7" d="M17190.48 20295.89l0 -2878.3 1282.64 0 0 733.67c0,0 -399.51,366.86 -399.51,931.21 0,564.38 0,1185.2 0,1185.2 0,0 -904.16,0 -883.13,28.22z"/>
   <path class="fil1 str8" d="M18073.61 20267.67c0,0 -123.52,-2017.62 399.51,-2116.41"/>
   <line class="fil1 str8" x1="17797.64" y1="20274.73" x2="17797.64" y2= "17428.16" />
   <line class="fil1 str8" x1="17182.6" y1="18655.68" x2="17182.6" y2= "19364.67" />
   <path class="fil18" d="M17890.21 17030.93l-551.01 0c0,0 469.98,-2884.11 4991.36,-2884.11 2528.11,0 3079.1,2782.19 3079.1,2782.19l761.69 0c0,0 -307.61,-2684.03 -4164.89,-2684.03 -3338.37,0 -4116.25,2785.95 -4116.25,2785.95z"/>
   <path class="fil7" d="M18441.2 17030.93c0,-1698.75 2090.53,-2731.21 3894.77,-2731.21 2328.22,0 3381.61,1304.27 3462.63,2680.24 534.8,0 534.8,0 534.8,0 0,0 129.65,-2833.14 -4002.84,-2833.14 -4132.44,0 -4440.35,2884.11 -4440.35,2884.11 0,0 550.99,33.99 550.99,0z"/>
   <path class="fil8" d="M24823.55 16887.2c0,0 585.82,98.21 1013.91,-229.15 -570.8,-941.07 -1852.57,-1404.03 -3284.53,-1404.03 -1271.77,0 -2723.76,618.37 -3144.35,2058.77l5414.97 -425.59z"/>
   <path class="fil8" d="M23374.04 18409.44c495.69,-409.19 1502.09,-212.78 1697.36,180.06 90.12,-229.15 -330.46,-998.45 -330.46,-998.45 0,0 983.85,384.65 1276.77,785.67 255.35,-687.46 -345.48,-2537.09 -2193.03,-2422.49l-450.64 2455.21z"/>
   <path class="fil1 str9" d="M23449.15 17280.06c0,0 1036.43,-98.21 1457.02,687.46"/>
   <path class="fil1 str9" d="M24004.93 16510.75c45.05,0 1336.84,163.67 1712.35,1587.7"/>
   <path class="fil1 str9" d="M23344.01 15872.39c0,0 1426.96,-180.06 2298.16,916.6"/>
   <path class="fil1 str9" d="M21511.48 17067.25c0,0 420.59,360.11 345.48,1276.74"/>
   <path class="fil8" d="M22157.39 18442.2c0,0 991.36,556.49 1381.88,491.04 150.22,-360.11 -570.77,-1325.83 -570.77,-1325.83l-811.11 834.79z"/>
   <path class="fil1 str9" d="M22938.46 17754.71c0,0 375.52,261.9 525.71,671.12"/>
   <path class="fil19" d="M19533.62 24167.81c-4.65,236.57 122.03,454.82 257.54,628.73 153.86,197.49 346.13,369.29 556.2,491.09 90.35,52.38 185.91,95.67 287.07,115.02 142.77,27.33 286.86,14.64 428.9,-11.37 285.2,-52.23 579.2,-163.03 862.29,-39.7 248.05,108.07 458.65,297.18 697.22,425.89 227.32,122.65 502.6,198.52 745.56,81.62 114.7,-55.19 206.2,-149.89 306.48,-229.38 126.52,-100.26 263.7,-154.32 420.15,-165.49 160.67,-11.45 321.59,7.78 482.38,1.73 122.76,-4.62 245.96,-18.92 365.81,-48.74 202.32,-50.37 391.31,-149.84 545.4,-302.43 161.08,-159.55 277.07,-366.21 368.23,-579.64 26.12,-61.21 50.3,-123.41 73.43,-186.03 19.5,-52.85 -59.06,-75.82 -78.36,-23.54 -82.34,223 -183.06,445.17 -330.25,626.45 -131.54,161.98 -297.83,280.52 -486.99,346.3 -248,86.26 -502.9,80.82 -760.02,74.74 -151,-3.59 -306.86,1.36 -449.15,62.52 -116.63,50.15 -212.37,134.35 -310.31,217.4 -101.75,86.31 -208.36,156.56 -339.3,171.07 -127.99,14.18 -254.48,-10.39 -374.71,-58.13 -242.11,-96.07 -448.54,-272.29 -673.05,-405.86 -112.52,-66.93 -230.28,-125.49 -358.24,-144.99 -133.79,-20.43 -268.12,-4.44 -400.34,21.28 -265.1,51.61 -541.8,147.45 -809.11,55.82 -204.94,-70.27 -392.51,-218.78 -549.31,-375.14 -161.52,-161.1 -322.05,-362.49 -379.38,-598.28 -12.07,-49.62 -17.89,-99.64 -16.88,-150.94 1.1,-57 -80.13,-57 -81.26,0z"/>
   <path class="fil19" d="M18505.46 24922.58c179.3,58.05 374.54,99.64 535.56,207.96 190.75,128.33 193.93,411.58 214.54,627.35 20.66,216.17 75.31,412.66 211.27,576.83 123.31,148.88 287.76,248.84 456.35,323.96 204.48,91.11 420.84,145.3 636.03,196.72 50.97,12.17 72.73,-73.16 21.6,-85.38 -362.08,-86.51 -784.76,-179.33 -1048.29,-488.13 -146.21,-171.3 -183.04,-378.93 -202.89,-604.39 -18.49,-209.92 -43.78,-459.92 -211.5,-596.63 -167.28,-136.38 -394.79,-180.1 -591.07,-243.68 -50.23,-16.26 -71.7,69.18 -21.6,85.39z"/>
   <path class="fil19" d="M20510.17 27250.92c273.09,241.87 682.46,202.69 1005.13,133.07 390.21,-84.18 750.27,-300.45 1157.79,-271.94 215.88,15.14 415.31,96.36 614.42,182.39 147.8,63.88 297.55,122.53 449.51,173.55 331.78,111.44 680.85,192.68 1029.69,183.32 378.11,-10.17 748.49,-145.44 997.53,-468.2 33.44,-43.37 -23.75,-106.29 -57.44,-62.62 -459.95,596.07 -1261.96,480.45 -1872.86,286.74 -152.24,-48.29 -302.29,-104.63 -450.29,-166.47 -181.66,-75.93 -359.23,-159.88 -552.24,-196.45 -193.4,-36.64 -387.81,-26.8 -579.25,18.45 -192.31,45.45 -373.25,128.85 -562.46,185.45 -192.82,57.68 -392.69,95.95 -593.07,97 -181.93,0.96 -383.18,-27.73 -529.02,-156.91 -40.23,-35.64 -98.04,26.66 -57.44,62.62z"/>
   <path class="fil19" d="M25808.55 26753.68c210.49,-39.1 331.91,-229.42 408.98,-430.83 89.11,-232.86 132.8,-482.99 221.38,-716.05 45.7,-120.22 105.1,-236.77 196.62,-322.61 39.69,-37.22 -17.98,-99.61 -57.46,-62.59 -163.16,152.99 -235.2,392.53 -297.07,609.38 -63.13,221.36 -110.18,467.3 -236.99,658.39 -63.41,95.55 -149.94,159.02 -257.06,178.93 -51.43,9.53 -29.64,94.87 21.6,85.38z"/>
   <path class="fil19" d="M19732.23 28742.92c330.16,290.99 723.59,447.37 1147.58,462.56 411.63,14.73 819.15,-85.51 1216.84,-189.57 414.21,-108.37 826.73,-223.34 1253.9,-248.37 451.31,-26.42 910.52,23.09 1337.46,190.25 200.05,78.33 400.29,160.32 610.11,202.16 205.63,41.01 426.97,45.78 613.48,-71.03 45.32,-28.38 4.44,-104.91 -41,-76.44 -166.57,104.3 -367.33,98.81 -550.87,62.11 -185.83,-37.17 -364.81,-105.48 -542.01,-175.33 -408.56,-161.08 -832.17,-233.36 -1266.71,-226.29 -418.79,6.83 -824.68,96.76 -1230.24,203.37 -391.66,102.96 -786.15,216.37 -1190.38,238.33 -219.47,11.93 -440.46,-4.74 -653.04,-67.68 -237.81,-70.4 -456.38,-198.08 -647.66,-366.69 -40.31,-35.51 -98.14,26.76 -57.46,62.62z"/>
   <path class="fil19" d="M19300.68 29933.57c140.35,42.39 212.15,170.87 328.52,252.92 103.35,72.88 229.19,84.68 348.98,100.49 339.56,44.85 680.55,19.93 1021.28,31.45 297.11,10.03 607.23,52.8 896.19,-46.51 279.29,-95.98 514.65,-300.5 788.01,-411.86 296.01,-120.57 655.83,-125.64 969.25,-106.31 180.55,11.11 361.03,40.15 527.68,120.06 114.54,54.94 219.77,130.59 336.11,181.51 370.53,162.16 992.12,159.48 1332.67,-84.75 43.5,-31.2 2.85,-107.9 -41,-76.45 -221.82,159.07 -517.66,169.36 -775.28,162.51 -289.78,-7.68 -498.38,-93.44 -756.84,-230.63 -237.53,-126.12 -493.32,-162.03 -755.38,-165.27 -263.71,-3.29 -549.06,2.39 -801.74,92.16 -240.82,85.56 -450.04,243.5 -678.1,359.56 -323.21,164.44 -661.22,133.39 -1007.69,118.94 -327.21,-13.68 -655.19,11.19 -981.75,-24.22 -211.9,-22.97 -343.66,-57.03 -504.42,-212.56 -69.38,-67.14 -133.96,-118.96 -224.89,-146.4 -50.46,-15.26 -71.99,70.15 -21.6,85.36z"/>
   <path class="fil1 str3" d="M25852.47 28112.13c0,-112.16 -75.1,-1735.02 -75.1,-1735.02"/>
   <line class="fil1 str3" x1="20174.64" y1="28112.13" x2="20865.6" y2= "26213.42" />
   <polygon class="fil20" points="17758.72,36117.55 17758.72,36574.96 8306.76,40452.63 8263.36,39885.19 "/>
   <path class="fil20" d="M4249.24 37627.12c-889.61,874.86 -791.97,1938.84 325.46,2683.65 1117.46,744.81 3786.3,331.02 3786.3,331.02l-0.46 -728.65 -4111.3 -2286.02z"/>
   <path class="fil21" d="M15374.79 35022.09l-9470.64 3075.89c46.98,34.74 204.38,151.04 418.71,309.43 217.79,160.93 496.2,366.66 778.16,575.03 287.73,212.63 579.22,428.02 810.21,598.71 234.74,173.45 404.9,299.22 441.91,326.55l7.4 5.44 9394.66 -3794.16 -475.06 -218.91c31.81,19.55 56.96,39.71 75.09,59.69 18.19,20 29.32,39.83 33,58.57 3.71,18.8 -0.09,36.55 -11.75,52.33 -11.7,15.87 -31.3,29.75 -59.19,40.79l-241.69 95.77c-26.14,10.34 -57.33,17.52 -91.99,21.69 -34.73,4.14 -72.94,5.27 -113.09,3.51 -40.17,-1.73 -82.22,-6.35 -124.65,-13.65 -42.38,-7.33 -85.08,-17.32 -126.51,-29.82l29.13 13.88 -12.18 4.74c19.58,17.72 34.06,35.57 43.23,52.94 9.17,17.41 13.01,34.4 11.31,50.42 -1.73,16.06 -9.05,31.12 -22.18,44.65 -13.15,13.57 -32.15,25.6 -57.21,35.54l-256.11 101.47c-27.16,10.76 -59.1,18.29 -94.41,22.81 -35.36,4.49 -74.03,5.95 -114.52,4.49 -40.53,-1.45 -82.84,-5.79 -125.43,-12.9 -42.61,-7.07 -85.45,-16.86 -127.02,-29.21l21.19 10.46 -15.22 5.95c19.25,18.6 33.19,37.32 41.64,55.6 8.47,18.34 11.45,36.24 8.68,53.1 -2.76,16.94 -11.28,32.83 -25.73,47.14 -14.46,14.35 -34.91,27.08 -61.49,37.62l-271.91 107.74c-28.17,11.15 -60.92,19.1 -96.85,23.97 -35.98,4.9 -75.11,6.73 -115.95,5.62 -40.88,-1.07 -83.42,-5.12 -126.21,-11.87 -42.77,-6.77 -85.75,-16.31 -127.46,-28.38l12.42 6.35 -19 7.4c18.86,19.55 32.22,39.25 39.89,58.5 7.69,19.31 9.69,38.18 5.8,56 -3.89,17.84 -13.7,34.66 -29.57,49.79 -15.92,15.19 -37.94,28.69 -66.2,39.88l-289.21 114.58c-29.2,11.59 -62.85,19.95 -99.52,25.22 -36.73,5.3 -76.46,7.5 -117.83,6.78 -41.36,-0.76 -84.34,-4.45 -127.46,-10.92 -43.13,-6.48 -86.39,-15.74 -128.38,-27.63l4.36 2.33 -23.22 9.03c18.38,20.59 31.05,41.34 37.82,61.65 6.82,20.38 7.69,40.28 2.53,59.13 -5.16,18.87 -16.4,36.66 -33.85,52.7 -17.51,16.12 -41.25,30.45 -71.38,42.37l-307.66 121.9c-30.88,12.25 -66.03,21.16 -104.08,26.9 -38.09,5.75 -79.09,8.31 -121.54,7.86 -42.49,-0.48 -86.44,-3.99 -130.43,-10.42 -43.97,-6.42 -87.96,-15.71 -130.52,-27.73l-26.55 10.32c17.84,21.71 29.71,43.62 35.46,65.1 5.79,21.51 5.46,42.57 -1.08,62.52 -6.56,19.98 -19.37,38.83 -38.53,55.84 -19.19,17.07 -44.77,32.3 -76.83,45l-329.11 130.39c-32.98,13.07 -70.2,22.64 -110.25,28.86 -40.1,6.25 -82.98,9.11 -127.23,8.76 -44.26,-0.35 -89.84,-3.94 -135.26,-10.59 -45.45,-6.63 -90.68,-16.34 -134.26,-28.94l-28.28 10.99c17.18,22.94 28.12,46.11 32.75,68.85 4.61,22.76 2.9,45.1 -5.25,66.23 -8.18,21.23 -22.8,41.26 -43.97,59.41 -21.21,18.19 -48.99,34.46 -83.37,48.09l-352.25 139.57c-35.31,13.97 -74.81,24.26 -117,31.02 -42.27,6.75 -87.2,9.91 -133.31,9.68 -46.13,-0.25 -93.42,-3.91 -140.33,-10.81 -46.92,-6.93 -93.42,-17.09 -138.03,-30.32l-30.27 11.77c16.33,24.32 26.07,48.92 29.28,73.03 3.2,24.22 -0.21,47.97 -10.23,70.48 -10.07,22.61 -26.79,43.97 -50.16,63.35 -23.47,19.42 -53.64,36.82 -90.52,51.42l-377.9 149.74c-37.78,14.98 -79.72,26.05 -124.26,33.35 -44.61,7.33 -91.83,10.87 -140.01,10.77 -48.25,-0.05 -97.47,-3.76 -146.07,-10.94 -48.6,-7.16 -96.55,-17.8 -142.27,-31.7l-32.61 12.7c15.32,25.8 23.75,51.95 25.36,77.63 1.61,25.75 -3.66,51.05 -15.76,75.06 -12.16,24.1 -31.18,46.94 -57.05,67.64 -25.93,20.78 -58.77,39.46 -98.41,55.14l-405.78 160.78c-40.79,16.17 -85.63,28.19 -132.89,36.17 -47.35,8 -97.1,12.02 -147.63,12.12 -50.58,0.13 -101.87,-3.61 -152.27,-11.07 -50.41,-7.45 -99.84,-18.6 -146.71,-33.25l-35.12 13.68c14.11,27.45 21.02,55.31 20.82,82.69 -0.21,27.46 -7.56,54.47 -22,80.14 -14.46,25.75 -36.04,50.17 -64.63,72.36 -28.67,22.26 -64.35,42.26 -106.96,59.13l-438.38 173.7c-60.3,23.9 -127.99,39.48 -198.72,47.16 -70.87,7.68 -144.66,7.43 -217.03,-0.35 -72.39,-7.78 -143.19,-23.09 -208.09,-45.4 -64.77,-22.26 -123.52,-51.53 -171.94,-87.22l-1878.91 -1385.76 1039.24 -337.64 477.45 -155.13 672.92 -218.63 445.67 -144.79 647.79 -210.45 417.04 -135.5 606.87 -197.17 391.7 -127.25 569.14 -184.92 368.05 -119.57 535.35 -173.93 346.51 -112.59 532.08 -172.85 326.18 -105.99 449.14 -145.92 308.72 -100.31 450.18 -146.25 292.14 -94.9 594.43 -193.12 -3.64 -1.69z"/>
   <path class="fil20" d="M5889.54 38087.19c-520.36,-290.03 689.21,-614.9 820.35,-655.96 725.6,-227.19 1451.19,-454.38 2176.79,-681.56 1657.99,-519.13 3315.98,-1038.26 4973.97,-1557.39 489.71,-153.32 994.01,-407.66 1499.65,-176.86 -2762,895.82 -5524.02,1791.67 -8286.02,2687.52 -394.91,128.07 -789.83,256.17 -1184.74,384.25zm4713.95 -2191.96l0 0c-688.79,208.59 -1559.35,508.11 -2282.73,407.31 -441.61,-61.51 36.25,-330.39 217.42,-416.65 360.43,-171.57 741.3,-295.4 1120.61,-406.48 652.63,-191.13 1366.69,-391.89 2047.97,-382.2 122.97,1.76 355.5,-17.44 315.58,162.46 -22.8,102.68 -292.66,206.03 -363.9,241.5 -337.21,167.88 -698.49,286.11 -1054.95,394.06zm-2880.61 -157.44l0 0c-870.91,315.31 -1734.32,690.04 -2530.03,1192.03 -537.72,339.22 -1524.34,964.19 -1482.1,1764.99 45.63,864.9 1276.34,1082.65 1879.03,1175.79 914.64,141.33 1851.92,119.47 2770.76,42.54 -819.8,-604.71 -1639.59,-1209.44 -2459.41,-1814.18 1590.83,-516.67 3181.66,-1033.34 4772.49,-1550 1090.77,-354.26 2181.53,-708.52 3272.27,-1062.78 350.46,-113.82 700.91,-227.64 1051.36,-341.46 105.88,-34.38 271.22,-129.68 383.02,-122.98 134.32,8.08 327.93,149.49 449.42,205.46 302.96,139.57 605.92,279.14 908.88,418.71 340.27,156.76 679.9,314.87 1020.15,471.64 525.08,-1374.72 -1932.28,-1580.8 -2648.52,-1619.9 -1358.17,-74.17 -4096.63,79.33 -7387.32,1240.14z"/>
   <path class="fil2" d="M6947.07 37763.05l-1039.24 337.64 1878.91 1385.76c48.42,35.69 107.17,64.96 171.94,87.22 64.9,22.31 135.7,37.62 208.09,45.4 72.37,7.78 146.16,8.03 217.03,0.35 70.73,-7.68 138.42,-23.26 198.72,-47.16l438.38 -173.7c42.61,-16.87 78.29,-36.87 106.96,-59.13 28.59,-22.19 50.17,-46.61 64.63,-72.36 14.44,-25.67 21.79,-52.68 22,-80.14 0.2,-27.38 -6.71,-55.24 -20.82,-82.69l-26.03 10.14 -878.53 -607.45c-31.41,5.72 -64.58,8.43 -98.09,8.33 -33.53,-0.12 -67.37,-3.09 -100.07,-8.71 -32.73,-5.65 -64.31,-13.95 -93.35,-24.8 -29,-10.81 -55.44,-24.14 -77.89,-39.83l-972.64 -678.87z"/>
   <path class="fil2" d="M8097.44 37389.29l-672.92 218.63 975.05 663.84c25.34,17.24 43.51,35.86 54.77,54.86 11.29,19.08 15.62,38.53 13.18,57.43 -2.44,18.9 -11.68,37.22 -27.48,53.93 -15.87,16.74 -38.35,31.88 -67.25,44.35l873.44 601.45 -17.44 6.78c46.87,14.65 96.3,25.8 146.71,33.25 50.4,7.46 101.69,11.2 152.27,11.07 50.53,-0.1 100.28,-4.12 147.63,-12.12 47.26,-7.98 92.1,-20 132.89,-36.17l405.78 -160.78c39.64,-15.68 72.48,-34.36 98.41,-55.14 25.87,-20.7 44.89,-43.54 57.05,-67.64 12.1,-24.01 17.37,-49.31 15.76,-75.06 -1.61,-25.68 -10.04,-51.83 -25.36,-77.63l-28.1 10.94 -877.12 -571.2c-30.43,7.1 -63.34,10.96 -97.13,11.82 -33.83,0.82 -68.47,-1.38 -102.35,-6.45 -33.86,-5.07 -66.91,-13 -97.47,-23.62 -30.56,-10.62 -58.62,-23.89 -82.57,-39.66l-977.75 -642.88z"/>
   <path class="fil2" d="M9190.9 37034.05l-647.79 210.45 978.99 629.21c23.98,15.41 41.99,31.95 54.1,48.84 12.16,16.91 18.43,34.2 18.87,51.05 0.46,16.89 -4.93,33.35 -16.06,48.61 -11.17,15.26 -28.1,29.31 -50.69,41.31l877.17 569.07 -12.95 5.05c45.72,13.9 93.67,24.54 142.27,31.7 48.6,7.18 97.82,10.89 146.07,10.94 48.18,0.1 95.4,-3.44 140.01,-10.77 44.54,-7.3 86.48,-18.37 124.26,-33.35l377.9 -149.74c36.88,-14.6 67.05,-32 90.52,-51.42 23.37,-19.38 40.09,-40.74 50.16,-63.35 10.02,-22.51 13.43,-46.26 10.23,-70.48 -3.21,-24.11 -12.95,-48.71 -29.28,-73.03l-29.25 11.39 -876.57 -540.33c-28.65,6.65 -59.95,10.24 -92.28,10.97 -32.36,0.72 -65.76,-1.46 -98.58,-6.33 -32.82,-4.87 -65.07,-12.47 -95.1,-22.59 -30.03,-10.09 -57.86,-22.71 -81.9,-37.64l-980.1 -609.56z"/>
   <path class="fil2" d="M10214.81 36701.38l-606.87 197.17 980.37 597.05c24,14.64 42.34,30.27 55.07,46.23 12.76,15.99 19.88,32.31 21.42,48.19 1.57,15.94 -2.51,31.43 -12.16,45.76 -9.65,14.35 -24.92,27.53 -45.76,38.77l876.57 538.51 -8.5 3.31c44.61,13.23 91.11,23.39 138.03,30.32 46.91,6.9 94.2,10.56 140.33,10.81 46.11,0.23 91.04,-2.93 133.31,-9.68 42.19,-6.76 81.69,-17.05 117,-31.02l352.25 -139.57c34.38,-13.63 62.16,-29.9 83.37,-48.09 21.17,-18.15 35.79,-38.18 43.97,-59.41 8.15,-21.13 9.86,-43.47 5.25,-66.23 -4.63,-22.74 -15.57,-45.91 -32.75,-68.85l-30.29 11.8 -874.24 -512.33c-27.04,6.18 -56.82,9.49 -87.77,10.07 -30.96,0.57 -63.11,-1.58 -94.89,-6.28 -31.79,-4.72 -63.18,-11.94 -92.61,-21.61 -29.46,-9.61 -56.94,-21.61 -80.94,-35.81l-980.16 -579.11z"/>
   <path class="fil2" d="M11175.65 36389.21l-569.14 184.92 979.61 567.67c23.93,13.88 42.49,28.73 55.69,43.84 13.2,15.19 21.03,30.62 23.47,45.66 2.44,15.08 -0.55,29.74 -8.93,43.24 -8.41,13.55 -22.25,25.98 -41.53,36.54l874.13 510.65 -4.96 1.93c43.58,12.6 88.81,22.31 134.26,28.94 45.42,6.65 91,10.24 135.26,10.59 44.25,0.35 87.13,-2.51 127.23,-8.76 40.05,-6.22 77.27,-15.79 110.25,-28.86l329.11 -130.39c32.06,-12.7 57.64,-27.93 76.83,-45 19.16,-17.01 31.97,-35.86 38.53,-55.84 6.54,-19.95 6.87,-41.01 1.08,-62.52 -5.75,-21.48 -17.62,-43.39 -35.46,-65.1l-31.47 12.24 -870.39 -486.72c-25.57,5.77 -53.94,8.78 -83.63,9.26 -29.69,0.45 -60.69,-1.68 -91.48,-6.23 -30.8,-4.54 -61.38,-11.52 -90.26,-20.7 -28.86,-9.19 -56,-20.63 -79.95,-34.11l-978.25 -551.25z"/>
   <path class="fil2" d="M12079.05 36095.71l-535.35 173.93 977.05 540.74c23.86,13.2 42.61,27.3 56.22,41.66 13.62,14.38 22.09,29.04 25.38,43.27 3.27,14.26 1.32,28.13 -5.89,40.88 -7.23,12.8 -19.74,24.5 -37.61,34.44l870.21 485.19 -1.43 0.58c42.56,12.02 86.55,21.31 130.52,27.73 43.99,6.43 87.94,9.94 130.43,10.42 42.45,0.45 83.45,-2.11 121.54,-7.86 38.05,-5.74 73.2,-14.65 104.08,-26.9l307.66 -121.9c30.13,-11.92 53.87,-26.25 71.38,-42.37 17.45,-16.04 28.69,-33.83 33.85,-52.7 5.16,-18.85 4.29,-38.75 -2.53,-59.13 -6.77,-20.31 -19.44,-41.06 -37.82,-61.65l-32.52 12.65 -865.33 -463.3c-24.25,5.39 -51.34,8.18 -79.83,8.53 -28.51,0.35 -58.43,-1.76 -88.32,-6.15 -29.85,-4.39 -59.68,-11.07 -87.99,-19.88 -28.3,-8.81 -55.09,-19.7 -78.9,-32.55l-974.8 -525.63z"/>
   <path class="fil2" d="M12957.64 35810.27l-532.08 172.85 973.03 515.97c23.74,12.57 42.63,26 56.56,39.65 13.98,13.68 23.01,27.61 27.02,41.11 4.01,13.53 2.97,26.66 -3.2,38.73 -6.17,12.1 -17.51,23.16 -34.07,32.5l860.7 459.6c41.99,11.89 85.25,21.15 128.38,27.63 43.12,6.47 86.1,10.16 127.46,10.92 41.37,0.72 81.1,-1.48 117.83,-6.78 36.67,-5.27 70.32,-13.63 99.52,-25.22l289.21 -114.58c28.26,-11.19 50.28,-24.69 66.2,-39.88 15.87,-15.13 25.68,-31.95 29.57,-49.79 3.89,-17.82 1.89,-36.69 -5.8,-56 -7.67,-19.25 -21.03,-38.95 -39.89,-58.5l-33.4 13 -867.45 -445.96c-22.36,2.33 -46.45,2.86 -71.31,1.58 -24.85,-1.26 -50.46,-4.24 -75.89,-8.89 -25.42,-4.67 -50.64,-10.94 -74.73,-18.77 -24.07,-7.81 -46.97,-17.17 -67.79,-27.91l-969.87 -501.26z"/>
   <path class="fil2" d="M13732.96 35558.36l-449.14 145.92 967.64 492.38c26.25,13.35 46.77,27.68 61.45,42.19 14.69,14.5 23.49,29.21 26.23,43.24 2.76,14.05 -0.58,27.43 -10.16,39.33 -9.58,11.92 -25.45,22.31 -47.74,30.37 -0.05,0 -0.1,0.02 -0.14,0.05 -0.02,0 -0.07,0.02 -0.12,0.02 -0.04,0.03 -0.09,0.03 -0.13,0.05 -0.03,0 -0.07,0.03 -0.12,0.03l843.93 432.79c41.71,12.07 84.69,21.61 127.46,28.38 42.79,6.75 85.33,10.8 126.21,11.87 40.84,1.11 79.97,-0.72 115.95,-5.62 35.93,-4.87 68.68,-12.82 96.85,-23.97l271.91 -107.74c26.58,-10.54 47.03,-23.27 61.49,-37.62 14.45,-14.31 22.97,-30.2 25.73,-47.14 2.77,-16.86 -0.21,-34.76 -8.68,-53.1 -8.45,-18.28 -22.39,-37 -41.64,-55.6l-34.09 13.25 -852.55 -421.97c-21.88,4.7 -46.71,7.05 -73.1,7.21 -26.42,0.15 -54.38,-1.91 -82.57,-6.03 -28.17,-4.09 -56.54,-10.26 -83.74,-18.35 -27.2,-8.05 -53.23,-18.02 -76.7,-29.71l-964.23 -480.23z"/>
   <path class="fil2" d="M14491.86 35311.8l-450.18 146.25 961.67 471.96c23.47,11.52 42.52,23.77 57.03,36.2 14.51,12.44 24.46,25.07 29.69,37.27 5.25,12.24 5.73,24.09 1.33,34.96 -4.42,10.89 -13.77,20.78 -28.19,29.11l830.76 410.23c41.57,12.35 84.41,22.14 127.02,29.21 42.59,7.11 84.9,11.45 125.43,12.9 40.49,1.46 79.16,0 114.52,-4.49 35.31,-4.52 67.25,-12.05 94.41,-22.81l256.11 -101.47c25.06,-9.94 44.06,-21.97 57.21,-35.54 13.13,-13.53 20.45,-28.59 22.18,-44.65 1.7,-16.02 -2.14,-33.01 -11.31,-50.42 -9.17,-17.37 -23.65,-35.22 -43.23,-52.94l-34.34 13.38 -845.06 -403.65c-20.87,4.42 -44.66,6.6 -70.11,6.68 -25.47,0.05 -52.56,-1.96 -79.97,-5.95 -27.38,-3.99 -55.09,-9.94 -81.78,-17.7 -26.67,-7.75 -52.31,-17.29 -75.62,-28.48l-957.57 -460.05z"/>
   <path class="fil2" d="M15384.09 35021.92l-2.02 0.65 -3.64 1.21 -594.43 193.12 954.67 452.37c23.26,11.04 42.33,22.77 57,34.61 14.72,11.9 25.01,23.92 30.73,35.59 5.73,11.67 6.86,22.94 3.22,33.26 -3.66,10.36 -12.14,19.77 -25.59,27.65l815.33 388.57c41.43,12.5 84.13,22.49 126.51,29.82 42.43,7.3 84.48,11.92 124.65,13.65 40.15,1.76 78.36,0.63 113.09,-3.51 34.66,-4.17 65.85,-11.35 91.99,-21.69l241.69 -95.77c27.89,-11.04 47.49,-24.92 59.19,-40.79 11.66,-15.78 15.46,-33.53 11.75,-52.33 -3.68,-18.74 -14.81,-38.57 -33,-58.57 -18.13,-19.98 -43.28,-40.14 -75.09,-59.69 -2.02,-1.25 -4.07,-2.48 -6.17,-3.74 -2.07,-1.23 -4.19,-2.48 -6.33,-3.71 -2.15,-1.23 -4.29,-2.46 -6.5,-3.69 -2.19,-1.23 -4.4,-2.46 -6.66,-3.69 -3.27,-1.78 -6.58,-3.56 -9.94,-5.32 -3.39,-1.76 -6.82,-3.51 -10.3,-5.27 -3.5,-1.73 -7.05,-3.46 -10.64,-5.2 -3.59,-1.73 -7.26,-3.46 -10.96,-5.17l-1828.55 -842.36z"/>
   <path class="fil22" d="M8289.11 38506.93l878.53 607.45 26.03 -10.14 35.12 -13.68 17.44 -6.78 -873.44 -601.45c-1.45,0.65 -2.95,1.28 -4.45,1.91 -1.49,0.63 -2.99,1.23 -4.51,1.86 -1.54,0.6 -3.09,1.2 -4.65,1.8 -1.55,0.61 -3.14,1.18 -4.75,1.76 -5.09,1.86 -10.32,3.59 -15.61,5.22 -5.3,1.66 -10.67,3.19 -16.13,4.62 -5.45,1.45 -10.98,2.79 -16.6,4.01 -5.6,1.26 -11.26,2.39 -16.98,3.42z"/>
   <path class="fil22" d="M9528.32 38063.52c-2.53,1.36 -5.16,2.69 -7.85,3.99 -2.7,1.31 -5.49,2.59 -8.32,3.87 -2.83,1.23 -5.73,2.46 -8.73,3.66 -2.99,1.18 -6.06,2.36 -9.19,3.49 -3.13,1.13 -6.31,2.21 -9.53,3.26 -3.23,1.03 -6.5,2.04 -9.79,3.01 -3.3,0.96 -6.64,1.86 -10,2.77 -3.36,0.87 -6.77,1.7 -10.2,2.51l877.12 571.2 28.1 -10.94 32.61 -12.7 12.95 -5.05 -877.17 -569.07z"/>
   <path class="fil22" d="M10606.88 37674.55c-2.35,1.28 -4.79,2.54 -7.28,3.77 -2.49,1.2 -5.07,2.41 -7.69,3.59 -2.63,1.15 -5.35,2.31 -8.13,3.43 -2.77,1.11 -5.62,2.21 -8.57,3.27 -2.86,1.03 -5.78,2.01 -8.73,2.98 -2.95,0.96 -5.94,1.89 -8.98,2.76 -3.04,0.88 -6.11,1.71 -9.22,2.51 -3.11,0.83 -6.24,1.61 -9.42,2.34l876.57 540.33 29.25 -11.39 30.27 -11.77 8.5 -3.31 -876.57 -538.51z"/>
   <path class="fil22" d="M11614.82 37311.08c-2.19,1.18 -4.45,2.36 -6.75,3.52 -2.3,1.13 -4.7,2.26 -7.14,3.36 -2.44,1.1 -4.97,2.16 -7.58,3.21 -2.58,1.06 -5.25,2.06 -7.99,3.04 -2.67,0.98 -5.41,1.91 -8.18,2.81 -2.78,0.88 -5.59,1.76 -8.45,2.59 -2.85,0.8 -5.73,1.6 -8.66,2.35 -2.92,0.76 -5.89,1.46 -8.89,2.16l874.24 512.33 30.29 -11.8 28.28 -10.99 4.96 -1.93 -874.13 -510.65z"/>
   <path class="fil22" d="M12558.85 36970.63c-2.01,1.13 -4.1,2.21 -6.24,3.29 -2.15,1.08 -4.38,2.13 -6.66,3.16 -2.28,1.05 -4.63,2.06 -7.05,3.04 -2.44,0.97 -4.93,1.93 -7.51,2.86 -2.51,0.9 -5.06,1.78 -7.69,2.61 -2.6,0.85 -5.25,1.65 -7.92,2.41 -2.7,0.77 -5.41,1.5 -8.18,2.21 -2.76,0.7 -5.55,1.38 -8.38,2.03l870.39 486.72 31.47 -12.24 26.55 -10.32 1.43 -0.58 -870.21 -485.19z"/>
   <path class="fil22" d="M13444.9 36651.08c-1.88,1.08 -3.82,2.11 -5.82,3.14 -2.01,1 -4.06,1.98 -6.2,2.96 -2.14,0.98 -4.33,1.91 -6.61,2.84 -2.26,0.92 -4.6,1.83 -7,2.68 -2.37,0.85 -4.79,1.68 -7.25,2.46 -2.45,0.8 -4.96,1.56 -7.49,2.26 -2.53,0.73 -5.11,1.43 -7.72,2.08 -2.6,0.66 -5.25,1.28 -7.92,1.89l865.33 463.3 32.52 -12.65 23.22 -9.03 -4.36 -2.33 -860.7 -459.6z"/>
   <path class="fil22" d="M14217.23 36365.52l867.45 445.96 33.4 -13 19 -7.4 -12.42 -6.35 -843.93 -432.79c-4.63,1.65 -9.44,3.18 -14.44,4.59 -5,1.38 -10.16,2.64 -15.48,3.77 -5.3,1.12 -10.78,2.1 -16.37,2.98 -5.6,0.88 -11.34,1.61 -17.21,2.24z"/>
   <path class="fil22" d="M15013.3 36085.47l852.55 421.97 34.09 -13.25 15.22 -5.95 -21.19 -10.46 -830.76 -410.23c-1.61,0.93 -3.27,1.83 -4.97,2.74 -1.73,0.88 -3.5,1.73 -5.34,2.58 -1.85,0.86 -3.76,1.68 -5.72,2.49 -1.98,0.8 -4,1.58 -6.12,2.33 -2.12,0.78 -4.31,1.53 -6.54,2.24 -2.24,0.7 -4.52,1.38 -6.84,2.03 -2.31,0.63 -4.68,1.25 -7.08,1.83 -2.39,0.6 -4.81,1.15 -7.3,1.68z"/>
   <path class="fil22" d="M15756.91 35817.3l845.06 403.65 34.34 -13.38 12.18 -4.74 -29.13 -13.88 -815.33 -388.57c-1.47,0.88 -3.04,1.74 -4.63,2.59 -1.61,0.83 -3.29,1.66 -5.02,2.46 -1.73,0.8 -3.52,1.58 -5.36,2.33 -1.87,0.76 -3.78,1.51 -5.79,2.21 -2,0.75 -4.07,1.43 -6.19,2.11 -2.12,0.68 -4.26,1.3 -6.47,1.91 -2.19,0.6 -4.45,1.2 -6.73,1.75 -2.28,0.56 -4.58,1.08 -6.93,1.56z"/>
   <path class="fil23" d="M8543.11 37244.5l-445.67 144.79 977.75 642.88c23.95,15.77 52.01,29.04 82.57,39.66 30.56,10.62 63.61,18.55 97.47,23.62 33.88,5.07 68.52,7.27 102.35,6.45 33.79,-0.86 66.7,-4.72 97.13,-11.82 3.43,-0.81 6.84,-1.64 10.2,-2.51 3.36,-0.91 6.7,-1.81 10,-2.77 3.29,-0.97 6.56,-1.98 9.79,-3.01 3.22,-1.05 6.4,-2.13 9.53,-3.26 3.13,-1.13 6.2,-2.31 9.19,-3.49 3,-1.2 5.9,-2.43 8.73,-3.66 2.83,-1.28 5.62,-2.56 8.32,-3.87 2.69,-1.3 5.32,-2.63 7.85,-3.99 22.59,-12 39.52,-26.05 50.69,-41.31 11.13,-15.26 16.52,-31.72 16.06,-48.61 -0.44,-16.85 -6.71,-34.14 -18.87,-51.05 -12.11,-16.89 -30.12,-33.43 -54.1,-48.84l-978.99 -629.21z"/>
   <path class="fil23" d="M7424.52 37607.92l-477.45 155.13 972.64 678.87c22.45,15.69 48.89,29.02 77.89,39.83 29.04,10.85 60.62,19.15 93.35,24.8 32.7,5.62 66.54,8.59 100.07,8.71 33.51,0.1 66.68,-2.61 98.09,-8.33 5.72,-1.03 11.38,-2.16 16.98,-3.42 5.62,-1.22 11.15,-2.56 16.6,-4.01 5.46,-1.43 10.83,-2.96 16.13,-4.62 5.29,-1.63 10.52,-3.36 15.61,-5.22 1.61,-0.58 3.2,-1.15 4.75,-1.76 1.56,-0.6 3.11,-1.2 4.65,-1.8 1.52,-0.63 3.02,-1.23 4.51,-1.86 1.5,-0.63 3,-1.26 4.45,-1.91 28.9,-12.47 51.38,-27.61 67.25,-44.35 15.8,-16.71 25.04,-35.03 27.48,-53.93 2.44,-18.9 -1.89,-38.35 -13.18,-57.43 -11.26,-19 -29.43,-37.62 -54.77,-54.86l-975.05 -663.84z"/>
   <path class="fil23" d="M11543.7 36269.64l-368.05 119.57 978.25 551.25c23.95,13.48 51.09,24.92 79.95,34.11 28.88,9.18 59.46,16.16 90.26,20.7 30.79,4.55 61.79,6.68 91.48,6.23 29.69,-0.48 58.06,-3.49 83.63,-9.26 2.83,-0.65 5.62,-1.33 8.38,-2.03 2.77,-0.71 5.48,-1.44 8.18,-2.21 2.67,-0.76 5.32,-1.56 7.92,-2.41 2.63,-0.83 5.18,-1.71 7.69,-2.61 2.58,-0.93 5.07,-1.89 7.51,-2.86 2.42,-0.98 4.77,-1.99 7.05,-3.04 2.28,-1.03 4.51,-2.08 6.66,-3.16 2.14,-1.08 4.23,-2.16 6.24,-3.29 17.87,-9.94 30.38,-21.64 37.61,-34.44 7.21,-12.75 9.16,-26.62 5.89,-40.88 -3.29,-14.23 -11.76,-28.89 -25.38,-43.27 -13.61,-14.36 -32.36,-28.46 -56.22,-41.66l-977.05 -540.74z"/>
   <path class="fil23" d="M10606.51 36574.13l-391.7 127.25 980.16 579.11c24,14.2 51.48,26.2 80.94,35.81 29.43,9.67 60.82,16.89 92.61,21.61 31.78,4.7 63.93,6.85 94.89,6.28 30.95,-0.58 60.73,-3.89 87.77,-10.07 3,-0.7 5.97,-1.4 8.89,-2.16 2.93,-0.75 5.81,-1.55 8.66,-2.35 2.86,-0.83 5.67,-1.71 8.45,-2.59 2.77,-0.9 5.51,-1.83 8.18,-2.81 2.74,-0.98 5.41,-1.98 7.99,-3.04 2.61,-1.05 5.14,-2.11 7.58,-3.21 2.44,-1.1 4.84,-2.23 7.14,-3.36 2.3,-1.16 4.56,-2.34 6.75,-3.52 19.28,-10.56 33.12,-22.99 41.53,-36.54 8.38,-13.5 11.37,-28.16 8.93,-43.24 -2.44,-15.04 -10.27,-30.47 -23.47,-45.66 -13.2,-15.11 -31.76,-29.96 -55.69,-43.84l-979.61 -567.67z"/>
   <path class="fil23" d="M14041.68 35458.05l-308.72 100.31 964.23 480.23c23.47,11.69 49.5,21.66 76.7,29.71 27.2,8.09 55.57,14.26 83.74,18.35 28.19,4.12 56.15,6.18 82.57,6.03 26.39,-0.16 51.22,-2.51 73.1,-7.21 2.49,-0.53 4.91,-1.08 7.3,-1.68 2.4,-0.58 4.77,-1.2 7.08,-1.83 2.32,-0.65 4.6,-1.33 6.84,-2.03 2.23,-0.71 4.42,-1.46 6.54,-2.24 2.12,-0.75 4.14,-1.53 6.12,-2.33 1.96,-0.81 3.87,-1.63 5.72,-2.49 1.84,-0.85 3.61,-1.7 5.34,-2.58 1.7,-0.91 3.36,-1.81 4.97,-2.74 14.42,-8.33 23.77,-18.22 28.19,-29.11 4.4,-10.87 3.92,-22.72 -1.33,-34.96 -5.23,-12.2 -15.18,-24.83 -29.69,-37.27 -14.51,-12.43 -33.56,-24.68 -57.03,-36.2l-961.67 -471.96z"/>
   <path class="fil23" d="M9607.94 36898.55l-417.04 135.5 980.1 609.56c24.04,14.93 51.87,27.55 81.9,37.64 30.03,10.12 62.28,17.72 95.1,22.59 32.82,4.87 66.22,7.05 98.58,6.33 32.33,-0.73 63.63,-4.32 92.28,-10.97 3.18,-0.73 6.31,-1.51 9.42,-2.34 3.11,-0.8 6.18,-1.63 9.22,-2.51 3.04,-0.87 6.03,-1.8 8.98,-2.76 2.95,-0.97 5.87,-1.95 8.73,-2.98 2.95,-1.06 5.8,-2.16 8.57,-3.27 2.78,-1.12 5.5,-2.28 8.13,-3.43 2.62,-1.18 5.2,-2.39 7.69,-3.59 2.49,-1.23 4.93,-2.49 7.28,-3.77 20.84,-11.24 36.11,-24.42 45.76,-38.77 9.65,-14.33 13.73,-29.82 12.16,-45.76 -1.54,-15.88 -8.66,-32.2 -21.42,-48.19 -12.73,-15.96 -31.07,-31.59 -55.07,-46.23l-980.37 -597.05z"/>
   <path class="fil23" d="M12425.56 35983.12l-346.51 112.59 974.8 525.63c23.81,12.85 50.6,23.74 78.9,32.55 28.31,8.81 58.14,15.49 87.99,19.88 29.89,4.39 59.81,6.5 88.32,6.15 28.49,-0.35 55.58,-3.14 79.83,-8.53 2.67,-0.61 5.32,-1.23 7.92,-1.89 2.61,-0.65 5.19,-1.35 7.72,-2.08 2.53,-0.7 5.04,-1.46 7.49,-2.26 2.46,-0.78 4.88,-1.61 7.25,-2.46 2.4,-0.85 4.74,-1.76 7,-2.68 2.28,-0.93 4.47,-1.86 6.61,-2.84 2.14,-0.98 4.19,-1.96 6.2,-2.96 2,-1.03 3.94,-2.06 5.82,-3.14 16.56,-9.34 27.9,-20.4 34.07,-32.5 6.17,-12.07 7.21,-25.2 3.2,-38.73 -4.01,-13.5 -13.04,-27.43 -27.02,-41.11 -13.93,-13.65 -32.82,-27.08 -56.56,-39.65l-973.03 -515.97z"/>
   <path class="fil23" d="M14784 35216.9l-292.14 94.9 957.57 460.05c23.31,11.19 48.95,20.73 75.62,28.48 26.69,7.76 54.4,13.71 81.78,17.7 27.41,3.99 54.5,6 79.97,5.95 25.45,-0.08 49.24,-2.26 70.11,-6.68 2.35,-0.48 4.65,-1 6.93,-1.56 2.28,-0.55 4.54,-1.15 6.73,-1.75 2.21,-0.61 4.35,-1.23 6.47,-1.91 2.12,-0.68 4.19,-1.36 6.19,-2.11 2.01,-0.7 3.92,-1.45 5.79,-2.21 1.84,-0.75 3.63,-1.53 5.36,-2.33 1.73,-0.8 3.41,-1.63 5.02,-2.46 1.59,-0.85 3.16,-1.71 4.63,-2.59 13.45,-7.88 21.93,-17.29 25.59,-27.65 3.64,-10.32 2.51,-21.59 -3.22,-33.26 -5.72,-11.67 -16.01,-23.69 -30.73,-35.59 -14.67,-11.84 -33.74,-23.57 -57,-34.61l-954.67 -452.37z"/>
   <path class="fil23" d="M13283.82 35704.28l-326.18 105.99 969.87 501.26c20.82,10.74 43.72,20.1 67.79,27.91 24.09,7.83 49.31,14.1 74.73,18.77 25.43,4.65 51.04,7.63 75.89,8.89 24.86,1.28 48.95,0.75 71.31,-1.58 5.87,-0.63 11.61,-1.36 17.21,-2.24 5.59,-0.88 11.07,-1.86 16.37,-2.98 5.32,-1.13 10.48,-2.39 15.48,-3.77 5,-1.41 9.81,-2.94 14.44,-4.59 0.05,0 0.09,-0.03 0.12,-0.03 0.04,-0.02 0.09,-0.02 0.13,-0.05 0.05,0 0.1,-0.02 0.12,-0.02 0.04,-0.03 0.09,-0.05 0.14,-0.05 22.29,-8.06 38.16,-18.45 47.74,-30.37 9.58,-11.9 12.92,-25.28 10.16,-39.33 -2.74,-14.03 -11.54,-28.74 -26.23,-43.24 -14.68,-14.51 -35.2,-28.84 -61.45,-42.19l-967.64 -492.38z"/>
   <path class="fil21" d="M14680.61 34935.56l-8629.06 2701.8c-74.16,23.21 -134.51,53.03 -180.13,87.09 -45.86,34.26 -76.86,72.83 -92.02,113.37 -15.22,40.75 -14.46,83.47 3.37,125.71 17.89,42.47 52.99,84.38 106.24,123.28l0.53 0.38 9470.76 -3071.77 -3.11 -1.43c-52.23,-24.07 -110.16,-44.25 -170.27,-60.19 -60.02,-15.91 -122.3,-27.61 -183.24,-34.68 -60.97,-7.08 -120.71,-9.54 -175.67,-6.96 -55.07,2.59 -105.39,10.24 -147.4,23.4z"/>
   <path class="fil24" d="M6391.45 37199.07l-482.54 146.5c-16.9,5.14 -30.72,11.72 -41.16,19.25 -10.47,7.53 -17.57,15.99 -21.12,24.87 -3.52,8.88 -3.47,18.17 0.42,27.36 3.87,9.18 11.58,18.24 23.35,26.65 11.66,8.31 26.31,15.21 42.8,20.56 16.51,5.34 34.82,9.13 53.82,11.22 19,2.08 38.65,2.48 57.79,1.05 19.12,-1.46 37.75,-4.72 54.68,-9.94l483.23 -149.08c16.47,-5.1 29.73,-11.62 39.61,-19.05 9.91,-7.46 16.42,-15.79 19.42,-24.5 2.99,-8.71 2.46,-17.77 -1.75,-26.7 -4.19,-8.91 -12.09,-17.64 -23.82,-25.7 -11.84,-8.13 -26.46,-14.86 -42.72,-20.05 -16.28,-5.2 -34.23,-8.86 -52.74,-10.87 -18.52,-2.04 -37.62,-2.44 -56.18,-1.06 -18.59,1.36 -36.64,4.5 -53.09,9.49z"/>
   <path class="fil24" d="M7394.97 36894.36l-455.75 138.39c-15.96,4.84 -28.81,11.06 -38.37,18.19 -9.58,7.16 -15.89,15.19 -18.73,23.62 -2.81,8.43 -2.16,17.27 2.17,26 4.33,8.76 12.32,17.39 24.2,25.43 11.75,7.93 26.31,14.53 42.52,19.67 16.22,5.12 34.09,8.76 52.49,10.79 18.43,2.04 37.36,2.46 55.67,1.16 18.33,-1.33 36.02,-4.39 52,-9.31l456.24 -140.75c15.36,-4.75 27.59,-10.89 36.55,-17.92 8.96,-7 14.65,-14.94 16.95,-23.19 2.29,-8.29 1.18,-16.89 -3.45,-25.4 -4.63,-8.49 -12.76,-16.82 -24.57,-24.52 -11.91,-7.78 -26.42,-14.23 -42.43,-19.23 -15.98,-4.97 -33.46,-8.51 -51.38,-10.49 -17.92,-2.01 -36.28,-2.43 -53.97,-1.2 -17.71,1.2 -34.78,4.09 -50.14,8.76z"/>
   <path class="fil24" d="M8341.95 36606.83l-430.58 130.74c-15.04,4.57 -26.99,10.46 -35.7,17.22 -8.73,6.75 -14.21,14.35 -16.33,22.36 -2.1,8 -0.85,16.41 3.94,24.72 4.77,8.33 13.06,16.56 25.01,24.22 11.82,7.6 26.19,13.95 42.08,18.9 15.87,4.94 33.24,8.48 51.04,10.49 17.78,2.01 35.95,2.48 53.46,1.28 17.5,-1.18 34.34,-4.04 49.4,-8.68l430.88 -132.95c14.51,-4.47 25.93,-10.29 34.13,-16.97 8.2,-6.65 13.2,-14.18 14.9,-22.06 1.68,-7.88 0.1,-16.11 -4.88,-24.19 -5,-8.11 -13.36,-16.09 -25.2,-23.47 -11.97,-7.45 -26.34,-13.63 -42.08,-18.39 -15.73,-4.82 -32.79,-8.24 -50.18,-10.17 -17.39,-1.93 -35.13,-2.41 -52.1,-1.28 -17,1.13 -33.28,3.84 -47.79,8.23z"/>
   <path class="fil24" d="M12944.54 35209.38l-318.44 96.67c-11.01,3.34 -19.14,7.76 -24.41,12.9 -5.28,5.12 -7.67,10.97 -7.24,17.15 0.47,6.17 3.78,12.7 9.98,19.22 6.19,6.5 15.24,12.98 27.2,19.05 11.81,6 25.4,11.07 39.84,15.06 14.47,3.99 29.76,6.93 44.96,8.66 15.18,1.75 30.26,2.31 44.31,1.6 14.03,-0.72 27.02,-2.73 38.01,-6.12l318.14 -98.13c10.84,-3.37 18.72,-7.76 23.7,-12.88 4.95,-5.07 7,-10.87 6.24,-16.94 -0.79,-6.1 -4.38,-12.5 -10.74,-18.82 -6.35,-6.35 -15.45,-12.63 -27.24,-18.5 -11.89,-5.92 -25.41,-10.87 -39.64,-14.81 -14.23,-3.89 -29.2,-6.77 -44.06,-8.48 -14.83,-1.71 -29.55,-2.26 -43.28,-1.56 -13.72,0.68 -26.46,2.61 -37.33,5.93z"/>
   <path class="fil24" d="M13610.69 35007.11l-303.63 92.21c-10.48,3.16 -18.15,7.38 -22.99,12.3 -4.83,4.92 -6.86,10.51 -6.1,16.46 0.78,5.93 4.33,12.23 10.69,18.48 6.35,6.24 15.47,12.49 27.36,18.34 11.77,5.8 25.22,10.69 39.43,14.56 14.21,3.84 29.18,6.7 44.01,8.41 14.81,1.7 29.46,2.28 43.03,1.63 13.56,-0.68 26.05,-2.56 36.53,-5.8l303.26 -93.57c10.36,-3.18 17.75,-7.4 22.31,-12.29 4.54,-4.87 6.24,-10.42 5.16,-16.27 -1.06,-5.84 -4.88,-11.99 -11.38,-18.12 -6.47,-6.1 -15.63,-12.14 -27.36,-17.79 -11.86,-5.72 -25.22,-10.52 -39.22,-14.31 -14,-3.79 -28.7,-6.57 -43.16,-8.26 -14.49,-1.65 -28.79,-2.23 -42.06,-1.6 -13.26,0.63 -25.52,2.48 -35.88,5.62z"/>
   <path class="fil24" d="M14246.37 34814.11l-289.4 87.87c-10.13,3.06 -17.41,7.15 -21.9,11.87 -4.52,4.71 -6.22,10.11 -5.21,15.83 1.04,5.73 4.79,11.77 11.27,17.8 6.49,6.02 15.66,12.04 27.5,17.69 11.7,5.6 24.99,10.32 38.99,14.06 14,3.74 28.67,6.5 43.16,8.15 14.49,1.66 28.77,2.24 41.96,1.61 13.18,-0.6 25.25,-2.43 35.36,-5.55l288.98 -89.14c9.88,-3.07 16.88,-7.11 21.1,-11.8 4.19,-4.69 5.59,-10.04 4.33,-15.69 -1.29,-5.62 -5.26,-11.57 -11.82,-17.47 -6.56,-5.89 -15.73,-11.74 -27.41,-17.21 -11.79,-5.52 -25.01,-10.14 -38.85,-13.81 -13.82,-3.66 -28.26,-6.35 -42.45,-7.98 -14.19,-1.63 -28.14,-2.18 -41.04,-1.58 -12.88,0.58 -24.69,2.34 -34.57,5.35z"/>
   <path class="fil21" d="M7249.09 39612.92c0,0 -108.18,9.84 -285.02,14.28 -177.39,4.42 -424.04,3.42 -698.99,-18.49 -275.44,-21.94 -578.22,-64.73 -865.1,-143.49 -285.55,-78.38 -552.9,-191.7 -757.93,-353.33 -201.78,-159.1 -270.6,-311.37 -261.6,-449.3 8.85,-135.76 93,-257.71 200.01,-359.38 105.55,-100.29 233.73,-181.24 334.88,-236.85 100.31,-55.17 174.75,-85.79 174.75,-85.79l2159 1632.35z"/>
   <path class="fil21" d="M17340.26 35758.8l-2112.55 -964.14c0,0 64.6,-2.11 173.24,0.05 108.44,2.13 260.63,8.53 436.62,25.57 175.78,17.04 375.71,44.7 580.81,89.55 205.72,44.98 417.82,107.5 618.13,194.66 202.54,88.09 323.78,172.2 391.57,249.2 68.56,77.85 82.38,148.38 70.01,208.11 -12.48,60.31 -51.68,109.43 -87.96,143.59 -36.5,34.36 -69.87,53.41 -69.87,53.41z"/>
   <path class="fil21" d="M7894.49 35682.37c0,0 363.44,-53.21 401.42,336.94 520.75,-106.41 3216.72,-922.15 3216.72,-922.15 141.04,-271.91 -227.83,-360.58 -390.55,-325.09 -162.75,35.46 -2186.07,289.63 -3227.59,910.3z"/>
   <polygon class="fil11" points="28515.35,37968.02 31668.56,38962.68 34489.89,37741.97 34489.89,33492.02 31487.05,32949.48 28390.88,33763.3 "/>
   <polygon class="fil13" points="31668.56,38962.68 31502.62,34396.28 34489.89,33492.02 34489.89,37741.97 "/>
   <polygon class="fil25" points="31502.62,34396.28 28390.88,33763.3 31487.05,32949.48 34489.89,33492.02 "/>
   <path class="fil16" d="M31129.21 36329.07c103.11,955.11 -338.07,1729.36 -985.4,1729.36 -647.33,0 -1255.67,-774.25 -1358.78,-1729.36 -103.12,-955.1 338.06,-1729.35 985.39,-1729.35 647.31,0 1255.67,774.25 1358.79,1729.35z"/>
   <polygon class="fil25" points="32187.2,37719.35 33037.74,34486.7 34282.45,37018.57 "/>
   <polygon class="fil3" points="30195.68,33876.32 30320.17,33537.25 31295.17,33175.53 32249.43,33220.76 32913.27,33582.45 32228.7,33989.36 31232.94,34170.19 "/>
   <polygon class="fil11" points="39033.04,39663.47 35879.82,40658.13 33058.49,39437.41 33058.49,35187.49 36061.33,34644.92 39157.5,35458.75 "/>
   <polygon class="fil18" points="35879.82,40658.13 36045.76,36091.72 33058.49,35187.49 33058.49,39437.41 "/>
   <polygon class="fil25" points="36045.76,36091.72 39157.5,35458.75 36061.33,34644.92 33058.49,35187.49 "/>
   <polygon class="fil16" points="33701.58,39087.02 34448.41,38510.57 35070.76,39460 35164.11,37866.28 35755.33,37255.92 34852.92,37018.57 34635.11,35967.39 34075,37086.38 33265.94,36950.75 33857.16,37832.37 "/>
   <polygon class="fil13" points="36502.16,36611.65 38680.38,36103.02 38587.03,39256.56 36533.28,39697.38 "/>
   <polygon class="fil18" points="34728.46,35323.12 36253.21,34950.11 37186.74,35560.47 "/>
   <path class="fil2" d="M12705.68 42207.05c-654.43,0 -1222.72,-542.39 -1321.96,-1261.62l258.48 -42.42c80.2,581.02 537.36,1019.11 1063.48,1019.11 519.5,0 964.59,-414.4 1058.35,-985.3l257.34 50.17c-116.06,706.93 -669.4,1220.06 -1315.69,1220.06z"/>
   <path class="fil13" d="M14666.1 41538.54c494.54,-577.38 211.94,-2001.59 -1236.3,-1077.78 -1448.25,923.81 -600.49,2155.54 423.9,1578.16l306.11 269.45 188.38 -192.47 82.43 526.08 447.42 -64.15 94.2 513.2 400.31 -89.8c0,0 353.24,410.58 600.51,76.98 270.9,-365.53 -494.54,-898.14 -1306.96,-1539.67zm-1012.6 -307.95l0 0c-415.77,296.26 -682.89,-102.65 -306.11,-436.23 376.78,-333.6 918.39,0 306.11,436.23z"/>
   <path class="fil7" d="M11446.48 40304.17c-1655.39,-299.84 -1453.01,1140.48 -801.99,1487.56 -645.26,1095.3 -1087.38,1801.84 -701.16,2010.73 247.48,133.87 520.17,-369.65 520.17,-369.65l284.56 133.8 143.58 -265.03 -297.52 -194.51 163.38 -262.8 296.26 158.11 131.61 -242.89 -270.97 -176.34 230.43 -455.03 268.07 79.69 154.38 -264.54c1146,141.05 1534.59,-1339.23 -120.8,-1639.1zm43.11 806.15l0 0c-714.81,-169.44 -318.11,-691.68 143.12,-526.56 461.19,165.12 342.28,641.63 -143.12,526.56z"/>
   <path class="fil2" d="M14021.37 40987.09l-257.34 -50.35c11.82,-71.75 17.81,-145.57 17.81,-219.38 0,-200.16 -44.73,-398.43 -129.35,-573.24l231.22 -132.89c104.38,215.56 159.58,459.77 159.58,706.13 0,90.65 -7.37,181.38 -21.92,269.73z"/>
   <path class="fil26" d="M14984.61 40423.16c312.81,-712.43 -348.75,-1978.68 -1476.05,-624.09 -1127.29,1354.62 20.46,2252.58 838.73,1366.99l271.73 103.03 164.84 -243.78 688.97 320.03 -112.05 321.5 553.39 218.13 146.97 -297.36c0,0 500.55,210.42 618.38,-61.89 183.88,-424.99 -565.16,-680.03 -1694.91,-1102.56zm-1050.74 37.2l0 0c-315.1,418.48 -679.71,125.29 -412.11,-316.09 267.61,-441.4 876.13,-300.17 412.11,316.09z"/>
   <path class="fil2" d="M11383.72 40945.43c-10.37,-74.85 -15.64,-151.6 -15.64,-228.07 0,-821.41 600.05,-1489.67 1337.6,-1489.67 492.62,0 944.02,300.23 1178.03,783.49l-231.22 132.99c-188.65,-389.57 -551.45,-631.56 -946.81,-631.56 -593.4,0 -1076.12,540.43 -1076.12,1204.75 0,62.34 4.21,124.76 12.64,185.65l-258.48 42.42z"/>
  </g>
 </g>
</svg>
